<svg width="117" height="56" viewBox="0 0 117 56" fill="none" xmlns="http://www.w3.org/2000/svg">
<rect width="117" height="56" rx="8" fill="url(#paint0_linear_1_50)"/>
<rect x="1.05" y="1.05" width="114.9" height="53.9" rx="6.95" stroke="white" stroke-opacity="0.15" stroke-width="2.1"/>
<g clip-path="url(#clip0_1_50)">
<path d="M45.08 10.7267C44.9033 10.7 44.7 10.905 44.54 11.3883C44.2783 12.1717 42.7517 16.7267 35.3667 18.5983C36.36 19.4517 36.9933 20.6683 36.9933 22.03C36.9933 24.6083 34.7533 26.6967 31.9933 26.6967C29.235 26.6967 26.9983 24.6067 26.9967 22.03C26.9967 21.025 27.3433 20.1 27.9217 19.3367C22.6967 18.8 20.4383 14.1317 20.4383 14.1317L20.2783 21.07C20.2367 22.01 20.2633 22.9217 19.8283 23.7967C19.8009 23.7564 19.7731 23.7164 19.745 23.6767C19.132 22.8236 18.3606 22.1119 17.5202 21.624C16.6798 21.1361 15.8048 20.892 14.9967 20.92C14.3601 20.942 13.7833 21.1322 13.3083 21.4767C12.4615 22.0895 11.9908 23.1527 11.9998 24.4327C12.0089 25.7126 12.497 27.1043 13.3567 28.3017C14.0687 29.2926 14.9915 30.089 15.9828 30.5679C16.9741 31.0469 17.9787 31.1817 18.8417 30.9517C23.8367 34.6517 32.9783 37.865 39.2267 34.0933L35.8517 31.3783C34.0783 31.9533 31.5117 31.945 28.5233 30.8867C33.3567 31.8567 35.9733 30.7983 37.4133 29.6833C37.0333 29.19 36.23 28.8067 36.23 28.8067C36.23 28.8067 37.1683 28.985 37.78 29.6333C38.025 29.8917 38.11 30.2783 38.1433 30.7217C39.065 31.2183 40.115 31.815 41.2683 32.4917C44.7017 29.0583 46.69 22.6033 45.4683 11.4633C45.41 11.015 45.2567 10.755 45.08 10.7267ZM23.425 19.8267C25.1767 19.825 26.5967 21.1517 26.5967 22.7883C26.5967 24.4217 25.175 25.7483 23.425 25.7467C21.675 25.7467 20.2583 24.4217 20.2583 22.7883C20.2583 21.1533 21.675 19.8267 23.425 19.825V19.8267ZM33.0517 20.63C32.7617 20.6298 32.4745 20.6867 32.2064 20.7975C31.9384 20.9082 31.6949 21.0707 31.4896 21.2756C31.2844 21.4805 31.1216 21.7239 31.0104 21.9917C30.8992 22.2595 30.8419 22.5467 30.8417 22.8367C30.8414 23.1267 30.8983 23.4139 31.0091 23.6819C31.1199 23.9499 31.2824 24.1935 31.4873 24.3987C31.6922 24.6039 31.9355 24.7667 32.2034 24.8779C32.4712 24.9891 32.7583 25.0464 33.0483 25.0467C33.634 25.0471 34.1959 24.8149 34.6103 24.401C35.0248 23.9872 35.2579 23.4257 35.2583 22.84C35.2588 22.2543 35.0265 21.6924 34.6127 21.278C34.1989 20.8635 33.6373 20.6304 33.0517 20.63ZM14.815 21.695C14.8161 21.695 14.8172 21.695 14.8183 21.695C14.83 21.6949 14.8417 21.6949 14.8533 21.695C15.0647 21.6948 15.2741 21.7356 15.4695 21.815C15.6648 21.8944 15.8423 22.0109 15.9917 22.1579C16.1411 22.3048 16.2595 22.4793 16.3402 22.6713C16.4208 22.8632 16.4621 23.069 16.4617 23.2767C16.4617 23.4841 16.4201 23.6894 16.3392 23.881C16.2584 24.0726 16.1399 24.2467 15.9905 24.3933C15.8411 24.5399 15.6638 24.6561 15.4687 24.7353C15.2736 24.8145 15.0645 24.8552 14.8533 24.855C14.4278 24.8541 14.02 24.6875 13.7194 24.3916C13.4188 24.0957 13.25 23.6947 13.25 23.2767C13.2485 22.8639 13.4117 22.467 13.7046 22.1711C13.9974 21.8751 14.3966 21.7036 14.8167 21.6933L14.815 21.695ZM24.08 21.9C23.8961 21.9022 23.7145 21.9406 23.5455 22.0129C23.3765 22.0853 23.2234 22.1903 23.0949 22.3218C22.9665 22.4534 22.8652 22.6089 22.7969 22.7796C22.7285 22.9503 22.6945 23.1328 22.6967 23.3167C22.6989 23.5005 22.7372 23.6821 22.8096 23.8512C22.882 24.0202 22.9869 24.1733 23.1185 24.3017C23.25 24.4302 23.4056 24.5315 23.5763 24.5998C23.747 24.6681 23.9295 24.7022 24.1133 24.7C24.4846 24.6956 24.839 24.5438 25.0984 24.2782C25.3578 24.0125 25.5011 23.6546 25.4967 23.2833C25.4922 22.912 25.3405 22.5577 25.0748 22.2983C24.8092 22.0388 24.4513 21.8956 24.08 21.9ZM37.8467 30.1733C37.775 30.2617 37.675 30.3383 37.5867 30.4183L37.9367 30.61C37.9083 30.4433 37.8817 30.26 37.8467 30.1733ZM36.93 30.34L35.7083 30.9417L35.8083 31.025L36.1383 31.2867L39.4617 33.9633L39.4867 33.9833C40.5583 34.8402 41.6429 35.6809 42.74 36.505C42.7273 36.5748 42.7228 36.6458 42.7267 36.7167L43.16 36.65L43.3317 36.9033L47.1933 39.3567C46.9933 40.04 47.085 40.945 47.5383 41.785C48.855 44.2267 52 45.275 52 45.275C50.715 41.995 51.6517 39.3267 49.1167 38.3867C48.7133 38.2367 48.3617 38.2317 48.0683 38.3317L44.6567 35.1733L44.3667 35.0867L44.325 34.65C44.2558 34.6774 44.1889 34.7103 44.125 34.7483C43.615 34.315 42.98 33.8533 42.3083 33.39C40.035 31.9983 38.5467 31.2233 36.9283 30.34H36.93Z" fill="#968D77"/>
</g>
<g filter="url(#filter0_d_1_50)">
<path d="M69.0494 25.6751C68.9809 25.4215 68.8803 25.1981 68.7475 25.005C68.6147 24.8078 68.4517 24.6407 68.2585 24.5039C68.0653 24.3671 67.844 24.2644 67.5945 24.196C67.3449 24.1236 67.0713 24.0874 66.7734 24.0874C66.1738 24.0874 65.6546 24.2322 65.2159 24.522C64.7812 24.8118 64.4452 25.2344 64.2077 25.7898C63.9703 26.3411 63.8516 27.0112 63.8516 27.8001C63.8516 28.5929 63.9663 29.2691 64.1957 29.8285C64.4251 30.3879 64.7571 30.8145 65.1918 31.1083C65.6264 31.4021 66.1536 31.549 66.7734 31.549C67.3208 31.549 67.7836 31.4605 68.1619 31.2834C68.5443 31.1023 68.834 30.8467 69.0312 30.5167C69.2284 30.1867 69.327 29.7983 69.327 29.3516L69.8824 29.418H66.8761V27.2386H72.2067V28.8746C72.2067 29.9814 71.9712 30.9292 71.5003 31.718C71.0335 32.5069 70.3895 33.1126 69.5685 33.5352C68.7515 33.9577 67.8118 34.169 66.7493 34.169C65.5701 34.169 64.5337 33.9135 63.6403 33.4023C62.7468 32.8912 62.0505 32.1628 61.5515 31.217C61.0524 30.2672 60.8029 29.1403 60.8029 27.8363C60.8029 26.8221 60.9538 25.9226 61.2557 25.1378C61.5575 24.349 61.9781 23.6809 62.5174 23.1335C63.0607 22.5862 63.6886 22.1716 64.4009 21.8899C65.1173 21.6082 65.888 21.4673 66.7131 21.4673C67.4294 21.4673 68.0955 21.57 68.7113 21.7752C69.3311 21.9805 69.8784 22.2702 70.3533 22.6445C70.8323 23.0188 71.2206 23.4635 71.5185 23.9787C71.8163 24.4938 72.0014 25.0593 72.0739 25.6751H69.0494ZM76.9562 21.6364V34H73.9679V21.6364H76.9562ZM78.8322 21.6364H82.5328L85.672 29.2912H85.8169L88.9561 21.6364H92.6568V34H89.747V26.4055H89.6443L86.6742 33.9215H84.8148L81.8446 26.3633H81.742V34H78.8322V21.6364ZM94.5207 34V21.6364H99.6279C100.554 21.6364 101.352 21.8175 102.025 22.1797C102.701 22.5379 103.222 23.0389 103.588 23.6829C103.954 24.3228 104.137 25.0673 104.137 25.9165C104.137 26.7698 103.95 27.5163 103.576 28.1562C103.206 28.7921 102.677 29.2852 101.988 29.6353C101.3 29.9854 100.483 30.1605 99.5374 30.1605H96.3861V27.8061H98.982C99.4327 27.8061 99.809 27.7276 100.111 27.5707C100.417 27.4137 100.648 27.1944 100.805 26.9126C100.962 26.6269 101.041 26.2949 101.041 25.9165C101.041 25.5342 100.962 25.2042 100.805 24.9265C100.648 24.6448 100.417 24.4274 100.111 24.2745C99.805 24.1216 99.4287 24.0451 98.982 24.0451H97.5089V34H94.5207Z" fill="#9D9682"/>
</g>
<defs>
<filter id="filter0_d_1_50" x="54.4" y="13.4" width="56.2" height="29.2" filterUnits="userSpaceOnUse" color-interpolation-filters="sRGB">
<feFlood flood-opacity="0" result="BackgroundImageFix"/>
<feColorMatrix in="SourceAlpha" type="matrix" values="0 0 0 0 0 0 0 0 0 0 0 0 0 0 0 0 0 0 127 0" result="hardAlpha"/>
<feOffset/>
<feGaussianBlur stdDeviation="2.8"/>
<feComposite in2="hardAlpha" operator="out"/>
<feColorMatrix type="matrix" values="0 0 0 0 0 0 0 0 0 0 0 0 0 0 0 0 0 0 0.25 0"/>
<feBlend mode="normal" in2="BackgroundImageFix" result="effect1_dropShadow_1_50"/>
<feBlend mode="normal" in="SourceGraphic" in2="effect1_dropShadow_1_50" result="shape"/>
</filter>
<linearGradient id="paint0_linear_1_50" x1="58.5" y1="0" x2="58.5" y2="56" gradientUnits="userSpaceOnUse">
<stop stop-color="#5C5543"/>
<stop offset="1" stop-color="#2E2A1F"/>
</linearGradient>
<clipPath id="clip0_1_50">
<rect width="40" height="40" fill="white" transform="translate(12 8)"/>
</clipPath>
</defs>
</svg>
