<svg width="200" height="56" viewBox="0 0 200 56" fill="none" xmlns="http://www.w3.org/2000/svg">
<rect width="200" height="56" rx="8" fill="url(#paint0_linear_1_50)"/>
<rect x="1.05" y="1.05" width="197.9" height="53.9" rx="6.95" stroke="white" stroke-opacity="0.15" stroke-width="2.1"/>
<g clip-path="url(#clip0_1_50)">
<g clip-path="url(#clip1_1_50)">
<g clip-path="url(#clip2_1_50)">
<g clip-path="url(#clip3_1_50)">
<g clip-path="url(#clip4_1_50)">
<g clip-path="url(#clip5_1_50)">
<g clip-path="url(#clip6_1_50)">
<g clip-path="url(#clip7_1_50)">
<path d="M39.6535 23.327C39.6535 23.327 39.0635 17.8303 33.6085 17.677C28.1517 17.527 25.3498 21.8003 25.3498 27.9103C25.3498 34.0188 28.4465 38.9057 33.7583 38.9057C39.065 38.9057 39.6552 32.7973 39.6552 32.7973L49.8287 33.4057C49.8287 33.4057 50.4287 38.9223 46.1687 43.1323C41.9153 47.3392 36.6852 48.0275 33.0417 47.9992C29.3917 47.9708 24.3315 48.0558 19.4413 43.0492C14.5447 38.0323 13.7147 33.1655 13.7147 28.3822C13.7147 23.5987 14.6413 17.2652 20.4597 12.4652C24.4067 9.2 28.415 8 32.4233 8C49.1603 8 50.2853 23.4337 50.2853 23.4337L39.6535 23.327Z" fill="#A8B9CC"/>
</g>
</g>
</g>
</g>
</g>
</g>
</g>
</g>
<g filter="url(#filter0_d_1_50)">
<g filter="url(#filter1_d_1_50)">
<path d="M60.9357 21.6364H64.6364L67.7756 29.2912H67.9204L71.0596 21.6364H74.7603V34H71.8505V26.4055H71.7479L68.7777 33.9215H66.9183L63.9481 26.3633H63.8455V34H60.9357V21.6364ZM79.2382 34.157C78.6466 34.157 78.1213 34.0584 77.6625 33.8611C77.2078 33.6599 76.8476 33.3581 76.5819 32.9556C76.3203 32.5491 76.1895 32.04 76.1895 31.4283C76.1895 30.9131 76.2801 30.4785 76.4612 30.1243C76.6423 29.7701 76.8918 29.4824 77.2098 29.261C77.5277 29.0396 77.894 28.8726 78.3085 28.7599C78.723 28.6432 79.1657 28.5647 79.6366 28.5245C80.1638 28.4762 80.5884 28.4259 80.9104 28.3736C81.2324 28.3172 81.4658 28.2388 81.6107 28.1381C81.7596 28.0335 81.8341 27.8866 81.8341 27.6974V27.6673C81.8341 27.3574 81.7274 27.1179 81.5141 26.9489C81.3008 26.7798 81.013 26.6953 80.6508 26.6953C80.2604 26.6953 79.9465 26.7798 79.7091 26.9489C79.4716 27.1179 79.3207 27.3513 79.2563 27.6491L76.5336 27.5526C76.6141 26.9891 76.8214 26.486 77.1554 26.0433C77.4935 25.5966 77.9563 25.2464 78.5439 24.9929C79.1356 24.7353 79.8459 24.6065 80.675 24.6065C81.2666 24.6065 81.8119 24.677 82.311 24.8178C82.81 24.9547 83.2447 25.1559 83.615 25.4215C83.9852 25.6831 84.271 26.0051 84.4722 26.3874C84.6775 26.7698 84.7801 27.2064 84.7801 27.6974V34H82.0031V32.7081H81.9306C81.7656 33.022 81.5543 33.2876 81.2968 33.505C81.0432 33.7223 80.7434 33.8853 80.3973 33.994C80.0552 34.1026 79.6688 34.157 79.2382 34.157ZM80.1498 32.2251C80.4677 32.2251 80.7534 32.1607 81.007 32.032C81.2646 31.9032 81.4698 31.7261 81.6228 31.5007C81.7757 31.2713 81.8522 31.0057 81.8522 30.7038V29.8224C81.7677 29.8667 81.665 29.907 81.5443 29.9432C81.4276 29.9794 81.2988 30.0136 81.1579 30.0458C81.0171 30.078 80.8722 30.1062 80.7233 30.1303C80.5744 30.1545 80.4315 30.1766 80.2946 30.1967C80.0169 30.241 79.7795 30.3094 79.5823 30.402C79.3891 30.4945 79.2402 30.6153 79.1356 30.7642C79.0349 30.9091 78.9846 31.0821 78.9846 31.2834C78.9846 31.5892 79.0933 31.8227 79.3106 31.9837C79.532 32.1446 79.8117 32.2251 80.1498 32.2251ZM89.9718 34.1328C89.2877 34.1328 88.6659 33.9557 88.1064 33.6016C87.547 33.2474 87.1003 32.7161 86.7662 32.0078C86.4322 31.2995 86.2652 30.4201 86.2652 29.3697C86.2652 28.279 86.4382 27.3815 86.7843 26.6772C87.1305 25.9729 87.5832 25.4517 88.1427 25.1136C88.7061 24.7756 89.3118 24.6065 89.9598 24.6065C90.4467 24.6065 90.8633 24.691 91.2094 24.8601C91.5555 25.0251 91.8413 25.2384 92.0667 25.5C92.292 25.7616 92.4631 26.0333 92.5798 26.315H92.6402V21.6364H95.5922V34H92.6703V32.4968H92.5798C92.455 32.7825 92.2779 33.0502 92.0485 33.2997C91.8191 33.5492 91.5314 33.7505 91.1853 33.9034C90.8432 34.0563 90.4387 34.1328 89.9718 34.1328ZM90.9981 31.8327C91.3563 31.8327 91.6622 31.7321 91.9157 31.5309C92.1693 31.3256 92.3645 31.0379 92.5013 30.6676C92.6382 30.2973 92.7066 29.8627 92.7066 29.3636C92.7066 28.8565 92.6382 28.4199 92.5013 28.0536C92.3685 27.6874 92.1733 27.4057 91.9157 27.2084C91.6622 27.0112 91.3563 26.9126 90.9981 26.9126C90.6319 26.9126 90.322 27.0133 90.0684 27.2145C89.8149 27.4157 89.6217 27.6995 89.4889 28.0657C89.3601 28.4319 89.2957 28.8646 89.2957 29.3636C89.2957 29.8627 89.3621 30.2973 89.4949 30.6676C89.6277 31.0379 89.8189 31.3256 90.0684 31.5309C90.322 31.7321 90.6319 31.8327 90.9981 31.8327ZM101.794 34.1751C100.824 34.1751 99.9866 33.9839 99.2823 33.6016C98.582 33.2152 98.0427 32.6658 97.6644 31.9535C97.2901 31.2371 97.103 30.3859 97.103 29.3999C97.103 28.442 97.2921 27.6049 97.6704 26.8885C98.0487 26.1681 98.582 25.6087 99.2702 25.2102C99.9584 24.8078 100.769 24.6065 101.703 24.6065C102.363 24.6065 102.967 24.7092 103.514 24.9144C104.062 25.1197 104.534 25.4235 104.933 25.826C105.331 26.2285 105.641 26.7255 105.863 27.3171C106.084 27.9047 106.195 28.5788 106.195 29.3395V30.076H98.1353V28.3615H103.448C103.444 28.0476 103.369 27.7679 103.224 27.5224C103.08 27.2769 102.88 27.0857 102.627 26.9489C102.377 26.808 102.089 26.7376 101.763 26.7376C101.433 26.7376 101.138 26.812 100.876 26.9609C100.614 27.1058 100.407 27.305 100.254 27.5586C100.101 27.8081 100.021 28.0919 100.013 28.4098V30.1545C100.013 30.5328 100.087 30.8648 100.236 31.1506C100.385 31.4323 100.596 31.6516 100.87 31.8086C101.144 31.9655 101.47 32.044 101.848 32.044C102.11 32.044 102.347 32.0078 102.56 31.9354C102.774 31.8629 102.957 31.7563 103.11 31.6154C103.263 31.4745 103.377 31.3015 103.454 31.0962L106.164 31.1747C106.052 31.7824 105.804 32.3117 105.422 32.7624C105.044 33.2092 104.546 33.5573 103.931 33.8068C103.315 34.0523 102.603 34.1751 101.794 34.1751ZM113.087 34L110.672 24.7273H113.637L114.886 30.6676H114.965L116.305 24.7273H119.197L120.573 30.6253H120.652L121.865 24.7273H124.829L122.408 34H119.251L117.802 28.5969H117.699L116.251 34H113.087ZM126.014 34V24.7273H128.966V34H126.014ZM127.493 23.6467C127.078 23.6467 126.722 23.5098 126.424 23.2361C126.127 22.9584 125.978 22.6244 125.978 22.234C125.978 21.8477 126.127 21.5176 126.424 21.244C126.722 20.9663 127.078 20.8274 127.493 20.8274C127.911 20.8274 128.268 20.9663 128.561 21.244C128.859 21.5176 129.008 21.8477 129.008 22.234C129.008 22.6244 128.859 22.9584 128.561 23.2361C128.268 23.5098 127.911 23.6467 127.493 23.6467ZM136.079 24.7273V26.9006H130.229V24.7273H136.079ZM131.455 22.5057H134.407V31.0842C134.407 31.2653 134.435 31.4122 134.491 31.5249C134.552 31.6335 134.638 31.712 134.751 31.7603C134.863 31.8046 134.998 31.8267 135.155 31.8267C135.268 31.8267 135.387 31.8166 135.511 31.7965C135.64 31.7724 135.737 31.7522 135.801 31.7361L136.248 33.8672C136.107 33.9074 135.908 33.9577 135.65 34.0181C135.397 34.0785 135.093 34.1167 134.739 34.1328C134.046 34.165 133.453 34.0845 132.958 33.8913C132.467 33.6941 132.09 33.3883 131.829 32.9737C131.571 32.5592 131.447 32.038 131.455 31.4102V22.5057ZM140.736 28.7116V34H137.784V21.6364H140.64V26.4297H140.742C140.952 25.8582 141.294 25.4115 141.769 25.0895C142.248 24.7675 142.833 24.6065 143.525 24.6065C144.177 24.6065 144.745 24.7514 145.228 25.0412C145.711 25.3269 146.085 25.7314 146.351 26.2546C146.62 26.7778 146.753 27.3896 146.749 28.0898V34H143.797V28.6694C143.801 28.1542 143.672 27.7518 143.411 27.462C143.149 27.1722 142.781 27.0273 142.306 27.0273C141.996 27.0273 141.722 27.0958 141.485 27.2326C141.252 27.3654 141.068 27.5566 140.936 27.8061C140.807 28.0556 140.74 28.3575 140.736 28.7116ZM163.467 26.1158H160.448C160.408 25.8059 160.326 25.5262 160.201 25.2766C160.076 25.0271 159.911 24.8138 159.706 24.6367C159.501 24.4596 159.257 24.3248 158.975 24.2322C158.698 24.1356 158.39 24.0874 158.052 24.0874C157.452 24.0874 156.935 24.2343 156.5 24.5281C156.07 24.8218 155.738 25.2464 155.504 25.8018C155.275 26.3572 155.16 27.0294 155.16 27.8182C155.16 28.6392 155.277 29.3274 155.51 29.8828C155.748 30.4342 156.08 30.8507 156.506 31.1325C156.937 31.4102 157.446 31.549 158.034 31.549C158.364 31.549 158.664 31.5067 158.933 31.4222C159.207 31.3377 159.446 31.215 159.652 31.054C159.861 30.889 160.032 30.6897 160.165 30.4563C160.302 30.2189 160.396 29.9512 160.448 29.6534L163.467 29.6715C163.415 30.2189 163.256 30.7582 162.99 31.2894C162.728 31.8207 162.368 32.3056 161.909 32.7443C161.451 33.179 160.891 33.5251 160.231 33.7827C159.575 34.0402 158.823 34.169 157.973 34.169C156.854 34.169 155.852 33.9235 154.967 33.4325C154.086 32.9375 153.389 32.2171 152.878 31.2713C152.367 30.3255 152.111 29.1745 152.111 27.8182C152.111 26.4579 152.371 25.3048 152.89 24.359C153.409 23.4132 154.112 22.6948 154.997 22.2038C155.883 21.7128 156.875 21.4673 157.973 21.4673C158.722 21.4673 159.414 21.572 160.05 21.7812C160.686 21.9865 161.245 22.2883 161.728 22.6868C162.211 23.0812 162.604 23.5662 162.906 24.1417C163.207 24.7172 163.394 25.3752 163.467 26.1158ZM169.807 21.4673C170.483 21.4673 171.129 21.578 171.745 21.7994C172.361 22.0167 172.91 22.3648 173.393 22.8437C173.876 23.3187 174.256 23.9445 174.534 24.7212C174.812 25.498 174.951 26.4458 174.951 27.5646C174.955 28.5949 174.834 29.5186 174.588 30.3356C174.343 31.1486 173.991 31.8408 173.532 32.4123C173.077 32.9838 172.53 33.4204 171.89 33.7223C171.25 34.0201 170.536 34.169 169.747 34.169C168.878 34.169 168.111 34.002 167.447 33.668C166.787 33.3299 166.258 32.8751 165.859 32.3036C165.465 31.7321 165.229 31.0922 165.153 30.3839H168.093C168.185 30.7944 168.38 31.1043 168.678 31.3136C168.976 31.5188 169.332 31.6214 169.747 31.6214C170.503 31.6214 171.069 31.2934 171.443 30.6374C171.818 29.9814 172.005 29.09 172.005 27.9631H171.932C171.759 28.3333 171.514 28.6513 171.196 28.9169C170.882 29.1825 170.518 29.3858 170.103 29.5266C169.688 29.6675 169.252 29.7379 168.793 29.7379C168.052 29.7379 167.398 29.5689 166.831 29.2308C166.268 28.8928 165.825 28.4279 165.503 27.8363C165.185 27.2447 165.024 26.5685 165.02 25.8079C165.016 24.9547 165.215 24.2021 165.618 23.5501C166.02 22.8941 166.581 22.3829 167.302 22.0167C168.022 21.6464 168.857 21.4633 169.807 21.4673ZM169.825 23.7614C169.455 23.7614 169.125 23.8479 168.835 24.0209C168.55 24.194 168.324 24.4274 168.159 24.7212C167.994 25.015 167.914 25.345 167.918 25.7113C167.922 26.0775 168.004 26.4075 168.165 26.7013C168.33 26.9951 168.554 27.2286 168.835 27.4016C169.121 27.5747 169.447 27.6612 169.813 27.6612C170.087 27.6612 170.34 27.6109 170.574 27.5103C170.807 27.4097 171.011 27.2708 171.184 27.0937C171.357 26.9126 171.492 26.7034 171.588 26.4659C171.689 26.2285 171.737 25.9749 171.733 25.7053C171.729 25.3471 171.644 25.0211 171.479 24.7273C171.314 24.4335 171.087 24.2 170.797 24.027C170.512 23.8499 170.188 23.7614 169.825 23.7614ZM181.246 21.4673C181.922 21.4673 182.568 21.578 183.184 21.7994C183.799 22.0167 184.349 22.3648 184.832 22.8437C185.315 23.3187 185.695 23.9445 185.973 24.7212C186.25 25.498 186.389 26.4458 186.389 27.5646C186.393 28.5949 186.272 29.5186 186.027 30.3356C185.781 31.1486 185.429 31.8408 184.97 32.4123C184.516 32.9838 183.968 33.4204 183.328 33.7223C182.689 34.0201 181.974 34.169 181.185 34.169C180.316 34.169 179.549 34.002 178.885 33.668C178.225 33.3299 177.696 32.8751 177.298 32.3036C176.903 31.7321 176.668 31.0922 176.591 30.3839H179.531C179.624 30.7944 179.819 31.1043 180.117 31.3136C180.415 31.5188 180.771 31.6214 181.185 31.6214C181.942 31.6214 182.507 31.2934 182.882 30.6374C183.256 29.9814 183.443 29.09 183.443 27.9631H183.371C183.198 28.3333 182.952 28.6513 182.634 28.9169C182.32 29.1825 181.956 29.3858 181.542 29.5266C181.127 29.6675 180.69 29.7379 180.231 29.7379C179.491 29.7379 178.837 29.5689 178.269 29.2308C177.706 28.8928 177.263 28.4279 176.941 27.8363C176.623 27.2447 176.462 26.5685 176.458 25.8079C176.454 24.9547 176.654 24.2021 177.056 23.5501C177.459 22.8941 178.02 22.3829 178.74 22.0167C179.461 21.6464 180.296 21.4633 181.246 21.4673ZM181.264 23.7614C180.894 23.7614 180.564 23.8479 180.274 24.0209C179.988 24.194 179.763 24.4274 179.598 24.7212C179.433 25.015 179.352 25.345 179.356 25.7113C179.36 26.0775 179.443 26.4075 179.604 26.7013C179.769 26.9951 179.992 27.2286 180.274 27.4016C180.559 27.5747 180.885 27.6612 181.252 27.6612C181.525 27.6612 181.779 27.6109 182.012 27.5103C182.246 27.4097 182.449 27.2708 182.622 27.0937C182.795 26.9126 182.93 26.7034 183.027 26.4659C183.127 26.2285 183.176 25.9749 183.171 25.7053C183.167 25.3471 183.083 25.0211 182.918 24.7273C182.753 24.4335 182.526 24.2 182.236 24.027C181.95 23.8499 181.626 23.7614 181.264 23.7614Z" fill="#A8B9CC"/>
</g>
</g>
<defs>
<filter id="filter0_d_1_50" x="54.4" y="13.4" width="139.2" height="29.2" filterUnits="userSpaceOnUse" color-interpolation-filters="sRGB">
<feFlood flood-opacity="0" result="BackgroundImageFix"/>
<feColorMatrix in="SourceAlpha" type="matrix" values="0 0 0 0 0 0 0 0 0 0 0 0 0 0 0 0 0 0 127 0" result="hardAlpha"/>
<feOffset/>
<feGaussianBlur stdDeviation="2.8"/>
<feComposite in2="hardAlpha" operator="out"/>
<feColorMatrix type="matrix" values="0 0 0 0 0 0 0 0 0 0 0 0 0 0 0 0 0 0 0.25 0"/>
<feBlend mode="normal" in2="BackgroundImageFix" result="effect1_dropShadow_1_50"/>
<feBlend mode="normal" in="SourceGraphic" in2="effect1_dropShadow_1_50" result="shape"/>
</filter>
<filter id="filter1_d_1_50" x="56.9357" y="20.8274" width="133.459" height="21.3537" filterUnits="userSpaceOnUse" color-interpolation-filters="sRGB">
<feFlood flood-opacity="0" result="BackgroundImageFix"/>
<feColorMatrix in="SourceAlpha" type="matrix" values="0 0 0 0 0 0 0 0 0 0 0 0 0 0 0 0 0 0 127 0" result="hardAlpha"/>
<feOffset dy="4"/>
<feGaussianBlur stdDeviation="2"/>
<feComposite in2="hardAlpha" operator="out"/>
<feColorMatrix type="matrix" values="0 0 0 0 0 0 0 0 0 0 0 0 0 0 0 0 0 0 0.25 0"/>
<feBlend mode="normal" in2="BackgroundImageFix" result="effect1_dropShadow_1_50"/>
<feBlend mode="normal" in="SourceGraphic" in2="effect1_dropShadow_1_50" result="shape"/>
</filter>
<linearGradient id="paint0_linear_1_50" x1="100" y1="0" x2="100" y2="56" gradientUnits="userSpaceOnUse">
<stop stop-color="#1D638A"/>
<stop offset="1" stop-color="#0C193C"/>
</linearGradient>
<clipPath id="clip0_1_50">
<rect width="40" height="40" fill="white" transform="translate(12 8)"/>
</clipPath>
<clipPath id="clip1_1_50">
<rect width="40" height="40" fill="white" transform="translate(12 8)"/>
</clipPath>
<clipPath id="clip2_1_50">
<rect width="40" height="40" fill="white" transform="translate(12 8)"/>
</clipPath>
<clipPath id="clip3_1_50">
<rect width="40" height="40" fill="white" transform="translate(12 8)"/>
</clipPath>
<clipPath id="clip4_1_50">
<rect width="40" height="40" fill="white" transform="translate(12 8)"/>
</clipPath>
<clipPath id="clip5_1_50">
<rect width="40" height="40" fill="white" transform="translate(12 8)"/>
</clipPath>
<clipPath id="clip6_1_50">
<rect width="40" height="40" fill="white" transform="translate(12 8)"/>
</clipPath>
<clipPath id="clip7_1_50">
<rect width="40" height="40" fill="white" transform="translate(12 8)"/>
</clipPath>
</defs>
</svg>
