<svg width="212" height="56" viewBox="0 0 212 56" fill="none" xmlns="http://www.w3.org/2000/svg">
<rect width="212" height="56" rx="8" fill="url(#paint0_linear_1_50)"/>
<rect x="1.05" y="1.05" width="209.9" height="53.9" rx="6.95" stroke="white" stroke-opacity="0.15" stroke-width="2.1"/>
<g clip-path="url(#clip0_1_50)">
<g clip-path="url(#clip1_1_50)">
<g clip-path="url(#clip2_1_50)">
<g clip-path="url(#clip3_1_50)">
<g clip-path="url(#clip4_1_50)">
<path d="M45.3333 31.3333H18.6667C16.8257 31.3333 15.3333 32.8257 15.3333 34.6667V41.3333C15.3333 43.1743 16.8257 44.6667 18.6667 44.6667H45.3333C47.1743 44.6667 48.6667 43.1743 48.6667 41.3333V34.6667C48.6667 32.8257 47.1743 31.3333 45.3333 31.3333Z" stroke="#E040BD" stroke-width="2" stroke-linecap="round" stroke-linejoin="round"/>
<path d="M22.0167 38H22" stroke="#E040BD" stroke-width="2" stroke-linecap="round" stroke-linejoin="round"/>
<path d="M28.6833 38H28.6667" stroke="#E040BD" stroke-width="2" stroke-linecap="round" stroke-linejoin="round"/>
<path d="M37 24.6667V31.3333" stroke="#E040BD" stroke-width="2" stroke-linecap="round" stroke-linejoin="round"/>
<path d="M41.7333 19.95C41.1142 19.3302 40.3789 18.8384 39.5696 18.5029C38.7603 18.1674 37.8928 17.9948 37.0167 17.9948C36.1406 17.9948 35.2731 18.1674 34.4637 18.5029C33.6544 18.8384 32.9192 19.3302 32.3 19.95" stroke="#E040BD" stroke-width="2" stroke-linecap="round" stroke-linejoin="round"/>
<path d="M46.4333 15.2333C43.9331 12.7347 40.543 11.3312 37.0083 11.3312C33.4736 11.3312 30.0836 12.7347 27.5833 15.2333" stroke="#E040BD" stroke-width="2" stroke-linecap="round" stroke-linejoin="round"/>
</g>
</g>
</g>
</g>
</g>
<g filter="url(#filter0_d_1_50)">
<path d="M63.924 21.6364V34H60.9357V21.6364H63.924ZM77.0226 26.1158H74.0042C73.9639 25.8059 73.8814 25.5262 73.7566 25.2766C73.6319 25.0271 73.4669 24.8138 73.2616 24.6367C73.0564 24.4596 72.8129 24.3248 72.5312 24.2322C72.2535 24.1356 71.9456 24.0874 71.6075 24.0874C71.0078 24.0874 70.4907 24.2343 70.056 24.5281C69.6254 24.8218 69.2933 25.2464 69.0599 25.8018C68.8305 26.3572 68.7158 27.0294 68.7158 27.8182C68.7158 28.6392 68.8325 29.3274 69.066 29.8828C69.3034 30.4342 69.6354 30.8507 70.062 31.1325C70.4927 31.4102 71.0018 31.549 71.5894 31.549C71.9194 31.549 72.2192 31.5067 72.4889 31.4222C72.7626 31.3377 73.002 31.215 73.2073 31.054C73.4166 30.889 73.5876 30.6897 73.7204 30.4563C73.8573 30.2189 73.9518 29.9512 74.0042 29.6534L77.0226 29.6715C76.9703 30.2189 76.8113 30.7582 76.5457 31.2894C76.2841 31.8207 75.9239 32.3056 75.4651 32.7443C75.0063 33.179 74.4469 33.5251 73.7868 33.7827C73.1308 34.0402 72.3782 34.169 71.529 34.169C70.4102 34.169 69.408 33.9235 68.5226 33.4325C67.6412 32.9375 66.945 32.2171 66.4339 31.2713C65.9227 30.3255 65.6672 29.1745 65.6672 27.8182C65.6672 26.4579 65.9267 25.3048 66.4459 24.359C66.9651 23.4132 67.6674 22.6948 68.5528 22.2038C69.4382 21.7128 70.4303 21.4673 71.529 21.4673C72.2776 21.4673 72.9698 21.572 73.6057 21.7812C74.2416 21.9865 74.801 22.2883 75.284 22.6868C75.7669 23.0812 76.1593 23.5662 76.4612 24.1417C76.763 24.7172 76.9502 25.3752 77.0226 26.1158ZM78.7326 21.6364H82.4332L85.5724 29.2912H85.7173L88.8565 21.6364H92.5572V34H89.6474V26.4055H89.5447L86.5746 33.9215H84.7152L81.745 26.3633H81.6424V34H78.7326V21.6364ZM94.4211 34V21.6364H99.5283C100.454 21.6364 101.253 21.8175 101.925 22.1797C102.601 22.5379 103.122 23.0389 103.489 23.6829C103.855 24.3228 104.038 25.0673 104.038 25.9165C104.038 26.7698 103.851 27.5163 103.476 28.1562C103.106 28.7921 102.577 29.2852 101.889 29.6353C101.201 29.9854 100.384 30.1605 99.4377 30.1605H96.2865V27.8061H98.8823C99.3331 27.8061 99.7094 27.7276 100.011 27.5707C100.317 27.4137 100.549 27.1944 100.706 26.9126C100.862 26.6269 100.941 26.2949 100.941 25.9165C100.941 25.5342 100.862 25.2042 100.706 24.9265C100.549 24.6448 100.317 24.4274 100.011 24.2745C99.7054 24.1216 99.3291 24.0451 98.8823 24.0451H97.4093V34H94.4211ZM111.279 26.6832V28.9531H105.556V26.6832H111.279ZM113.363 34V21.6364H121.984V24.0632H116.352V26.5987H121.543V29.0316H116.352V31.5731H121.984V34H113.363ZM126.367 24.7273L127.894 27.782L129.476 24.7273H132.452L129.862 29.3636L132.549 34H129.597L127.894 30.9212L126.234 34H123.24L125.932 29.3636L123.373 24.7273H126.367ZM139.034 24.7273V26.9006H133.184V24.7273H139.034ZM134.41 22.5057H137.362V31.0842C137.362 31.2653 137.39 31.4122 137.446 31.5249C137.507 31.6335 137.593 31.712 137.706 31.7603C137.819 31.8046 137.953 31.8267 138.11 31.8267C138.223 31.8267 138.342 31.8166 138.466 31.7965C138.595 31.7724 138.692 31.7522 138.756 31.7361L139.203 33.8672C139.062 33.9074 138.863 33.9577 138.605 34.0181C138.352 34.0785 138.048 34.1167 137.694 34.1328C137.002 34.165 136.408 34.0845 135.913 33.8913C135.422 33.6941 135.046 33.3883 134.784 32.9737C134.526 32.5592 134.402 32.038 134.41 31.4102V22.5057ZM140.54 34V24.7273H143.408V26.4176H143.504C143.673 25.8059 143.949 25.3511 144.331 25.0533C144.714 24.7514 145.158 24.6005 145.666 24.6005C145.802 24.6005 145.943 24.6106 146.088 24.6307C146.233 24.6468 146.368 24.6729 146.493 24.7092V27.2749C146.352 27.2266 146.167 27.1883 145.937 27.1602C145.712 27.132 145.511 27.1179 145.334 27.1179C144.983 27.1179 144.667 27.1964 144.386 27.3533C144.108 27.5063 143.889 27.7216 143.728 27.9993C143.571 28.273 143.492 28.5949 143.492 28.9652V34H140.54ZM149.961 34.157C149.369 34.157 148.844 34.0584 148.385 33.8611C147.93 33.6599 147.57 33.3581 147.305 32.9556C147.043 32.5491 146.912 32.04 146.912 31.4283C146.912 30.9131 147.003 30.4785 147.184 30.1243C147.365 29.7701 147.614 29.4824 147.932 29.261C148.25 29.0396 148.617 28.8726 149.031 28.7599C149.446 28.6432 149.888 28.5647 150.359 28.5245C150.886 28.4762 151.311 28.4259 151.633 28.3736C151.955 28.3172 152.188 28.2388 152.333 28.1381C152.482 28.0335 152.557 27.8866 152.557 27.6974V27.6673C152.557 27.3574 152.45 27.1179 152.237 26.9489C152.023 26.7798 151.736 26.6953 151.373 26.6953C150.983 26.6953 150.669 26.7798 150.432 26.9489C150.194 27.1179 150.043 27.3513 149.979 27.6491L147.256 27.5526C147.337 26.9891 147.544 26.486 147.878 26.0433C148.216 25.5966 148.679 25.2464 149.267 24.9929C149.858 24.7353 150.569 24.6065 151.398 24.6065C151.989 24.6065 152.535 24.677 153.034 24.8178C153.533 24.9547 153.967 25.1559 154.338 25.4215C154.708 25.6831 154.994 26.0051 155.195 26.3874C155.4 26.7698 155.503 27.2064 155.503 27.6974V34H152.726V32.7081H152.653C152.488 33.022 152.277 33.2876 152.019 33.505C151.766 33.7223 151.466 33.8853 151.12 33.994C150.778 34.1026 150.391 34.157 149.961 34.157ZM150.872 32.2251C151.19 32.2251 151.476 32.1607 151.73 32.032C151.987 31.9032 152.192 31.7261 152.345 31.5007C152.498 31.2713 152.575 31.0057 152.575 30.7038V29.8224C152.49 29.8667 152.388 29.907 152.267 29.9432C152.15 29.9794 152.021 30.0136 151.881 30.0458C151.74 30.078 151.595 30.1062 151.446 30.1303C151.297 30.1545 151.154 30.1766 151.017 30.1967C150.74 30.241 150.502 30.3094 150.305 30.402C150.112 30.4945 149.963 30.6153 149.858 30.7642C149.758 30.9091 149.707 31.0821 149.707 31.2834C149.707 31.5892 149.816 31.8227 150.033 31.9837C150.255 32.1446 150.534 32.2251 150.872 32.2251ZM161.636 34.1751C160.658 34.1751 159.819 33.9738 159.119 33.5714C158.423 33.1689 157.887 32.6095 157.513 31.8931C157.139 31.1727 156.952 30.3396 156.952 29.3938C156.952 28.444 157.139 27.6109 157.513 26.8945C157.891 26.1741 158.429 25.6127 159.125 25.2102C159.825 24.8078 160.66 24.6065 161.63 24.6065C162.487 24.6065 163.234 24.7615 163.87 25.0714C164.51 25.3813 165.009 25.82 165.367 26.3874C165.729 26.9509 165.92 27.6129 165.941 28.3736H163.182C163.125 27.8987 162.964 27.5264 162.699 27.2567C162.437 26.9871 162.095 26.8523 161.672 26.8523C161.33 26.8523 161.031 26.9489 160.773 27.142C160.515 27.3312 160.314 27.6129 160.169 27.9872C160.028 28.3575 159.958 28.8163 159.958 29.3636C159.958 29.911 160.028 30.3738 160.169 30.7521C160.314 31.1264 160.515 31.4102 160.773 31.6033C161.031 31.7925 161.33 31.8871 161.672 31.8871C161.946 31.8871 162.188 31.8287 162.397 31.712C162.61 31.5953 162.785 31.4242 162.922 31.1989C163.059 30.9695 163.145 30.6918 163.182 30.3658H165.941C165.912 31.1304 165.721 31.7985 165.367 32.37C165.017 32.9415 164.524 33.3862 163.888 33.7042C163.256 34.0181 162.506 34.1751 161.636 34.1751ZM172.685 24.7273V26.9006H166.836V24.7273H172.685ZM168.061 22.5057H171.013V31.0842C171.013 31.2653 171.041 31.4122 171.098 31.5249C171.158 31.6335 171.245 31.712 171.357 31.7603C171.47 31.8046 171.605 31.8267 171.762 31.8267C171.874 31.8267 171.993 31.8166 172.118 31.7965C172.247 31.7724 172.343 31.7522 172.408 31.7361L172.854 33.8672C172.714 33.9074 172.514 33.9577 172.257 34.0181C172.003 34.0785 171.699 34.1167 171.345 34.1328C170.653 34.165 170.059 34.0845 169.564 33.8913C169.073 33.6941 168.697 33.3883 168.435 32.9737C168.178 32.5592 168.053 32.038 168.061 31.4102V22.5057ZM174.192 34V24.7273H177.144V34H174.192ZM175.671 23.6467C175.256 23.6467 174.9 23.5098 174.602 23.2361C174.304 22.9584 174.155 22.6244 174.155 22.234C174.155 21.8477 174.304 21.5176 174.602 21.244C174.9 20.9663 175.256 20.8274 175.671 20.8274C176.089 20.8274 176.445 20.9663 176.739 21.244C177.037 21.5176 177.186 21.8477 177.186 22.234C177.186 22.6244 177.037 22.9584 176.739 23.2361C176.445 23.5098 176.089 23.6467 175.671 23.6467ZM183.351 34.1751C182.377 34.1751 181.54 33.9758 180.84 33.5774C180.143 33.1749 179.606 32.6155 179.228 31.8991C178.854 31.1787 178.666 30.3436 178.666 29.3938C178.666 28.44 178.854 27.6049 179.228 26.8885C179.606 26.1681 180.143 25.6087 180.84 25.2102C181.54 24.8078 182.377 24.6065 183.351 24.6065C184.325 24.6065 185.16 24.8078 185.856 25.2102C186.557 25.6087 187.094 26.1681 187.468 26.8885C187.847 27.6049 188.036 28.44 188.036 29.3938C188.036 30.3436 187.847 31.1787 187.468 31.8991C187.094 32.6155 186.557 33.1749 185.856 33.5774C185.16 33.9758 184.325 34.1751 183.351 34.1751ZM183.369 31.9474C183.723 31.9474 184.023 31.8388 184.269 31.6214C184.514 31.4041 184.701 31.1023 184.83 30.7159C184.963 30.3295 185.029 29.8828 185.029 29.3757C185.029 28.8606 184.963 28.4098 184.83 28.0234C184.701 27.6371 184.514 27.3352 184.269 27.1179C184.023 26.9006 183.723 26.7919 183.369 26.7919C183.003 26.7919 182.693 26.9006 182.439 27.1179C182.19 27.3352 181.999 27.6371 181.866 28.0234C181.737 28.4098 181.673 28.8606 181.673 29.3757C181.673 29.8828 181.737 30.3295 181.866 30.7159C181.999 31.1023 182.19 31.4041 182.439 31.6214C182.693 31.8388 183.003 31.9474 183.369 31.9474ZM192.5 28.7116V34H189.548V24.7273H192.355V26.4297H192.458C192.663 25.8622 193.013 25.4175 193.508 25.0955C194.003 24.7695 194.593 24.6065 195.277 24.6065C195.929 24.6065 196.494 24.7534 196.973 25.0472C197.456 25.337 197.831 25.7435 198.096 26.2667C198.366 26.7859 198.499 27.3936 198.495 28.0898V34H195.543V28.6694C195.547 28.1542 195.416 27.7518 195.15 27.462C194.889 27.1722 194.524 27.0273 194.058 27.0273C193.748 27.0273 193.474 27.0958 193.237 27.2326C193.003 27.3654 192.822 27.5566 192.693 27.8061C192.568 28.0556 192.504 28.3575 192.5 28.7116Z" fill="#E040BD"/>
</g>
<defs>
<filter id="filter0_d_1_50" x="54.4" y="13.4" width="151.2" height="29.2" filterUnits="userSpaceOnUse" color-interpolation-filters="sRGB">
<feFlood flood-opacity="0" result="BackgroundImageFix"/>
<feColorMatrix in="SourceAlpha" type="matrix" values="0 0 0 0 0 0 0 0 0 0 0 0 0 0 0 0 0 0 127 0" result="hardAlpha"/>
<feOffset/>
<feGaussianBlur stdDeviation="2.8"/>
<feComposite in2="hardAlpha" operator="out"/>
<feColorMatrix type="matrix" values="0 0 0 0 0 0 0 0 0 0 0 0 0 0 0 0 0 0 0.25 0"/>
<feBlend mode="normal" in2="BackgroundImageFix" result="effect1_dropShadow_1_50"/>
<feBlend mode="normal" in="SourceGraphic" in2="effect1_dropShadow_1_50" result="shape"/>
</filter>
<linearGradient id="paint0_linear_1_50" x1="106" y1="0" x2="106" y2="56" gradientUnits="userSpaceOnUse">
<stop stop-color="#8A1971"/>
<stop offset="1" stop-color="#410094"/>
</linearGradient>
<clipPath id="clip0_1_50">
<rect width="40" height="40" fill="white" transform="translate(12 8)"/>
</clipPath>
<clipPath id="clip1_1_50">
<rect width="40" height="40" fill="white" transform="translate(12 8)"/>
</clipPath>
<clipPath id="clip2_1_50">
<rect width="40" height="40" fill="white" transform="translate(12 8)"/>
</clipPath>
<clipPath id="clip3_1_50">
<rect width="40" height="40" fill="white" transform="translate(12 8)"/>
</clipPath>
<clipPath id="clip4_1_50">
<rect width="40" height="40" fill="white" transform="translate(12 8)"/>
</clipPath>
</defs>
</svg>
