<svg width="127" height="56" viewBox="0 0 127 56" fill="none" xmlns="http://www.w3.org/2000/svg">
<rect width="127" height="56" rx="8" fill="url(#paint0_linear_1203_25)"/>
<rect x="1.05" y="1.05" width="124.9" height="53.9" rx="6.95" stroke="white" stroke-opacity="0.15" stroke-width="2.1"/>
<g clip-path="url(#clip0_1203_25)">
<path d="M21.9967 10.6783L12 28L21.9967 45.3217H42.0033L52 28L42.0033 10.6783H21.9967ZM28.6083 19.8667L33.1 24.5L35.7633 27.1583L35.7667 27.155L39.7833 31.0933C39.45 31.3267 39.14 31.5133 38.845 31.6667C38.5785 31.807 38.3022 31.9278 38.0183 32.0283C37.7876 32.1091 37.5507 32.171 37.31 32.2133C37.0917 32.2517 36.8933 32.27 36.7133 32.27C36.4967 32.27 36.31 32.2467 36.15 32.2133C36.0132 32.1861 35.8792 32.146 35.75 32.0933C35.6317 32.0443 35.5198 31.981 35.4167 31.905L33.6467 30.085L28.5817 25.0167L26.7483 26.7717L21.6317 31.8917C21.5282 31.9662 21.4163 32.0283 21.2983 32.0767C21.1709 32.13 21.0386 32.1707 20.9033 32.1983C20.7433 32.2317 20.555 32.2533 20.34 32.2533C20.16 32.2533 19.9617 32.2383 19.7433 32.2017C19.5024 32.1577 19.2655 32.0942 19.035 32.0117C18.7511 31.9112 18.4748 31.7903 18.2083 31.65C17.8838 31.4794 17.5704 31.2884 17.27 31.0783L28.6083 19.8667ZM36.475 21.175L44.1067 28.8383L46.41 31.0933C46.109 31.304 45.7951 31.4955 45.47 31.6667C45.2046 31.8069 44.9295 31.9278 44.6467 32.0283C44.4154 32.1092 44.178 32.1711 43.9367 32.2133C43.72 32.2517 43.5183 32.27 43.3367 32.27C43.1217 32.27 42.935 32.2467 42.775 32.2133C42.5494 32.1672 42.3328 32.0851 42.1333 31.97C42.0783 31.9367 42.05 31.91 42.045 31.9033L39.9917 29.8733L36.4733 26.355L35.9167 26.9117L33.3167 24.3333L36.4767 21.1717L36.475 21.175ZM26.5317 28.0417V32.2567C26.3326 32.2539 26.1341 32.2344 25.9383 32.1983C25.6991 32.1526 25.464 32.0879 25.235 32.005C24.9557 31.9058 24.6839 31.7866 24.4217 31.6483C24.1018 31.4789 23.7929 31.2896 23.4967 31.0817L26.53 28.04L26.5317 28.0417Z" fill="#5BBFF2"/>
</g>
<g filter="url(#filter0_d_1203_25)">
<path d="M63.6101 34H60.3984L64.57 21.6364H68.5483L72.7198 34H69.5082L66.6044 24.7514H66.5078L63.6101 34ZM63.1815 29.1342H69.8945V31.4041H63.1815V29.1342ZM77.003 21.6364V34H74.051V21.6364H77.003ZM78.882 37.4773V24.7273H81.8039V26.315H81.8944C82.0152 26.0333 82.1862 25.7616 82.4076 25.5C82.633 25.2384 82.9187 25.0251 83.2648 24.8601C83.615 24.691 84.0335 24.6065 84.5205 24.6065C85.1644 24.6065 85.7661 24.7756 86.3255 25.1136C86.889 25.4517 87.3438 25.9729 87.6899 26.6772C88.036 27.3815 88.2091 28.279 88.2091 29.3697C88.2091 30.4201 88.042 31.2995 87.708 32.0078C87.378 32.7161 86.9312 33.2474 86.3678 33.6016C85.8084 33.9557 85.1866 34.1328 84.5024 34.1328C84.0355 34.1328 83.6311 34.0563 83.289 33.9034C82.9469 33.7505 82.6591 33.5492 82.4257 33.2997C82.1963 33.0502 82.0192 32.7825 81.8944 32.4968H81.8341V37.4773H78.882ZM81.7737 29.3636C81.7737 29.8627 81.8401 30.2973 81.9729 30.6676C82.1098 31.0379 82.3049 31.3256 82.5585 31.5309C82.8161 31.7321 83.124 31.8327 83.4821 31.8327C83.8444 31.8327 84.1522 31.7321 84.4058 31.5309C84.6593 31.3256 84.8505 31.0379 84.9793 30.6676C85.1121 30.2973 85.1785 29.8627 85.1785 29.3636C85.1785 28.8646 85.1121 28.4319 84.9793 28.0657C84.8505 27.6995 84.6593 27.4157 84.4058 27.2145C84.1563 27.0133 83.8484 26.9126 83.4821 26.9126C83.1199 26.9126 82.812 27.0112 82.5585 27.2084C82.3049 27.4057 82.1098 27.6874 81.9729 28.0536C81.8401 28.4199 81.7737 28.8565 81.7737 29.3636ZM89.756 34V24.7273H92.7081V34H89.756ZM91.2351 23.6467C90.8205 23.6467 90.4644 23.5098 90.1665 23.2361C89.8687 22.9584 89.7198 22.6244 89.7198 22.234C89.7198 21.8477 89.8687 21.5176 90.1665 21.244C90.4644 20.9663 90.8205 20.8274 91.2351 20.8274C91.6536 20.8274 92.0098 20.9663 92.3036 21.244C92.6014 21.5176 92.7503 21.8477 92.7503 22.234C92.7503 22.6244 92.6014 22.9584 92.3036 23.2361C92.0098 23.5098 91.6536 23.6467 91.2351 23.6467ZM97.5391 28.7116V34H94.5871V24.7273H97.3943V26.4297H97.4969C97.7021 25.8622 98.0523 25.4175 98.5473 25.0955C99.0423 24.7695 99.6319 24.6065 100.316 24.6065C100.968 24.6065 101.534 24.7534 102.013 25.0472C102.495 25.337 102.87 25.7435 103.135 26.2667C103.405 26.7859 103.538 27.3936 103.534 28.0898V34H100.582V28.6694C100.586 28.1542 100.455 27.7518 100.189 27.462C99.9278 27.1722 99.5635 27.0273 99.0967 27.0273C98.7868 27.0273 98.5131 27.0958 98.2756 27.2326C98.0422 27.3654 97.8611 27.5566 97.7323 27.8061C97.6076 28.0556 97.5432 28.3575 97.5391 28.7116ZM109.696 34.1751C108.726 34.1751 107.889 33.9839 107.185 33.6016C106.484 33.2152 105.945 32.6658 105.567 31.9535C105.192 31.2371 105.005 30.3859 105.005 29.3999C105.005 28.442 105.194 27.6049 105.573 26.8885C105.951 26.1681 106.484 25.6087 107.173 25.2102C107.861 24.8078 108.672 24.6065 109.605 24.6065C110.265 24.6065 110.869 24.7092 111.417 24.9144C111.964 25.1197 112.437 25.4235 112.835 25.826C113.234 26.2285 113.544 26.7255 113.765 27.3171C113.986 27.9047 114.097 28.5788 114.097 29.3395V30.076H106.038V28.3615H111.35C111.346 28.0476 111.272 27.7679 111.127 27.5224C110.982 27.2769 110.783 27.0857 110.529 26.9489C110.28 26.808 109.992 26.7376 109.666 26.7376C109.336 26.7376 109.04 26.812 108.778 26.9609C108.517 27.1058 108.31 27.305 108.157 27.5586C108.004 27.8081 107.923 28.0919 107.915 28.4098V30.1545C107.915 30.5328 107.99 30.8648 108.138 31.1506C108.287 31.4323 108.499 31.6516 108.772 31.8086C109.046 31.9655 109.372 32.044 109.75 32.044C110.012 32.044 110.249 32.0078 110.463 31.9354C110.676 31.8629 110.859 31.7563 111.012 31.6154C111.165 31.4745 111.28 31.3015 111.356 31.0962L114.067 31.1747C113.954 31.7824 113.707 32.3117 113.324 32.7624C112.946 33.2092 112.449 33.5573 111.833 33.8068C111.217 34.0523 110.505 34.1751 109.696 34.1751Z" fill="#5BBFF2"/>
</g>
<defs>
<filter id="filter0_d_1203_25" x="54.4" y="13.4" width="66.2" height="29.6773" filterUnits="userSpaceOnUse" color-interpolation-filters="sRGB">
<feFlood flood-opacity="0" result="BackgroundImageFix"/>
<feColorMatrix in="SourceAlpha" type="matrix" values="0 0 0 0 0 0 0 0 0 0 0 0 0 0 0 0 0 0 127 0" result="hardAlpha"/>
<feOffset/>
<feGaussianBlur stdDeviation="2.8"/>
<feComposite in2="hardAlpha" operator="out"/>
<feColorMatrix type="matrix" values="0 0 0 0 0 0 0 0 0 0 0 0 0 0 0 0 0 0 0.25 0"/>
<feBlend mode="normal" in2="BackgroundImageFix" result="effect1_dropShadow_1203_25"/>
<feBlend mode="normal" in="SourceGraphic" in2="effect1_dropShadow_1203_25" result="shape"/>
</filter>
<linearGradient id="paint0_linear_1203_25" x1="63.5" y1="0" x2="63.5" y2="56" gradientUnits="userSpaceOnUse">
<stop stop-color="#0D597F"/>
<stop offset="1" stop-color="#052A3D"/>
</linearGradient>
<clipPath id="clip0_1203_25">
<rect width="40" height="40" fill="white" transform="translate(12 8)"/>
</clipPath>
</defs>
</svg>
