<svg width="113" height="56" viewBox="0 0 113 56" fill="none" xmlns="http://www.w3.org/2000/svg">
<rect width="113" height="56" rx="8" fill="url(#paint0_linear_1203_25)"/>
<rect x="1.05" y="1.05" width="110.9" height="53.9" rx="6.95" stroke="white" stroke-opacity="0.15" stroke-width="2.1"/>
<g clip-path="url(#clip0_1203_25)">
<path d="M30.9833 9.00833C29.2933 13.1533 28.2733 15.8667 26.3917 19.8867C27.5467 21.11 28.9633 22.535 31.2633 24.1433C28.79 23.1267 27.1033 22.1033 25.8433 21.0433C23.4333 26.07 19.66 33.23 12 46.9917C18.02 43.5167 22.6867 41.375 27.035 40.555C26.8388 39.7098 26.7431 38.8443 26.75 37.9767L26.755 37.785C26.8517 33.9267 28.8567 30.96 31.2333 31.1633C33.61 31.3633 35.4567 34.6567 35.3633 38.5117C35.3488 39.2084 35.2674 39.9022 35.12 40.5833C39.42 41.425 44.04 43.5617 49.9767 46.99C48.8067 44.835 47.76 42.8917 46.7617 41.04C45.19 39.8233 43.5517 38.2367 40.2067 36.5183C42.5067 37.1167 44.1517 37.805 45.435 38.575C35.285 19.685 34.4633 17.175 30.9833 9.00833ZM50.1633 43.6V42.5617H49.7733V42.4217H50.71V42.5617H50.32V43.6H50.8717V42.4217H51.1083L51.3867 43.255L51.4433 43.4333C51.4628 43.3695 51.4839 43.3061 51.5067 43.2433L51.79 42.4217H52V43.6H51.8483V42.6117L51.505 43.6H51.365L51.0233 42.5967V43.6H50.8717" fill="#4DBFF8"/>
</g>
<g filter="url(#filter0_d_1203_25)">
<path d="M63.6101 34H60.3984L64.57 21.6364H68.5483L72.7198 34H69.5082L66.6044 24.7514H66.5078L63.6101 34ZM63.1815 29.1342H69.8945V31.4041H63.1815V29.1342ZM74.051 34V24.7273H76.9185V26.4176H77.0151C77.1841 25.8059 77.4598 25.3511 77.8421 25.0533C78.2245 24.7514 78.6692 24.6005 79.1763 24.6005C79.3131 24.6005 79.454 24.6106 79.5989 24.6307C79.7438 24.6468 79.8786 24.6729 80.0034 24.7092V27.2749C79.8625 27.2266 79.6774 27.1883 79.448 27.1602C79.2226 27.132 79.0214 27.1179 78.8443 27.1179C78.4941 27.1179 78.1782 27.1964 77.8965 27.3533C77.6188 27.5063 77.3994 27.7216 77.2385 27.9993C77.0815 28.273 77.003 28.5949 77.003 28.9652V34H74.051ZM85.0533 34.1751C84.0753 34.1751 83.2361 33.9738 82.5359 33.5714C81.8396 33.1689 81.3043 32.6095 80.93 31.8931C80.5557 31.1727 80.3686 30.3396 80.3686 29.3938C80.3686 28.444 80.5557 27.6109 80.93 26.8945C81.3084 26.1741 81.8456 25.6127 82.5419 25.2102C83.2422 24.8078 84.0773 24.6065 85.0472 24.6065C85.9045 24.6065 86.651 24.7615 87.2869 25.0714C87.9268 25.3813 88.4259 25.82 88.7841 26.3874C89.1463 26.9509 89.3375 27.6129 89.3576 28.3736H86.5987C86.5424 27.8987 86.3814 27.5264 86.1158 27.2567C85.8542 26.9871 85.5121 26.8523 85.0895 26.8523C84.7474 26.8523 84.4476 26.9489 84.19 27.142C83.9324 27.3312 83.7312 27.6129 83.5863 27.9872C83.4454 28.3575 83.375 28.8163 83.375 29.3636C83.375 29.911 83.4454 30.3738 83.5863 30.7521C83.7312 31.1264 83.9324 31.4102 84.19 31.6033C84.4476 31.7925 84.7474 31.8871 85.0895 31.8871C85.3632 31.8871 85.6046 31.8287 85.8139 31.712C86.0272 31.5953 86.2023 31.4242 86.3391 31.1989C86.476 30.9695 86.5625 30.6918 86.5987 30.3658H89.3576C89.3294 31.1304 89.1382 31.7985 88.7841 32.37C88.4339 32.9415 87.9409 33.3862 87.305 33.7042C86.6732 34.0181 85.9226 34.1751 85.0533 34.1751ZM93.8204 28.7116V34H90.8683V21.6364H93.7238V26.4297H93.8264C94.0357 25.8582 94.3778 25.4115 94.8527 25.0895C95.3316 24.7675 95.9172 24.6065 96.6095 24.6065C97.2614 24.6065 97.8289 24.7514 98.3119 25.0412C98.7948 25.3269 99.1691 25.7314 99.4347 26.2546C99.7044 26.7778 99.8372 27.3896 99.8332 28.0898V34H96.8811V28.6694C96.8851 28.1542 96.7564 27.7518 96.4948 27.462C96.2332 27.1722 95.8649 27.0273 95.39 27.0273C95.0801 27.0273 94.8064 27.0958 94.569 27.2326C94.3355 27.3654 94.1524 27.5566 94.0196 27.8061C93.8908 28.0556 93.8244 28.3575 93.8204 28.7116Z" fill="#4DBFF8"/>
</g>
<defs>
<filter id="filter0_d_1203_25" x="54.4" y="13.4" width="52.2" height="29.2" filterUnits="userSpaceOnUse" color-interpolation-filters="sRGB">
<feFlood flood-opacity="0" result="BackgroundImageFix"/>
<feColorMatrix in="SourceAlpha" type="matrix" values="0 0 0 0 0 0 0 0 0 0 0 0 0 0 0 0 0 0 127 0" result="hardAlpha"/>
<feOffset/>
<feGaussianBlur stdDeviation="2.8"/>
<feComposite in2="hardAlpha" operator="out"/>
<feColorMatrix type="matrix" values="0 0 0 0 0 0 0 0 0 0 0 0 0 0 0 0 0 0 0.25 0"/>
<feBlend mode="normal" in2="BackgroundImageFix" result="effect1_dropShadow_1203_25"/>
<feBlend mode="normal" in="SourceGraphic" in2="effect1_dropShadow_1203_25" result="shape"/>
</filter>
<linearGradient id="paint0_linear_1203_25" x1="56.5" y1="0" x2="56.5" y2="56" gradientUnits="userSpaceOnUse">
<stop stop-color="#1793D1"/>
<stop offset="1" stop-color="#063750"/>
</linearGradient>
<clipPath id="clip0_1203_25">
<rect width="40" height="40" fill="white" transform="translate(12 8)"/>
</clipPath>
</defs>
</svg>
