<svg width="149" height="56" viewBox="0 0 149 56" fill="none" xmlns="http://www.w3.org/2000/svg">
<rect width="149" height="56" rx="8" fill="url(#paint0_linear_1203_25)"/>
<rect x="1.05" y="1.05" width="146.9" height="53.9" rx="6.95" stroke="white" stroke-opacity="0.15" stroke-width="2.1"/>
<g clip-path="url(#clip0_1203_25)">
<path d="M47 34.6667V21.3333C46.9994 20.7488 46.8451 20.1747 46.5526 19.6686C46.26 19.1625 45.8396 18.7423 45.3333 18.45L33.6667 11.7833C33.1599 11.4908 32.5851 11.3368 32 11.3368C31.4149 11.3368 30.8401 11.4908 30.3333 11.7833L18.6667 18.45C18.1604 18.7423 17.74 19.1625 17.4474 19.6686C17.1549 20.1747 17.0006 20.7488 17 21.3333V34.6667C17.0006 35.2512 17.1549 35.8253 17.4474 36.3314C17.74 36.8375 18.1604 37.2577 18.6667 37.55L30.3333 44.2167C30.8401 44.5092 31.4149 44.6633 32 44.6633C32.5851 44.6633 33.1599 44.5092 33.6667 44.2167L45.3333 37.55C45.8396 37.2577 46.26 36.8375 46.5526 36.3314C46.8451 35.8253 46.9994 35.2512 47 34.6667Z" stroke="#A193FF" stroke-width="2" stroke-linecap="round" stroke-linejoin="round"/>
<path d="M32 34.6667C35.6819 34.6667 38.6667 31.6819 38.6667 28C38.6667 24.3181 35.6819 21.3333 32 21.3333C28.3181 21.3333 25.3333 24.3181 25.3333 28C25.3333 31.6819 28.3181 34.6667 32 34.6667Z" stroke="#A193FF" stroke-width="2" stroke-linecap="round" stroke-linejoin="round"/>
</g>
<g filter="url(#filter0_d_1203_25)">
<path d="M63.6101 34H60.3984L64.57 21.6364H68.5483L72.7198 34H69.5082L66.6044 24.7514H66.5078L63.6101 34ZM63.1815 29.1342H69.8945V31.4041H63.1815V29.1342ZM80.352 25.343C80.3118 24.9003 80.1327 24.5562 79.8147 24.3107C79.5008 24.0612 79.052 23.9364 78.4685 23.9364C78.0821 23.9364 77.7601 23.9867 77.5026 24.0874C77.245 24.188 77.0518 24.3268 76.923 24.5039C76.7942 24.677 76.7278 24.8762 76.7238 25.1016C76.7158 25.2867 76.752 25.4497 76.8325 25.5905C76.917 25.7314 77.0377 25.8562 77.1947 25.9648C77.3557 26.0695 77.5489 26.162 77.7742 26.2425C77.9996 26.323 78.2532 26.3935 78.5349 26.4538L79.5974 26.6953C80.2091 26.8281 80.7484 27.0052 81.2153 27.2266C81.6862 27.4479 82.0806 27.7115 82.3985 28.0174C82.7205 28.3233 82.964 28.6754 83.129 29.0739C83.294 29.4723 83.3785 29.919 83.3825 30.4141C83.3785 31.1948 83.1813 31.8649 82.7909 32.4244C82.4005 32.9838 81.8391 33.4124 81.1066 33.7102C80.3782 34.008 79.4988 34.157 78.4685 34.157C77.4342 34.157 76.5326 34.002 75.7639 33.6921C74.9952 33.3822 74.3976 32.9113 73.971 32.2795C73.5444 31.6476 73.325 30.8487 73.3129 29.8828H76.1744C76.1986 30.2812 76.3052 30.6133 76.4944 30.8789C76.6836 31.1445 76.9431 31.3458 77.2732 31.4826C77.6072 31.6194 77.9936 31.6878 78.4323 31.6878C78.8347 31.6878 79.1768 31.6335 79.4585 31.5249C79.7443 31.4162 79.9636 31.2653 80.1166 31.0721C80.2695 30.8789 80.348 30.6575 80.352 30.408C80.348 30.1746 80.2755 29.9754 80.1347 29.8104C79.9938 29.6413 79.7765 29.4964 79.4827 29.3757C79.1929 29.2509 78.8226 29.1362 78.3719 29.0316L77.08 28.7298C76.0094 28.4843 75.1663 28.0878 74.5505 27.5405C73.9347 26.9891 73.6289 26.2446 73.6329 25.3068C73.6289 24.5421 73.8341 23.872 74.2487 23.2965C74.6632 22.721 75.2367 22.2723 75.9692 21.9503C76.7017 21.6283 77.5368 21.4673 78.4745 21.4673C79.4324 21.4673 80.2635 21.6303 80.9678 21.9563C81.6761 22.2783 82.2255 22.7311 82.6158 23.3146C83.0062 23.8982 83.2055 24.5743 83.2135 25.343H80.352ZM84.8918 21.6364H88.5924L91.7316 29.2912H91.8765L95.0157 21.6364H98.7163V34H95.8065V26.4055H95.7039L92.7337 33.9215H90.8744L87.9042 26.3633H87.8016V34H84.8918V21.6364ZM106.744 24.7273L108.271 27.782L109.853 24.7273H112.829L110.239 29.3636L112.926 34H109.974L108.271 30.9212L106.611 34H103.617L106.309 29.3636L103.75 24.7273H106.744ZM118.982 34.169C118.02 34.169 117.161 34.0161 116.405 33.7102C115.652 33.4003 115.06 32.9818 114.63 32.4545C114.203 31.9233 113.99 31.3236 113.99 30.6555C113.99 30.1444 114.113 29.6755 114.358 29.2489C114.604 28.8223 114.936 28.4682 115.354 28.1864C115.777 27.9007 116.248 27.7176 116.767 27.6371V27.5405C116.087 27.4157 115.529 27.0998 115.095 26.5927C114.664 26.0856 114.449 25.4919 114.449 24.8118C114.449 24.1678 114.644 23.5943 115.034 23.0913C115.429 22.5882 115.966 22.1918 116.646 21.902C117.33 21.6122 118.109 21.4673 118.982 21.4673C119.856 21.4673 120.632 21.6122 121.313 21.902C121.997 22.1918 122.534 22.5882 122.924 23.0913C123.319 23.5943 123.516 24.1678 123.516 24.8118C123.516 25.496 123.297 26.0916 122.858 26.5987C122.423 27.1018 121.87 27.4157 121.198 27.5405V27.6371C121.713 27.7176 122.18 27.9007 122.598 28.1864C123.021 28.4682 123.355 28.8223 123.601 29.2489C123.85 29.6755 123.975 30.1444 123.975 30.6555C123.975 31.3236 123.76 31.9233 123.329 32.4545C122.898 32.9818 122.307 33.4003 121.554 33.7102C120.805 34.0161 119.948 34.169 118.982 34.169ZM118.982 32.0501C119.349 32.0501 119.671 31.9816 119.948 31.8448C120.226 31.7039 120.443 31.5088 120.6 31.2592C120.761 31.0097 120.842 30.728 120.842 30.4141C120.842 30.0921 120.761 29.8063 120.6 29.5568C120.439 29.3073 120.218 29.1121 119.936 28.9712C119.658 28.8263 119.341 28.7539 118.982 28.7539C118.628 28.7539 118.31 28.8263 118.028 28.9712C117.747 29.1121 117.525 29.3073 117.364 29.5568C117.203 29.8063 117.123 30.0921 117.123 30.4141C117.123 30.728 117.201 31.0097 117.358 31.2592C117.519 31.5047 117.739 31.6979 118.016 31.8388C118.298 31.9796 118.62 32.0501 118.982 32.0501ZM118.982 26.647C119.296 26.647 119.574 26.5826 119.815 26.4538C120.061 26.325 120.252 26.1459 120.389 25.9165C120.53 25.6871 120.6 25.4276 120.6 25.1378C120.6 24.848 120.53 24.5924 120.389 24.3711C120.252 24.1497 120.063 23.9767 119.821 23.8519C119.58 23.7231 119.3 23.6587 118.982 23.6587C118.668 23.6587 118.389 23.7231 118.143 23.8519C117.898 23.9767 117.707 24.1497 117.57 24.3711C117.433 24.5924 117.364 24.848 117.364 25.1378C117.364 25.4276 117.433 25.6871 117.57 25.9165C117.711 26.1419 117.904 26.321 118.149 26.4538C118.395 26.5826 118.672 26.647 118.982 26.647ZM130.597 34.169C129.921 34.169 129.273 34.0604 128.653 33.843C128.034 33.6217 127.482 33.2715 126.999 32.7926C126.516 32.3097 126.136 31.6778 125.858 30.897C125.581 30.1122 125.444 29.1564 125.448 28.0295C125.452 27.0112 125.577 26.0977 125.822 25.2887C126.068 24.4757 126.418 23.7855 126.873 23.218C127.331 22.6506 127.879 22.2179 128.515 21.9201C129.155 21.6182 129.869 21.4673 130.658 21.4673C131.523 21.4673 132.286 21.6364 132.946 21.9744C133.61 22.3085 134.141 22.7592 134.539 23.3267C134.938 23.8901 135.173 24.518 135.246 25.2102H132.306C132.217 24.8198 132.022 24.524 131.72 24.3228C131.422 24.1175 131.068 24.0149 130.658 24.0149C129.901 24.0149 129.336 24.3429 128.961 24.9989C128.591 25.6549 128.402 26.5323 128.394 27.631H128.472C128.641 27.2608 128.885 26.9428 129.203 26.6772C129.521 26.4116 129.885 26.2083 130.296 26.0675C130.71 25.9226 131.149 25.8501 131.612 25.8501C132.352 25.8501 133.006 26.0212 133.574 26.3633C134.141 26.7054 134.586 27.1742 134.908 27.7699C135.23 28.3615 135.389 29.0396 135.385 29.8043C135.389 30.6656 135.187 31.4262 134.781 32.0863C134.374 32.7423 133.811 33.2534 133.091 33.6197C132.374 33.9859 131.543 34.169 130.597 34.169ZM130.579 31.875C130.945 31.875 131.274 31.7885 131.563 31.6154C131.853 31.4423 132.08 31.2069 132.245 30.9091C132.41 30.6113 132.491 30.2752 132.487 29.9009C132.491 29.5226 132.41 29.1865 132.245 28.8928C132.084 28.599 131.859 28.3655 131.569 28.1925C131.284 28.0194 130.956 27.9329 130.585 27.9329C130.316 27.9329 130.064 27.9832 129.831 28.0838C129.597 28.1844 129.394 28.3253 129.221 28.5064C129.052 28.6835 128.919 28.8928 128.823 29.1342C128.726 29.3717 128.676 29.6293 128.672 29.907C128.676 30.2732 128.76 30.6052 128.925 30.903C129.09 31.2009 129.316 31.4383 129.601 31.6154C129.887 31.7885 130.213 31.875 130.579 31.875Z" fill="#A193FF"/>
</g>
<defs>
<filter id="filter0_d_1203_25" x="54.4" y="13.4" width="88.2" height="29.2" filterUnits="userSpaceOnUse" color-interpolation-filters="sRGB">
<feFlood flood-opacity="0" result="BackgroundImageFix"/>
<feColorMatrix in="SourceAlpha" type="matrix" values="0 0 0 0 0 0 0 0 0 0 0 0 0 0 0 0 0 0 127 0" result="hardAlpha"/>
<feOffset/>
<feGaussianBlur stdDeviation="2.8"/>
<feComposite in2="hardAlpha" operator="out"/>
<feColorMatrix type="matrix" values="0 0 0 0 0 0 0 0 0 0 0 0 0 0 0 0 0 0 0.25 0"/>
<feBlend mode="normal" in2="BackgroundImageFix" result="effect1_dropShadow_1203_25"/>
<feBlend mode="normal" in="SourceGraphic" in2="effect1_dropShadow_1203_25" result="shape"/>
</filter>
<linearGradient id="paint0_linear_1203_25" x1="74.5" y1="0" x2="74.5" y2="56" gradientUnits="userSpaceOnUse">
<stop stop-color="#654FF0"/>
<stop offset="1" stop-color="#291A88"/>
</linearGradient>
<clipPath id="clip0_1203_25">
<rect width="40" height="40" fill="white" transform="translate(12 8)"/>
</clipPath>
</defs>
</svg>
