<svg width="194" height="56" viewBox="0 0 194 56" fill="none" xmlns="http://www.w3.org/2000/svg">
<rect width="194" height="56" rx="8" fill="url(#paint0_linear_1203_25)"/>
<rect x="1.05" y="1.05" width="191.9" height="53.9" rx="6.95" stroke="white" stroke-opacity="0.15" stroke-width="2.1"/>
<g clip-path="url(#clip0_1203_25)">
<path d="M47 34.6667V21.3333C46.9994 20.7488 46.8451 20.1747 46.5526 19.6686C46.26 19.1625 45.8396 18.7423 45.3333 18.45L33.6667 11.7833C33.1599 11.4908 32.5851 11.3368 32 11.3368C31.4149 11.3368 30.8401 11.4908 30.3333 11.7833L18.6667 18.45C18.1604 18.7423 17.74 19.1625 17.4474 19.6686C17.1549 20.1747 17.0006 20.7488 17 21.3333V34.6667C17.0006 35.2512 17.1549 35.8253 17.4474 36.3314C17.74 36.8375 18.1604 37.2577 18.6667 37.55L30.3333 44.2167C30.8401 44.5092 31.4149 44.6633 32 44.6633C32.5851 44.6633 33.1599 44.5092 33.6667 44.2167L45.3333 37.55C45.8396 37.2577 46.26 36.8375 46.5526 36.3314C46.8451 35.8253 46.9994 35.2512 47 34.6667Z" stroke="#A193FF" stroke-width="2" stroke-linecap="round" stroke-linejoin="round"/>
<path d="M32 34.6667C35.6819 34.6667 38.6667 31.6819 38.6667 28C38.6667 24.3181 35.6819 21.3333 32 21.3333C28.3181 21.3333 25.3333 24.3181 25.3333 28C25.3333 31.6819 28.3181 34.6667 32 34.6667Z" stroke="#A193FF" stroke-width="2" stroke-linecap="round" stroke-linejoin="round"/>
</g>
<g filter="url(#filter0_d_1203_25)">
<path d="M63.4471 24.7273L64.9744 27.782L66.5561 24.7273H69.5323L66.9425 29.3636L69.6289 34H66.6768L64.9744 30.9212L63.3143 34H60.32L63.0124 29.3636L60.4528 24.7273H63.4471ZM75.6855 34.169C74.7236 34.169 73.8643 34.0161 73.1077 33.7102C72.3551 33.4003 71.7635 32.9818 71.3328 32.4545C70.9062 31.9233 70.6929 31.3236 70.6929 30.6555C70.6929 30.1444 70.8157 29.6755 71.0612 29.2489C71.3067 28.8223 71.6387 28.4682 72.0573 28.1864C72.4798 27.9007 72.9507 27.7176 73.4699 27.6371V27.5405C72.7897 27.4157 72.2323 27.0998 71.7977 26.5927C71.367 26.0856 71.1517 25.4919 71.1517 24.8118C71.1517 24.1678 71.3469 23.5943 71.7373 23.0913C72.1317 22.5882 72.669 22.1918 73.3492 21.902C74.0333 21.6122 74.8121 21.4673 75.6855 21.4673C76.5588 21.4673 77.3355 21.6122 78.0157 21.902C78.6999 22.1918 79.2372 22.5882 79.6276 23.0913C80.022 23.5943 80.2192 24.1678 80.2192 24.8118C80.2192 25.496 79.9998 26.0916 79.5612 26.5987C79.1265 27.1018 78.5731 27.4157 77.901 27.5405V27.6371C78.4162 27.7176 78.883 27.9007 79.3016 28.1864C79.7242 28.4682 80.0582 28.8223 80.3037 29.2489C80.5532 29.6755 80.678 30.1444 80.678 30.6555C80.678 31.3236 80.4627 31.9233 80.032 32.4545C79.6014 32.9818 79.0098 33.4003 78.2572 33.7102C77.5086 34.0161 76.6514 34.169 75.6855 34.169ZM75.6855 32.0501C76.0517 32.0501 76.3737 31.9816 76.6514 31.8448C76.9291 31.7039 77.1464 31.5088 77.3034 31.2592C77.4643 31.0097 77.5448 30.728 77.5448 30.4141C77.5448 30.0921 77.4643 29.8063 77.3034 29.5568C77.1424 29.3073 76.921 29.1121 76.6393 28.9712C76.3616 28.8263 76.0436 28.7539 75.6855 28.7539C75.3313 28.7539 75.0133 28.8263 74.7316 28.9712C74.4499 29.1121 74.2285 29.3073 74.0676 29.5568C73.9066 29.8063 73.8261 30.0921 73.8261 30.4141C73.8261 30.728 73.9046 31.0097 74.0615 31.2592C74.2225 31.5047 74.4418 31.6979 74.7195 31.8388C75.0013 31.9796 75.3232 32.0501 75.6855 32.0501ZM75.6855 26.647C75.9994 26.647 76.2771 26.5826 76.5185 26.4538C76.7641 26.325 76.9552 26.1459 77.0921 25.9165C77.2329 25.6871 77.3034 25.4276 77.3034 25.1378C77.3034 24.848 77.2329 24.5924 77.0921 24.3711C76.9552 24.1497 76.7661 23.9767 76.5246 23.8519C76.2831 23.7231 76.0034 23.6587 75.6855 23.6587C75.3715 23.6587 75.0918 23.7231 74.8463 23.8519C74.6008 23.9767 74.4096 24.1497 74.2728 24.3711C74.136 24.5924 74.0676 24.848 74.0676 25.1378C74.0676 25.4276 74.136 25.6871 74.2728 25.9165C74.4137 26.1419 74.6069 26.321 74.8524 26.4538C75.0979 26.5826 75.3756 26.647 75.6855 26.647ZM87.3005 34.169C86.6244 34.169 85.9764 34.0604 85.3566 33.843C84.7368 33.6217 84.1855 33.2715 83.7025 32.7926C83.2195 32.3097 82.8392 31.6778 82.5615 30.897C82.2838 30.1122 82.147 29.1564 82.151 28.0295C82.155 27.0112 82.2798 26.0977 82.5253 25.2887C82.7708 24.4757 83.1209 23.7855 83.5757 23.218C84.0345 22.6506 84.5819 22.2179 85.2178 21.9201C85.8577 21.6182 86.5721 21.4673 87.3609 21.4673C88.2262 21.4673 88.9888 21.6364 89.6489 21.9744C90.3129 22.3085 90.8442 22.7592 91.2426 23.3267C91.6411 23.8901 91.8765 24.518 91.9489 25.2102H89.009C88.9204 24.8198 88.7252 24.524 88.4234 24.3228C88.1256 24.1175 87.7714 24.0149 87.3609 24.0149C86.6042 24.0149 86.0388 24.3429 85.6645 24.9989C85.2942 25.6549 85.1051 26.5323 85.097 27.631H85.1755C85.3445 27.2608 85.588 26.9428 85.906 26.6772C86.2239 26.4116 86.5881 26.2083 86.9987 26.0675C87.4132 25.9226 87.8519 25.8501 88.3147 25.8501C89.0552 25.8501 89.7092 26.0212 90.2767 26.3633C90.8442 26.7054 91.2889 27.1742 91.6109 27.7699C91.9328 28.3615 92.0918 29.0396 92.0878 29.8043C92.0918 30.6656 91.8906 31.4262 91.4841 32.0863C91.0776 32.7423 90.5142 33.2534 89.7938 33.6197C89.0774 33.9859 88.2463 34.169 87.3005 34.169ZM87.2824 31.875C87.6486 31.875 87.9766 31.7885 88.2664 31.6154C88.5562 31.4423 88.7836 31.2069 88.9486 30.9091C89.1136 30.6113 89.1941 30.2752 89.1901 29.9009C89.1941 29.5226 89.1136 29.1865 88.9486 28.8928C88.7876 28.599 88.5622 28.3655 88.2725 28.1925C87.9867 28.0194 87.6587 27.9329 87.2884 27.9329C87.0188 27.9329 86.7672 27.9832 86.5338 28.0838C86.3004 28.1844 86.0971 28.3253 85.9241 28.5064C85.7551 28.6835 85.6222 28.8928 85.5256 29.1342C85.4291 29.3717 85.3788 29.6293 85.3747 29.907C85.3788 30.2732 85.4633 30.6052 85.6283 30.903C85.7933 31.2009 86.0187 31.4383 86.3044 31.6154C86.5902 31.7885 86.9162 31.875 87.2824 31.875ZM108.682 26.1158H105.663C105.623 25.8059 105.541 25.5262 105.416 25.2766C105.291 25.0271 105.126 24.8138 104.921 24.6367C104.716 24.4596 104.472 24.3248 104.19 24.2322C103.913 24.1356 103.605 24.0874 103.267 24.0874C102.667 24.0874 102.15 24.2343 101.715 24.5281C101.285 24.8218 100.953 25.2464 100.719 25.8018C100.49 26.3572 100.375 27.0294 100.375 27.8182C100.375 28.6392 100.492 29.3274 100.725 29.8828C100.963 30.4342 101.295 30.8507 101.721 31.1325C102.152 31.4102 102.661 31.549 103.249 31.549C103.579 31.549 103.878 31.5067 104.148 31.4222C104.422 31.3377 104.661 31.215 104.866 31.054C105.076 30.889 105.247 30.6897 105.38 30.4563C105.516 30.2189 105.611 29.9512 105.663 29.6534L108.682 29.6715C108.629 30.2189 108.471 30.7582 108.205 31.2894C107.943 31.8207 107.583 32.3056 107.124 32.7443C106.665 33.179 106.106 33.5251 105.446 33.7827C104.79 34.0402 104.037 34.169 103.188 34.169C102.069 34.169 101.067 33.9235 100.182 33.4325C99.3004 32.9375 98.6042 32.2171 98.093 31.2713C97.5819 30.3255 97.3263 29.1745 97.3263 27.8182C97.3263 26.4579 97.5859 25.3048 98.1051 24.359C98.6243 23.4132 99.3266 22.6948 100.212 22.2038C101.097 21.7128 102.089 21.4673 103.188 21.4673C103.937 21.4673 104.629 21.572 105.265 21.7812C105.901 21.9865 106.46 22.2883 106.943 22.6868C107.426 23.0812 107.819 23.5662 108.12 24.1417C108.422 24.7172 108.609 25.3752 108.682 26.1158ZM113.38 21.6364V34H110.392V21.6364H113.38ZM121.939 25.343C121.899 24.9003 121.72 24.5562 121.402 24.3107C121.088 24.0612 120.639 23.9364 120.055 23.9364C119.669 23.9364 119.347 23.9867 119.089 24.0874C118.832 24.188 118.639 24.3268 118.51 24.5039C118.381 24.677 118.315 24.8762 118.311 25.1016C118.303 25.2867 118.339 25.4497 118.419 25.5905C118.504 25.7314 118.625 25.8562 118.782 25.9648C118.943 26.0695 119.136 26.162 119.361 26.2425C119.587 26.323 119.84 26.3935 120.122 26.4538L121.184 26.6953C121.796 26.8281 122.335 27.0052 122.802 27.2266C123.273 27.4479 123.667 27.7115 123.985 28.0174C124.307 28.3233 124.551 28.6754 124.716 29.0739C124.881 29.4723 124.965 29.919 124.969 30.4141C124.965 31.1948 124.768 31.8649 124.378 32.4244C123.987 32.9838 123.426 33.4124 122.694 33.7102C121.965 34.008 121.086 34.157 120.055 34.157C119.021 34.157 118.12 34.002 117.351 33.6921C116.582 33.3822 115.984 32.9113 115.558 32.2795C115.131 31.6476 114.912 30.8487 114.9 29.8828H117.761C117.785 30.2812 117.892 30.6133 118.081 30.8789C118.27 31.1445 118.53 31.3458 118.86 31.4826C119.194 31.6194 119.58 31.6878 120.019 31.6878C120.422 31.6878 120.764 31.6335 121.045 31.5249C121.331 31.4162 121.551 31.2653 121.703 31.0721C121.856 30.8789 121.935 30.6575 121.939 30.408C121.935 30.1746 121.862 29.9754 121.722 29.8104C121.581 29.6413 121.363 29.4964 121.07 29.3757C120.78 29.2509 120.41 29.1362 119.959 29.0316L118.667 28.7298C117.596 28.4843 116.753 28.0878 116.137 27.5405C115.522 26.9891 115.216 26.2446 115.22 25.3068C115.216 24.5421 115.421 23.872 115.836 23.2965C116.25 22.721 116.824 22.2723 117.556 21.9503C118.289 21.6283 119.124 21.4673 120.061 21.4673C121.019 21.4673 121.85 21.6303 122.555 21.9563C123.263 22.2783 123.812 22.7311 124.203 23.3146C124.593 23.8982 124.792 24.5743 124.8 25.343H121.939ZM137.701 26.1158H134.683C134.643 25.8059 134.56 25.5262 134.435 25.2766C134.311 25.0271 134.146 24.8138 133.94 24.6367C133.735 24.4596 133.492 24.3248 133.21 24.2322C132.932 24.1356 132.624 24.0874 132.286 24.0874C131.687 24.0874 131.169 24.2343 130.735 24.5281C130.304 24.8218 129.972 25.2464 129.739 25.8018C129.509 26.3572 129.395 27.0294 129.395 27.8182C129.395 28.6392 129.511 29.3274 129.745 29.8828C129.982 30.4342 130.314 30.8507 130.741 31.1325C131.171 31.4102 131.68 31.549 132.268 31.549C132.598 31.549 132.898 31.5067 133.168 31.4222C133.441 31.3377 133.681 31.215 133.886 31.054C134.095 30.889 134.266 30.6897 134.399 30.4563C134.536 30.2189 134.631 29.9512 134.683 29.6534L137.701 29.6715C137.649 30.2189 137.49 30.7582 137.224 31.2894C136.963 31.8207 136.603 32.3056 136.144 32.7443C135.685 33.179 135.126 33.5251 134.466 33.7827C133.81 34.0402 133.057 34.169 132.208 34.169C131.089 34.169 130.087 33.9235 129.201 33.4325C128.32 32.9375 127.624 32.2171 127.113 31.2713C126.601 30.3255 126.346 29.1745 126.346 27.8182C126.346 26.4579 126.605 25.3048 127.125 24.359C127.644 23.4132 128.346 22.6948 129.232 22.2038C130.117 21.7128 131.109 21.4673 132.208 21.4673C132.956 21.4673 133.649 21.572 134.284 21.7812C134.92 21.9865 135.48 22.2883 135.963 22.6868C136.446 23.0812 136.838 23.5662 137.14 24.1417C137.442 24.7172 137.629 25.3752 137.701 26.1158ZM145.738 34H142.526L146.698 21.6364H150.676L154.848 34H151.636L148.732 24.7514H148.636L145.738 34ZM145.309 29.1342H152.022V31.4041H145.309V29.1342ZM162.48 25.343C162.44 24.9003 162.261 24.5562 161.943 24.3107C161.629 24.0612 161.18 23.9364 160.596 23.9364C160.21 23.9364 159.888 23.9867 159.63 24.0874C159.373 24.188 159.18 24.3268 159.051 24.5039C158.922 24.677 158.856 24.8762 158.852 25.1016C158.844 25.2867 158.88 25.4497 158.96 25.5905C159.045 25.7314 159.166 25.8562 159.323 25.9648C159.484 26.0695 159.677 26.162 159.902 26.2425C160.128 26.323 160.381 26.3935 160.663 26.4538L161.725 26.6953C162.337 26.8281 162.876 27.0052 163.343 27.2266C163.814 27.4479 164.208 27.7115 164.526 28.0174C164.848 28.3233 165.092 28.6754 165.257 29.0739C165.422 29.4723 165.506 29.919 165.51 30.4141C165.506 31.1948 165.309 31.8649 164.919 32.4244C164.528 32.9838 163.967 33.4124 163.235 33.7102C162.506 34.008 161.627 34.157 160.596 34.157C159.562 34.157 158.661 34.002 157.892 33.6921C157.123 33.3822 156.525 32.9113 156.099 32.2795C155.672 31.6476 155.453 30.8487 155.441 29.8828H158.302C158.326 30.2812 158.433 30.6133 158.622 30.8789C158.811 31.1445 159.071 31.3458 159.401 31.4826C159.735 31.6194 160.121 31.6878 160.56 31.6878C160.963 31.6878 161.305 31.6335 161.586 31.5249C161.872 31.4162 162.092 31.2653 162.244 31.0721C162.397 30.8789 162.476 30.6575 162.48 30.408C162.476 30.1746 162.403 29.9754 162.263 29.8104C162.122 29.6413 161.904 29.4964 161.611 29.3757C161.321 29.2509 160.951 29.1362 160.5 29.0316L159.208 28.7298C158.137 28.4843 157.294 28.0878 156.678 27.5405C156.063 26.9891 155.757 26.2446 155.761 25.3068C155.757 24.5421 155.962 23.872 156.377 23.2965C156.791 22.721 157.365 22.2723 158.097 21.9503C158.83 21.6283 159.665 21.4673 160.602 21.4673C161.56 21.4673 162.391 21.6303 163.096 21.9563C163.804 22.2783 164.353 22.7311 164.744 23.3146C165.134 23.8982 165.333 24.5743 165.341 25.343H162.48ZM167.02 21.6364H170.72L173.86 29.2912H174.004L177.144 21.6364H180.844V34H177.934V26.4055H177.832L174.862 33.9215H173.002L170.032 26.3633H169.929V34H167.02V21.6364Z" fill="#A193FF"/>
</g>
<defs>
<filter id="filter0_d_1203_25" x="54.4" y="13.4" width="133.2" height="29.2" filterUnits="userSpaceOnUse" color-interpolation-filters="sRGB">
<feFlood flood-opacity="0" result="BackgroundImageFix"/>
<feColorMatrix in="SourceAlpha" type="matrix" values="0 0 0 0 0 0 0 0 0 0 0 0 0 0 0 0 0 0 127 0" result="hardAlpha"/>
<feOffset/>
<feGaussianBlur stdDeviation="2.8"/>
<feComposite in2="hardAlpha" operator="out"/>
<feColorMatrix type="matrix" values="0 0 0 0 0 0 0 0 0 0 0 0 0 0 0 0 0 0 0.25 0"/>
<feBlend mode="normal" in2="BackgroundImageFix" result="effect1_dropShadow_1203_25"/>
<feBlend mode="normal" in="SourceGraphic" in2="effect1_dropShadow_1203_25" result="shape"/>
</filter>
<linearGradient id="paint0_linear_1203_25" x1="97" y1="0" x2="97" y2="56" gradientUnits="userSpaceOnUse">
<stop stop-color="#654FF0"/>
<stop offset="1" stop-color="#291A88"/>
</linearGradient>
<clipPath id="clip0_1203_25">
<rect width="40" height="40" fill="white" transform="translate(12 8)"/>
</clipPath>
</defs>
</svg>
