<svg width="25" height="25" viewBox="0 0 25 25" fill="none" xmlns="http://www.w3.org/2000/svg">
<rect width="25" height="25" rx="8.4" fill="url(#paint0_linear_205_7)"/>
<rect x="0.75" y="0.75" width="23.5" height="23.5" rx="7.65" stroke="white" stroke-opacity="0.15" stroke-width="1.5"/>
<g clip-path="url(#clip0_205_7)">
<path d="M17.4048 6.0225C17.3386 6.0125 17.2623 6.08937 17.2023 6.27062C17.1042 6.56437 16.5317 8.2725 13.7623 8.97437C14.1348 9.29437 14.3723 9.75062 14.3723 10.2612C14.3723 11.2281 13.5323 12.0112 12.4973 12.0112C11.463 12.0112 10.6242 11.2275 10.6236 10.2612C10.6236 9.88437 10.7536 9.5375 10.9705 9.25125C9.01108 9.05 8.16421 7.29937 8.16421 7.29937L8.10421 9.90125C8.08858 10.2537 8.09858 10.5956 7.93546 10.9237C7.92518 10.9087 7.91476 10.8937 7.90421 10.8787C7.67432 10.5589 7.38505 10.292 7.0699 10.109C6.75475 9.92606 6.42664 9.83451 6.12358 9.845C5.88487 9.85324 5.66857 9.92456 5.49046 10.0537C5.17288 10.2835 4.99637 10.6823 4.99977 11.1622C5.00317 11.6422 5.18619 12.1641 5.50858 12.6131C5.77558 12.9847 6.12165 13.2834 6.49338 13.463C6.8651 13.6426 7.24184 13.6931 7.56546 13.6069C9.43858 14.9944 12.8667 16.1994 15.2098 14.785L13.9442 13.7669C13.2792 13.9825 12.3167 13.9794 11.1961 13.5825C13.0086 13.9462 13.9898 13.5494 14.5298 13.1312C14.3873 12.9462 14.0861 12.8025 14.0861 12.8025C14.0861 12.8025 14.438 12.8694 14.6673 13.1125C14.7592 13.2094 14.7911 13.3544 14.8036 13.5206C15.1492 13.7069 15.543 13.9306 15.9755 14.1844C17.263 12.8969 18.0086 10.4762 17.5505 6.29875C17.5286 6.13062 17.4711 6.03312 17.4048 6.0225ZM9.28421 9.435C9.94108 9.43437 10.4736 9.93187 10.4736 10.5456C10.4736 11.1581 9.94046 11.6556 9.28421 11.655C8.62796 11.655 8.09671 11.1581 8.09671 10.5456C8.09671 9.9325 8.62796 9.435 9.28421 9.43437V9.435ZM12.8942 9.73625C12.7855 9.73617 12.6778 9.75751 12.5772 9.79905C12.4767 9.84059 12.3854 9.90152 12.3084 9.97836C12.2315 10.0552 12.1704 10.1464 12.1287 10.2469C12.087 10.3473 12.0655 10.455 12.0655 10.5637C12.0654 10.6725 12.0867 10.7802 12.1283 10.8807C12.1698 10.9812 12.2307 11.0725 12.3076 11.1495C12.3844 11.2265 12.4757 11.2875 12.5761 11.3292C12.6765 11.3709 12.7842 11.3924 12.893 11.3925C13.1126 11.3927 13.3233 11.3056 13.4787 11.1504C13.6341 10.9952 13.7215 10.7846 13.7217 10.565C13.7219 10.3454 13.6348 10.1347 13.4796 9.97924C13.3244 9.82382 13.1138 9.73642 12.8942 9.73625ZM6.05546 10.1356C6.05587 10.1356 6.05629 10.1356 6.05671 10.1356C6.06108 10.1356 6.06546 10.1356 6.06983 10.1356C6.14911 10.1355 6.22763 10.1508 6.30088 10.1806C6.37414 10.2104 6.44069 10.2541 6.49672 10.3092C6.55275 10.3643 6.59716 10.4297 6.6274 10.5017C6.65764 10.5737 6.67312 10.6509 6.67296 10.7287C6.67296 10.8065 6.65735 10.8835 6.62703 10.9554C6.59672 11.0272 6.55228 11.0925 6.49627 11.1475C6.44025 11.2025 6.37376 11.246 6.30059 11.2757C6.22742 11.3055 6.149 11.3207 6.06983 11.3206C5.91025 11.3203 5.75733 11.2578 5.64461 11.1468C5.53189 11.0359 5.46858 10.8855 5.46858 10.7287C5.46803 10.574 5.52923 10.4251 5.63904 10.3142C5.74886 10.2032 5.89857 10.1389 6.05608 10.135L6.05546 10.1356ZM9.52983 10.2125C9.46089 10.2133 9.39278 10.2277 9.3294 10.2549C9.26602 10.282 9.2086 10.3214 9.16043 10.3707C9.11226 10.42 9.07428 10.4784 9.04865 10.5424C9.02303 10.6064 9.01026 10.6748 9.01108 10.7437C9.0119 10.8127 9.02629 10.8808 9.05344 10.9442C9.08058 11.0076 9.11994 11.065 9.16927 11.1131C9.2186 11.1613 9.27694 11.1993 9.34095 11.2249C9.40496 11.2506 9.47339 11.2633 9.54233 11.2625C9.68157 11.2608 9.81445 11.2039 9.91173 11.1043C10.009 11.0047 10.0627 10.8705 10.0611 10.7312C10.0594 10.592 10.0025 10.4591 9.90289 10.3618C9.80326 10.2646 9.66907 10.2108 9.52983 10.2125ZM14.6923 13.315C14.6655 13.3481 14.628 13.3769 14.5948 13.4069L14.7261 13.4787C14.7155 13.4162 14.7055 13.3475 14.6923 13.315ZM14.3486 13.3775L13.8905 13.6031L13.928 13.6344L14.0517 13.7325L15.298 14.7362L15.3073 14.7437C15.7092 15.0651 16.1159 15.3803 16.5273 15.6894C16.5226 15.7155 16.5209 15.7422 16.5223 15.7687L16.6848 15.7437L16.7492 15.8387L18.1973 16.7587C18.1223 17.015 18.1567 17.3544 18.3267 17.6694C18.8205 18.585 19.9998 18.9781 19.9998 18.9781C19.518 17.7481 19.8692 16.7475 18.9186 16.395C18.7673 16.3387 18.6355 16.3369 18.5255 16.3744L17.2461 15.19L17.1373 15.1575L17.1217 14.9937C17.0958 15.004 17.0707 15.0164 17.0467 15.0306C16.8555 14.8681 16.6173 14.695 16.3655 14.5212C15.513 13.9994 14.9548 13.7087 14.348 13.3775H14.3486Z" fill="#968D77"/>
</g>
<defs>
<linearGradient id="paint0_linear_205_7" x1="12.5" y1="0" x2="12.5" y2="25" gradientUnits="userSpaceOnUse">
<stop stop-color="#5C5543"/>
<stop offset="1" stop-color="#2E2A1F"/>
</linearGradient>
<clipPath id="clip0_205_7">
<rect width="15" height="15" fill="white" transform="translate(5 5)"/>
</clipPath>
</defs>
</svg>
