<svg width="40" height="40" viewBox="0 0 40 40" fill="none" xmlns="http://www.w3.org/2000/svg">
<rect width="40" height="40" rx="8.4" fill="url(#paint0_linear_205_7)"/>
<rect x="0.75" y="0.75" width="38.5" height="38.5" rx="7.65" stroke="white" stroke-opacity="0.15" stroke-width="1.5"/>
<g clip-path="url(#clip0_205_7)">
<path d="M28.1749 9.20417C28.0645 9.1875 27.9374 9.31563 27.8374 9.61771C27.6739 10.1073 26.7197 12.9542 22.1041 14.124C22.7249 14.6573 23.1207 15.4177 23.1207 16.2687C23.1207 17.8802 21.7207 19.1854 19.9957 19.1854C18.2718 19.1854 16.8739 17.8792 16.8728 16.2687C16.8728 15.6406 17.0895 15.0625 17.4509 14.5854C14.1853 14.25 12.7739 11.3323 12.7739 11.3323L12.6739 15.6687C12.6478 16.2562 12.6645 16.826 12.3926 17.3729C12.3755 17.3478 12.3581 17.3228 12.3405 17.2979C11.9574 16.7648 11.4753 16.32 10.95 16.015C10.4248 15.7101 9.87792 15.5575 9.37282 15.575C8.97497 15.5887 8.61447 15.7076 8.31761 15.9229C7.78831 16.3059 7.49414 16.9705 7.49981 17.7704C7.50547 18.5704 7.81051 19.4402 8.34782 20.1885C8.79282 20.8079 9.36959 21.3056 9.98914 21.605C10.6087 21.9043 11.2366 21.9886 11.7759 21.8448C14.8978 24.1573 20.6114 26.1656 24.5166 23.8083L22.4072 22.1115C21.2989 22.4708 19.6947 22.4656 17.827 21.8042C20.8478 22.4104 22.4832 21.749 23.3832 21.0521C23.1457 20.7437 22.6436 20.5042 22.6436 20.5042C22.6436 20.5042 23.2301 20.6156 23.6124 21.0208C23.7655 21.1823 23.8186 21.424 23.8395 21.701C24.4155 22.0115 25.0718 22.3844 25.7926 22.8073C27.9384 20.6615 29.1811 16.6271 28.4176 9.66458C28.3811 9.38438 28.2853 9.22188 28.1749 9.20417ZM14.6405 14.8917C15.7353 14.8906 16.6228 15.7198 16.6228 16.7427C16.6228 17.7635 15.7343 18.5927 14.6405 18.5917C13.5468 18.5917 12.6614 17.7635 12.6614 16.7427C12.6614 15.7208 13.5468 14.8917 14.6405 14.8906V14.8917ZM20.6572 15.3937C20.4759 15.3936 20.2964 15.4292 20.1289 15.4984C19.9614 15.5676 19.8092 15.6692 19.6809 15.7973C19.5527 15.9253 19.4509 16.0774 19.3814 16.2448C19.3119 16.4122 19.2761 16.5917 19.2759 16.7729C19.2758 16.9542 19.3114 17.1337 19.3806 17.3012C19.4498 17.4687 19.5514 17.6209 19.6795 17.7492C19.8075 17.8774 19.9596 17.9792 20.127 18.0487C20.2944 18.1182 20.4739 18.154 20.6551 18.1542C21.0212 18.1544 21.3723 18.0093 21.6314 17.7506C21.8904 17.492 22.0361 17.1411 22.0364 16.775C22.0366 16.4089 21.8915 16.0578 21.6328 15.7987C21.3742 15.5397 21.0232 15.394 20.6572 15.3937ZM9.25928 16.0594C9.25997 16.0594 9.26066 16.0594 9.26136 16.0594C9.26865 16.0593 9.27594 16.0593 9.28323 16.0594C9.41537 16.0592 9.54623 16.0847 9.66832 16.1344C9.79041 16.184 9.90133 16.2568 9.99471 16.3487C10.0881 16.4405 10.1621 16.5495 10.2125 16.6695C10.2629 16.7895 10.2887 16.9181 10.2884 17.0479C10.2884 17.1775 10.2624 17.3059 10.2119 17.4257C10.1614 17.5454 10.0873 17.6542 9.99396 17.7458C9.9006 17.8374 9.78978 17.9101 9.66783 17.9596C9.54588 18.0091 9.41519 18.0345 9.28323 18.0344C9.01727 18.0338 8.76239 17.9297 8.57453 17.7447C8.38666 17.5598 8.28115 17.3092 8.28115 17.0479C8.28024 16.79 8.38223 16.5419 8.56526 16.3569C8.74829 16.1719 8.9978 16.0648 9.26032 16.0583L9.25928 16.0594ZM15.0499 16.1875C14.935 16.1889 14.8215 16.2129 14.7158 16.2581C14.6102 16.3033 14.5145 16.3689 14.4342 16.4511C14.3539 16.5334 14.2906 16.6306 14.2479 16.7373C14.2052 16.844 14.1839 16.958 14.1853 17.0729C14.1867 17.1878 14.2107 17.3013 14.2559 17.407C14.3011 17.5126 14.3667 17.6083 14.449 17.6886C14.5312 17.7689 14.6284 17.8322 14.7351 17.8749C14.8418 17.9176 14.9558 17.9389 15.0707 17.9375C15.3028 17.9347 15.5243 17.8399 15.6864 17.6739C15.8485 17.5078 15.9381 17.2841 15.9353 17.0521C15.9326 16.82 15.8377 16.5986 15.6717 16.4364C15.5056 16.2743 15.282 16.1847 15.0499 16.1875ZM23.6541 21.3583C23.6093 21.4135 23.5468 21.4615 23.4916 21.5115L23.7103 21.6312C23.6926 21.5271 23.6759 21.4125 23.6541 21.3583ZM23.0811 21.4625L22.3176 21.8385L22.3801 21.8906L22.5864 22.0542L24.6634 23.7271L24.6791 23.7396C25.3489 24.2751 26.0267 24.8005 26.7124 25.3156C26.7044 25.3592 26.7016 25.4036 26.7041 25.4479L26.9749 25.4062L27.0822 25.5646L29.4957 27.0979C29.3707 27.525 29.428 28.0906 29.7114 28.6156C30.5343 30.1417 32.4999 30.7969 32.4999 30.7969C31.6968 28.7469 32.2822 27.0792 30.6978 26.4917C30.4457 26.3979 30.2259 26.3948 30.0426 26.4573L27.9103 24.4833L27.7291 24.4292L27.703 24.1562C27.6598 24.1734 27.618 24.1939 27.578 24.2177C27.2593 23.9469 26.8624 23.6583 26.4426 23.3687C25.0218 22.499 24.0916 22.0146 23.0801 21.4625H23.0811Z" fill="#968D77"/>
</g>
<defs>
<linearGradient id="paint0_linear_205_7" x1="20" y1="0" x2="20" y2="40" gradientUnits="userSpaceOnUse">
<stop stop-color="#5C5543"/>
<stop offset="1" stop-color="#2E2A1F"/>
</linearGradient>
<clipPath id="clip0_205_7">
<rect width="25" height="25" fill="white" transform="translate(7.5 7.5)"/>
</clipPath>
</defs>
</svg>
