<svg width="159" height="56" viewBox="0 0 159 56" fill="none" xmlns="http://www.w3.org/2000/svg">
<rect width="159" height="56" rx="8" fill="url(#paint0_linear_1301_14)"/>
<rect x="1.05" y="1.05" width="156.9" height="53.9" rx="6.95" stroke="white" stroke-opacity="0.15" stroke-width="2.1"/>
<g clip-path="url(#clip0_1301_14)">
<path d="M42 44.6667H18.6667C17.7826 44.6667 16.9348 44.3155 16.3096 43.6904C15.6845 43.0652 15.3333 42.2174 15.3333 41.3333V18" stroke="#FF8059" stroke-width="2" stroke-linecap="round" stroke-linejoin="round"/>
<path d="M48.6667 29.6667L46.5067 27.5067C45.7534 26.7535 44.7318 26.3304 43.6667 26.3304C42.6015 26.3304 41.5799 26.7535 40.8267 27.5067L30.3333 38" stroke="#FF8059" stroke-width="2" stroke-linecap="round" stroke-linejoin="round"/>
<path d="M32 24.6667C33.841 24.6667 35.3333 23.1743 35.3333 21.3333C35.3333 19.4924 33.841 18 32 18C30.1591 18 28.6667 19.4924 28.6667 21.3333C28.6667 23.1743 30.1591 24.6667 32 24.6667Z" stroke="#FF8059" stroke-width="2" stroke-linecap="round" stroke-linejoin="round"/>
<path d="M45.3333 11.3333H25.3333C23.4924 11.3333 22 12.8257 22 14.6667V34.6667C22 36.5076 23.4924 38 25.3333 38H45.3333C47.1743 38 48.6667 36.5076 48.6667 34.6667V14.6667C48.6667 12.8257 47.1743 11.3333 45.3333 11.3333Z" stroke="#FF8059" stroke-width="2" stroke-linecap="round" stroke-linejoin="round"/>
</g>
<g filter="url(#filter0_d_1301_14)">
<path d="M60.9357 34V21.6364H69.5565V24.0632H63.924V26.5987H69.1158V29.0316H63.924V31.5731H69.5565V34H60.9357ZM73.9393 24.7273L75.4666 27.782L77.0483 24.7273H80.0245L77.4347 29.3636L80.1211 34H77.169L75.4666 30.9212L73.8065 34H70.8121L73.5046 29.3636L70.945 24.7273H73.9393ZM81.3722 34V24.7273H84.3243V34H81.3722ZM82.8513 23.6467C82.4368 23.6467 82.0806 23.5098 81.7828 23.2361C81.4849 22.9584 81.336 22.6244 81.336 22.234C81.336 21.8477 81.4849 21.5176 81.7828 21.244C82.0806 20.9663 82.4368 20.8274 82.8513 20.8274C83.2698 20.8274 83.626 20.9663 83.9198 21.244C84.2176 21.5176 84.3666 21.8477 84.3666 22.234C84.3666 22.6244 84.2176 22.9584 83.9198 23.2361C83.626 23.5098 83.2698 23.6467 82.8513 23.6467ZM91.4735 24.7273V26.9006H85.509V24.7273H91.4735ZM86.7527 34V24.2564C86.7527 23.54 86.8875 22.9464 87.1571 22.4755C87.4268 22.0006 87.8011 21.6464 88.28 21.413C88.7589 21.1755 89.3123 21.0568 89.9402 21.0568C90.3507 21.0568 90.737 21.089 91.0992 21.1534C91.4655 21.2138 91.7371 21.2681 91.9142 21.3164L91.4434 23.4776C91.3347 23.4414 91.2019 23.4112 91.0449 23.3871C90.892 23.3629 90.7471 23.3508 90.6103 23.3508C90.2641 23.3508 90.0267 23.4273 89.8979 23.5803C89.7691 23.7332 89.7047 23.9425 89.7047 24.2081V34H86.7527ZM92.8937 34V21.6364H101.514V24.0632H95.882V26.5987H101.074V29.0316H95.882V31.5731H101.514V34H92.8937ZM106.773 34.1328C106.088 34.1328 105.467 33.9557 104.907 33.6016C104.348 33.2474 103.901 32.7161 103.567 32.0078C103.233 31.2995 103.066 30.4201 103.066 29.3697C103.066 28.279 103.239 27.3815 103.585 26.6772C103.931 25.9729 104.384 25.4517 104.943 25.1136C105.507 24.7756 106.113 24.6065 106.761 24.6065C107.248 24.6065 107.664 24.691 108.01 24.8601C108.356 25.0251 108.642 25.2384 108.867 25.5C109.093 25.7616 109.264 26.0333 109.381 26.315H109.441V21.6364H112.393V34H109.471V32.4968H109.381C109.256 32.7825 109.079 33.0502 108.849 33.2997C108.62 33.5492 108.332 33.7505 107.986 33.9034C107.644 34.0563 107.239 34.1328 106.773 34.1328ZM107.799 31.8327C108.157 31.8327 108.463 31.7321 108.717 31.5309C108.97 31.3256 109.165 31.0379 109.302 30.6676C109.439 30.2973 109.507 29.8627 109.507 29.3636C109.507 28.8565 109.439 28.4199 109.302 28.0536C109.169 27.6874 108.974 27.4057 108.717 27.2084C108.463 27.0112 108.157 26.9126 107.799 26.9126C107.433 26.9126 107.123 27.0133 106.869 27.2145C106.616 27.4157 106.422 27.6995 106.29 28.0657C106.161 28.4319 106.096 28.8646 106.096 29.3636C106.096 29.8627 106.163 30.2973 106.296 30.6676C106.429 31.0379 106.62 31.3256 106.869 31.5309C107.123 31.7321 107.433 31.8327 107.799 31.8327ZM114.26 34V24.7273H117.212V34H114.26ZM115.739 23.6467C115.324 23.6467 114.968 23.5098 114.67 23.2361C114.373 22.9584 114.224 22.6244 114.224 22.234C114.224 21.8477 114.373 21.5176 114.67 21.244C114.968 20.9663 115.324 20.8274 115.739 20.8274C116.158 20.8274 116.514 20.9663 116.808 21.244C117.105 21.5176 117.254 21.8477 117.254 22.234C117.254 22.6244 117.105 22.9584 116.808 23.2361C116.514 23.5098 116.158 23.6467 115.739 23.6467ZM118.687 24.0632V21.6364H129.136V24.0632H125.387V34H122.441V24.0632H118.687ZM138.076 21.6364H141.058V29.6111C141.058 30.5328 140.839 31.3357 140.4 32.0199C139.961 32.7 139.349 33.2273 138.565 33.6016C137.78 33.9718 136.868 34.157 135.83 34.157C134.779 34.157 133.862 33.9718 133.077 33.6016C132.292 33.2273 131.683 32.7 131.248 32.0199C130.813 31.3357 130.596 30.5328 130.596 29.6111V21.6364H133.584V29.3516C133.584 29.7782 133.677 30.1585 133.862 30.4925C134.051 30.8266 134.315 31.0882 134.653 31.2773C134.991 31.4665 135.383 31.5611 135.83 31.5611C136.277 31.5611 136.667 31.4665 137.001 31.2773C137.339 31.0882 137.603 30.8266 137.792 30.4925C137.981 30.1585 138.076 29.7782 138.076 29.3516V21.6364ZM145.919 21.6364V34H142.931V21.6364H145.919Z" fill="#FF8059"/>
</g>
<defs>
<filter id="filter0_d_1301_14" x="54.4" y="13.4" width="98.2" height="29.2" filterUnits="userSpaceOnUse" color-interpolation-filters="sRGB">
<feFlood flood-opacity="0" result="BackgroundImageFix"/>
<feColorMatrix in="SourceAlpha" type="matrix" values="0 0 0 0 0 0 0 0 0 0 0 0 0 0 0 0 0 0 127 0" result="hardAlpha"/>
<feOffset/>
<feGaussianBlur stdDeviation="2.8"/>
<feComposite in2="hardAlpha" operator="out"/>
<feColorMatrix type="matrix" values="0 0 0 0 0 0 0 0 0 0 0 0 0 0 0 0 0 0 0.25 0"/>
<feBlend mode="normal" in2="BackgroundImageFix" result="effect1_dropShadow_1301_14"/>
<feBlend mode="normal" in="SourceGraphic" in2="effect1_dropShadow_1301_14" result="shape"/>
</filter>
<linearGradient id="paint0_linear_1301_14" x1="79.5" y1="0" x2="79.5" y2="56" gradientUnits="userSpaceOnUse">
<stop stop-color="#9B4B33"/>
<stop offset="1" stop-color="#5C210F"/>
</linearGradient>
<clipPath id="clip0_1301_14">
<rect width="40" height="40" fill="white" transform="translate(12 8)"/>
</clipPath>
</defs>
</svg>
