<svg width="56" height="56" viewBox="0 0 56 56" fill="none" xmlns="http://www.w3.org/2000/svg">
<rect width="56" height="56" rx="8.4" fill="url(#paint0_linear_205_7)"/>
<rect x="1.05" y="1.05" width="53.9" height="53.9" rx="7.35" stroke="white" stroke-opacity="0.15" stroke-width="2.1"/>
<g clip-path="url(#clip0_205_7)">
<path d="M41.08 10.7267C40.9033 10.7 40.7 10.905 40.54 11.3883C40.2783 12.1717 38.7517 16.7267 31.3667 18.5983C32.36 19.4517 32.9933 20.6683 32.9933 22.03C32.9933 24.6083 30.7533 26.6967 27.9933 26.6967C25.235 26.6967 22.9983 24.6067 22.9967 22.03C22.9967 21.025 23.3433 20.1 23.9217 19.3367C18.6967 18.8 16.4383 14.1317 16.4383 14.1317L16.2783 21.07C16.2367 22.01 16.2633 22.9217 15.8283 23.7967C15.8009 23.7564 15.7732 23.7164 15.745 23.6767C15.132 22.8236 14.3606 22.1119 13.5202 21.624C12.6798 21.1361 11.8048 20.892 10.9967 20.92C10.3601 20.942 9.78331 21.1322 9.30834 21.4767C8.46146 22.0895 7.99079 23.1527 7.99985 24.4327C8.00892 25.7126 8.49697 27.1043 9.35667 28.3017C10.0687 29.2926 10.9915 30.089 11.9828 30.5679C12.9741 31.0469 13.9787 31.1817 14.8417 30.9517C19.8367 34.6517 28.9783 37.865 35.2267 34.0933L31.8517 31.3783C30.0783 31.9533 27.5117 31.945 24.5233 30.8867C29.3567 31.8567 31.9733 30.7983 33.4133 29.6833C33.0333 29.19 32.23 28.8067 32.23 28.8067C32.23 28.8067 33.1683 28.985 33.78 29.6333C34.025 29.8917 34.11 30.2783 34.1433 30.7217C35.065 31.2183 36.115 31.815 37.2683 32.4917C40.7017 29.0583 42.69 22.6033 41.4683 11.4633C41.41 11.015 41.2567 10.755 41.08 10.7267ZM19.425 19.8267C21.1767 19.825 22.5967 21.1517 22.5967 22.7883C22.5967 24.4217 21.175 25.7483 19.425 25.7467C17.675 25.7467 16.2583 24.4217 16.2583 22.7883C16.2583 21.1533 17.675 19.8267 19.425 19.825V19.8267ZM29.0517 20.63C28.7617 20.6298 28.4745 20.6867 28.2064 20.7975C27.9384 20.9082 27.6949 21.0707 27.4897 21.2756C27.2844 21.4805 27.1216 21.7239 27.0104 21.9917C26.8992 22.2595 26.8419 22.5467 26.8417 22.8367C26.8415 23.1267 26.8984 23.4139 27.0091 23.6819C27.1199 23.9499 27.2824 24.1935 27.4873 24.3987C27.6922 24.6039 27.9355 24.7667 28.2034 24.8779C28.4712 24.9891 28.7583 25.0464 29.0483 25.0467C29.634 25.0471 30.1959 24.8149 30.6104 24.401C31.0248 23.9872 31.2579 23.4257 31.2583 22.84C31.2588 22.2543 31.0265 21.6924 30.6127 21.278C30.1989 20.8635 29.6374 20.6304 29.0517 20.63ZM10.815 21.695C10.8161 21.695 10.8172 21.695 10.8183 21.695C10.83 21.6949 10.8417 21.6949 10.8533 21.695C11.0648 21.6948 11.2741 21.7356 11.4695 21.815C11.6648 21.8944 11.8423 22.0109 11.9917 22.1579C12.1411 22.3048 12.2595 22.4793 12.3402 22.6713C12.4208 22.8632 12.4621 23.069 12.4617 23.2767C12.4617 23.4841 12.4201 23.6894 12.3392 23.881C12.2584 24.0726 12.1399 24.2467 11.9905 24.3933C11.8411 24.5399 11.6638 24.6561 11.4687 24.7353C11.2736 24.8145 11.0645 24.8552 10.8533 24.855C10.4278 24.8541 10.02 24.6875 9.71941 24.3916C9.41882 24.0957 9.25 23.6947 9.25001 23.2767C9.24854 22.8639 9.41173 22.467 9.70458 22.1711C9.99743 21.8751 10.3966 21.7036 10.8167 21.6933L10.815 21.695ZM20.08 21.9C19.8962 21.9022 19.7145 21.9406 19.5455 22.0129C19.3765 22.0853 19.2234 22.1903 19.0949 22.3218C18.9665 22.4534 18.8652 22.6089 18.7969 22.7796C18.7285 22.9503 18.6945 23.1328 18.6967 23.3167C18.6989 23.5005 18.7372 23.6821 18.8096 23.8512C18.882 24.0202 18.987 24.1733 19.1185 24.3017C19.2501 24.4302 19.4056 24.5315 19.5763 24.5998C19.747 24.6681 19.9295 24.7022 20.1133 24.7C20.4846 24.6956 20.839 24.5438 21.0984 24.2782C21.3578 24.0125 21.5011 23.6546 21.4967 23.2833C21.4922 22.912 21.3405 22.5577 21.0748 22.2983C20.8092 22.0388 20.4513 21.8956 20.08 21.9ZM33.8467 30.1733C33.775 30.2617 33.675 30.3383 33.5867 30.4183L33.9367 30.61C33.9083 30.4433 33.8817 30.26 33.8467 30.1733ZM32.93 30.34L31.7083 30.9417L31.8083 31.025L32.1383 31.2867L35.4617 33.9633L35.4867 33.9833C36.5584 34.8402 37.6429 35.6809 38.74 36.505C38.7273 36.5748 38.7228 36.6458 38.7267 36.7167L39.16 36.65L39.3317 36.9033L43.1933 39.3567C42.9933 40.04 43.085 40.945 43.5383 41.785C44.855 44.2267 48 45.275 48 45.275C46.715 41.995 47.6517 39.3267 45.1167 38.3867C44.7133 38.2367 44.3617 38.2317 44.0683 38.3317L40.6567 35.1733L40.3667 35.0867L40.325 34.65C40.2558 34.6774 40.1889 34.7103 40.125 34.7483C39.615 34.315 38.98 33.8533 38.3083 33.39C36.035 31.9983 34.5467 31.2233 32.9283 30.34H32.93Z" fill="#968D77"/>
</g>
<defs>
<linearGradient id="paint0_linear_205_7" x1="28" y1="0" x2="28" y2="56" gradientUnits="userSpaceOnUse">
<stop stop-color="#5C5543"/>
<stop offset="1" stop-color="#2E2A1F"/>
</linearGradient>
<clipPath id="clip0_205_7">
<rect width="40" height="40" fill="white" transform="translate(8 8)"/>
</clipPath>
</defs>
</svg>
