<svg width="98" height="56" viewBox="0 0 98 56" fill="none" xmlns="http://www.w3.org/2000/svg">
<rect width="98" height="56" rx="8" fill="url(#paint0_linear_1_50)"/>
<rect x="1.05" y="1.05" width="95.9" height="53.9" rx="6.95" stroke="white" stroke-opacity="0.15" stroke-width="2.1"/>
<g clip-path="url(#clip0_1_50)">
<g clip-path="url(#clip1_1_50)">
<g clip-path="url(#clip2_1_50)">
<g clip-path="url(#clip3_1_50)">
<g clip-path="url(#clip4_1_50)">
<g clip-path="url(#clip5_1_50)">
<g clip-path="url(#clip6_1_50)">
<g clip-path="url(#clip7_1_50)">
<path d="M51.2433 26.2168L33.7783 8.7535C32.7717 7.7485 31.1417 7.7485 30.1317 8.7535L26.5133 12.3785L31.1133 16.9785C32.1883 16.6202 33.4117 16.8618 34.2617 17.7135C35.1217 18.5718 35.3583 19.8102 34.9917 20.8802L39.4217 25.3135C40.4967 24.9418 41.7333 25.1835 42.5883 26.0385C43.79 27.2385 43.79 29.1785 42.5883 30.3785C41.39 31.5768 39.4533 31.5768 38.255 30.3785C37.3567 29.4768 37.1317 28.1502 37.5817 27.0518L33.4333 22.9252V33.8002C33.7267 33.9435 34.0033 34.1385 34.2467 34.3802C35.435 35.5818 35.435 37.5185 34.2467 38.7135C33.0483 39.9152 31.0983 39.9152 29.8983 38.7135C28.7 37.5152 28.7 35.5818 29.8983 34.3835C30.2017 34.0835 30.5433 33.8568 30.9067 33.7068V22.7252C30.545 22.5735 30.2 22.3552 29.9067 22.0568C28.9983 21.1485 28.78 19.8202 29.2467 18.7085L24.7267 14.1668L12.75 26.1352C11.75 27.1435 11.75 28.7752 12.75 29.7835L30.2167 47.2452C31.2233 48.2518 32.8533 48.2518 33.86 47.2452L51.2433 29.8618C52.2517 28.8568 52.2517 27.2252 51.2433 26.2168Z" fill="#F05032"/>
</g>
</g>
</g>
</g>
</g>
</g>
</g>
</g>
<g filter="url(#filter0_d_1_50)">
<path d="M69.0494 25.6751C68.9809 25.4215 68.8803 25.1981 68.7475 25.005C68.6147 24.8078 68.4517 24.6407 68.2585 24.5039C68.0653 24.3671 67.844 24.2644 67.5945 24.196C67.3449 24.1236 67.0713 24.0874 66.7734 24.0874C66.1738 24.0874 65.6546 24.2322 65.2159 24.522C64.7812 24.8118 64.4452 25.2344 64.2077 25.7898C63.9703 26.3411 63.8516 27.0112 63.8516 27.8001C63.8516 28.5929 63.9663 29.2691 64.1957 29.8285C64.4251 30.3879 64.7571 30.8145 65.1918 31.1083C65.6264 31.4021 66.1536 31.549 66.7734 31.549C67.3208 31.549 67.7836 31.4605 68.1619 31.2834C68.5443 31.1023 68.834 30.8467 69.0312 30.5167C69.2284 30.1867 69.327 29.7983 69.327 29.3516L69.8824 29.418H66.8761V27.2386H72.2067V28.8746C72.2067 29.9814 71.9712 30.9292 71.5003 31.718C71.0335 32.5069 70.3895 33.1126 69.5685 33.5352C68.7515 33.9577 67.8118 34.169 66.7493 34.169C65.5701 34.169 64.5337 33.9135 63.6403 33.4023C62.7468 32.8912 62.0505 32.1628 61.5515 31.217C61.0524 30.2672 60.8029 29.1403 60.8029 27.8363C60.8029 26.8221 60.9538 25.9226 61.2557 25.1378C61.5575 24.349 61.9781 23.6809 62.5174 23.1335C63.0607 22.5862 63.6886 22.1716 64.4009 21.8899C65.1173 21.6082 65.888 21.4673 66.7131 21.4673C67.4294 21.4673 68.0955 21.57 68.7113 21.7752C69.3311 21.9805 69.8784 22.2702 70.3533 22.6445C70.8323 23.0188 71.2206 23.4635 71.5185 23.9787C71.8163 24.4938 72.0014 25.0593 72.0739 25.6751H69.0494ZM74.549 34V24.7273H77.5011V34H74.549ZM76.028 23.6467C75.6135 23.6467 75.2573 23.5098 74.9595 23.2361C74.6617 22.9584 74.5128 22.6244 74.5128 22.234C74.5128 21.8477 74.6617 21.5176 74.9595 21.244C75.2573 20.9663 75.6135 20.8274 76.028 20.8274C76.4466 20.8274 76.8028 20.9663 77.0966 21.244C77.3944 21.5176 77.5433 21.8477 77.5433 22.234C77.5433 22.6244 77.3944 22.9584 77.0966 23.2361C76.8028 23.5098 76.4466 23.6467 76.028 23.6467ZM84.6141 24.7273V26.9006H78.7643V24.7273H84.6141ZM79.9898 22.5057H82.9418V31.0842C82.9418 31.2653 82.97 31.4122 83.0264 31.5249C83.0867 31.6335 83.1733 31.712 83.2859 31.7603C83.3986 31.8046 83.5335 31.8267 83.6904 31.8267C83.8031 31.8267 83.9218 31.8166 84.0466 31.7965C84.1754 31.7724 84.272 31.7522 84.3364 31.7361L84.7831 33.8672C84.6422 33.9074 84.443 33.9577 84.1854 34.0181C83.9319 34.0785 83.628 34.1167 83.2739 34.1328C82.5816 34.165 81.988 34.0845 81.493 33.8913C81.002 33.6941 80.6257 33.3883 80.3641 32.9737C80.1065 32.5592 79.9817 32.038 79.9898 31.4102V22.5057Z" fill="#FF5A3C"/>
</g>
<defs>
<filter id="filter0_d_1_50" x="54.4" y="13.4" width="37.2" height="29.2" filterUnits="userSpaceOnUse" color-interpolation-filters="sRGB">
<feFlood flood-opacity="0" result="BackgroundImageFix"/>
<feColorMatrix in="SourceAlpha" type="matrix" values="0 0 0 0 0 0 0 0 0 0 0 0 0 0 0 0 0 0 127 0" result="hardAlpha"/>
<feOffset/>
<feGaussianBlur stdDeviation="2.8"/>
<feComposite in2="hardAlpha" operator="out"/>
<feColorMatrix type="matrix" values="0 0 0 0 0 0 0 0 0 0 0 0 0 0 0 0 0 0 0.25 0"/>
<feBlend mode="normal" in2="BackgroundImageFix" result="effect1_dropShadow_1_50"/>
<feBlend mode="normal" in="SourceGraphic" in2="effect1_dropShadow_1_50" result="shape"/>
</filter>
<linearGradient id="paint0_linear_1_50" x1="49" y1="0" x2="49" y2="56" gradientUnits="userSpaceOnUse">
<stop stop-color="#B33D27"/>
<stop offset="1" stop-color="#6D2416"/>
</linearGradient>
<clipPath id="clip0_1_50">
<rect width="40" height="40" fill="white" transform="translate(12 8)"/>
</clipPath>
<clipPath id="clip1_1_50">
<rect width="40" height="40" fill="white" transform="translate(12 8)"/>
</clipPath>
<clipPath id="clip2_1_50">
<rect width="40" height="40" fill="white" transform="translate(12 8)"/>
</clipPath>
<clipPath id="clip3_1_50">
<rect width="40" height="40" fill="white" transform="translate(12 8)"/>
</clipPath>
<clipPath id="clip4_1_50">
<rect width="40" height="40" fill="white" transform="translate(12 8)"/>
</clipPath>
<clipPath id="clip5_1_50">
<rect width="40" height="40" fill="white" transform="translate(12 8)"/>
</clipPath>
<clipPath id="clip6_1_50">
<rect width="40" height="40" fill="white" transform="translate(12 8)"/>
</clipPath>
<clipPath id="clip7_1_50">
<rect width="40" height="40" fill="white" transform="translate(12 8)"/>
</clipPath>
</defs>
</svg>
