<svg width="56" height="56" viewBox="0 0 56 56" fill="none" xmlns="http://www.w3.org/2000/svg">
<rect width="56" height="56" rx="8" fill="url(#paint0_linear_1_50)"/>
<rect x="1.05" y="1.05" width="53.9" height="53.9" rx="6.95" stroke="white" stroke-opacity="0.15" stroke-width="2.1"/>
<g clip-path="url(#clip0_1_50)">
<g clip-path="url(#clip1_1_50)">
<g clip-path="url(#clip2_1_50)">
<g clip-path="url(#clip3_1_50)">
<g clip-path="url(#clip4_1_50)">
<g clip-path="url(#clip5_1_50)">
<g clip-path="url(#clip6_1_50)">
<g clip-path="url(#clip7_1_50)">
<path d="M47.2433 26.2168L29.7783 8.7535C28.7717 7.7485 27.1417 7.7485 26.1317 8.7535L22.5133 12.3785L27.1133 16.9785C28.1883 16.6202 29.4117 16.8618 30.2617 17.7135C31.1217 18.5718 31.3583 19.8102 30.9917 20.8802L35.4217 25.3135C36.4967 24.9418 37.7333 25.1835 38.5883 26.0385C39.79 27.2385 39.79 29.1785 38.5883 30.3785C37.39 31.5768 35.4533 31.5768 34.255 30.3785C33.3567 29.4768 33.1317 28.1502 33.5817 27.0518L29.4333 22.9252V33.8002C29.7267 33.9435 30.0033 34.1385 30.2467 34.3802C31.435 35.5818 31.435 37.5185 30.2467 38.7135C29.0483 39.9152 27.0983 39.9152 25.8983 38.7135C24.7 37.5152 24.7 35.5818 25.8983 34.3835C26.2017 34.0835 26.5433 33.8568 26.9067 33.7068V22.7252C26.545 22.5735 26.2 22.3552 25.9067 22.0568C24.9983 21.1485 24.78 19.8202 25.2467 18.7085L20.7267 14.1668L8.75 26.1352C7.75 27.1435 7.75 28.7752 8.75 29.7835L26.2167 47.2452C27.2233 48.2518 28.8533 48.2518 29.86 47.2452L47.2433 29.8618C48.2517 28.8568 48.2517 27.2252 47.2433 26.2168Z" fill="#F05032"/>
</g>
</g>
</g>
</g>
</g>
</g>
</g>
</g>
<defs>
<linearGradient id="paint0_linear_1_50" x1="28" y1="0" x2="28" y2="56" gradientUnits="userSpaceOnUse">
<stop stop-color="#8A2F1D"/>
<stop offset="1" stop-color="#3C130C"/>
</linearGradient>
<clipPath id="clip0_1_50">
<rect width="40" height="40" fill="white" transform="translate(8 8)"/>
</clipPath>
<clipPath id="clip1_1_50">
<rect width="40" height="40" fill="white" transform="translate(8 8)"/>
</clipPath>
<clipPath id="clip2_1_50">
<rect width="40" height="40" fill="white" transform="translate(8 8)"/>
</clipPath>
<clipPath id="clip3_1_50">
<rect width="40" height="40" fill="white" transform="translate(8 8)"/>
</clipPath>
<clipPath id="clip4_1_50">
<rect width="40" height="40" fill="white" transform="translate(8 8)"/>
</clipPath>
<clipPath id="clip5_1_50">
<rect width="40" height="40" fill="white" transform="translate(8 8)"/>
</clipPath>
<clipPath id="clip6_1_50">
<rect width="40" height="40" fill="white" transform="translate(8 8)"/>
</clipPath>
<clipPath id="clip7_1_50">
<rect width="40" height="40" fill="white" transform="translate(8 8)"/>
</clipPath>
</defs>
</svg>
