<svg width="56" height="56" viewBox="0 0 56 56" fill="none" xmlns="http://www.w3.org/2000/svg">
<rect width="56" height="56" rx="8" fill="#172428"/>
<rect x="1.05" y="1.05" width="53.9" height="53.9" rx="6.95" stroke="white" stroke-opacity="0.15" stroke-width="2.1"/>
<g clip-path="url(#clip0_703_2)">
<g clip-path="url(#clip1_703_2)">
<g clip-path="url(#clip2_703_2)">
<g clip-path="url(#clip3_703_2)">
<path d="M45.8248 15.1617C44.6614 13.9986 43.0917 13.3328 41.4468 13.3048C39.802 13.2768 38.2105 13.8888 37.0082 15.0117C36.948 15.069 36.9001 15.1379 36.8674 15.2142C36.8347 15.2906 36.8178 15.3728 36.8178 15.4558C36.8178 15.5389 36.8347 15.6211 36.8674 15.6975C36.9001 15.7738 36.948 15.8427 37.0082 15.9L37.7748 16.6833C37.8781 16.7857 38.0148 16.8474 38.1599 16.8572C38.305 16.867 38.4487 16.8242 38.5648 16.7367C39.2982 16.1521 40.229 15.8733 41.1629 15.9587C42.0968 16.0441 42.9616 16.4869 43.5768 17.1948C44.192 17.9027 44.5099 18.8208 44.4642 19.7575C44.4185 20.6942 44.0127 21.5771 43.3315 22.2217C38.2932 27.255 31.5715 13.1433 16.3132 20.4167C16.0554 20.5402 15.8261 20.7159 15.6397 20.9326C15.4533 21.1493 15.3138 21.4023 15.2302 21.6756C15.1465 21.9489 15.1205 22.2366 15.1537 22.5205C15.1869 22.8044 15.2787 23.0784 15.4232 23.325L18.0415 27.8467C18.3129 28.3183 18.7595 28.6636 19.2842 28.8075C19.8089 28.9514 20.3692 28.8822 20.8432 28.615L20.9048 28.5817L20.8565 28.615L22.0032 27.975C23.2967 27.1721 24.5194 26.2605 25.6582 25.25C25.7709 25.1472 25.9166 25.088 26.0691 25.0831C26.2216 25.0782 26.3708 25.1279 26.4898 25.2233C26.5545 25.2772 26.6069 25.3443 26.6437 25.4199C26.6805 25.4956 26.7008 25.5782 26.7033 25.6623C26.7059 25.7464 26.6905 25.8301 26.6583 25.9079C26.6261 25.9856 26.5778 26.0556 26.5165 26.1133C25.3178 27.1923 24.0261 28.1633 22.6565 29.015H22.6165L21.4565 29.665C20.9663 29.9398 20.4135 30.0833 19.8515 30.0817C19.2695 30.084 18.6971 29.9328 18.1921 29.6434C17.687 29.354 17.2672 28.9367 16.9748 28.4333L14.4998 24.16C9.76651 27.5333 6.85651 34.005 8.43318 42.2033C8.45907 42.3412 8.53208 42.4658 8.6397 42.5558C8.74733 42.6458 8.88289 42.6956 9.02318 42.6967H11.8148C11.9685 42.7002 12.1177 42.6452 12.2322 42.5427C12.3468 42.4403 12.418 42.2981 12.4315 42.145C12.5603 41.1498 13.0471 40.2355 13.8009 39.573C14.5546 38.9105 15.5238 38.5451 16.5273 38.5451C17.5309 38.5451 18.5001 38.9105 19.2538 39.573C20.0076 40.2355 20.4944 41.1498 20.6232 42.145C20.6407 42.2905 20.7109 42.4247 20.8205 42.522C20.9301 42.6193 21.0716 42.6732 21.2182 42.6733H23.9482C24.0945 42.6721 24.2354 42.6179 24.3448 42.5207C24.4542 42.4236 24.5246 42.2901 24.5432 42.145C24.6734 41.1511 25.1607 40.2385 25.9141 39.5773C26.6676 38.9161 27.6358 38.5515 28.6382 38.5515C29.6406 38.5515 30.6088 38.9161 31.3622 39.5773C32.1157 40.2385 32.603 41.1511 32.7332 42.145C32.7518 42.2904 32.8225 42.4241 32.9322 42.5213C33.042 42.6185 33.1833 42.6725 33.3298 42.6733H36.0415C36.2003 42.6734 36.3526 42.611 36.4658 42.4997C36.579 42.3884 36.6439 42.2371 36.6465 42.0783C36.7082 38.255 37.7398 33.8617 40.6798 31.6617C50.8598 24.045 48.1815 17.5183 45.8248 15.1617ZM35.4432 26.6633L33.5015 25.69C33.5017 25.4824 33.5551 25.2783 33.6564 25.0971C33.7578 24.916 33.9039 24.7638 34.0807 24.655C34.2575 24.5462 34.4592 24.4845 34.6666 24.4757C34.874 24.4669 35.0802 24.5113 35.2656 24.6047C35.451 24.6981 35.6095 24.8374 35.7258 25.0094C35.8422 25.1813 35.9126 25.3801 35.9304 25.587C35.9482 25.7938 35.9127 26.0018 35.8275 26.191C35.7422 26.3803 35.6099 26.5446 35.4432 26.6683V26.6633Z" fill="#7DC1D1"/>
</g>
</g>
</g>
</g>
<defs>
<clipPath id="clip0_703_2">
<rect width="40" height="40" fill="white" transform="translate(8 8)"/>
</clipPath>
<clipPath id="clip1_703_2">
<rect width="40" height="40" fill="white" transform="translate(8 8)"/>
</clipPath>
<clipPath id="clip2_703_2">
<rect width="40" height="40" fill="white" transform="translate(8 8)"/>
</clipPath>
<clipPath id="clip3_703_2">
<rect width="40" height="40" fill="white" transform="translate(8 8)"/>
</clipPath>
</defs>
</svg>
