<svg width="128" height="56" viewBox="0 0 128 56" fill="none" xmlns="http://www.w3.org/2000/svg">
<rect width="128" height="56" rx="8" fill="#172428"/>
<rect x="1.05" y="1.05" width="125.9" height="53.9" rx="6.95" stroke="white" stroke-opacity="0.15" stroke-width="2.1"/>
<g clip-path="url(#clip0_1_50)">
<g clip-path="url(#clip1_1_50)">
<g clip-path="url(#clip2_1_50)">
<g clip-path="url(#clip3_1_50)">
<path d="M49.8248 15.1617C48.6614 13.9986 47.0917 13.3328 45.4468 13.3048C43.802 13.2768 42.2105 13.8888 41.0082 15.0117C40.948 15.069 40.9001 15.1379 40.8674 15.2142C40.8347 15.2906 40.8178 15.3728 40.8178 15.4558C40.8178 15.5389 40.8347 15.6211 40.8674 15.6975C40.9001 15.7738 40.948 15.8427 41.0082 15.9L41.7748 16.6833C41.8781 16.7857 42.0148 16.8474 42.1599 16.8572C42.305 16.867 42.4487 16.8242 42.5648 16.7367C43.2982 16.1521 44.229 15.8733 45.1629 15.9587C46.0968 16.0441 46.9616 16.4869 47.5768 17.1948C48.192 17.9027 48.5099 18.8208 48.4642 19.7575C48.4185 20.6942 48.0127 21.5771 47.3315 22.2217C42.2932 27.255 35.5715 13.1433 20.3132 20.4167C20.0554 20.5402 19.8261 20.7159 19.6397 20.9326C19.4533 21.1493 19.3138 21.4023 19.2302 21.6756C19.1465 21.9489 19.1205 22.2366 19.1537 22.5205C19.1869 22.8044 19.2787 23.0784 19.4232 23.325L22.0415 27.8467C22.3129 28.3183 22.7595 28.6636 23.2842 28.8075C23.8089 28.9514 24.3692 28.8822 24.8432 28.615L24.9048 28.5817L24.8565 28.615L26.0032 27.975C27.2967 27.1721 28.5194 26.2605 29.6582 25.25C29.7709 25.1472 29.9166 25.088 30.0691 25.0831C30.2216 25.0782 30.3708 25.1279 30.4898 25.2233C30.5545 25.2772 30.6069 25.3443 30.6437 25.4199C30.6805 25.4956 30.7008 25.5782 30.7033 25.6623C30.7059 25.7464 30.6905 25.8301 30.6583 25.9079C30.6261 25.9856 30.5778 26.0556 30.5165 26.1133C29.3178 27.1923 28.0261 28.1633 26.6565 29.015H26.6165L25.4565 29.665C24.9663 29.9398 24.4135 30.0833 23.8515 30.0817C23.2695 30.084 22.6971 29.9328 22.1921 29.6434C21.687 29.354 21.2672 28.9367 20.9748 28.4333L18.4998 24.16C13.7665 27.5333 10.8565 34.005 12.4332 42.2033C12.4591 42.3412 12.5321 42.4658 12.6397 42.5558C12.7473 42.6458 12.8829 42.6956 13.0232 42.6967H15.8148C15.9685 42.7002 16.1177 42.6452 16.2322 42.5427C16.3468 42.4403 16.418 42.2981 16.4315 42.145C16.5603 41.1498 17.0471 40.2355 17.8009 39.573C18.5546 38.9105 19.5238 38.5451 20.5273 38.5451C21.5309 38.5451 22.5001 38.9105 23.2538 39.573C24.0076 40.2355 24.4944 41.1498 24.6232 42.145C24.6407 42.2905 24.7109 42.4247 24.8205 42.522C24.9301 42.6193 25.0716 42.6732 25.2182 42.6733H27.9482C28.0945 42.6721 28.2354 42.6179 28.3448 42.5207C28.4542 42.4236 28.5246 42.2901 28.5432 42.145C28.6734 41.1511 29.1607 40.2385 29.9141 39.5773C30.6676 38.9161 31.6358 38.5515 32.6382 38.5515C33.6406 38.5515 34.6088 38.9161 35.3622 39.5773C36.1157 40.2385 36.603 41.1511 36.7332 42.145C36.7518 42.2904 36.8225 42.4241 36.9322 42.5213C37.042 42.6185 37.1833 42.6725 37.3298 42.6733H40.0415C40.2003 42.6734 40.3526 42.611 40.4658 42.4997C40.579 42.3884 40.6439 42.2371 40.6465 42.0783C40.7082 38.255 41.7398 33.8617 44.6798 31.6617C54.8598 24.045 52.1815 17.5183 49.8248 15.1617ZM39.4432 26.6633L37.5015 25.69C37.5017 25.4824 37.5551 25.2783 37.6564 25.0971C37.7578 24.916 37.9039 24.7638 38.0807 24.655C38.2575 24.5462 38.4592 24.4845 38.6666 24.4757C38.874 24.4669 39.0802 24.5113 39.2656 24.6047C39.451 24.6981 39.6095 24.8374 39.7258 25.0094C39.8422 25.1813 39.9126 25.3801 39.9304 25.587C39.9482 25.7938 39.9127 26.0018 39.8275 26.191C39.7422 26.3803 39.6099 26.5446 39.4432 26.6683V26.6633Z" fill="#7DC1D1"/>
</g>
</g>
</g>
</g>
<g filter="url(#filter0_d_1_50)">
<path d="M69.0494 25.6751C68.9809 25.4215 68.8803 25.1981 68.7475 25.005C68.6147 24.8078 68.4517 24.6407 68.2585 24.5039C68.0653 24.3671 67.844 24.2644 67.5945 24.196C67.3449 24.1236 67.0713 24.0874 66.7734 24.0874C66.1738 24.0874 65.6546 24.2322 65.2159 24.522C64.7812 24.8118 64.4452 25.2344 64.2077 25.7898C63.9703 26.3411 63.8516 27.0112 63.8516 27.8001C63.8516 28.5929 63.9663 29.2691 64.1957 29.8285C64.4251 30.3879 64.7571 30.8145 65.1918 31.1083C65.6264 31.4021 66.1536 31.549 66.7734 31.549C67.3208 31.549 67.7836 31.4605 68.1619 31.2834C68.5443 31.1023 68.834 30.8467 69.0312 30.5167C69.2284 30.1867 69.327 29.7983 69.327 29.3516L69.8824 29.418H66.8761V27.2386H72.2067V28.8746C72.2067 29.9814 71.9712 30.9292 71.5003 31.718C71.0335 32.5069 70.3895 33.1126 69.5685 33.5352C68.7515 33.9577 67.8118 34.169 66.7493 34.169C65.5701 34.169 64.5337 33.9135 63.6403 33.4023C62.7468 32.8912 62.0505 32.1628 61.5515 31.217C61.0524 30.2672 60.8029 29.1403 60.8029 27.8363C60.8029 26.8221 60.9538 25.9226 61.2557 25.1378C61.5575 24.349 61.9781 23.6809 62.5174 23.1335C63.0607 22.5862 63.6886 22.1716 64.4009 21.8899C65.1173 21.6082 65.888 21.4673 66.7131 21.4673C67.4294 21.4673 68.0955 21.57 68.7113 21.7752C69.3311 21.9805 69.8784 22.2702 70.3533 22.6445C70.8323 23.0188 71.2206 23.4635 71.5185 23.9787C71.8163 24.4938 72.0014 25.0593 72.0739 25.6751H69.0494ZM73.9679 34V24.7273H76.8355V26.4176H76.9321C77.1011 25.8059 77.3768 25.3511 77.7591 25.0533C78.1415 24.7514 78.5862 24.6005 79.0933 24.6005C79.2301 24.6005 79.371 24.6106 79.5159 24.6307C79.6608 24.6468 79.7956 24.6729 79.9204 24.7092V27.2749C79.7795 27.2266 79.5944 27.1883 79.365 27.1602C79.1396 27.132 78.9383 27.1179 78.7613 27.1179C78.4111 27.1179 78.0952 27.1964 77.8135 27.3533C77.5358 27.5063 77.3164 27.7216 77.1554 27.9993C76.9985 28.273 76.92 28.5949 76.92 28.9652V34H73.9679ZM83.3886 34.157C82.7969 34.157 82.2717 34.0584 81.8129 33.8611C81.3581 33.6599 80.9979 33.3581 80.7323 32.9556C80.4707 32.5491 80.3399 32.04 80.3399 31.4283C80.3399 30.9131 80.4305 30.4785 80.6116 30.1243C80.7927 29.7701 81.0422 29.4824 81.3602 29.261C81.6781 29.0396 82.0443 28.8726 82.4589 28.7599C82.8734 28.6432 83.3161 28.5647 83.787 28.5245C84.3142 28.4762 84.7388 28.4259 85.0608 28.3736C85.3828 28.3172 85.6162 28.2388 85.7611 28.1381C85.91 28.0335 85.9844 27.8866 85.9844 27.6974V27.6673C85.9844 27.3574 85.8778 27.1179 85.6645 26.9489C85.4512 26.7798 85.1634 26.6953 84.8012 26.6953C84.4108 26.6953 84.0969 26.7798 83.8594 26.9489C83.622 27.1179 83.4711 27.3513 83.4067 27.6491L80.684 27.5526C80.7645 26.9891 80.9718 26.486 81.3058 26.0433C81.6439 25.5966 82.1067 25.2464 82.6943 24.9929C83.2859 24.7353 83.9963 24.6065 84.8254 24.6065C85.417 24.6065 85.9623 24.677 86.4614 24.8178C86.9604 24.9547 87.3951 25.1559 87.7653 25.4215C88.1356 25.6831 88.4214 26.0051 88.6226 26.3874C88.8278 26.7698 88.9305 27.2064 88.9305 27.6974V34H86.1535V32.7081H86.081C85.916 33.022 85.7047 33.2876 85.4472 33.505C85.1936 33.7223 84.8938 33.8853 84.5477 33.994C84.2056 34.1026 83.8192 34.157 83.3886 34.157ZM84.3001 32.2251C84.6181 32.2251 84.9038 32.1607 85.1574 32.032C85.415 31.9032 85.6202 31.7261 85.7732 31.5007C85.9261 31.2713 86.0026 31.0057 86.0026 30.7038V29.8224C85.918 29.8667 85.8154 29.907 85.6947 29.9432C85.578 29.9794 85.4492 30.0136 85.3083 30.0458C85.1675 30.078 85.0226 30.1062 84.8737 30.1303C84.7247 30.1545 84.5819 30.1766 84.445 30.1967C84.1673 30.241 83.9299 30.3094 83.7327 30.402C83.5395 30.4945 83.3906 30.6153 83.2859 30.7642C83.1853 30.9091 83.135 31.0821 83.135 31.2834C83.135 31.5892 83.2437 31.8227 83.461 31.9837C83.6824 32.1446 83.9621 32.2251 84.3001 32.2251ZM94.1222 34.1328C93.438 34.1328 92.8162 33.9557 92.2568 33.6016C91.6974 33.2474 91.2507 32.7161 90.9166 32.0078C90.5826 31.2995 90.4156 30.4201 90.4156 29.3697C90.4156 28.279 90.5886 27.3815 90.9347 26.6772C91.2808 25.9729 91.7336 25.4517 92.293 25.1136C92.8565 24.7756 93.4622 24.6065 94.1102 24.6065C94.5971 24.6065 95.0137 24.691 95.3598 24.8601C95.7059 25.0251 95.9917 25.2384 96.217 25.5C96.4424 25.7616 96.6135 26.0333 96.7302 26.315H96.7906V21.6364H99.7426V34H96.8207V32.4968H96.7302C96.6054 32.7825 96.4283 33.0502 96.1989 33.2997C95.9695 33.5492 95.6818 33.7505 95.3357 33.9034C94.9936 34.0563 94.5891 34.1328 94.1222 34.1328ZM95.1485 31.8327C95.5067 31.8327 95.8126 31.7321 96.0661 31.5309C96.3197 31.3256 96.5149 31.0379 96.6517 30.6676C96.7885 30.2973 96.857 29.8627 96.857 29.3636C96.857 28.8565 96.7885 28.4199 96.6517 28.0536C96.5189 27.6874 96.3237 27.4057 96.0661 27.2084C95.8126 27.0112 95.5067 26.9126 95.1485 26.9126C94.7823 26.9126 94.4724 27.0133 94.2188 27.2145C93.9653 27.4157 93.7721 27.6995 93.6393 28.0657C93.5105 28.4319 93.4461 28.8646 93.4461 29.3636C93.4461 29.8627 93.5125 30.2973 93.6453 30.6676C93.7781 31.0379 93.9693 31.3256 94.2188 31.5309C94.4724 31.7321 94.7823 31.8327 95.1485 31.8327ZM104.562 21.6364V34H101.61V21.6364H104.562ZM110.775 34.1751C109.805 34.1751 108.968 33.9839 108.264 33.6016C107.563 33.2152 107.024 32.6658 106.646 31.9535C106.272 31.2371 106.084 30.3859 106.084 29.3999C106.084 28.442 106.274 27.6049 106.652 26.8885C107.03 26.1681 107.563 25.6087 108.252 25.2102C108.94 24.8078 109.751 24.6065 110.685 24.6065C111.345 24.6065 111.948 24.7092 112.496 24.9144C113.043 25.1197 113.516 25.4235 113.914 25.826C114.313 26.2285 114.623 26.7255 114.844 27.3171C115.065 27.9047 115.176 28.5788 115.176 29.3395V30.076H107.117V28.3615H112.429C112.425 28.0476 112.351 27.7679 112.206 27.5224C112.061 27.2769 111.862 27.0857 111.608 26.9489C111.359 26.808 111.071 26.7376 110.745 26.7376C110.415 26.7376 110.119 26.812 109.857 26.9609C109.596 27.1058 109.389 27.305 109.236 27.5586C109.083 27.8081 109.002 28.0919 108.994 28.4098V30.1545C108.994 30.5328 109.069 30.8648 109.218 31.1506C109.366 31.4323 109.578 31.6516 109.851 31.8086C110.125 31.9655 110.451 32.044 110.829 32.044C111.091 32.044 111.328 32.0078 111.542 31.9354C111.755 31.8629 111.938 31.7563 112.091 31.6154C112.244 31.4745 112.359 31.3015 112.435 31.0962L115.146 31.1747C115.033 31.7824 114.786 32.3117 114.403 32.7624C114.025 33.2092 113.528 33.5573 112.912 33.8068C112.296 34.0523 111.584 34.1751 110.775 34.1751Z" fill="#7DC1D1"/>
</g>
<defs>
<filter id="filter0_d_1_50" x="54.4" y="13.4" width="67.2" height="29.2" filterUnits="userSpaceOnUse" color-interpolation-filters="sRGB">
<feFlood flood-opacity="0" result="BackgroundImageFix"/>
<feColorMatrix in="SourceAlpha" type="matrix" values="0 0 0 0 0 0 0 0 0 0 0 0 0 0 0 0 0 0 127 0" result="hardAlpha"/>
<feOffset/>
<feGaussianBlur stdDeviation="2.8"/>
<feComposite in2="hardAlpha" operator="out"/>
<feColorMatrix type="matrix" values="0 0 0 0 0 0 0 0 0 0 0 0 0 0 0 0 0 0 0.25 0"/>
<feBlend mode="normal" in2="BackgroundImageFix" result="effect1_dropShadow_1_50"/>
<feBlend mode="normal" in="SourceGraphic" in2="effect1_dropShadow_1_50" result="shape"/>
</filter>
<clipPath id="clip0_1_50">
<rect width="40" height="40" fill="white" transform="translate(12 8)"/>
</clipPath>
<clipPath id="clip1_1_50">
<rect width="40" height="40" fill="white" transform="translate(12 8)"/>
</clipPath>
<clipPath id="clip2_1_50">
<rect width="40" height="40" fill="white" transform="translate(12 8)"/>
</clipPath>
<clipPath id="clip3_1_50">
<rect width="40" height="40" fill="white" transform="translate(12 8)"/>
</clipPath>
</defs>
</svg>
