<svg width="56" height="56" viewBox="0 0 56 56" fill="none" xmlns="http://www.w3.org/2000/svg">
<rect width="56" height="56" rx="8" fill="url(#paint0_linear_503_2)"/>
<rect x="1.05" y="1.05" width="53.9" height="53.9" rx="6.95" stroke="white" stroke-opacity="0.15" stroke-width="2.1"/>
<g clip-path="url(#clip0_503_2)">
<g clip-path="url(#clip1_503_2)">
<g clip-path="url(#clip2_503_2)">
<path d="M8 8V48H48V8H8ZM14.205 13.185H22.5383V16.2417H20.2217V26.7033H22.5383V29.76H14.205V26.7033H16.6117V16.2417H14.205V13.185ZM32.63 13.185H36.3333V24.0183C36.3333 25.0383 36.2417 25.87 35.9633 26.6117C35.685 27.3517 35.3133 27.9067 34.7583 28.4617C34.2967 28.9267 33.6483 29.39 32.9083 29.575C32.1419 29.8796 31.3248 30.0368 30.5 30.0383C29.2033 30.0383 28.0933 29.76 27.26 29.2967C26.4529 28.8379 25.7316 28.2423 25.1283 27.5367L27.445 24.945C27.9067 25.5017 28.37 25.87 28.8333 26.1483C29.295 26.4267 29.8517 26.6117 30.4083 26.6117C31.0567 26.6117 31.61 26.4267 32.075 25.9633C32.4433 25.5 32.63 24.8517 32.63 23.8333V13.185ZM11.7033 40.5H26.7033V43H11.7033V40.5Z" fill="black"/>
</g>
</g>
</g>
<defs>
<linearGradient id="paint0_linear_503_2" x1="28" y1="0" x2="28" y2="56" gradientUnits="userSpaceOnUse">
<stop stop-color="#FC460F"/>
<stop offset="1" stop-color="#1742DF"/>
</linearGradient>
<clipPath id="clip0_503_2">
<rect width="40" height="40" fill="white" transform="translate(8 8)"/>
</clipPath>
<clipPath id="clip1_503_2">
<rect width="40" height="40" fill="white" transform="translate(8 8)"/>
</clipPath>
<clipPath id="clip2_503_2">
<rect width="40" height="40" fill="white" transform="translate(8 8)"/>
</clipPath>
</defs>
</svg>
