<svg width="174" height="56" viewBox="0 0 174 56" fill="none" xmlns="http://www.w3.org/2000/svg">
<rect width="174" height="56" rx="8" fill="url(#paint0_linear_1_50)"/>
<rect x="1.05" y="1.05" width="171.9" height="53.9" rx="6.95" stroke="white" stroke-opacity="0.15" stroke-width="2.1"/>
<g clip-path="url(#clip0_1_50)">
<g clip-path="url(#clip1_1_50)">
<g clip-path="url(#clip2_1_50)">
<path d="M12 8V48H52V8H12ZM18.205 13.185H26.5383V16.2417H24.2217V26.7033H26.5383V29.76H18.205V26.7033H20.6117V16.2417H18.205V13.185ZM36.63 13.185H40.3333V24.0183C40.3333 25.0383 40.2417 25.87 39.9633 26.6117C39.685 27.3517 39.3133 27.9067 38.7583 28.4617C38.2967 28.9267 37.6483 29.39 36.9083 29.575C36.1419 29.8796 35.3248 30.0368 34.5 30.0383C33.2033 30.0383 32.0933 29.76 31.26 29.2967C30.4529 28.8379 29.7316 28.2423 29.1283 27.5367L31.445 24.945C31.9067 25.5017 32.37 25.87 32.8333 26.1483C33.295 26.4267 33.8517 26.6117 34.4083 26.6117C35.0567 26.6117 35.61 26.4267 36.075 25.9633C36.4433 25.5 36.63 24.8517 36.63 23.8333V13.185ZM15.7033 40.5H30.7033V43H15.7033V40.5Z" fill="black"/>
</g>
</g>
</g>
<g filter="url(#filter0_d_1_50)">
<path d="M63.924 21.6364V34H60.9357V21.6364H63.924ZM68.752 28.7116V34H65.8V24.7273H68.6071V26.4297H68.7098C68.915 25.8622 69.2652 25.4175 69.7602 25.0955C70.2552 24.7695 70.8448 24.6065 71.529 24.6065C72.181 24.6065 72.7465 24.7534 73.2254 25.0472C73.7084 25.337 74.0826 25.7435 74.3483 26.2667C74.6179 26.7859 74.7507 27.3936 74.7467 28.0898V34H71.7946V28.6694C71.7987 28.1542 71.6679 27.7518 71.4022 27.462C71.1406 27.1722 70.7764 27.0273 70.3096 27.0273C69.9997 27.0273 69.726 27.0958 69.4885 27.2326C69.2551 27.3654 69.074 27.5566 68.9452 27.8061C68.8205 28.0556 68.7561 28.3575 68.752 28.7116ZM81.8084 24.7273V26.9006H75.9586V24.7273H81.8084ZM77.1841 22.5057H80.1362V31.0842C80.1362 31.2653 80.1643 31.4122 80.2207 31.5249C80.2811 31.6335 80.3676 31.712 80.4803 31.7603C80.593 31.8046 80.7278 31.8267 80.8848 31.8267C80.9974 31.8267 81.1162 31.8166 81.2409 31.7965C81.3697 31.7724 81.4663 31.7522 81.5307 31.7361L81.9774 33.8672C81.8366 33.9074 81.6374 33.9577 81.3798 34.0181C81.1262 34.0785 80.8224 34.1167 80.4682 34.1328C79.776 34.165 79.1823 34.0845 78.6873 33.8913C78.1963 33.6941 77.82 33.3883 77.5584 32.9737C77.3008 32.5592 77.1761 32.038 77.1841 31.4102V22.5057ZM87.5495 34.1751C86.5796 34.1751 85.7425 33.9839 85.0382 33.6016C84.3379 33.2152 83.7986 32.6658 83.4203 31.9535C83.046 31.2371 82.8588 30.3859 82.8588 29.3999C82.8588 28.442 83.048 27.6049 83.4263 26.8885C83.8046 26.1681 84.3379 25.6087 85.0261 25.2102C85.7143 24.8078 86.5253 24.6065 87.459 24.6065C88.119 24.6065 88.7227 24.7092 89.27 24.9144C89.8174 25.1197 90.2903 25.4235 90.6887 25.826C91.0872 26.2285 91.3971 26.7255 91.6184 27.3171C91.8398 27.9047 91.9504 28.5788 91.9504 29.3395V30.076H83.8911V28.3615H89.2036C89.1996 28.0476 89.1252 27.7679 88.9803 27.5224C88.8354 27.2769 88.6362 27.0857 88.3826 26.9489C88.1331 26.808 87.8453 26.7376 87.5193 26.7376C87.1893 26.7376 86.8935 26.812 86.6319 26.9609C86.3703 27.1058 86.163 27.305 86.0101 27.5586C85.8572 27.8081 85.7767 28.0919 85.7686 28.4098V30.1545C85.7686 30.5328 85.8431 30.8648 85.992 31.1506C86.1409 31.4323 86.3522 31.6516 86.6259 31.8086C86.8995 31.9655 87.2255 32.044 87.6039 32.044C87.8655 32.044 88.1029 32.0078 88.3162 31.9354C88.5295 31.8629 88.7126 31.7563 88.8656 31.6154C89.0185 31.4745 89.1332 31.3015 89.2097 31.0962L91.9203 31.1747C91.8076 31.7824 91.5601 32.3117 91.1777 32.7624C90.7994 33.2092 90.3024 33.5573 89.6866 33.8068C89.0708 34.0523 88.3585 34.1751 87.5495 34.1751ZM96.4102 21.6364V34H93.4582V21.6364H96.4102ZM101.241 21.6364V34H98.2892V21.6364H101.241ZM103.12 34V24.7273H106.072V34H103.12ZM104.599 23.6467C104.185 23.6467 103.829 23.5098 103.531 23.2361C103.233 22.9584 103.084 22.6244 103.084 22.234C103.084 21.8477 103.233 21.5176 103.531 21.244C103.829 20.9663 104.185 20.8274 104.599 20.8274C105.018 20.8274 105.374 20.9663 105.668 21.244C105.966 21.5176 106.115 21.8477 106.115 22.234C106.115 22.6244 105.966 22.9584 105.668 23.2361C105.374 23.5098 105.018 23.6467 104.599 23.6467ZM112.974 21.6364H115.92V30.1847C115.916 30.9856 115.725 31.6858 115.347 32.2855C114.968 32.8811 114.445 33.344 113.777 33.674C113.113 34.004 112.344 34.169 111.471 34.169C110.698 34.169 109.996 34.0342 109.364 33.7646C108.736 33.4949 108.235 33.0763 107.861 32.5089C107.491 31.9414 107.307 31.215 107.311 30.3295H110.288C110.3 30.6475 110.36 30.9191 110.469 31.1445C110.581 31.3659 110.736 31.5329 110.934 31.6456C111.131 31.7583 111.366 31.8146 111.64 31.8146C111.926 31.8146 112.167 31.7543 112.364 31.6335C112.562 31.5088 112.71 31.3256 112.811 31.0842C112.916 30.8427 112.97 30.5428 112.974 30.1847V21.6364ZM124.437 21.6364V34H121.448V21.6364H124.437ZM130.883 34H126.313V21.6364H130.877C132.136 21.6364 133.221 21.8839 134.13 22.3789C135.044 22.8699 135.748 23.5782 136.243 24.5039C136.738 25.4255 136.986 26.5283 136.986 27.8121C136.986 29.1 136.738 30.2068 136.243 31.1325C135.752 32.0581 135.05 32.7685 134.137 33.2635C133.223 33.7545 132.138 34 130.883 34ZM129.301 31.4524H130.768C131.46 31.4524 132.046 31.3357 132.525 31.1023C133.008 30.8648 133.372 30.4805 133.617 29.9492C133.867 29.4139 133.992 28.7016 133.992 27.8121C133.992 26.9227 133.867 26.2144 133.617 25.6871C133.368 25.1559 133 24.7736 132.513 24.5401C132.03 24.3027 131.434 24.1839 130.726 24.1839H129.301V31.4524ZM138.731 34V21.6364H147.351V24.0632H141.719V26.5987H146.911V29.0316H141.719V31.5731H147.351V34H138.731ZM151.897 34H148.686L152.857 21.6364H156.835L161.007 34H157.795L154.891 24.7514H154.795L151.897 34ZM151.469 29.1342H158.182V31.4041H151.469V29.1342Z" fill="black"/>
</g>
<defs>
<filter id="filter0_d_1_50" x="54.4" y="13.4" width="113.2" height="29.2" filterUnits="userSpaceOnUse" color-interpolation-filters="sRGB">
<feFlood flood-opacity="0" result="BackgroundImageFix"/>
<feColorMatrix in="SourceAlpha" type="matrix" values="0 0 0 0 0 0 0 0 0 0 0 0 0 0 0 0 0 0 127 0" result="hardAlpha"/>
<feOffset/>
<feGaussianBlur stdDeviation="2.8"/>
<feComposite in2="hardAlpha" operator="out"/>
<feColorMatrix type="matrix" values="0 0 0 0 0 0 0 0 0 0 0 0 0 0 0 0 0 0 0.25 0"/>
<feBlend mode="normal" in2="BackgroundImageFix" result="effect1_dropShadow_1_50"/>
<feBlend mode="normal" in="SourceGraphic" in2="effect1_dropShadow_1_50" result="shape"/>
</filter>
<linearGradient id="paint0_linear_1_50" x1="87" y1="0" x2="87" y2="56" gradientUnits="userSpaceOnUse">
<stop stop-color="#FC460F"/>
<stop offset="1" stop-color="#1742DF"/>
</linearGradient>
<clipPath id="clip0_1_50">
<rect width="40" height="40" fill="white" transform="translate(12 8)"/>
</clipPath>
<clipPath id="clip1_1_50">
<rect width="40" height="40" fill="white" transform="translate(12 8)"/>
</clipPath>
<clipPath id="clip2_1_50">
<rect width="40" height="40" fill="white" transform="translate(12 8)"/>
</clipPath>
</defs>
</svg>
