<svg width="178" height="56" viewBox="0 0 178 56" fill="none" xmlns="http://www.w3.org/2000/svg">
<rect width="178" height="56" rx="8" fill="url(#paint0_linear_1301_14)"/>
<rect x="1.05" y="1.05" width="175.9" height="53.9" rx="6.95" stroke="white" stroke-opacity="0.15" stroke-width="2.1"/>
<g clip-path="url(#clip0_1301_14)">
<g clip-path="url(#clip1_1301_14)">
<path d="M32 44.6667C41.2047 44.6667 48.6667 37.2047 48.6667 28C48.6667 18.7953 41.2047 11.3333 32 11.3333C22.7952 11.3333 15.3333 18.7953 15.3333 28C15.3333 37.2047 22.7952 44.6667 32 44.6667Z" stroke="#49B0A5" stroke-width="2" stroke-linecap="round" stroke-linejoin="round"/>
<path d="M32 31.3333C33.841 31.3333 35.3333 29.8409 35.3333 28C35.3333 26.1591 33.841 24.6667 32 24.6667C30.1591 24.6667 28.6667 26.1591 28.6667 28C28.6667 29.8409 30.1591 31.3333 32 31.3333Z" stroke="#49B0A5" stroke-width="2" stroke-linecap="round" stroke-linejoin="round"/>
</g>
</g>
<g filter="url(#filter0_d_1301_14)">
<path d="M65.9584 21.6364H68.9045V30.1847C68.9004 30.9856 68.7093 31.6858 68.331 32.2855C67.9526 32.8811 67.4294 33.344 66.7614 33.674C66.0973 34.004 65.3286 34.169 64.4553 34.169C63.6825 34.169 62.9802 34.0342 62.3484 33.7646C61.7205 33.4949 61.2195 33.0763 60.8452 32.5089C60.4749 31.9414 60.2918 31.215 60.2958 30.3295H63.272C63.2841 30.6475 63.3445 30.9191 63.4531 31.1445C63.5658 31.3659 63.7208 31.5329 63.918 31.6456C64.1152 31.7583 64.3506 31.8146 64.6243 31.8146C64.91 31.8146 65.1515 31.7543 65.3487 31.6335C65.5459 31.5088 65.6948 31.3256 65.7955 31.0842C65.9001 30.8427 65.9544 30.5428 65.9584 30.1847V21.6364ZM77.4633 25.343C77.4231 24.9003 77.244 24.5562 76.926 24.3107C76.6121 24.0612 76.1634 23.9364 75.5798 23.9364C75.1934 23.9364 74.8715 23.9867 74.6139 24.0874C74.3563 24.188 74.1631 24.3268 74.0344 24.5039C73.9056 24.677 73.8392 24.8762 73.8351 25.1016C73.8271 25.2867 73.8633 25.4497 73.9438 25.5905C74.0283 25.7314 74.1491 25.8562 74.306 25.9648C74.467 26.0695 74.6602 26.162 74.8856 26.2425C75.1109 26.323 75.3645 26.3935 75.6462 26.4538L76.7087 26.6953C77.3205 26.8281 77.8598 27.0052 78.3266 27.2266C78.7975 27.4479 79.1919 27.7115 79.5098 28.0174C79.8318 28.3233 80.0753 28.6754 80.2403 29.0739C80.4053 29.4723 80.4898 29.919 80.4939 30.4141C80.4898 31.1948 80.2926 31.8649 79.9022 32.4244C79.5119 32.9838 78.9504 33.4124 78.2179 33.7102C77.4895 34.008 76.6101 34.157 75.5798 34.157C74.5455 34.157 73.644 34.002 72.8753 33.6921C72.1066 33.3822 71.5089 32.9113 71.0823 32.2795C70.6557 31.6476 70.4363 30.8487 70.4243 29.8828H73.2858C73.3099 30.2812 73.4166 30.6133 73.6057 30.8789C73.7949 31.1445 74.0545 31.3458 74.3845 31.4826C74.7185 31.6194 75.1049 31.6878 75.5436 31.6878C75.946 31.6878 76.2881 31.6335 76.5699 31.5249C76.8556 31.4162 77.075 31.2653 77.2279 31.0721C77.3808 30.8789 77.4593 30.6575 77.4633 30.408C77.4593 30.1746 77.3869 29.9754 77.246 29.8104C77.1051 29.6413 76.8878 29.4964 76.594 29.3757C76.3042 29.2509 75.934 29.1362 75.4832 29.0316L74.1913 28.7298C73.1208 28.4843 72.2776 28.0878 71.6618 27.5405C71.0461 26.9891 70.7402 26.2446 70.7442 25.3068C70.7402 24.5421 70.9455 23.872 71.36 23.2965C71.7745 22.721 72.348 22.2723 73.0805 21.9503C73.813 21.6283 74.6481 21.4673 75.5858 21.4673C76.5437 21.4673 77.3748 21.6303 78.0791 21.9563C78.7874 22.2783 79.3368 22.7311 79.7272 23.3146C80.1176 23.8982 80.3168 24.5743 80.3248 25.343H77.4633ZM93.6725 27.8182C93.6725 29.1785 93.4109 30.3316 92.8877 31.2773C92.3645 32.2231 91.6562 32.9415 90.7627 33.4325C89.8732 33.9235 88.8751 34.169 87.7684 34.169C86.6576 34.169 85.6575 33.9215 84.768 33.4265C83.8786 32.9315 83.1723 32.2131 82.6491 31.2713C82.1299 30.3255 81.8703 29.1745 81.8703 27.8182C81.8703 26.4579 82.1299 25.3048 82.6491 24.359C83.1723 23.4132 83.8786 22.6948 84.768 22.2038C85.6575 21.7128 86.6576 21.4673 87.7684 21.4673C88.8751 21.4673 89.8732 21.7128 90.7627 22.2038C91.6562 22.6948 92.3645 23.4132 92.8877 24.359C93.4109 25.3048 93.6725 26.4579 93.6725 27.8182ZM90.6178 27.8182C90.6178 27.0133 90.5031 26.3331 90.2737 25.7777C90.0483 25.2223 89.7223 24.8017 89.2957 24.516C88.8731 24.2302 88.364 24.0874 87.7684 24.0874C87.1767 24.0874 86.6676 24.2302 86.241 24.516C85.8144 24.8017 85.4864 25.2223 85.257 25.7777C85.0316 26.3331 84.9189 27.0133 84.9189 27.8182C84.9189 28.6231 85.0316 29.3033 85.257 29.8587C85.4864 30.4141 85.8144 30.8346 86.241 31.1204C86.6676 31.4061 87.1767 31.549 87.7684 31.549C88.364 31.549 88.8731 31.4061 89.2957 31.1204C89.7223 30.8346 90.0483 30.4141 90.2737 29.8587C90.5031 29.3033 90.6178 28.6231 90.6178 27.8182ZM105.94 21.6364V34H103.404L98.4839 26.8643H98.4054V34H95.4172V21.6364H97.9889L102.855 28.7599H102.957V21.6364H105.94ZM111.471 34V21.6364H116.578C117.504 21.6364 118.303 21.8175 118.975 22.1797C119.651 22.5379 120.172 23.0389 120.538 23.6829C120.905 24.3228 121.088 25.0673 121.088 25.9165C121.088 26.7698 120.901 27.5163 120.526 28.1562C120.156 28.7921 119.627 29.2852 118.939 29.6353C118.25 29.9854 117.433 30.1605 116.488 30.1605H113.336V27.8061H115.932C116.383 27.8061 116.759 27.7276 117.061 27.5707C117.367 27.4137 117.598 27.1944 117.755 26.9126C117.912 26.6269 117.991 26.2949 117.991 25.9165C117.991 25.5342 117.912 25.2042 117.755 24.9265C117.598 24.6448 117.367 24.4274 117.061 24.2745C116.755 24.1216 116.379 24.0451 115.932 24.0451H114.459V34H111.471ZM124.843 34.157C124.251 34.157 123.726 34.0584 123.267 33.8611C122.812 33.6599 122.452 33.3581 122.186 32.9556C121.925 32.5491 121.794 32.04 121.794 31.4283C121.794 30.9131 121.885 30.4785 122.066 30.1243C122.247 29.7701 122.496 29.4824 122.814 29.261C123.132 29.0396 123.498 28.8726 123.913 28.7599C124.328 28.6432 124.77 28.5647 125.241 28.5245C125.768 28.4762 126.193 28.4259 126.515 28.3736C126.837 28.3172 127.07 28.2388 127.215 28.1381C127.364 28.0335 127.439 27.8866 127.439 27.6974V27.6673C127.439 27.3574 127.332 27.1179 127.119 26.9489C126.905 26.7798 126.618 26.6953 126.255 26.6953C125.865 26.6953 125.551 26.7798 125.314 26.9489C125.076 27.1179 124.925 27.3513 124.861 27.6491L122.138 27.5526C122.219 26.9891 122.426 26.486 122.76 26.0433C123.098 25.5966 123.561 25.2464 124.148 24.9929C124.74 24.7353 125.45 24.6065 126.279 24.6065C126.871 24.6065 127.416 24.677 127.915 24.8178C128.415 24.9547 128.849 25.1559 129.219 25.4215C129.59 25.6831 129.875 26.0051 130.077 26.3874C130.282 26.7698 130.385 27.2064 130.385 27.6974V34H127.608V32.7081H127.535C127.37 33.022 127.159 33.2876 126.901 33.505C126.648 33.7223 126.348 33.8853 126.002 33.994C125.66 34.1026 125.273 34.157 124.843 34.157ZM125.754 32.2251C126.072 32.2251 126.358 32.1607 126.611 32.032C126.869 31.9032 127.074 31.7261 127.227 31.5007C127.38 31.2713 127.457 31.0057 127.457 30.7038V29.8224C127.372 29.8667 127.27 29.907 127.149 29.9432C127.032 29.9794 126.903 30.0136 126.762 30.0458C126.622 30.078 126.477 30.1062 126.328 30.1303C126.179 30.1545 126.036 30.1766 125.899 30.1967C125.621 30.241 125.384 30.3094 125.187 30.402C124.994 30.4945 124.845 30.6153 124.74 30.7642C124.639 30.9091 124.589 31.0821 124.589 31.2834C124.589 31.5892 124.698 31.8227 124.915 31.9837C125.136 32.1446 125.416 32.2251 125.754 32.2251ZM132.19 34V24.7273H135.057V26.4176H135.154C135.323 25.8059 135.598 25.3511 135.981 25.0533C136.363 24.7514 136.808 24.6005 137.315 24.6005C137.452 24.6005 137.593 24.6106 137.738 24.6307C137.882 24.6468 138.017 24.6729 138.142 24.7092V27.2749C138.001 27.2266 137.816 27.1883 137.587 27.1602C137.361 27.132 137.16 27.1179 136.983 27.1179C136.633 27.1179 136.317 27.1964 136.035 27.3533C135.757 27.5063 135.538 27.7216 135.377 27.9993C135.22 28.273 135.142 28.5949 135.142 28.9652V34H132.19ZM147.44 27.5586L144.73 27.631C144.702 27.4379 144.625 27.2668 144.5 27.1179C144.376 26.965 144.213 26.8462 144.011 26.7617C143.814 26.6732 143.585 26.6289 143.323 26.6289C142.981 26.6289 142.689 26.6973 142.448 26.8342C142.21 26.971 142.094 27.1561 142.098 27.3896C142.094 27.5707 142.166 27.7276 142.315 27.8604C142.468 27.9932 142.74 28.0999 143.13 28.1804L144.917 28.5185C145.843 28.6955 146.531 28.9893 146.982 29.3999C147.436 29.8104 147.666 30.3537 147.67 31.0298C147.666 31.6657 147.477 32.2191 147.102 32.69C146.732 33.1609 146.225 33.5271 145.581 33.7887C144.937 34.0463 144.201 34.1751 143.372 34.1751C142.047 34.1751 141.003 33.9034 140.238 33.3601C139.478 32.8127 139.043 32.0802 138.934 31.1626L141.85 31.0902C141.915 31.4283 142.082 31.6858 142.351 31.8629C142.621 32.04 142.965 32.1285 143.384 32.1285C143.762 32.1285 144.07 32.0581 144.307 31.9173C144.545 31.7764 144.665 31.5892 144.669 31.3558C144.665 31.1465 144.573 30.9795 144.392 30.8548C144.211 30.726 143.927 30.6253 143.541 30.5529L141.923 30.245C140.993 30.076 140.301 29.7641 139.846 29.3093C139.391 28.8505 139.166 28.2669 139.17 27.5586C139.166 26.9388 139.331 26.4096 139.665 25.9709C139.999 25.5282 140.474 25.1901 141.09 24.9567C141.705 24.7232 142.432 24.6065 143.269 24.6065C144.525 24.6065 145.515 24.8701 146.239 25.3974C146.963 25.9206 147.364 26.641 147.44 27.5586ZM153.458 34.1751C152.488 34.1751 151.651 33.9839 150.946 33.6016C150.246 33.2152 149.707 32.6658 149.328 31.9535C148.954 31.2371 148.767 30.3859 148.767 29.3999C148.767 28.442 148.956 27.6049 149.334 26.8885C149.713 26.1681 150.246 25.6087 150.934 25.2102C151.622 24.8078 152.433 24.6065 153.367 24.6065C154.027 24.6065 154.631 24.7092 155.178 24.9144C155.726 25.1197 156.198 25.4235 156.597 25.826C156.995 26.2285 157.305 26.7255 157.527 27.3171C157.748 27.9047 157.859 28.5788 157.859 29.3395V30.076H149.799V28.3615H155.112C155.108 28.0476 155.033 27.7679 154.888 27.5224C154.744 27.2769 154.544 27.0857 154.291 26.9489C154.041 26.808 153.754 26.7376 153.428 26.7376C153.098 26.7376 152.802 26.812 152.54 26.9609C152.279 27.1058 152.071 27.305 151.918 27.5586C151.765 27.8081 151.685 28.0919 151.677 28.4098V30.1545C151.677 30.5328 151.751 30.8648 151.9 31.1506C152.049 31.4323 152.26 31.6516 152.534 31.8086C152.808 31.9655 153.134 32.044 153.512 32.044C153.774 32.044 154.011 32.0078 154.224 31.9354C154.438 31.8629 154.621 31.7563 154.774 31.6154C154.927 31.4745 155.041 31.3015 155.118 31.0962L157.828 31.1747C157.716 31.7824 157.468 32.3117 157.086 32.7624C156.708 33.2092 156.211 33.5573 155.595 33.8068C154.979 34.0523 154.267 34.1751 153.458 34.1751ZM159.366 34V24.7273H162.234V26.4176H162.33C162.5 25.8059 162.775 25.3511 163.158 25.0533C163.54 24.7514 163.985 24.6005 164.492 24.6005C164.629 24.6005 164.769 24.6106 164.914 24.6307C165.059 24.6468 165.194 24.6729 165.319 24.7092V27.2749C165.178 27.2266 164.993 27.1883 164.763 27.1602C164.538 27.132 164.337 27.1179 164.16 27.1179C163.81 27.1179 163.494 27.1964 163.212 27.3533C162.934 27.5063 162.715 27.7216 162.554 27.9993C162.397 28.273 162.318 28.5949 162.318 28.9652V34H159.366Z" fill="#49B0A5"/>
</g>
<defs>
<filter id="filter0_d_1301_14" x="54.4" y="13.4" width="117.2" height="29.2" filterUnits="userSpaceOnUse" color-interpolation-filters="sRGB">
<feFlood flood-opacity="0" result="BackgroundImageFix"/>
<feColorMatrix in="SourceAlpha" type="matrix" values="0 0 0 0 0 0 0 0 0 0 0 0 0 0 0 0 0 0 127 0" result="hardAlpha"/>
<feOffset/>
<feGaussianBlur stdDeviation="2.8"/>
<feComposite in2="hardAlpha" operator="out"/>
<feColorMatrix type="matrix" values="0 0 0 0 0 0 0 0 0 0 0 0 0 0 0 0 0 0 0.25 0"/>
<feBlend mode="normal" in2="BackgroundImageFix" result="effect1_dropShadow_1301_14"/>
<feBlend mode="normal" in="SourceGraphic" in2="effect1_dropShadow_1301_14" result="shape"/>
</filter>
<linearGradient id="paint0_linear_1301_14" x1="89" y1="0" x2="89" y2="56" gradientUnits="userSpaceOnUse">
<stop stop-color="#2A5752"/>
<stop offset="1" stop-color="#1B2C1B"/>
</linearGradient>
<clipPath id="clip0_1301_14">
<rect width="40" height="40" fill="white" transform="translate(12 8)"/>
</clipPath>
<clipPath id="clip1_1301_14">
<rect width="40" height="40" fill="white" transform="translate(12 8)"/>
</clipPath>
</defs>
</svg>
