<svg width="154" height="56" viewBox="0 0 154 56" fill="none" xmlns="http://www.w3.org/2000/svg">
<rect width="154" height="56" rx="8" fill="url(#paint0_linear_1_50)"/>
<rect x="1.05" y="1.05" width="151.9" height="53.9" rx="6.95" stroke="white" stroke-opacity="0.15" stroke-width="2.1"/>
<g clip-path="url(#clip0_1_50)">
<g clip-path="url(#clip1_1_50)">
<g clip-path="url(#clip2_1_50)">
<g clip-path="url(#clip3_1_50)">
<g clip-path="url(#clip4_1_50)">
<g clip-path="url(#clip5_1_50)">
<g clip-path="url(#clip6_1_50)">
<path d="M33.2967 17.905C33.2967 17.905 30.0133 17.6883 24.4183 19.4383C18.7183 21.2217 15.485 23.75 15.485 23.75C15.485 23.75 23.9817 19.005 33.5717 18.7367L33.2967 17.905ZM45.5483 23.0633L45.9767 23.035C45.9767 23.035 43.53 20.0683 38.8467 18.6217C41.48 19.6917 43.77 21.11 45.5483 23.0633ZM46.2483 24.2967C46.3133 24.1833 46.525 24.6583 46.6867 24.8583C46.6933 24.8983 46.7033 24.9233 46.6117 24.9033C46.6033 24.8617 46.59 24.85 46.59 24.85C46.59 24.85 46.365 24.7167 46.295 24.6217C46.2267 24.5267 46.2133 24.36 46.2483 24.2967ZM51.995 38.4283C51.995 38.4283 52.515 32.465 43.145 31.09C41.7517 30.889 40.3461 30.7849 38.9383 30.7783C31.4283 30.8783 31.155 22.1167 36.8133 21.675C39.1583 21.4817 41.9583 22.7467 44.6967 24.0217C44.685 24.3617 44.7 24.6633 44.9233 24.9417C45.1467 25.2217 46.0033 25.525 46.2783 25.6833C46.5517 25.84 47.43 26.4 47.9683 27.1C48.085 26.8817 49.0583 26.2467 49.0583 26.2467C49.0583 26.2467 48.825 26.2517 48.2833 26.0483C47.74 25.845 47.095 25.2317 47.08 25.1967C47.0633 25.16 47.055 25.105 47.18 25.08C47.2783 24.9983 47.06 24.735 46.9633 24.6383C46.8667 24.5417 46.2217 23.445 46.2067 23.4217C46.1917 23.395 46.1867 23.37 46.14 23.3383C45.9983 23.2933 45.3733 23.405 45.3733 23.405C45.3733 23.405 44.415 22.9333 44.0833 21.9167C44.0883 22.095 43.9183 22.29 44.0833 22.6983C43.5833 22.4867 43.1533 22.125 42.8133 21.2317C42.6133 21.74 42.8133 22.0633 42.8133 22.0633C42.8133 22.0633 41.635 21.7333 41.4467 20.6467C41.24 21.135 41.4467 21.4283 41.4467 21.4283C41.4467 21.4283 39.525 20.425 36.3317 20.4117C34.1933 20.215 33.7483 16.455 33.9483 15.8217C33.9483 15.8217 30.865 14.1967 24.7933 13.4783C18.7233 12.7617 13.7467 13.37 13.7467 13.37C13.7467 13.37 24.4967 12.8533 33.1083 16.3417C33.4017 17.65 34.2817 19.8317 34.7567 20.88C33.3983 21.8183 31.8683 22.7 31.63 25.83C31.3917 28.96 34.0833 31.7133 37.42 31.7967C40.5867 31.9667 42.7767 31.99 45.43 33.3667C47.9633 34.7667 50.04 39.0333 50.2467 42.8717C50.4667 40.0233 49.3983 33.9 44.4133 32.0417C51.3817 33.2617 51.995 38.4283 51.995 38.4283ZM33.1333 17.4383L32.8833 16.63C32.8833 16.63 28.7433 15.895 23.18 16.29C17.6167 16.685 12 18.6333 12 18.6333C12 18.6333 23.4933 15.7417 33.1333 17.4383Z" fill="white"/>
</g>
</g>
</g>
</g>
</g>
</g>
</g>
<g filter="url(#filter0_d_1_50)">
<path d="M60.9357 34V21.6364H63.924V26.8643H64.087L68.174 21.6364H71.6935L67.3107 27.1541L71.772 34H68.1981L65.1193 29.1403L63.924 30.6495V34H60.9357ZM75.4862 34.157C74.8946 34.157 74.3694 34.0584 73.9106 33.8611C73.4558 33.6599 73.0956 33.3581 72.83 32.9556C72.5684 32.5491 72.4376 32.04 72.4376 31.4283C72.4376 30.9131 72.5281 30.4785 72.7092 30.1243C72.8903 29.7701 73.1399 29.4824 73.4578 29.261C73.7758 29.0396 74.142 28.8726 74.5565 28.7599C74.9711 28.6432 75.4138 28.5647 75.8847 28.5245C76.4119 28.4762 76.8365 28.4259 77.1585 28.3736C77.4804 28.3172 77.7139 28.2388 77.8587 28.1381C78.0077 28.0335 78.0821 27.8866 78.0821 27.6974V27.6673C78.0821 27.3574 77.9755 27.1179 77.7621 26.9489C77.5488 26.7798 77.2611 26.6953 76.8989 26.6953C76.5085 26.6953 76.1946 26.7798 75.9571 26.9489C75.7197 27.1179 75.5687 27.3513 75.5043 27.6491L72.7817 27.5526C72.8622 26.9891 73.0694 26.486 73.4035 26.0433C73.7416 25.5966 74.2044 25.2464 74.792 24.9929C75.3836 24.7353 76.0939 24.6065 76.923 24.6065C77.5146 24.6065 78.06 24.677 78.559 24.8178C79.0581 24.9547 79.4927 25.1559 79.863 25.4215C80.2333 25.6831 80.519 26.0051 80.7202 26.3874C80.9255 26.7698 81.0281 27.2064 81.0281 27.6974V34H78.2511V32.7081H78.1787C78.0137 33.022 77.8024 33.2876 77.5448 33.505C77.2913 33.7223 76.9914 33.8853 76.6453 33.994C76.3032 34.1026 75.9169 34.157 75.4862 34.157ZM76.3978 32.2251C76.7157 32.2251 77.0015 32.1607 77.255 32.032C77.5126 31.9032 77.7179 31.7261 77.8708 31.5007C78.0238 31.2713 78.1002 31.0057 78.1002 30.7038V29.8224C78.0157 29.8667 77.9131 29.907 77.7923 29.9432C77.6756 29.9794 77.5468 30.0136 77.406 30.0458C77.2651 30.078 77.1202 30.1062 76.9713 30.1303C76.8224 30.1545 76.6795 30.1766 76.5427 30.1967C76.265 30.241 76.0275 30.3094 75.8303 30.402C75.6372 30.4945 75.4882 30.6153 75.3836 30.7642C75.283 30.9091 75.2327 31.0821 75.2327 31.2834C75.2327 31.5892 75.3413 31.8227 75.5587 31.9837C75.78 32.1446 76.0597 32.2251 76.3978 32.2251ZM85.7852 21.6364V34H82.8332V21.6364H85.7852ZM87.6642 34V24.7273H90.6163V34H87.6642ZM89.1433 23.6467C88.7287 23.6467 88.3726 23.5098 88.0747 23.2361C87.7769 22.9584 87.628 22.6244 87.628 22.234C87.628 21.8477 87.7769 21.5176 88.0747 21.244C88.3726 20.9663 88.7287 20.8274 89.1433 20.8274C89.5618 20.8274 89.918 20.9663 90.2118 21.244C90.5096 21.5176 90.6585 21.8477 90.6585 22.234C90.6585 22.6244 90.5096 22.9584 90.2118 23.2361C89.918 23.5098 89.5618 23.6467 89.1433 23.6467ZM96.1476 34V21.6364H99.1359V31.5731H104.279V34H96.1476ZM105.826 34V24.7273H108.778V34H105.826ZM107.305 23.6467C106.891 23.6467 106.535 23.5098 106.237 23.2361C105.939 22.9584 105.79 22.6244 105.79 22.234C105.79 21.8477 105.939 21.5176 106.237 21.244C106.535 20.9663 106.891 20.8274 107.305 20.8274C107.724 20.8274 108.08 20.9663 108.374 21.244C108.672 21.5176 108.821 21.8477 108.821 22.234C108.821 22.6244 108.672 22.9584 108.374 23.2361C108.08 23.5098 107.724 23.6467 107.305 23.6467ZM113.609 28.7116V34H110.657V24.7273H113.465V26.4297H113.567C113.772 25.8622 114.123 25.4175 114.618 25.0955C115.113 24.7695 115.702 24.6065 116.386 24.6065C117.038 24.6065 117.604 24.7534 118.083 25.0472C118.566 25.337 118.94 25.7435 119.206 26.2667C119.475 26.7859 119.608 27.3936 119.604 28.0898V34H116.652V28.6694C116.656 28.1542 116.525 27.7518 116.26 27.462C115.998 27.1722 115.634 27.0273 115.167 27.0273C114.857 27.0273 114.583 27.0958 114.346 27.2326C114.113 27.3654 113.931 27.5566 113.803 27.8061C113.678 28.0556 113.613 28.3575 113.609 28.7116ZM127.414 29.9975V24.7273H130.36V34H127.547V32.2734H127.451C127.245 32.8409 126.895 33.2917 126.4 33.6257C125.909 33.9557 125.316 34.1207 124.619 34.1207C123.987 34.1207 123.432 33.9758 122.953 33.6861C122.474 33.3963 122.102 32.9918 121.836 32.4727C121.571 31.9494 121.436 31.3377 121.432 30.6374V24.7273H124.384V30.0579C124.388 30.561 124.521 30.9574 124.782 31.2472C125.044 31.5369 125.4 31.6818 125.851 31.6818C126.145 31.6818 126.408 31.6174 126.642 31.4886C126.879 31.3558 127.066 31.1646 127.203 30.9151C127.344 30.6616 127.414 30.3557 127.414 29.9975ZM134.751 24.7273L136.278 27.782L137.86 24.7273H140.836L138.246 29.3636L140.933 34H137.981L136.278 30.9212L134.618 34H131.624L134.316 29.3636L131.756 24.7273H134.751Z" fill="white"/>
</g>
<defs>
<filter id="filter0_d_1_50" x="54.4" y="13.4" width="93.2" height="29.2" filterUnits="userSpaceOnUse" color-interpolation-filters="sRGB">
<feFlood flood-opacity="0" result="BackgroundImageFix"/>
<feColorMatrix in="SourceAlpha" type="matrix" values="0 0 0 0 0 0 0 0 0 0 0 0 0 0 0 0 0 0 127 0" result="hardAlpha"/>
<feOffset/>
<feGaussianBlur stdDeviation="2.8"/>
<feComposite in2="hardAlpha" operator="out"/>
<feColorMatrix type="matrix" values="0 0 0 0 0 0 0 0 0 0 0 0 0 0 0 0 0 0 0.25 0"/>
<feBlend mode="normal" in2="BackgroundImageFix" result="effect1_dropShadow_1_50"/>
<feBlend mode="normal" in="SourceGraphic" in2="effect1_dropShadow_1_50" result="shape"/>
</filter>
<linearGradient id="paint0_linear_1_50" x1="77" y1="0" x2="77" y2="56" gradientUnits="userSpaceOnUse">
<stop stop-color="#289FBD"/>
<stop offset="1" stop-color="#2676FE"/>
</linearGradient>
<clipPath id="clip0_1_50">
<rect width="40" height="40" fill="white" transform="translate(12 8)"/>
</clipPath>
<clipPath id="clip1_1_50">
<rect width="40" height="40" fill="white" transform="translate(12 8)"/>
</clipPath>
<clipPath id="clip2_1_50">
<rect width="40" height="40" fill="white" transform="translate(12 8)"/>
</clipPath>
<clipPath id="clip3_1_50">
<rect width="40" height="40" fill="white" transform="translate(12 8)"/>
</clipPath>
<clipPath id="clip4_1_50">
<rect width="40" height="40" fill="white" transform="translate(12 8)"/>
</clipPath>
<clipPath id="clip5_1_50">
<rect width="40" height="40" fill="white" transform="translate(12 8)"/>
</clipPath>
<clipPath id="clip6_1_50">
<rect width="40" height="40" fill="white" transform="translate(12 8)"/>
</clipPath>
</defs>
</svg>
