<svg width="56" height="56" viewBox="0 0 56 56" fill="none" xmlns="http://www.w3.org/2000/svg">
<rect width="56" height="56" fill="#1E1E1E"/>
<rect width="56" height="56" rx="8" fill="url(#paint0_linear_0_1)"/>
<rect x="1.05" y="1.05" width="53.9" height="53.9" rx="6.95" stroke="white" stroke-opacity="0.15" stroke-width="2.1"/>
<g clip-path="url(#clip0_0_1)">
<path d="M47.7242 27.5055L46.0454 26.4662C46.0314 26.3029 46.0157 26.1398 45.9982 25.9768L47.4409 24.632C47.512 24.5645 47.5649 24.48 47.5946 24.3865C47.6243 24.293 47.6298 24.1935 47.6105 24.0973C47.5913 24.001 47.5481 23.9113 47.4847 23.8363C47.4214 23.7614 47.3402 23.7037 47.2485 23.6687L45.4042 22.9787C45.3587 22.8192 45.3103 22.6605 45.2592 22.5027L46.4099 20.9048C46.4676 20.825 46.5038 20.7317 46.5153 20.6339C46.5267 20.5361 46.5129 20.4369 46.4752 20.346C46.4375 20.255 46.3772 20.1751 46.2999 20.1141C46.2226 20.053 46.1309 20.0128 46.0337 19.9972L44.0899 19.6815C44.014 19.5346 43.9358 19.3889 43.8554 19.2445L44.672 17.451C44.7132 17.3616 44.7306 17.2631 44.7226 17.1649C44.7146 17.0668 44.6815 16.9724 44.6264 16.8908C44.5714 16.8091 44.4967 16.7427 44.409 16.6978C44.3214 16.6529 44.2238 16.631 44.1254 16.6342L42.1512 16.7035C42.0499 16.5752 41.9458 16.4492 41.839 16.3255L42.2929 14.4038C42.3153 14.308 42.3129 14.208 42.2859 14.1134C42.2589 14.0187 42.2083 13.9325 42.1387 13.8629C42.0691 13.7933 41.9829 13.7426 41.8883 13.7156C41.7937 13.6886 41.6937 13.6861 41.5979 13.7085L39.6759 14.1625C39.5504 14.0571 39.4238 13.9531 39.2962 13.8503L39.3654 11.8762C39.3701 11.7774 39.3492 11.6791 39.3047 11.5908C39.2602 11.5025 39.1936 11.4271 39.1115 11.3721C39.0293 11.3171 38.9343 11.2843 38.8357 11.2768C38.7371 11.2694 38.6382 11.2875 38.5487 11.3295L36.7554 12.1478C36.61 12.0685 36.465 11.9892 36.3182 11.9133L36.001 9.96783C35.9845 9.87107 35.9438 9.78006 35.8826 9.70332C35.8213 9.62659 35.7417 9.56663 35.651 9.52905C35.5603 9.49148 35.4616 9.47751 35.364 9.48846C35.2665 9.49941 35.1733 9.53492 35.0932 9.59167L33.4937 10.7425C33.3359 10.6919 33.1773 10.6442 33.0179 10.5992L32.3279 8.75483C32.2928 8.66316 32.2352 8.58186 32.1602 8.51852C32.0852 8.45519 31.9954 8.4119 31.8992 8.39269C31.803 8.37348 31.7034 8.37898 31.6099 8.40867C31.5164 8.43837 31.4319 8.49129 31.3644 8.5625L30.0195 10.0068C29.8567 9.98847 29.6935 9.97269 29.5302 9.9595L28.4909 8.2805C28.4392 8.19676 28.3669 8.12763 28.281 8.07968C28.195 8.03173 28.0983 8.00656 27.9999 8.00656C27.9015 8.00656 27.8047 8.03173 27.7187 8.07968C27.6328 8.12763 27.5606 8.19676 27.5089 8.2805L26.4695 9.95933C26.3063 9.97336 26.1431 9.98914 25.9802 10.0067L24.6337 8.56233C24.5666 8.49025 24.4822 8.43654 24.3885 8.4063C24.2948 8.37607 24.1949 8.37031 24.0983 8.38959C24.0018 8.40887 23.9118 8.45254 23.8368 8.51644C23.7619 8.58034 23.7046 8.66235 23.6704 8.75467L22.9802 10.5988C22.8199 10.6445 22.663 10.6933 22.5044 10.7422L20.9065 9.59167C20.8264 9.53492 20.7332 9.49941 20.6357 9.48847C20.5381 9.47753 20.4394 9.49151 20.3487 9.52911C20.258 9.5667 20.1783 9.62668 20.1171 9.70344C20.0559 9.78019 20.0152 9.87122 19.9987 9.968L19.6815 11.9133C19.5346 11.9892 19.3889 12.0674 19.2445 12.1478L17.4509 11.3295C17.3613 11.2885 17.2627 11.2711 17.1645 11.279C17.0662 11.287 16.9717 11.3199 16.8898 11.3747C16.8079 11.4295 16.7415 11.5044 16.6967 11.5921C16.652 11.6799 16.6304 11.7777 16.6342 11.8762L16.7035 13.8503C16.5751 13.952 16.4485 14.0561 16.3239 14.1625L14.402 13.7083C14.3062 13.6859 14.2062 13.6884 14.1116 13.7154C14.0169 13.7424 13.9308 13.793 13.8612 13.8626C13.7916 13.9322 13.7409 14.0184 13.7139 14.1131C13.6869 14.2077 13.6845 14.3077 13.7069 14.4035L14.159 16.3253C14.0544 16.4503 13.9499 16.5768 13.8485 16.7033L11.8744 16.6342C11.7759 16.6304 11.6781 16.6519 11.5903 16.6967C11.5026 16.7414 11.4277 16.8079 11.3729 16.8898C11.3181 16.9717 11.2851 17.0662 11.2772 17.1644C11.2693 17.2626 11.2867 17.3612 11.3277 17.4508L12.146 19.2443C12.0655 19.3887 11.9873 19.5344 11.9115 19.6813L9.96786 19.997C9.87111 20.0135 9.78011 20.0542 9.70338 20.1154C9.62664 20.1766 9.56668 20.2563 9.52909 20.3469C9.4915 20.4376 9.47751 20.5363 9.48843 20.6338C9.49935 20.7314 9.53482 20.8246 9.59153 20.9047L10.7422 22.5025C10.6921 22.6606 10.6437 22.8192 10.5972 22.9783L8.75303 23.6683C8.66134 23.7033 8.58002 23.761 8.51667 23.836C8.45332 23.9109 8.41001 24.0007 8.39078 24.0969C8.37155 24.1932 8.37704 24.2927 8.40673 24.3863C8.43641 24.4798 8.48933 24.5643 8.56053 24.6318L10.0032 25.9768C9.98489 26.1396 9.96916 26.3027 9.95603 26.466L8.2772 27.5053C8.19266 27.5564 8.12275 27.6284 8.07422 27.7145C8.0257 27.8005 8.0002 27.8976 8.0002 27.9963C8.0002 28.0951 8.0257 28.1922 8.07422 28.2782C8.12275 28.3642 8.19266 28.4363 8.2772 28.4873L9.95603 29.5267C9.96936 29.6903 9.98636 29.854 10.0032 30.016L8.56053 31.3625C8.48845 31.4296 8.43475 31.514 8.40452 31.6077C8.3743 31.7015 8.36856 31.8013 8.38785 31.8979C8.40715 31.9945 8.45084 32.0845 8.51476 32.1594C8.57868 32.2343 8.6607 32.2916 8.75303 32.3258L10.5972 33.016C10.6427 33.1763 10.6917 33.335 10.7422 33.4918L9.59153 35.0897C9.53329 35.1695 9.4966 35.263 9.48498 35.3611C9.47336 35.4592 9.48721 35.5587 9.52519 35.6499C9.56317 35.7411 9.624 35.821 9.70183 35.8819C9.77966 35.9428 9.87185 35.9826 9.96953 35.9975L11.9132 36.313C11.9892 36.4597 12.0669 36.6048 12.1479 36.75L11.3295 38.5437C11.2885 38.6333 11.2712 38.7319 11.2791 38.8301C11.287 38.9283 11.3199 39.0228 11.3747 39.1047C11.4295 39.1866 11.5044 39.2531 11.5922 39.2978C11.68 39.3426 11.7777 39.3641 11.8762 39.3603L13.8485 39.2912C13.9515 39.4193 14.0544 39.5458 14.1607 39.6707L13.7085 41.5942C13.686 41.69 13.6883 41.7899 13.7153 41.8845C13.7423 41.9792 13.793 42.0653 13.8627 42.1348C13.9323 42.2043 14.0186 42.2548 14.1133 42.2816C14.208 42.3083 14.308 42.3104 14.4037 42.2877L16.3254 41.8355C16.4504 41.9418 16.577 42.0447 16.7052 42.146L16.636 44.1202C16.6316 44.2188 16.6527 44.3169 16.6974 44.405C16.742 44.4931 16.8086 44.5681 16.8907 44.6229C16.9728 44.6778 17.0677 44.7104 17.1661 44.7178C17.2646 44.7252 17.3633 44.7071 17.4527 44.6652L19.2462 43.8485C19.3912 43.9295 19.5364 44.007 19.6832 44.083L20.0004 46.0267C20.0166 46.1236 20.0572 46.2148 20.1183 46.2918C20.1794 46.3687 20.259 46.4289 20.3498 46.4667C20.4405 46.5045 20.5393 46.5186 20.637 46.5078C20.7347 46.4969 20.828 46.4614 20.9082 46.4047L22.506 45.254C22.6639 45.3049 22.8225 45.3532 22.9819 45.399L23.6719 47.2433C23.7057 47.336 23.7629 47.4184 23.8378 47.4826C23.9127 47.5468 24.0028 47.5907 24.0996 47.61C24.1964 47.6293 24.2965 47.6235 24.3903 47.5929C24.4841 47.5624 24.5685 47.5082 24.6354 47.4357L25.9819 45.993C26.1439 46.0115 26.3075 46.0268 26.4712 46.042L27.5105 47.7208C27.5625 47.8042 27.6349 47.8729 27.7208 47.9206C27.8067 47.9683 27.9033 47.9933 28.0015 47.9933C28.0998 47.9933 28.1964 47.9683 28.2823 47.9206C28.3682 47.8729 28.4405 47.8042 28.4925 47.7208L29.5319 46.042C29.6955 46.0268 29.8592 46.0115 30.0212 45.993L31.366 47.4357C31.4336 47.5068 31.518 47.5597 31.6115 47.5894C31.7051 47.6191 31.8046 47.6246 31.9008 47.6054C31.997 47.5861 32.0868 47.5429 32.1617 47.4796C32.2367 47.4162 32.2943 47.335 32.3294 47.2433L33.0195 45.399C33.179 45.3535 33.3376 45.3051 33.4954 45.254L35.0932 46.4047C35.173 46.4629 35.2665 46.4996 35.3646 46.5112C35.4627 46.5228 35.5622 46.509 35.6534 46.471C35.7446 46.433 35.8245 46.3722 35.8854 46.2944C35.9463 46.2165 35.9861 46.1243 36.001 46.0267L36.3182 44.083C36.4649 44.007 36.61 43.9278 36.7552 43.8485L38.5489 44.6652C38.6384 44.7056 38.7367 44.7226 38.8346 44.7146C38.9324 44.7065 39.0267 44.6737 39.1083 44.6192C39.19 44.5646 39.2565 44.4902 39.3015 44.4029C39.3465 44.3156 39.3685 44.2183 39.3655 44.1202L39.2964 42.146C39.4245 42.0453 39.5505 41.9417 39.6742 41.8355L41.596 42.2877C41.6917 42.3099 41.7914 42.3075 41.8859 42.2806C41.9803 42.2537 42.0664 42.2032 42.1359 42.1338C42.2054 42.0644 42.2562 41.9785 42.2833 41.8842C42.3105 41.7898 42.3132 41.69 42.2912 41.5943L41.839 39.6707C41.9437 39.5458 42.0482 39.4193 42.1495 39.291L44.1237 39.3602C44.2225 39.3649 44.3208 39.344 44.4091 39.2995C44.4974 39.255 44.5727 39.1884 44.6277 39.1063C44.6827 39.0241 44.7156 38.9291 44.723 38.8305C44.7305 38.7319 44.7124 38.633 44.6704 38.5435L43.8537 36.7502C43.9329 36.6048 44.0122 36.4598 44.0882 36.313L46.0319 35.9975C46.1286 35.981 46.2197 35.9403 46.2964 35.8791C46.3732 35.8179 46.4332 35.7382 46.4708 35.6475C46.5083 35.5568 46.5223 35.4581 46.5114 35.3605C46.5004 35.263 46.4649 35.1698 46.4082 35.0897L45.2575 33.4918L45.4025 33.016L47.2469 32.326C47.3392 32.2918 47.4212 32.2344 47.4852 32.1595C47.5491 32.0846 47.5928 31.9945 47.6121 31.898C47.6313 31.8014 47.6256 31.7015 47.5953 31.6077C47.5651 31.514 47.5113 31.4296 47.4392 31.3625L45.9965 30.016C46.0134 29.854 46.0302 29.6903 46.0437 29.5267L47.7225 28.4873C47.8071 28.4363 47.877 28.3642 47.9255 28.2782C47.974 28.1922 47.9995 28.0951 47.9995 27.9963C47.9995 27.8976 47.974 27.8005 47.9255 27.7145C47.877 27.6284 47.8071 27.5564 47.7225 27.5053L47.7242 27.5055ZM36.4887 41.4307C36.1817 41.3632 35.9138 41.1769 35.7437 40.9126C35.5735 40.6482 35.5149 40.3273 35.5807 40.0199C35.6464 39.7125 35.8312 39.4436 36.0946 39.272C36.358 39.1004 36.6786 39.04 36.9864 39.104C37.1413 39.1346 37.2886 39.1958 37.4196 39.2839C37.5507 39.372 37.6629 39.4853 37.7497 39.6172C37.8365 39.7491 37.8962 39.8969 37.9253 40.0522C37.9544 40.2074 37.9523 40.3668 37.9192 40.5212C37.886 40.6756 37.8225 40.8219 37.7322 40.9515C37.642 41.081 37.5269 41.1914 37.3936 41.276C37.2602 41.3607 37.1114 41.4179 36.9558 41.4445C36.8001 41.471 36.6407 41.4663 36.4869 41.4307H36.4887ZM35.9184 37.5737C35.7792 37.5437 35.6355 37.5415 35.4955 37.5672C35.3555 37.5929 35.2219 37.646 35.1024 37.7234C34.983 37.8008 34.88 37.9011 34.7994 38.0184C34.7187 38.1357 34.662 38.2677 34.6325 38.407L34.037 41.1878C32.1979 42.0228 30.1562 42.487 28.0049 42.487C25.8776 42.4901 23.7755 42.027 21.8464 41.1303L21.2507 38.3497C21.2212 38.2105 21.1645 38.0785 21.0839 37.9612C21.0032 37.844 20.9002 37.7439 20.7807 37.6666C20.6613 37.5893 20.5277 37.5364 20.3877 37.5109C20.2477 37.4854 20.1041 37.4878 19.965 37.518L17.51 38.0443C17.0539 37.5746 16.6299 37.0746 16.2412 36.5477H28.1872C28.3222 36.5477 28.4132 36.5242 28.4132 36.401V32.1743C28.4132 32.051 28.3239 32.0275 28.1872 32.0275H24.6929V29.348H28.4724C28.8165 29.348 30.3165 29.4458 30.7957 31.3627C30.9459 31.9515 31.2749 33.87 31.501 34.4842C31.7254 35.1725 32.6399 36.5477 33.6152 36.5477H39.5679C39.6404 36.5467 39.7126 36.5394 39.7839 36.5258C39.3711 37.0865 38.9189 37.6171 38.4307 38.1135L35.9184 37.5737ZM19.3947 41.3733C19.2409 41.409 19.0815 41.4137 18.9258 41.3872C18.7701 41.3606 18.6213 41.3033 18.488 41.2187C18.3547 41.134 18.2396 41.0237 18.1493 40.8941C18.0591 40.7645 17.9955 40.6183 17.9624 40.4639C17.9292 40.3095 17.9272 40.15 17.9563 39.9948C17.9853 39.8396 18.045 39.6917 18.1319 39.5598C18.2187 39.4279 18.3309 39.3146 18.4619 39.2265C18.593 39.1384 18.7403 39.0773 18.8952 39.0467C19.2015 38.9861 19.5193 39.0484 19.7801 39.2201C20.0409 39.3918 20.2238 39.659 20.2894 39.9643C20.3549 40.2696 20.2978 40.5884 20.1305 40.852C19.9631 41.1156 19.6989 41.3028 19.3947 41.3733ZM14.8627 22.9953C14.9314 23.1388 14.9707 23.2946 14.9782 23.4535C14.9856 23.6125 14.9611 23.7713 14.9061 23.9206C14.8511 24.0698 14.7667 24.2066 14.6579 24.3227C14.5491 24.4388 14.4182 24.5318 14.2728 24.5964C14.1273 24.661 13.9705 24.6957 13.8114 24.6986C13.6523 24.7015 13.4943 24.6724 13.3467 24.6131C13.199 24.5538 13.0648 24.4655 12.9519 24.3534C12.839 24.2413 12.7497 24.1077 12.6894 23.9605C12.5723 23.6742 12.5714 23.3535 12.6869 23.0665C12.8023 22.7795 13.025 22.5488 13.3077 22.4233C13.5904 22.2978 13.9109 22.2873 14.2012 22.3941C14.4915 22.5009 14.7288 22.7165 14.8627 22.9953ZM13.4707 26.2975L16.0285 25.1602C16.1586 25.1024 16.2761 25.0195 16.3742 24.9163C16.4722 24.8131 16.549 24.6916 16.6001 24.5587C16.6512 24.4259 16.6756 24.2842 16.6719 24.1419C16.6682 23.9996 16.6364 23.8594 16.5785 23.7293L16.0522 22.5382H18.1242V31.8757H13.9447C13.4293 30.0635 13.2689 28.1687 13.4724 26.2957L13.4707 26.2975ZM24.6945 25.3913V22.6393H29.628C29.883 22.6393 31.4267 22.9347 31.4267 24.0888C31.4267 25.0472 30.2422 25.3913 29.2687 25.3913H24.6945ZM42.6235 27.8683C42.6235 28.2328 42.6102 28.5955 42.583 28.9533H41.083C40.933 28.9533 40.8722 29.051 40.8722 29.1995V29.8878C40.8722 31.5095 39.9577 31.8622 39.1562 31.9515C38.3935 32.0377 37.5482 31.6327 37.4437 31.1653C36.993 28.6343 36.244 28.0927 35.0595 27.1597C36.529 26.2265 38.0579 24.8497 38.0579 23.0072C38.0579 21.0178 36.6929 19.7642 35.763 19.1483C34.4589 18.2878 33.0145 18.1158 32.6247 18.1158H17.1135C19.2572 15.7188 22.1319 14.0961 25.2919 13.4993L27.1209 15.4177C27.2188 15.5208 27.3362 15.6035 27.4663 15.6611C27.5963 15.7187 27.7365 15.7501 27.8787 15.7534C28.0208 15.7567 28.1623 15.7318 28.2949 15.6803C28.4274 15.6288 28.5485 15.5516 28.6512 15.4532L30.6962 13.496C32.7813 13.8871 34.7564 14.7271 36.4845 15.9578C38.2126 17.1884 39.6522 18.7803 40.7035 20.623L39.303 23.7867C39.187 24.0494 39.1797 24.3475 39.2827 24.6156C39.3858 24.8837 39.5909 25.1001 39.853 25.2175L42.5494 26.4155C42.5965 26.8947 42.6202 27.3772 42.6202 27.8683H42.6235ZM27.1225 11.8695C27.3505 11.652 27.6556 11.534 27.9706 11.5415C28.1265 11.5451 28.2803 11.5795 28.423 11.6426C28.5656 11.7057 28.6945 11.7963 28.8022 11.9092C28.9099 12.0221 28.9943 12.1551 29.0506 12.3006C29.1068 12.4461 29.1339 12.6012 29.1302 12.7572C29.1266 12.9132 29.0922 13.0669 29.0291 13.2096C28.966 13.3523 28.8754 13.4811 28.7625 13.5888C28.5315 13.7883 28.2326 13.8913 27.9277 13.8765C27.6228 13.8618 27.3352 13.7303 27.1245 13.5094C26.9138 13.2886 26.7961 12.9951 26.7957 12.6899C26.7954 12.3846 26.9124 12.0909 27.1225 11.8695ZM41.0207 23.0528C41.0836 22.9102 41.1741 22.7813 41.2869 22.6737C41.3997 22.566 41.5327 22.4817 41.6781 22.4256C41.8236 22.3694 41.9788 22.3426 42.1346 22.3466C42.2905 22.3505 42.4441 22.3852 42.5865 22.4487C42.8019 22.5437 42.9842 22.7005 43.1104 22.8991C43.2366 23.0978 43.301 23.3294 43.2955 23.5647C43.29 23.8 43.2148 24.0284 43.0794 24.221C42.9441 24.4135 42.7547 24.5616 42.5351 24.6464C42.3156 24.7313 42.0758 24.7491 41.8462 24.6976C41.6165 24.6461 41.4073 24.5277 41.2449 24.3573C41.0826 24.1868 40.9745 23.9721 40.9343 23.7402C40.8941 23.5083 40.9236 23.2696 41.019 23.0545L41.0207 23.0528Z" fill="black"/>
</g>
<defs>
<linearGradient id="paint0_linear_0_1" x1="28" y1="0" x2="28" y2="56" gradientUnits="userSpaceOnUse">
<stop stop-color="#A32A08"/>
<stop offset="1" stop-color="#3A1004"/>
</linearGradient>
<clipPath id="clip0_0_1">
<rect width="40" height="40" fill="white" transform="translate(8 8)"/>
</clipPath>
</defs>
</svg>
