<svg width="56" height="56" viewBox="0 0 56 56" fill="none" xmlns="http://www.w3.org/2000/svg">
<rect width="56" height="56" rx="8" fill="url(#paint0_linear_1301_13)"/>
<rect x="1.05" y="1.05" width="53.9" height="53.9" rx="6.95" stroke="white" stroke-opacity="0.15" stroke-width="2.1"/>
<g clip-path="url(#clip0_1301_13)">
<path d="M27.8288 8.01129C17.6997 8.01129 18.3322 12.4215 18.3322 12.4215L18.3434 16.9906H28.0094V18.3624H14.5042C14.5042 18.3624 8.02265 17.6243 8.02265 27.8855C8.02265 38.147 13.6799 37.7831 13.6799 37.7831H17.0562V33.0213C17.0562 33.0213 16.8742 27.3413 22.6232 27.3413H32.2101C32.2101 27.3413 37.5963 27.4287 37.5963 22.1148V13.3286C37.5963 13.3286 38.4143 8.01129 27.8288 8.01129ZM22.4989 11.0839C22.7274 11.0837 22.9536 11.1287 23.1646 11.2164C23.3757 11.3041 23.5675 11.4327 23.729 11.5948C23.8905 11.757 24.0186 11.9495 24.1059 12.1614C24.1932 12.3734 24.238 12.6005 24.2378 12.8298C24.238 13.0591 24.1932 13.2863 24.1059 13.4982C24.0186 13.7101 23.8905 13.9026 23.729 14.0648C23.5675 14.227 23.3757 14.3555 23.1646 14.4432C22.9536 14.5309 22.7274 14.5759 22.4989 14.5757C22.2705 14.5759 22.0443 14.5309 21.8333 14.4432C21.6222 14.3555 21.4304 14.227 21.2689 14.0648C21.1074 13.9026 20.9793 13.7101 20.892 13.4982C20.8047 13.2863 20.7598 13.0591 20.76 12.8298C20.7598 12.6005 20.8047 12.3734 20.892 12.1614C20.9793 11.9495 21.1074 11.757 21.2689 11.5948C21.4304 11.4327 21.6222 11.3041 21.8333 11.2164C22.0443 11.1287 22.2705 11.0837 22.4989 11.0839Z" fill="url(#paint1_linear_1301_13)"/>
<path d="M28.1164 47.8629C38.2454 47.8629 37.613 43.4527 37.613 43.4527L37.6017 38.8838H27.9356V37.512H41.4408C41.4408 37.512 47.9223 38.25 47.9223 27.9885C47.9223 17.7272 42.2651 18.0911 42.2651 18.0911H38.8888V22.8527C38.8888 22.8527 39.0708 28.5327 33.3218 28.5327H23.7349C23.7349 28.5327 18.3487 28.4453 18.3487 33.7594V42.5457C18.3487 42.5457 17.5308 47.8629 28.1162 47.8629H28.1164ZM33.4462 44.7906C33.2178 44.7908 32.9916 44.7458 32.7805 44.6581C32.5694 44.5704 32.3777 44.4419 32.2162 44.2797C32.0546 44.1175 31.9266 43.925 31.8392 43.7131C31.7519 43.5012 31.7071 43.274 31.7073 43.0447C31.7071 42.8154 31.7519 42.5882 31.8392 42.3763C31.9265 42.1644 32.0546 41.9718 32.2161 41.8096C32.3776 41.6474 32.5694 41.5188 32.7805 41.4312C32.9915 41.3435 33.2178 41.2985 33.4462 41.2987C33.6746 41.2985 33.9008 41.3435 34.1119 41.4311C34.323 41.5188 34.5147 41.6474 34.6762 41.8096C34.8378 41.9717 34.9658 42.1643 35.0532 42.3762C35.1405 42.5881 35.1853 42.8152 35.1851 43.0445C35.1853 43.2739 35.1405 43.501 35.0532 43.7129C34.9658 43.9248 34.8378 44.1174 34.6762 44.2795C34.5147 44.4417 34.323 44.5703 34.1119 44.658C33.9008 44.7456 33.6746 44.7908 33.4462 44.7906Z" fill="url(#paint2_linear_1301_13)"/>
</g>
<defs>
<linearGradient id="paint0_linear_1301_13" x1="28" y1="0" x2="28" y2="56" gradientUnits="userSpaceOnUse">
<stop stop-color="#B79117"/>
<stop offset="1" stop-color="#083153"/>
</linearGradient>
<linearGradient id="paint1_linear_1301_13" x1="391.457" y1="366.453" x2="2376.61" y2="2323.94" gradientUnits="userSpaceOnUse">
<stop stop-color="#387EB8"/>
<stop offset="1" stop-color="#366994"/>
</linearGradient>
<linearGradient id="paint2_linear_1301_13" x1="584.299" y1="630.796" x2="2715.73" y2="2637.65" gradientUnits="userSpaceOnUse">
<stop stop-color="#FFE052"/>
<stop offset="1" stop-color="#FFC331"/>
</linearGradient>
<clipPath id="clip0_1301_13">
<rect width="40" height="40" fill="white" transform="translate(8 8)"/>
</clipPath>
</defs>
</svg>
