<svg width="124" height="56" viewBox="0 0 124 56" fill="none" xmlns="http://www.w3.org/2000/svg">
<rect width="124" height="56" rx="8" fill="#3F5A8F"/>
<rect x="1.05" y="1.05" width="121.9" height="53.9" rx="6.95" stroke="white" stroke-opacity="0.15" stroke-width="2.1"/>
<g clip-path="url(#clip0_1_50)">
<g clip-path="url(#clip1_1_50)">
<g clip-path="url(#clip2_1_50)">
<g clip-path="url(#clip3_1_50)">
<g clip-path="url(#clip4_1_50)">
<path d="M24.2533 10.6533L21.98 10.6567L20.8667 12.5833L23.4617 17.105L18.2333 17.0917L16.0333 20.9917H35.5167L33.2617 17.105L27.9417 17.095L24.2517 10.6533H24.2533ZM34.545 10.6533L30.0667 10.695L39.81 27.5733L42.045 23.6733L39.395 19.065L43.1283 12.6483L41.99 10.6783H39.7633L37.1467 15.1867L34.545 10.6533ZM46.0233 17.645L36.28 34.52L40.7733 34.5067L43.4417 29.9067L50.8633 29.9333L52 27.9617L50.89 26.0333L45.6733 26.02L48.2967 21.5L46.0233 17.645ZM27.72 21.4767L23.2267 21.49L20.5583 26.09L13.1367 26.0633L12 28.0333L13.11 29.9617L18.3267 29.975L15.7017 34.4917L17.9767 38.35L27.72 21.4767ZM24.2167 28.4167L24.2067 28.4333L24.2033 28.4267L21.9667 32.3267L24.6167 36.935L20.8833 43.3517L22.0233 45.3217H24.25L24.2567 45.3117L26.87 40.815L29.4667 45.3483L33.9467 45.305L33.94 45.295H33.9567L24.2167 28.4167ZM28.4667 34.9667L30.7233 38.8533L36.0433 38.8633L39.735 45.305L42.0067 45.3017L43.12 43.375L40.525 38.8533L45.7533 38.8667L47.9533 34.9667H28.4667Z" fill="#7EB9E3"/>
</g>
</g>
</g>
</g>
</g>
<g filter="url(#filter0_d_1_50)">
<path d="M71.4581 21.6364V34H68.9226L64.0025 26.8643H63.924V34H60.9357V21.6364H63.5074L68.3732 28.7599H68.4758V21.6364H71.4581ZM73.3371 34V24.7273H76.2891V34H73.3371ZM74.8161 23.6467C74.4016 23.6467 74.0454 23.5098 73.7476 23.2361C73.4498 22.9584 73.3009 22.6244 73.3009 22.234C73.3009 21.8477 73.4498 21.5176 73.7476 21.244C74.0454 20.9663 74.4016 20.8274 74.8161 20.8274C75.2347 20.8274 75.5909 20.9663 75.8847 21.244C76.1825 21.5176 76.3314 21.8477 76.3314 22.234C76.3314 22.6244 76.1825 22.9584 75.8847 23.2361C75.5909 23.5098 75.2347 23.6467 74.8161 23.6467ZM80.6795 24.7273L82.2068 27.782L83.7885 24.7273H86.7647L84.1749 29.3636L86.8613 34H83.9093L82.2068 30.9212L80.5467 34H77.5524L80.2448 29.3636L77.6852 24.7273H80.6795ZM99.7819 27.8182C99.7819 29.1785 99.5203 30.3316 98.9971 31.2773C98.4739 32.2231 97.7655 32.9415 96.8721 33.4325C95.9826 33.9235 94.9845 34.169 93.8777 34.169C92.7669 34.169 91.7668 33.9215 90.8774 33.4265C89.9879 32.9315 89.2816 32.2131 88.7584 31.2713C88.2392 30.3255 87.9797 29.1745 87.9797 27.8182C87.9797 26.4579 88.2392 25.3048 88.7584 24.359C89.2816 23.4132 89.9879 22.6948 90.8774 22.2038C91.7668 21.7128 92.7669 21.4673 93.8777 21.4673C94.9845 21.4673 95.9826 21.7128 96.8721 22.2038C97.7655 22.6948 98.4739 23.4132 98.9971 24.359C99.5203 25.3048 99.7819 26.4579 99.7819 27.8182ZM96.7272 27.8182C96.7272 27.0133 96.6125 26.3331 96.3831 25.7777C96.1577 25.2223 95.8317 24.8017 95.4051 24.516C94.9825 24.2302 94.4734 24.0874 93.8777 24.0874C93.2861 24.0874 92.777 24.2302 92.3504 24.516C91.9238 24.8017 91.5958 25.2223 91.3664 25.7777C91.141 26.3331 91.0283 27.0133 91.0283 27.8182C91.0283 28.6231 91.141 29.3033 91.3664 29.8587C91.5958 30.4141 91.9238 30.8346 92.3504 31.1204C92.777 31.4061 93.2861 31.549 93.8777 31.549C94.4734 31.549 94.9825 31.4061 95.4051 31.1204C95.8317 30.8346 96.1577 30.4141 96.3831 29.8587C96.6125 29.3033 96.7272 28.6231 96.7272 27.8182ZM108.209 25.343C108.169 24.9003 107.99 24.5562 107.672 24.3107C107.358 24.0612 106.909 23.9364 106.326 23.9364C105.94 23.9364 105.618 23.9867 105.36 24.0874C105.102 24.188 104.909 24.3268 104.78 24.5039C104.652 24.677 104.585 24.8762 104.581 25.1016C104.573 25.2867 104.609 25.4497 104.69 25.5905C104.774 25.7314 104.895 25.8562 105.052 25.9648C105.213 26.0695 105.406 26.162 105.632 26.2425C105.857 26.323 106.111 26.3935 106.392 26.4538L107.455 26.6953C108.067 26.8281 108.606 27.0052 109.073 27.2266C109.544 27.4479 109.938 27.7115 110.256 28.0174C110.578 28.3233 110.821 28.6754 110.986 29.0739C111.151 29.4723 111.236 29.919 111.24 30.4141C111.236 31.1948 111.039 31.8649 110.648 32.4244C110.258 32.9838 109.697 33.4124 108.964 33.7102C108.236 34.008 107.356 34.157 106.326 34.157C105.292 34.157 104.39 34.002 103.621 33.6921C102.853 33.3822 102.255 32.9113 101.828 32.2795C101.402 31.6476 101.182 30.8487 101.17 29.8828H104.032C104.056 30.2812 104.163 30.6133 104.352 30.8789C104.541 31.1445 104.801 31.3458 105.131 31.4826C105.465 31.6194 105.851 31.6878 106.29 31.6878C106.692 31.6878 107.034 31.6335 107.316 31.5249C107.602 31.4162 107.821 31.2653 107.974 31.0721C108.127 30.8789 108.205 30.6575 108.209 30.408C108.205 30.1746 108.133 29.9754 107.992 29.8104C107.851 29.6413 107.634 29.4964 107.34 29.3757C107.05 29.2509 106.68 29.1362 106.229 29.0316L104.937 28.7298C103.867 28.4843 103.024 28.0878 102.408 27.5405C101.792 26.9891 101.486 26.2446 101.49 25.3068C101.486 24.5421 101.692 23.872 102.106 23.2965C102.521 22.721 103.094 22.2723 103.827 21.9503C104.559 21.6283 105.394 21.4673 106.332 21.4673C107.29 21.4673 108.121 21.6303 108.825 21.9563C109.534 22.2783 110.083 22.7311 110.473 23.3146C110.864 23.8982 111.063 24.5743 111.071 25.343H108.209Z" fill="#7EB9E3"/>
</g>
<defs>
<filter id="filter0_d_1_50" x="54.4" y="13.4" width="63.2" height="29.2" filterUnits="userSpaceOnUse" color-interpolation-filters="sRGB">
<feFlood flood-opacity="0" result="BackgroundImageFix"/>
<feColorMatrix in="SourceAlpha" type="matrix" values="0 0 0 0 0 0 0 0 0 0 0 0 0 0 0 0 0 0 127 0" result="hardAlpha"/>
<feOffset/>
<feGaussianBlur stdDeviation="2.8"/>
<feComposite in2="hardAlpha" operator="out"/>
<feColorMatrix type="matrix" values="0 0 0 0 0 0 0 0 0 0 0 0 0 0 0 0 0 0 0.25 0"/>
<feBlend mode="normal" in2="BackgroundImageFix" result="effect1_dropShadow_1_50"/>
<feBlend mode="normal" in="SourceGraphic" in2="effect1_dropShadow_1_50" result="shape"/>
</filter>
<clipPath id="clip0_1_50">
<rect width="40" height="40" fill="white" transform="translate(12 8)"/>
</clipPath>
<clipPath id="clip1_1_50">
<rect width="40" height="40" fill="white" transform="translate(12 8)"/>
</clipPath>
<clipPath id="clip2_1_50">
<rect width="40" height="40" fill="white" transform="translate(12 8)"/>
</clipPath>
<clipPath id="clip3_1_50">
<rect width="40" height="40" fill="white" transform="translate(12 8)"/>
</clipPath>
<clipPath id="clip4_1_50">
<rect width="40" height="40" fill="white" transform="translate(12 8)"/>
</clipPath>
</defs>
</svg>
