<svg width="136" height="56" viewBox="0 0 136 56" fill="none" xmlns="http://www.w3.org/2000/svg">
<rect width="136" height="56" rx="8" fill="url(#paint0_linear_1_50)"/>
<rect x="1.05" y="1.05" width="133.9" height="53.9" rx="6.95" stroke="white" stroke-opacity="0.15" stroke-width="2.1"/>
<g clip-path="url(#clip0_1_50)">
<g clip-path="url(#clip1_1_50)">
<g clip-path="url(#clip2_1_50)">
<g clip-path="url(#clip3_1_50)">
<path d="M15.69 16.2567V38.9483L24.7583 48V25.19L17.52 14.4083L15.69 16.2567ZM24.0217 46.2233L16.4267 38.6433V16.56L17.41 15.5667L24.0217 25.4133V46.2233ZM48.31 38.795L46.8733 40.3567L39.8067 29.73V8L48.2533 16.4867L48.31 38.795ZM24.385 8.00167L46.0483 41.06L39.9867 47.1217L18.3117 14.1383L24.3833 8L24.385 8.00167Z" fill="#B2FFDA"/>
</g>
</g>
</g>
</g>
<g filter="url(#filter0_d_1_50)">
<path d="M71.4581 21.6364V34H68.9226L64.0025 26.8643H63.924V34H60.9357V21.6364H63.5074L68.3732 28.7599H68.4758V21.6364H71.4581ZM77.6716 34.1751C76.7017 34.1751 75.8645 33.9839 75.1602 33.6016C74.4599 33.2152 73.9206 32.6658 73.5423 31.9535C73.168 31.2371 72.9809 30.3859 72.9809 29.3999C72.9809 28.442 73.1701 27.6049 73.5484 26.8885C73.9267 26.1681 74.4599 25.6087 75.1482 25.2102C75.8364 24.8078 76.6473 24.6065 77.581 24.6065C78.2411 24.6065 78.8448 24.7092 79.3921 24.9144C79.9395 25.1197 80.4124 25.4235 80.8108 25.826C81.2092 26.2285 81.5191 26.7255 81.7405 27.3171C81.9618 27.9047 82.0725 28.5788 82.0725 29.3395V30.076H74.0132V28.3615H79.3257C79.3217 28.0476 79.2472 27.7679 79.1023 27.5224C78.9575 27.2769 78.7582 27.0857 78.5047 26.9489C78.2552 26.808 77.9674 26.7376 77.6414 26.7376C77.3114 26.7376 77.0156 26.812 76.754 26.9609C76.4924 27.1058 76.2851 27.305 76.1322 27.5586C75.9792 27.8081 75.8988 28.0919 75.8907 28.4098V30.1545C75.8907 30.5328 75.9652 30.8648 76.1141 31.1506C76.263 31.4323 76.4743 31.6516 76.7479 31.8086C77.0216 31.9655 77.3476 32.044 77.7259 32.044C77.9875 32.044 78.225 32.0078 78.4383 31.9354C78.6516 31.8629 78.8347 31.7563 78.9876 31.6154C79.1406 31.4745 79.2553 31.3015 79.3318 31.0962L82.0423 31.1747C81.9296 31.7824 81.6821 32.3117 81.2998 32.7624C80.9215 33.2092 80.4244 33.5573 79.8087 33.8068C79.1929 34.0523 78.4805 34.1751 77.6716 34.1751ZM87.9087 34.1751C86.9348 34.1751 86.0976 33.9758 85.3974 33.5774C84.7011 33.1749 84.1638 32.6155 83.7855 31.8991C83.4112 31.1787 83.2241 30.3436 83.2241 29.3938C83.2241 28.44 83.4112 27.6049 83.7855 26.8885C84.1638 26.1681 84.7011 25.6087 85.3974 25.2102C86.0976 24.8078 86.9348 24.6065 87.9087 24.6065C88.8827 24.6065 89.7178 24.8078 90.414 25.2102C91.1143 25.6087 91.6516 26.1681 92.0259 26.8885C92.4042 27.6049 92.5934 28.44 92.5934 29.3938C92.5934 30.3436 92.4042 31.1787 92.0259 31.8991C91.6516 32.6155 91.1143 33.1749 90.414 33.5774C89.7178 33.9758 88.8827 34.1751 87.9087 34.1751ZM87.9268 31.9474C88.281 31.9474 88.5808 31.8388 88.8263 31.6214C89.0718 31.4041 89.259 31.1023 89.3878 30.7159C89.5206 30.3295 89.587 29.8828 89.587 29.3757C89.587 28.8606 89.5206 28.4098 89.3878 28.0234C89.259 27.6371 89.0718 27.3352 88.8263 27.1179C88.5808 26.9006 88.281 26.7919 87.9268 26.7919C87.5606 26.7919 87.2507 26.9006 86.9971 27.1179C86.7476 27.3352 86.5564 27.6371 86.4236 28.0234C86.2948 28.4098 86.2305 28.8606 86.2305 29.3757C86.2305 29.8828 86.2948 30.3295 86.4236 30.7159C86.5564 31.1023 86.7476 31.4041 86.9971 31.6214C87.2507 31.8388 87.5606 31.9474 87.9268 31.9474ZM102.802 24.7273L99.6204 34H96.2397L93.0643 24.7273H96.1733L97.8817 31.1143H97.9783L99.6928 24.7273H102.802ZM103.934 34V24.7273H106.886V34H103.934ZM105.413 23.6467C104.998 23.6467 104.642 23.5098 104.344 23.2361C104.046 22.9584 103.898 22.6244 103.898 22.234C103.898 21.8477 104.046 21.5176 104.344 21.244C104.642 20.9663 104.998 20.8274 105.413 20.8274C105.831 20.8274 106.188 20.9663 106.481 21.244C106.779 21.5176 106.928 21.8477 106.928 22.234C106.928 22.6244 106.779 22.9584 106.481 23.2361C106.188 23.5098 105.831 23.6467 105.413 23.6467ZM108.765 34V24.7273H111.572V26.4297H111.675C111.868 25.8662 112.194 25.4215 112.653 25.0955C113.111 24.7695 113.659 24.6065 114.295 24.6065C114.939 24.6065 115.49 24.7715 115.949 25.1016C116.408 25.4316 116.699 25.8743 116.824 26.4297H116.921C117.094 25.8783 117.432 25.4376 117.935 25.1076C118.438 24.7736 119.032 24.6065 119.716 24.6065C120.593 24.6065 121.306 24.8883 121.853 25.4517C122.4 26.0111 122.674 26.7798 122.674 27.7578V34H119.722V28.4339C119.722 27.9711 119.603 27.619 119.366 27.3775C119.128 27.132 118.82 27.0092 118.442 27.0092C118.036 27.0092 117.716 27.142 117.482 27.4077C117.253 27.6693 117.138 28.0214 117.138 28.4641V34H114.301V28.4038C114.301 27.9731 114.184 27.633 113.951 27.3835C113.717 27.134 113.409 27.0092 113.027 27.0092C112.769 27.0092 112.542 27.0716 112.345 27.1964C112.147 27.3171 111.993 27.4902 111.88 27.7155C111.771 27.9409 111.717 28.2066 111.717 28.5124V34H108.765Z" fill="#B3FFDA"/>
</g>
<defs>
<filter id="filter0_d_1_50" x="54.4" y="13.4" width="75.2" height="29.2" filterUnits="userSpaceOnUse" color-interpolation-filters="sRGB">
<feFlood flood-opacity="0" result="BackgroundImageFix"/>
<feColorMatrix in="SourceAlpha" type="matrix" values="0 0 0 0 0 0 0 0 0 0 0 0 0 0 0 0 0 0 127 0" result="hardAlpha"/>
<feOffset/>
<feGaussianBlur stdDeviation="2.8"/>
<feComposite in2="hardAlpha" operator="out"/>
<feColorMatrix type="matrix" values="0 0 0 0 0 0 0 0 0 0 0 0 0 0 0 0 0 0 0.25 0"/>
<feBlend mode="normal" in2="BackgroundImageFix" result="effect1_dropShadow_1_50"/>
<feBlend mode="normal" in="SourceGraphic" in2="effect1_dropShadow_1_50" result="shape"/>
</filter>
<linearGradient id="paint0_linear_1_50" x1="68" y1="0" x2="68" y2="56" gradientUnits="userSpaceOnUse">
<stop stop-color="#009442"/>
<stop offset="1" stop-color="#16476D"/>
</linearGradient>
<clipPath id="clip0_1_50">
<rect width="40" height="40" fill="white" transform="translate(12 8)"/>
</clipPath>
<clipPath id="clip1_1_50">
<rect width="40" height="40" fill="white" transform="translate(12 8)"/>
</clipPath>
<clipPath id="clip2_1_50">
<rect width="40" height="40" fill="white" transform="translate(12 8)"/>
</clipPath>
<clipPath id="clip3_1_50">
<rect width="40" height="40" fill="white" transform="translate(12 8)"/>
</clipPath>
</defs>
</svg>
