<svg width="56" height="56" viewBox="0 0 56 56" fill="none" xmlns="http://www.w3.org/2000/svg">
<rect width="56" height="56" rx="8" fill="url(#paint0_linear_903_2)"/>
<rect x="1.05" y="1.05" width="53.9" height="53.9" rx="6.95" stroke="white" stroke-opacity="0.15" stroke-width="2.1"/>
<g clip-path="url(#clip0_903_2)">
<g clip-path="url(#clip1_903_2)">
<g clip-path="url(#clip2_903_2)">
<g clip-path="url(#clip3_903_2)">
<path d="M11.69 16.2567V38.9483L20.7583 48V25.19L13.52 14.4083L11.69 16.2567ZM20.0217 46.2233L12.4267 38.6433V16.56L13.41 15.5667L20.0217 25.4133V46.2233ZM44.31 38.795L42.8733 40.3567L35.8067 29.73V8L44.2533 16.4867L44.31 38.795ZM20.385 8.00167L42.0483 41.06L35.9867 47.1217L14.3117 14.1383L20.3833 8L20.385 8.00167Z" fill="#B2FFDA"/>
</g>
</g>
</g>
</g>
<defs>
<linearGradient id="paint0_linear_903_2" x1="28" y1="0" x2="28" y2="56" gradientUnits="userSpaceOnUse">
<stop stop-color="#009442"/>
<stop offset="1" stop-color="#16476D"/>
</linearGradient>
<clipPath id="clip0_903_2">
<rect width="40" height="40" fill="white" transform="translate(8 8)"/>
</clipPath>
<clipPath id="clip1_903_2">
<rect width="40" height="40" fill="white" transform="translate(8 8)"/>
</clipPath>
<clipPath id="clip2_903_2">
<rect width="40" height="40" fill="white" transform="translate(8 8)"/>
</clipPath>
<clipPath id="clip3_903_2">
<rect width="40" height="40" fill="white" transform="translate(8 8)"/>
</clipPath>
</defs>
</svg>
