<svg width="226" height="56" viewBox="0 0 226 56" fill="none" xmlns="http://www.w3.org/2000/svg">
<rect width="226" height="56" rx="8" fill="url(#paint0_linear_1_50)"/>
<rect x="1.05" y="1.05" width="223.9" height="53.9" rx="6.95" stroke="white" stroke-opacity="0.15" stroke-width="2.1"/>
<g clip-path="url(#clip0_1_50)">
<g clip-path="url(#clip1_1_50)">
<path d="M45.1592 26.1602L44.8715 25.6555C44.8828 22.0312 43.2012 20.5538 41.2402 19.4308C41.8335 19.2745 42.4463 19.1457 42.6143 18.4005C43.634 18.1395 43.8472 17.6675 43.9495 17.1675C44.2162 16.9898 45.1087 16.4907 45.0152 15.6323C45.5148 15.2875 45.7933 14.8448 45.6517 14.2178C46.1887 13.632 46.33 13.148 46.102 12.7018C46.7467 11.901 46.4607 11.486 46.1853 11.0657C46.6682 10.19 46.2422 9.25116 44.8923 9.40833C44.3555 8.6195 43.185 8.7985 43.004 8.80216C42.8015 8.549 42.5342 8.332 41.7115 8.43716C41.1787 7.962 40.583 8.04316 39.9685 8.2765C39.2388 7.70933 38.756 8.164 38.2045 8.33583C37.3212 8.0515 37.119 8.441 36.685 8.59966C35.7215 8.39916 35.4287 8.83566 34.9668 9.29666L34.4295 9.28616C32.9763 10.1297 32.2545 11.8472 31.9987 12.7302C31.7427 11.847 31.0223 10.1295 29.5695 9.28616L29.0323 9.29666C28.57 8.83566 28.2772 8.399 27.3138 8.5995C26.8798 8.441 26.6783 8.0515 25.7943 8.33583C25.4323 8.223 25.0993 7.9885 24.7073 8.0005C24.5022 8.0065 24.2817 8.08166 24.0308 8.27666C23.4162 8.04316 22.8205 7.96216 22.2877 8.43733C21.465 8.33216 21.1977 8.54916 20.995 8.80233C20.8145 8.7985 19.6437 8.6195 19.1067 9.40833C17.7573 9.25116 17.3308 10.1902 17.814 11.0657C17.5385 11.4858 17.253 11.9012 17.8973 12.7022C17.6695 13.1483 17.8108 13.6323 18.3478 14.2182C18.2062 14.8453 18.4848 15.2878 18.9843 15.6327C18.8908 16.491 19.7835 16.99 20.05 17.1678C20.1523 17.668 20.3657 18.1398 21.3852 18.4008C21.5532 19.1462 22.166 19.2748 22.7593 19.4313C20.7983 20.5542 19.1167 22.0313 19.128 25.656L18.8407 26.1607C16.5922 27.5077 14.5692 31.8367 17.7327 35.3552C17.9393 36.4567 18.2858 37.2477 18.5945 38.1233C19.056 41.6517 22.068 43.3037 22.8625 43.4992C24.0265 44.3725 25.2663 45.2012 26.9442 45.7818C28.5258 47.3885 30.2392 48.0008 31.962 47.9998C31.9873 47.9998 32.013 48.0002 32.0382 47.9998C33.761 48.0008 35.4745 47.3885 37.056 45.7818C38.7338 45.2013 39.9737 44.3725 41.1378 43.4992C41.9322 43.3037 44.9442 41.6517 45.4057 38.1233C45.7142 37.2478 46.0608 36.4567 46.2673 35.3552C49.4308 31.8363 47.4078 27.507 45.1592 26.1602ZM43.4282 25.541C43.3108 27.0008 35.7025 20.457 37.0162 20.2397C40.5813 19.6467 43.548 21.733 43.4282 25.541ZM40.069 32.8158C38.1555 34.0507 35.3982 33.2535 33.9102 31.0357C32.4222 28.818 32.7672 26.0188 34.6807 24.7842C36.5942 23.5493 39.3515 24.3463 40.8395 26.5642C42.3273 28.782 41.9825 31.581 40.069 32.8158ZM34.7652 10.2868C34.8312 10.6147 34.9057 10.8218 34.9908 10.883C35.4137 10.4297 35.7593 9.96533 36.3038 9.52916C36.3057 9.78533 36.1745 10.0633 36.4987 10.2667C36.7907 9.874 37.1852 9.5235 37.7092 9.226C37.4568 9.66116 37.6658 9.79333 37.8015 9.97366C38.2015 9.6305 38.5817 9.283 39.3197 9.01383C39.118 9.2595 38.836 9.4995 39.135 9.78166C39.5472 9.52433 39.9617 9.26733 40.9405 9.0845C40.72 9.33033 40.264 9.57616 40.5403 9.82216C41.0577 9.6245 41.6302 9.481 42.2637 9.39783C41.9603 9.64716 41.7075 9.89166 41.956 10.0848C42.5098 9.9145 43.2725 9.68516 44.018 9.88283L43.546 10.3577C43.4937 10.4213 44.6498 10.4072 45.413 10.4183C45.1347 10.8052 44.8505 11.1787 44.6847 11.843C44.7603 11.9195 45.1385 11.877 45.495 11.843C45.1293 12.6127 44.4943 12.8068 44.3462 13.1363C44.5695 13.3055 44.8795 13.2613 45.2182 13.1463C44.9548 13.6887 44.4028 14.0603 43.9667 14.5002C44.077 14.5785 44.2697 14.6252 44.7258 14.571C44.3228 14.9993 43.836 15.391 43.2588 15.743C43.3612 15.861 43.7125 15.8565 44.0385 15.8642C43.5158 16.3757 42.843 16.6408 42.2127 16.9755C42.5268 17.1902 42.7517 17.1402 42.9923 17.1372C42.5463 17.5035 41.7882 17.6942 41.0843 17.9152C41.2182 18.1233 41.3522 18.18 41.6383 18.2385C40.8933 18.6507 39.8262 18.4623 39.5252 18.673C39.5977 18.8802 39.8027 19.0152 40.0483 19.1277C38.8488 19.1973 35.5685 19.084 34.9397 16.6017C36.1675 15.2527 38.4085 13.6695 42.263 11.7117C39.264 12.7153 36.5582 14.0533 34.2935 15.8943C31.6305 14.655 33.466 11.5282 34.7652 10.2868ZM32.0775 19.2398C33.9657 19.2193 36.3035 20.6273 36.2942 21.9542C36.2858 23.1253 34.6523 24.0733 32.092 24.0553C29.5848 24.0258 27.8967 22.864 27.9025 21.7292C27.9075 20.7953 29.9495 19.1853 32.0775 19.2398ZM22.4698 18.2388C22.756 18.1803 22.8898 18.1235 23.0237 17.9155C22.3198 17.6943 21.5617 17.5038 21.1157 17.1375C21.3563 17.1405 21.581 17.1905 21.8953 16.9758C21.2648 16.6412 20.592 16.376 20.0693 15.8645C20.3952 15.8565 20.7467 15.8612 20.8488 15.7432C20.2718 15.391 19.785 14.9993 19.382 14.571C19.8383 14.6252 20.0308 14.5785 20.1412 14.5002C19.705 14.0602 19.1528 13.6885 18.8897 13.1463C19.2283 13.2613 19.5383 13.3053 19.7617 13.1363C19.6133 12.8068 18.9783 12.6127 18.6127 11.843C18.9693 11.877 19.3475 11.9195 19.4232 11.843C19.2575 11.1788 18.9735 10.8053 18.695 10.4185C19.4582 10.4073 20.6143 10.4215 20.562 10.3578L20.0902 9.883C20.8355 9.68533 21.5983 9.91466 22.152 10.0852C22.4007 9.892 22.1477 9.6475 21.8442 9.398C22.4777 9.48133 23.0502 9.62483 23.5675 9.8225C23.844 9.5765 23.3882 9.33066 23.1675 9.08483C24.1462 9.26766 24.561 9.52466 24.973 9.782C25.272 9.49966 24.9902 9.25983 24.7883 9.01416C25.5263 9.28333 25.9065 9.63083 26.3067 9.974C26.4423 9.79366 26.6513 9.6615 26.399 9.22633C26.9228 9.52383 27.3175 9.87433 27.6095 10.267C27.9337 10.0637 27.8027 9.78566 27.8043 9.52933C28.3488 9.96566 28.6943 10.43 29.1175 10.8833C29.2027 10.8223 29.2773 10.615 29.3432 10.2872C30.6422 11.5285 32.4777 14.6552 29.815 15.8948C27.5502 14.055 24.8455 12.7175 21.8483 11.7138C25.7008 13.6705 27.941 15.2537 29.1683 16.6018C28.5395 19.0843 25.2592 19.1977 24.0598 19.128C24.3053 19.0153 24.5103 18.8805 24.583 18.6733C24.282 18.4627 23.2148 18.651 22.4698 18.2388ZM27.1657 20.1278C28.4792 20.3452 20.8708 26.889 20.7537 25.4293C20.6338 21.6217 23.6002 19.5348 27.1657 20.1278ZM19.0873 34.7223C17.2383 33.2575 16.6427 28.9675 20.0708 27.0395C22.1365 26.494 20.7682 35.4578 19.0873 34.7223ZM26.1967 42.3872C25.1538 43.007 22.6213 42.7517 20.8213 40.2047C19.6075 38.0675 19.7638 35.8927 20.6163 35.2538C21.891 34.489 23.8603 35.522 25.3762 37.2543C26.6967 38.8218 27.2988 41.5755 26.1967 42.3872ZM24.1275 33.0395C22.214 31.8047 21.869 29.0057 23.357 26.7877C24.845 24.5698 27.6023 23.7728 29.5157 25.0077C31.4292 26.2425 31.7742 29.0415 30.2862 31.2592C28.7985 33.4772 26.041 34.2742 24.1275 33.0395ZM32.1188 46.7527C29.825 46.85 27.5758 44.9018 27.6053 44.2265C27.571 43.2365 30.3983 42.4635 32.242 42.5088C34.0972 42.429 36.5867 43.0973 36.5915 43.984C36.6222 44.845 34.3337 46.7903 32.1188 46.7527ZM36.7162 36.9897C36.7297 39.3062 34.6728 41.1938 32.1225 41.2062C29.5722 41.2183 27.4937 39.3503 27.4802 37.034V36.9898C27.4668 34.6733 29.5233 32.7855 32.0738 32.7733C34.6242 32.7612 36.7027 34.629 36.716 36.9455C36.7163 36.9602 36.7164 36.9749 36.7162 36.9897ZM43.1412 40.3278C41.1645 43.0292 38.4885 43.1345 37.4918 42.382C36.4493 41.4135 37.2452 38.4063 38.6742 36.7575C40.3095 34.9388 42.0578 33.7508 43.2757 34.6788C44.0955 35.4835 44.5765 38.5135 43.1412 40.3278ZM44.9285 34.611C43.2475 35.3465 41.8788 26.3823 43.945 26.9277C47.373 28.8558 46.7773 33.146 44.9285 34.611ZM44.8858 20.7312H45.3833V19.8472H45.881C46.1313 19.8472 46.2232 19.9512 46.258 20.1892C46.2833 20.3705 46.2768 20.5883 46.3375 20.7313H46.8348C46.746 20.6042 46.749 20.3383 46.7397 20.1958C46.7235 19.967 46.6542 19.7298 46.4102 19.6665V19.6603C46.6605 19.5587 46.7683 19.3592 46.7683 19.092C46.7683 18.7507 46.5118 18.469 46.106 18.469H44.886L44.8858 20.7312ZM45.3833 18.8553H45.9282C46.1503 18.8553 46.2705 18.9508 46.2705 19.1687C46.2705 19.3968 46.1503 19.4923 45.9282 19.4923H45.3833V18.8553ZM43.6605 19.6275C43.6605 20.7957 44.6075 21.7432 45.7763 21.7432C46.9452 21.7432 47.8922 20.7958 47.8922 19.6275C47.8922 18.4587 46.945 17.5113 45.7763 17.5113C44.6075 17.5113 43.6605 18.4587 43.6605 19.6275ZM47.5397 19.6275C47.5397 20.6017 46.7502 21.3908 45.7763 21.3908C44.8025 21.3908 44.013 20.6017 44.013 19.6275C44.013 18.6527 44.8025 17.8642 45.7763 17.8642C46.7502 17.8642 47.5397 18.6527 47.5397 19.6275Z" fill="#FFB2C9"/>
</g>
</g>
<g filter="url(#filter0_d_1_50)">
<path d="M60.9357 34V21.6364H66.043C66.9686 21.6364 67.7675 21.8034 68.4396 22.1374C69.1158 22.4674 69.6369 22.9423 70.0032 23.5621C70.3694 24.1779 70.5525 24.9084 70.5525 25.7535C70.5525 26.6108 70.3654 27.3392 69.9911 27.9389C69.6168 28.5346 69.0856 28.9893 68.3974 29.3033C67.7092 29.6132 66.8942 29.7681 65.9524 29.7681H62.7226V27.4137H65.397C65.8478 27.4137 66.2241 27.3553 66.5259 27.2386C66.8318 27.1179 67.0632 26.9368 67.2202 26.6953C67.3771 26.4498 67.4556 26.1359 67.4556 25.7535C67.4556 25.3712 67.3771 25.0553 67.2202 24.8057C67.0632 24.5522 66.8318 24.363 66.5259 24.2383C66.22 24.1095 65.8437 24.0451 65.397 24.0451H63.924V34H60.9357ZM67.8963 28.3494L70.9751 34H67.7152L64.6967 28.3494H67.8963ZM74.8056 34.157C74.2139 34.157 73.6887 34.0584 73.2299 33.8611C72.7751 33.6599 72.4149 33.3581 72.1493 32.9556C71.8877 32.5491 71.7569 32.04 71.7569 31.4283C71.7569 30.9131 71.8475 30.4785 72.0286 30.1243C72.2097 29.7701 72.4592 29.4824 72.7772 29.261C73.0951 29.0396 73.4613 28.8726 73.8759 28.7599C74.2904 28.6432 74.7331 28.5647 75.204 28.5245C75.7312 28.4762 76.1558 28.4259 76.4778 28.3736C76.7998 28.3172 77.0332 28.2388 77.1781 28.1381C77.327 28.0335 77.4014 27.8866 77.4014 27.6974V27.6673C77.4014 27.3574 77.2948 27.1179 77.0815 26.9489C76.8682 26.7798 76.5804 26.6953 76.2182 26.6953C75.8278 26.6953 75.5139 26.7798 75.2764 26.9489C75.039 27.1179 74.8881 27.3513 74.8237 27.6491L72.101 27.5526C72.1815 26.9891 72.3888 26.486 72.7228 26.0433C73.0609 25.5966 73.5237 25.2464 74.1113 24.9929C74.7029 24.7353 75.4133 24.6065 76.2424 24.6065C76.834 24.6065 77.3793 24.677 77.8784 24.8178C78.3774 24.9547 78.8121 25.1559 79.1823 25.4215C79.5526 25.6831 79.8384 26.0051 80.0396 26.3874C80.2448 26.7698 80.3475 27.2064 80.3475 27.6974V34H77.5705V32.7081H77.498C77.333 33.022 77.1217 33.2876 76.8642 33.505C76.6106 33.7223 76.3108 33.8853 75.9647 33.994C75.6226 34.1026 75.2362 34.157 74.8056 34.157ZM75.7171 32.2251C76.0351 32.2251 76.3208 32.1607 76.5744 32.032C76.832 31.9032 77.0372 31.7261 77.1902 31.5007C77.3431 31.2713 77.4196 31.0057 77.4196 30.7038V29.8224C77.335 29.8667 77.2324 29.907 77.1117 29.9432C76.995 29.9794 76.8662 30.0136 76.7253 30.0458C76.5844 30.078 76.4396 30.1062 76.2906 30.1303C76.1417 30.1545 75.9989 30.1766 75.862 30.1967C75.5843 30.241 75.3469 30.3094 75.1497 30.402C74.9565 30.4945 74.8076 30.6153 74.7029 30.7642C74.6023 30.9091 74.552 31.0821 74.552 31.2834C74.552 31.5892 74.6607 31.8227 74.878 31.9837C75.0994 32.1446 75.3791 32.2251 75.7171 32.2251ZM90.248 27.5586L87.5374 27.631C87.5093 27.4379 87.4328 27.2668 87.308 27.1179C87.1833 26.965 87.0203 26.8462 86.8191 26.7617C86.6218 26.6732 86.3924 26.6289 86.1308 26.6289C85.7888 26.6289 85.497 26.6973 85.2555 26.8342C85.018 26.971 84.9013 27.1561 84.9053 27.3896C84.9013 27.5707 84.9738 27.7276 85.1227 27.8604C85.2756 27.9932 85.5473 28.0999 85.9377 28.1804L87.7246 28.5185C88.6503 28.6955 89.3385 28.9893 89.7892 29.3999C90.244 29.8104 90.4734 30.3537 90.4774 31.0298C90.4734 31.6657 90.2843 32.2191 89.91 32.69C89.5397 33.1609 89.0326 33.5271 88.3887 33.7887C87.7447 34.0463 87.0082 34.1751 86.1791 34.1751C84.855 34.1751 83.8107 33.9034 83.046 33.3601C82.2853 32.8127 81.8507 32.0802 81.742 31.1626L84.6578 31.0902C84.7222 31.4283 84.8892 31.6858 85.1589 31.8629C85.4285 32.04 85.7727 32.1285 86.1912 32.1285C86.5695 32.1285 86.8774 32.0581 87.1149 31.9173C87.3523 31.7764 87.4731 31.5892 87.4771 31.3558C87.4731 31.1465 87.3805 30.9795 87.1994 30.8548C87.0183 30.726 86.7345 30.6253 86.3482 30.5529L84.7303 30.245C83.8006 30.076 83.1084 29.7641 82.6536 29.3093C82.1988 28.8505 81.9734 28.2669 81.9774 27.5586C81.9734 26.9388 82.1384 26.4096 82.4725 25.9709C82.8065 25.5282 83.2814 25.1901 83.8972 24.9567C84.5129 24.7232 85.2394 24.6065 86.0765 24.6065C87.3322 24.6065 88.3222 24.8701 89.0467 25.3974C89.7711 25.9206 90.1716 26.641 90.248 27.5586ZM91.9308 37.4773V24.7273H94.8527V26.315H94.9433C95.064 26.0333 95.235 25.7616 95.4564 25.5C95.6818 25.2384 95.9675 25.0251 96.3136 24.8601C96.6638 24.691 97.0823 24.6065 97.5693 24.6065C98.2133 24.6065 98.8149 24.7756 99.3744 25.1136C99.9378 25.4517 100.393 25.9729 100.739 26.6772C101.085 27.3815 101.258 28.279 101.258 29.3697C101.258 30.4201 101.091 31.2995 100.757 32.0078C100.427 32.7161 99.9801 33.2474 99.4166 33.6016C98.8572 33.9557 98.2354 34.1328 97.5512 34.1328C97.0844 34.1328 96.6799 34.0563 96.3378 33.9034C95.9957 33.7505 95.7079 33.5492 95.4745 33.2997C95.2451 33.0502 95.068 32.7825 94.9433 32.4968H94.8829V37.4773H91.9308ZM94.8225 29.3636C94.8225 29.8627 94.8889 30.2973 95.0217 30.6676C95.1586 31.0379 95.3538 31.3256 95.6073 31.5309C95.8649 31.7321 96.1728 31.8327 96.531 31.8327C96.8932 31.8327 97.2011 31.7321 97.4546 31.5309C97.7082 31.3256 97.8993 31.0379 98.0281 30.6676C98.1609 30.2973 98.2273 29.8627 98.2273 29.3636C98.2273 28.8646 98.1609 28.4319 98.0281 28.0657C97.8993 27.6995 97.7082 27.4157 97.4546 27.2145C97.2051 27.0133 96.8972 26.9126 96.531 26.9126C96.1687 26.9126 95.8609 27.0112 95.6073 27.2084C95.3538 27.4057 95.1586 27.6874 95.0217 28.0536C94.8889 28.4199 94.8225 28.8565 94.8225 29.3636ZM102.805 34V21.6364H105.757V26.315H105.817C105.938 26.0333 106.109 25.7616 106.33 25.5C106.556 25.2384 106.842 25.0251 107.188 24.8601C107.538 24.691 107.956 24.6065 108.443 24.6065C109.087 24.6065 109.689 24.7756 110.248 25.1136C110.812 25.4517 111.267 25.9729 111.613 26.6772C111.959 27.3815 112.132 28.279 112.132 29.3697C112.132 30.4201 111.965 31.2995 111.631 32.0078C111.301 32.7161 110.854 33.2474 110.291 33.6016C109.731 33.9557 109.109 34.1328 108.425 34.1328C107.958 34.1328 107.554 34.0563 107.212 33.9034C106.87 33.7505 106.582 33.5492 106.349 33.2997C106.119 33.0502 105.942 32.7825 105.817 32.4968H105.727V34H102.805ZM105.697 29.3636C105.697 29.8627 105.763 30.2973 105.896 30.6676C106.033 31.0379 106.228 31.3256 106.481 31.5309C106.739 31.7321 107.047 31.8327 107.405 31.8327C107.767 31.8327 108.075 31.7321 108.329 31.5309C108.582 31.3256 108.773 31.0379 108.902 30.6676C109.035 30.2973 109.101 29.8627 109.101 29.3636C109.101 28.8646 109.035 28.4319 108.902 28.0657C108.773 27.6995 108.582 27.4157 108.329 27.2145C108.079 27.0133 107.771 26.9126 107.405 26.9126C107.043 26.9126 106.735 27.0112 106.481 27.2084C106.228 27.4057 106.033 27.6874 105.896 28.0536C105.763 28.4199 105.697 28.8565 105.697 29.3636ZM118.013 34.1751C117.043 34.1751 116.206 33.9839 115.502 33.6016C114.802 33.2152 114.262 32.6658 113.884 31.9535C113.51 31.2371 113.323 30.3859 113.323 29.3999C113.323 28.442 113.512 27.6049 113.89 26.8885C114.268 26.1681 114.802 25.6087 115.49 25.2102C116.178 24.8078 116.989 24.6065 117.923 24.6065C118.583 24.6065 119.187 24.7092 119.734 24.9144C120.281 25.1197 120.754 25.4235 121.153 25.826C121.551 26.2285 121.861 26.7255 122.082 27.3171C122.304 27.9047 122.414 28.5788 122.414 29.3395V30.076H114.355V28.3615H119.667C119.663 28.0476 119.589 27.7679 119.444 27.5224C119.299 27.2769 119.1 27.0857 118.846 26.9489C118.597 26.808 118.309 26.7376 117.983 26.7376C117.653 26.7376 117.357 26.812 117.096 26.9609C116.834 27.1058 116.627 27.305 116.474 27.5586C116.321 27.8081 116.241 28.0919 116.232 28.4098V30.1545C116.232 30.5328 116.307 30.8648 116.456 31.1506C116.605 31.4323 116.816 31.6516 117.09 31.8086C117.363 31.9655 117.689 32.044 118.068 32.044C118.329 32.044 118.567 32.0078 118.78 31.9354C118.993 31.8629 119.176 31.7563 119.329 31.6154C119.482 31.4745 119.597 31.3015 119.674 31.0962L122.384 31.1747C122.271 31.7824 122.024 32.3117 121.642 32.7624C121.263 33.2092 120.766 33.5573 120.15 33.8068C119.535 34.0523 118.822 34.1751 118.013 34.1751ZM123.922 34V24.7273H126.79V26.4176H126.886C127.055 25.8059 127.331 25.3511 127.713 25.0533C128.096 24.7514 128.54 24.6005 129.047 24.6005C129.184 24.6005 129.325 24.6106 129.47 24.6307C129.615 24.6468 129.75 24.6729 129.874 24.7092V27.2749C129.734 27.2266 129.548 27.1883 129.319 27.1602C129.094 27.132 128.892 27.1179 128.715 27.1179C128.365 27.1179 128.049 27.1964 127.768 27.3533C127.49 27.5063 127.271 27.7216 127.11 27.9993C126.953 28.273 126.874 28.5949 126.874 28.9652V34H123.922ZM131.077 34V24.7273H133.945V26.4176H134.041C134.21 25.8059 134.486 25.3511 134.868 25.0533C135.251 24.7514 135.696 24.6005 136.203 24.6005C136.339 24.6005 136.48 24.6106 136.625 24.6307C136.77 24.6468 136.905 24.6729 137.03 24.7092V27.2749C136.889 27.2266 136.704 27.1883 136.474 27.1602C136.249 27.132 136.048 27.1179 135.871 27.1179C135.52 27.1179 135.205 27.1964 134.923 27.3533C134.645 27.5063 134.426 27.7216 134.265 27.9993C134.108 28.273 134.029 28.5949 134.029 28.9652V34H131.077ZM140.32 37.4773C139.966 37.4773 139.632 37.4491 139.318 37.3927C139.004 37.3404 138.734 37.27 138.509 37.1815L139.161 35.0383C139.451 35.1349 139.712 35.1913 139.946 35.2074C140.183 35.2235 140.386 35.1852 140.555 35.0927C140.728 35.0041 140.861 34.8452 140.954 34.6158L141.068 34.3381L137.772 24.7273H140.863L142.572 31.3437H142.668L144.401 24.7273H147.51L144.014 34.8874C143.845 35.3945 143.606 35.8413 143.296 36.2276C142.99 36.618 142.594 36.9239 142.107 37.1452C141.624 37.3666 141.028 37.4773 140.32 37.4773ZM152.294 34V21.6364H157.401C158.327 21.6364 159.126 21.8175 159.798 22.1797C160.474 22.5379 160.995 23.0389 161.362 23.6829C161.728 24.3228 161.911 25.0673 161.911 25.9165C161.911 26.7698 161.724 27.5163 161.349 28.1562C160.979 28.7921 160.45 29.2852 159.762 29.6353C159.074 29.9854 158.257 30.1605 157.311 30.1605H154.159V27.8061H156.755C157.206 27.8061 157.582 27.7276 157.884 27.5707C158.19 27.4137 158.422 27.1944 158.579 26.9126C158.735 26.6269 158.814 26.2949 158.814 25.9165C158.814 25.5342 158.735 25.2042 158.579 24.9265C158.422 24.6448 158.19 24.4274 157.884 24.2745C157.578 24.1216 157.202 24.0451 156.755 24.0451H155.282V34H152.294ZM163.384 34V24.7273H166.336V34H163.384ZM164.863 23.6467C164.448 23.6467 164.092 23.5098 163.794 23.2361C163.497 22.9584 163.348 22.6244 163.348 22.234C163.348 21.8477 163.497 21.5176 163.794 21.244C164.092 20.9663 164.448 20.8274 164.863 20.8274C165.282 20.8274 165.638 20.9663 165.932 21.244C166.229 21.5176 166.378 21.8477 166.378 22.234C166.378 22.6244 166.229 22.9584 165.932 23.2361C165.638 23.5098 165.282 23.6467 164.863 23.6467ZM171.867 34V21.6364H176.975C177.9 21.6364 178.699 21.8175 179.371 22.1797C180.047 22.5379 180.569 23.0389 180.935 23.6829C181.301 24.3228 181.484 25.0673 181.484 25.9165C181.484 26.7698 181.297 27.5163 180.923 28.1562C180.552 28.7921 180.023 29.2852 179.335 29.6353C178.647 29.9854 177.83 30.1605 176.884 30.1605H173.733V27.8061H176.329C176.779 27.8061 177.156 27.7276 177.458 27.5707C177.763 27.4137 177.995 27.1944 178.152 26.9126C178.309 26.6269 178.387 26.2949 178.387 25.9165C178.387 25.5342 178.309 25.2042 178.152 24.9265C177.995 24.6448 177.763 24.4274 177.458 24.2745C177.152 24.1216 176.775 24.0451 176.329 24.0451H174.856V34H171.867ZM185.945 21.6364V34H182.957V21.6364H185.945ZM199.044 26.1158H196.026C195.985 25.8059 195.903 25.5262 195.778 25.2766C195.653 25.0271 195.488 24.8138 195.283 24.6367C195.078 24.4596 194.834 24.3248 194.553 24.2322C194.275 24.1356 193.967 24.0874 193.629 24.0874C193.029 24.0874 192.512 24.2343 192.077 24.5281C191.647 24.8218 191.315 25.2464 191.081 25.8018C190.852 26.3572 190.737 27.0294 190.737 27.8182C190.737 28.6392 190.854 29.3274 191.087 29.8828C191.325 30.4342 191.657 30.8507 192.083 31.1325C192.514 31.4102 193.023 31.549 193.611 31.549C193.941 31.549 194.241 31.5067 194.51 31.4222C194.784 31.3377 195.023 31.215 195.229 31.054C195.438 30.889 195.609 30.6897 195.742 30.4563C195.879 30.2189 195.973 29.9512 196.026 29.6534L199.044 29.6715C198.992 30.2189 198.833 30.7582 198.567 31.2894C198.306 31.8207 197.945 32.3056 197.487 32.7443C197.028 33.179 196.468 33.5251 195.808 33.7827C195.152 34.0402 194.4 34.169 193.55 34.169C192.432 34.169 191.429 33.9235 190.544 33.4325C189.663 32.9375 188.966 32.2171 188.455 31.2713C187.944 30.3255 187.689 29.1745 187.689 27.8182C187.689 26.4579 187.948 25.3048 188.467 24.359C188.987 23.4132 189.689 22.6948 190.574 22.2038C191.46 21.7128 192.452 21.4673 193.55 21.4673C194.299 21.4673 194.991 21.572 195.627 21.7812C196.263 21.9865 196.822 22.2883 197.305 22.6868C197.788 23.0812 198.181 23.5662 198.483 24.1417C198.784 24.7172 198.972 25.3752 199.044 26.1158ZM212.423 27.8182C212.423 29.1785 212.162 30.3316 211.639 31.2773C211.115 32.2231 210.407 32.9415 209.514 33.4325C208.624 33.9235 207.626 34.169 206.519 34.169C205.409 34.169 204.408 33.9215 203.519 33.4265C202.63 32.9315 201.923 32.2131 201.4 31.2713C200.881 30.3255 200.621 29.1745 200.621 27.8182C200.621 26.4579 200.881 25.3048 201.4 24.359C201.923 23.4132 202.63 22.6948 203.519 22.2038C204.408 21.7128 205.409 21.4673 206.519 21.4673C207.626 21.4673 208.624 21.7128 209.514 22.2038C210.407 22.6948 211.115 23.4132 211.639 24.359C212.162 25.3048 212.423 26.4579 212.423 27.8182ZM209.369 27.8182C209.369 27.0133 209.254 26.3331 209.025 25.7777C208.799 25.2223 208.473 24.8017 208.047 24.516C207.624 24.2302 207.115 24.0874 206.519 24.0874C205.928 24.0874 205.419 24.2302 204.992 24.516C204.565 24.8017 204.237 25.2223 204.008 25.7777C203.783 26.3331 203.67 27.0133 203.67 27.8182C203.67 28.6231 203.783 29.3033 204.008 29.8587C204.237 30.4141 204.565 30.8346 204.992 31.1204C205.419 31.4061 205.928 31.549 206.519 31.549C207.115 31.549 207.624 31.4061 208.047 31.1204C208.473 30.8346 208.799 30.4141 209.025 29.8587C209.254 29.3033 209.369 28.6231 209.369 27.8182Z" fill="#FFB3C9"/>
</g>
<defs>
<filter id="filter0_d_1_50" x="54.4" y="13.4" width="165.2" height="29.6773" filterUnits="userSpaceOnUse" color-interpolation-filters="sRGB">
<feFlood flood-opacity="0" result="BackgroundImageFix"/>
<feColorMatrix in="SourceAlpha" type="matrix" values="0 0 0 0 0 0 0 0 0 0 0 0 0 0 0 0 0 0 127 0" result="hardAlpha"/>
<feOffset/>
<feGaussianBlur stdDeviation="2.8"/>
<feComposite in2="hardAlpha" operator="out"/>
<feColorMatrix type="matrix" values="0 0 0 0 0 0 0 0 0 0 0 0 0 0 0 0 0 0 0.25 0"/>
<feBlend mode="normal" in2="BackgroundImageFix" result="effect1_dropShadow_1_50"/>
<feBlend mode="normal" in="SourceGraphic" in2="effect1_dropShadow_1_50" result="shape"/>
</filter>
<linearGradient id="paint0_linear_1_50" x1="113" y1="0" x2="113" y2="56" gradientUnits="userSpaceOnUse">
<stop stop-color="#A41C44"/>
<stop offset="1" stop-color="#660723"/>
</linearGradient>
<clipPath id="clip0_1_50">
<rect width="40" height="40" fill="white" transform="translate(12 8)"/>
</clipPath>
<clipPath id="clip1_1_50">
<rect width="40" height="40" fill="white" transform="translate(12 8)"/>
</clipPath>
</defs>
</svg>
