<svg width="115" height="56" viewBox="0 0 115 56" fill="none" xmlns="http://www.w3.org/2000/svg">
<rect width="115" height="56" rx="8" fill="url(#paint0_linear_603_2)"/>
<rect x="1.05" y="1.05" width="112.9" height="53.9" rx="6.95" stroke="white" stroke-opacity="0.15" stroke-width="2.1"/>
<g clip-path="url(#clip0_603_2)">
<g clip-path="url(#clip1_603_2)">
<path d="M45.1592 26.1602L44.8715 25.6555C44.8828 22.0312 43.2012 20.5538 41.2402 19.4308C41.8335 19.2745 42.4463 19.1457 42.6143 18.4005C43.634 18.1395 43.8472 17.6675 43.9495 17.1675C44.2162 16.9898 45.1087 16.4907 45.0152 15.6323C45.5148 15.2875 45.7933 14.8448 45.6517 14.2178C46.1887 13.632 46.33 13.148 46.102 12.7018C46.7467 11.901 46.4607 11.486 46.1853 11.0657C46.6682 10.19 46.2422 9.25116 44.8923 9.40833C44.3555 8.6195 43.185 8.7985 43.004 8.80216C42.8015 8.549 42.5342 8.332 41.7115 8.43716C41.1787 7.962 40.583 8.04316 39.9685 8.2765C39.2388 7.70933 38.756 8.164 38.2045 8.33583C37.3212 8.0515 37.119 8.441 36.685 8.59966C35.7215 8.39916 35.4287 8.83566 34.9668 9.29666L34.4295 9.28616C32.9763 10.1297 32.2545 11.8472 31.9987 12.7302C31.7427 11.847 31.0223 10.1295 29.5695 9.28616L29.0323 9.29666C28.57 8.83566 28.2772 8.399 27.3138 8.5995C26.8798 8.441 26.6783 8.0515 25.7943 8.33583C25.4323 8.223 25.0993 7.9885 24.7073 8.0005C24.5022 8.0065 24.2817 8.08166 24.0308 8.27666C23.4162 8.04316 22.8205 7.96216 22.2877 8.43733C21.465 8.33216 21.1977 8.54916 20.995 8.80233C20.8145 8.7985 19.6437 8.6195 19.1067 9.40833C17.7573 9.25116 17.3308 10.1902 17.814 11.0657C17.5385 11.4858 17.253 11.9012 17.8973 12.7022C17.6695 13.1483 17.8108 13.6323 18.3478 14.2182C18.2062 14.8453 18.4848 15.2878 18.9843 15.6327C18.8908 16.491 19.7835 16.99 20.05 17.1678C20.1523 17.668 20.3657 18.1398 21.3852 18.4008C21.5532 19.1462 22.166 19.2748 22.7593 19.4313C20.7983 20.5542 19.1167 22.0313 19.128 25.656L18.8407 26.1607C16.5922 27.5077 14.5692 31.8367 17.7327 35.3552C17.9393 36.4567 18.2858 37.2477 18.5945 38.1233C19.056 41.6517 22.068 43.3037 22.8625 43.4992C24.0265 44.3725 25.2663 45.2012 26.9442 45.7818C28.5258 47.3885 30.2392 48.0008 31.962 47.9998C31.9873 47.9998 32.013 48.0002 32.0382 47.9998C33.761 48.0008 35.4745 47.3885 37.056 45.7818C38.7338 45.2013 39.9737 44.3725 41.1378 43.4992C41.9322 43.3037 44.9442 41.6517 45.4057 38.1233C45.7142 37.2478 46.0608 36.4567 46.2673 35.3552C49.4308 31.8363 47.4078 27.507 45.1592 26.1602ZM43.4282 25.541C43.3108 27.0008 35.7025 20.457 37.0162 20.2397C40.5813 19.6467 43.548 21.733 43.4282 25.541ZM40.069 32.8158C38.1555 34.0507 35.3982 33.2535 33.9102 31.0357C32.4222 28.818 32.7672 26.0188 34.6807 24.7842C36.5942 23.5493 39.3515 24.3463 40.8395 26.5642C42.3273 28.782 41.9825 31.581 40.069 32.8158ZM34.7652 10.2868C34.8312 10.6147 34.9057 10.8218 34.9908 10.883C35.4137 10.4297 35.7593 9.96533 36.3038 9.52916C36.3057 9.78533 36.1745 10.0633 36.4987 10.2667C36.7907 9.874 37.1852 9.5235 37.7092 9.226C37.4568 9.66116 37.6658 9.79333 37.8015 9.97366C38.2015 9.6305 38.5817 9.283 39.3197 9.01383C39.118 9.2595 38.836 9.4995 39.135 9.78166C39.5472 9.52433 39.9617 9.26733 40.9405 9.0845C40.72 9.33033 40.264 9.57616 40.5403 9.82216C41.0577 9.6245 41.6302 9.481 42.2637 9.39783C41.9603 9.64716 41.7075 9.89166 41.956 10.0848C42.5098 9.9145 43.2725 9.68516 44.018 9.88283L43.546 10.3577C43.4937 10.4213 44.6498 10.4072 45.413 10.4183C45.1347 10.8052 44.8505 11.1787 44.6847 11.843C44.7603 11.9195 45.1385 11.877 45.495 11.843C45.1293 12.6127 44.4943 12.8068 44.3462 13.1363C44.5695 13.3055 44.8795 13.2613 45.2182 13.1463C44.9548 13.6887 44.4028 14.0603 43.9667 14.5002C44.077 14.5785 44.2697 14.6252 44.7258 14.571C44.3228 14.9993 43.836 15.391 43.2588 15.743C43.3612 15.861 43.7125 15.8565 44.0385 15.8642C43.5158 16.3757 42.843 16.6408 42.2127 16.9755C42.5268 17.1902 42.7517 17.1402 42.9923 17.1372C42.5463 17.5035 41.7882 17.6942 41.0843 17.9152C41.2182 18.1233 41.3522 18.18 41.6383 18.2385C40.8933 18.6507 39.8262 18.4623 39.5252 18.673C39.5977 18.8802 39.8027 19.0152 40.0483 19.1277C38.8488 19.1973 35.5685 19.084 34.9397 16.6017C36.1675 15.2527 38.4085 13.6695 42.263 11.7117C39.264 12.7153 36.5582 14.0533 34.2935 15.8943C31.6305 14.655 33.466 11.5282 34.7652 10.2868ZM32.0775 19.2398C33.9657 19.2193 36.3035 20.6273 36.2942 21.9542C36.2858 23.1253 34.6523 24.0733 32.092 24.0553C29.5848 24.0258 27.8967 22.864 27.9025 21.7292C27.9075 20.7953 29.9495 19.1853 32.0775 19.2398ZM22.4698 18.2388C22.756 18.1803 22.8898 18.1235 23.0237 17.9155C22.3198 17.6943 21.5617 17.5038 21.1157 17.1375C21.3563 17.1405 21.581 17.1905 21.8953 16.9758C21.2648 16.6412 20.592 16.376 20.0693 15.8645C20.3952 15.8565 20.7467 15.8612 20.8488 15.7432C20.2718 15.391 19.785 14.9993 19.382 14.571C19.8383 14.6252 20.0308 14.5785 20.1412 14.5002C19.705 14.0602 19.1528 13.6885 18.8897 13.1463C19.2283 13.2613 19.5383 13.3053 19.7617 13.1363C19.6133 12.8068 18.9783 12.6127 18.6127 11.843C18.9693 11.877 19.3475 11.9195 19.4232 11.843C19.2575 11.1788 18.9735 10.8053 18.695 10.4185C19.4582 10.4073 20.6143 10.4215 20.562 10.3578L20.0902 9.883C20.8355 9.68533 21.5983 9.91466 22.152 10.0852C22.4007 9.892 22.1477 9.6475 21.8442 9.398C22.4777 9.48133 23.0502 9.62483 23.5675 9.8225C23.844 9.5765 23.3882 9.33066 23.1675 9.08483C24.1462 9.26766 24.561 9.52466 24.973 9.782C25.272 9.49966 24.9902 9.25983 24.7883 9.01416C25.5263 9.28333 25.9065 9.63083 26.3067 9.974C26.4423 9.79366 26.6513 9.6615 26.399 9.22633C26.9228 9.52383 27.3175 9.87433 27.6095 10.267C27.9337 10.0637 27.8027 9.78566 27.8043 9.52933C28.3488 9.96566 28.6943 10.43 29.1175 10.8833C29.2027 10.8223 29.2773 10.615 29.3432 10.2872C30.6422 11.5285 32.4777 14.6552 29.815 15.8948C27.5502 14.055 24.8455 12.7175 21.8483 11.7138C25.7008 13.6705 27.941 15.2537 29.1683 16.6018C28.5395 19.0843 25.2592 19.1977 24.0598 19.128C24.3053 19.0153 24.5103 18.8805 24.583 18.6733C24.282 18.4627 23.2148 18.651 22.4698 18.2388ZM27.1657 20.1278C28.4792 20.3452 20.8708 26.889 20.7537 25.4293C20.6338 21.6217 23.6002 19.5348 27.1657 20.1278ZM19.0873 34.7223C17.2383 33.2575 16.6427 28.9675 20.0708 27.0395C22.1365 26.494 20.7682 35.4578 19.0873 34.7223ZM26.1967 42.3872C25.1538 43.007 22.6213 42.7517 20.8213 40.2047C19.6075 38.0675 19.7638 35.8927 20.6163 35.2538C21.891 34.489 23.8603 35.522 25.3762 37.2543C26.6967 38.8218 27.2988 41.5755 26.1967 42.3872ZM24.1275 33.0395C22.214 31.8047 21.869 29.0057 23.357 26.7877C24.845 24.5698 27.6023 23.7728 29.5157 25.0077C31.4292 26.2425 31.7742 29.0415 30.2862 31.2592C28.7985 33.4772 26.041 34.2742 24.1275 33.0395ZM32.1188 46.7527C29.825 46.85 27.5758 44.9018 27.6053 44.2265C27.571 43.2365 30.3983 42.4635 32.242 42.5088C34.0972 42.429 36.5867 43.0973 36.5915 43.984C36.6222 44.845 34.3337 46.7903 32.1188 46.7527ZM36.7162 36.9897C36.7297 39.3062 34.6728 41.1938 32.1225 41.2062C29.5722 41.2183 27.4937 39.3503 27.4802 37.034V36.9898C27.4668 34.6733 29.5233 32.7855 32.0738 32.7733C34.6242 32.7612 36.7027 34.629 36.716 36.9455C36.7163 36.9602 36.7164 36.9749 36.7162 36.9897ZM43.1412 40.3278C41.1645 43.0292 38.4885 43.1345 37.4918 42.382C36.4493 41.4135 37.2452 38.4063 38.6742 36.7575C40.3095 34.9388 42.0578 33.7508 43.2757 34.6788C44.0955 35.4835 44.5765 38.5135 43.1412 40.3278ZM44.9285 34.611C43.2475 35.3465 41.8788 26.3823 43.945 26.9277C47.373 28.8558 46.7773 33.146 44.9285 34.611ZM44.8858 20.7312H45.3833V19.8472H45.881C46.1313 19.8472 46.2232 19.9512 46.258 20.1892C46.2833 20.3705 46.2768 20.5883 46.3375 20.7313H46.8348C46.746 20.6042 46.749 20.3383 46.7397 20.1958C46.7235 19.967 46.6542 19.7298 46.4102 19.6665V19.6603C46.6605 19.5587 46.7683 19.3592 46.7683 19.092C46.7683 18.7507 46.5118 18.469 46.106 18.469H44.886L44.8858 20.7312ZM45.3833 18.8553H45.9282C46.1503 18.8553 46.2705 18.9508 46.2705 19.1687C46.2705 19.3968 46.1503 19.4923 45.9282 19.4923H45.3833V18.8553ZM43.6605 19.6275C43.6605 20.7957 44.6075 21.7432 45.7763 21.7432C46.9452 21.7432 47.8922 20.7958 47.8922 19.6275C47.8922 18.4587 46.945 17.5113 45.7763 17.5113C44.6075 17.5113 43.6605 18.4587 43.6605 19.6275ZM47.5397 19.6275C47.5397 20.6017 46.7502 21.3908 45.7763 21.3908C44.8025 21.3908 44.013 20.6017 44.013 19.6275C44.013 18.6527 44.8025 17.8642 45.7763 17.8642C46.7502 17.8642 47.5397 18.6527 47.5397 19.6275Z" fill="#FFB2C9"/>
</g>
</g>
<g filter="url(#filter0_d_603_2)">
<path d="M60.9357 34V21.6364H66.043C66.9686 21.6364 67.7675 21.8175 68.4396 22.1797C69.1158 22.5379 69.637 23.0389 70.0032 23.6829C70.3694 24.3228 70.5526 25.0673 70.5526 25.9165C70.5526 26.7698 70.3654 27.5163 69.9911 28.1562C69.6209 28.7921 69.0916 29.2852 68.4034 29.6353C67.7152 29.9854 66.8982 30.1605 65.9524 30.1605H62.8011V27.8061H65.397C65.8478 27.8061 66.2241 27.7276 66.5259 27.5707C66.8318 27.4137 67.0632 27.1944 67.2202 26.9126C67.3771 26.6269 67.4556 26.2949 67.4556 25.9165C67.4556 25.5342 67.3771 25.2042 67.2202 24.9265C67.0632 24.6448 66.8318 24.4274 66.5259 24.2745C66.2201 24.1216 65.8437 24.0451 65.397 24.0451H63.924V34H60.9357ZM75.0138 21.6364V34H72.0256V21.6364H75.0138ZM88.1125 26.1158H85.094C85.0538 25.8059 84.9713 25.5262 84.8465 25.2766C84.7217 25.0271 84.5567 24.8138 84.3515 24.6367C84.1462 24.4596 83.9027 24.3248 83.621 24.2322C83.3433 24.1356 83.0354 24.0874 82.6973 24.0874C82.0977 24.0874 81.5805 24.2343 81.1459 24.5281C80.7152 24.8218 80.3832 25.2464 80.1498 25.8018C79.9204 26.3572 79.8057 27.0294 79.8057 27.8182C79.8057 28.6392 79.9224 29.3274 80.1558 29.8828C80.3933 30.4342 80.7253 30.8507 81.1519 31.1325C81.5825 31.4102 82.0916 31.549 82.6792 31.549C83.0093 31.549 83.3091 31.5067 83.5787 31.4222C83.8524 31.3377 84.0919 31.215 84.2971 31.054C84.5064 30.889 84.6775 30.6897 84.8103 30.4563C84.9471 30.2189 85.0417 29.9512 85.094 29.6534L88.1125 29.6715C88.0602 30.2189 87.9012 30.7582 87.6356 31.2894C87.374 31.8207 87.0138 32.3056 86.5549 32.7443C86.0961 33.179 85.5367 33.5251 84.8767 33.7827C84.2207 34.0402 83.4681 34.169 82.6189 34.169C81.5 34.169 80.4979 33.9235 79.6125 33.4325C78.7311 32.9375 78.0348 32.2171 77.5237 31.2713C77.0126 30.3255 76.757 29.1745 76.757 27.8182C76.757 26.4579 77.0166 25.3048 77.5358 24.359C78.0549 23.4132 78.7572 22.6948 79.6427 22.2038C80.5281 21.7128 81.5201 21.4673 82.6189 21.4673C83.3674 21.4673 84.0597 21.572 84.6956 21.7812C85.3315 21.9865 85.8909 22.2883 86.3738 22.6868C86.8568 23.0812 87.2492 23.5662 87.551 24.1417C87.8529 24.7172 88.04 25.3752 88.1125 26.1158ZM101.492 27.8182C101.492 29.1785 101.23 30.3316 100.707 31.2773C100.184 32.2231 99.4755 32.9415 98.582 33.4325C97.6926 33.9235 96.6945 34.169 95.5877 34.169C94.4769 34.169 93.4768 33.9215 92.5873 33.4265C91.6979 32.9315 90.9916 32.2131 90.4684 31.2713C89.9492 30.3255 89.6896 29.1745 89.6896 27.8182C89.6896 26.4579 89.9492 25.3048 90.4684 24.359C90.9916 23.4132 91.6979 22.6948 92.5873 22.2038C93.4768 21.7128 94.4769 21.4673 95.5877 21.4673C96.6945 21.4673 97.6926 21.7128 98.582 22.2038C99.4755 22.6948 100.184 23.4132 100.707 24.359C101.23 25.3048 101.492 26.4579 101.492 27.8182ZM98.4371 27.8182C98.4371 27.0133 98.3224 26.3331 98.093 25.7777C97.8676 25.2223 97.5417 24.8017 97.115 24.516C96.6925 24.2302 96.1833 24.0874 95.5877 24.0874C94.9961 24.0874 94.487 24.2302 94.0604 24.516C93.6337 24.8017 93.3057 25.2223 93.0763 25.7777C92.851 26.3331 92.7383 27.0133 92.7383 27.8182C92.7383 28.6231 92.851 29.3033 93.0763 29.8587C93.3057 30.4141 93.6337 30.8346 94.0604 31.1204C94.487 31.4061 94.9961 31.549 95.5877 31.549C96.1833 31.549 96.6925 31.4061 97.115 31.1204C97.5417 30.8346 97.8676 30.4141 98.093 29.8587C98.3224 29.3033 98.4371 28.6231 98.4371 27.8182Z" fill="#FFB3C9"/>
</g>
<defs>
<filter id="filter0_d_603_2" x="54.4" y="13.4" width="54.2" height="29.2" filterUnits="userSpaceOnUse" color-interpolation-filters="sRGB">
<feFlood flood-opacity="0" result="BackgroundImageFix"/>
<feColorMatrix in="SourceAlpha" type="matrix" values="0 0 0 0 0 0 0 0 0 0 0 0 0 0 0 0 0 0 127 0" result="hardAlpha"/>
<feOffset/>
<feGaussianBlur stdDeviation="2.8"/>
<feComposite in2="hardAlpha" operator="out"/>
<feColorMatrix type="matrix" values="0 0 0 0 0 0 0 0 0 0 0 0 0 0 0 0 0 0 0.25 0"/>
<feBlend mode="normal" in2="BackgroundImageFix" result="effect1_dropShadow_603_2"/>
<feBlend mode="normal" in="SourceGraphic" in2="effect1_dropShadow_603_2" result="shape"/>
</filter>
<linearGradient id="paint0_linear_603_2" x1="57.5" y1="0" x2="57.5" y2="56" gradientUnits="userSpaceOnUse">
<stop stop-color="#A41C44"/>
<stop offset="1" stop-color="#660723"/>
</linearGradient>
<clipPath id="clip0_603_2">
<rect width="40" height="40" fill="white" transform="translate(12 8)"/>
</clipPath>
<clipPath id="clip1_603_2">
<rect width="40" height="40" fill="white" transform="translate(12 8)"/>
</clipPath>
</defs>
</svg>
