<svg width="225" height="56" viewBox="0 0 225 56" fill="none" xmlns="http://www.w3.org/2000/svg">
<rect width="225" height="56" rx="8" fill="url(#paint0_linear_1301_14)"/>
<rect x="1.05" y="1.05" width="222.9" height="53.9" rx="6.95" stroke="white" stroke-opacity="0.15" stroke-width="2.1"/>
<g clip-path="url(#clip0_1301_14)">
<path d="M48.2167 38L34.8833 14.6667C34.5926 14.1537 34.171 13.727 33.6615 13.4301C33.1521 13.1332 32.573 12.9768 31.9833 12.9768C31.3937 12.9768 30.8146 13.1332 30.3051 13.4301C29.7957 13.727 29.3741 14.1537 29.0833 14.6667L15.75 38C15.4561 38.5089 15.3021 39.0865 15.3034 39.6742C15.3047 40.2619 15.4613 40.8388 15.7574 41.3464C16.0535 41.854 16.4786 42.2743 16.9895 42.5647C17.5004 42.8551 18.079 43.0053 18.6667 43H45.3333C45.9182 42.9994 46.4926 42.8449 46.9988 42.5521C47.5051 42.2593 47.9254 41.8385 48.2175 41.3319C48.5097 40.8252 48.6634 40.2506 48.6633 39.6658C48.6631 39.081 48.5091 38.5065 48.2167 38Z" stroke="black" stroke-width="2" stroke-linecap="round" stroke-linejoin="round"/>
<path d="M32 23V29.6667" stroke="black" stroke-width="2" stroke-linecap="round" stroke-linejoin="round"/>
<path d="M32 36.3333H32.0167" stroke="black" stroke-width="2" stroke-linecap="round" stroke-linejoin="round"/>
</g>
<g filter="url(#filter0_d_1301_14)">
<path d="M64.5881 34V21.6364H67.5763V31.5731H72.7198V34H64.5881ZM78.5953 34.1751C77.6213 34.1751 76.7842 33.9758 76.0839 33.5774C75.3876 33.1749 74.8503 32.6155 74.472 31.8991C74.0977 31.1787 73.9106 30.3436 73.9106 29.3938C73.9106 28.44 74.0977 27.6049 74.472 26.8885C74.8503 26.1681 75.3876 25.6087 76.0839 25.2102C76.7842 24.8078 77.6213 24.6065 78.5953 24.6065C79.5692 24.6065 80.4043 24.8078 81.1006 25.2102C81.8009 25.6087 82.3382 26.1681 82.7124 26.8885C83.0908 27.6049 83.2799 28.44 83.2799 29.3938C83.2799 30.3436 83.0908 31.1787 82.7124 31.8991C82.3382 32.6155 81.8009 33.1749 81.1006 33.5774C80.4043 33.9758 79.5692 34.1751 78.5953 34.1751ZM78.6134 31.9474C78.9675 31.9474 79.2674 31.8388 79.5129 31.6214C79.7584 31.4041 79.9455 31.1023 80.0743 30.7159C80.2071 30.3295 80.2735 29.8828 80.2735 29.3757C80.2735 28.8606 80.2071 28.4098 80.0743 28.0234C79.9455 27.6371 79.7584 27.3352 79.5129 27.1179C79.2674 26.9006 78.9675 26.7919 78.6134 26.7919C78.2471 26.7919 77.9372 26.9006 77.6837 27.1179C77.4342 27.3352 77.243 27.6371 77.1102 28.0234C76.9814 28.4098 76.917 28.8606 76.917 29.3757C76.917 29.8828 76.9814 30.3295 77.1102 30.7159C77.243 31.1023 77.4342 31.4041 77.6837 31.6214C77.9372 31.8388 78.2471 31.9474 78.6134 31.9474ZM86.3255 34L83.9108 24.7273H86.8749L88.1245 30.6676H88.203L89.5432 24.7273H92.4349L93.8113 30.6253H93.8898L95.1032 24.7273H98.0674L95.6466 34H92.4892L91.0404 28.5969H90.9378L89.4889 34H86.3255ZM99.2521 34V21.6364H104.408C105.333 21.6364 106.108 21.7672 106.732 22.0288C107.36 22.2904 107.831 22.6566 108.145 23.1275C108.462 23.5984 108.621 24.1437 108.621 24.7635C108.621 25.2344 108.523 25.6549 108.326 26.0252C108.128 26.3914 107.857 26.6953 107.511 26.9368C107.165 27.1783 106.764 27.3473 106.309 27.4439V27.5646C106.808 27.5888 107.269 27.7236 107.692 27.9691C108.118 28.2146 108.46 28.5567 108.718 28.9954C108.976 29.43 109.104 29.9452 109.104 30.5408C109.104 31.2049 108.935 31.7985 108.597 32.3217C108.259 32.8409 107.77 33.2514 107.13 33.5533C106.49 33.8511 105.714 34 104.8 34H99.2521ZM102.24 31.5913H104.088C104.736 31.5913 105.213 31.4685 105.518 31.223C105.828 30.9775 105.983 30.6354 105.983 30.1967C105.983 29.8788 105.909 29.6051 105.76 29.3757C105.611 29.1423 105.4 28.9632 105.126 28.8384C104.852 28.7096 104.524 28.6452 104.142 28.6452H102.24V31.5913ZM102.24 26.7195H103.895C104.221 26.7195 104.51 26.6651 104.764 26.5565C105.017 26.4478 105.215 26.2908 105.355 26.0856C105.5 25.8803 105.573 25.6328 105.573 25.343C105.573 24.9285 105.426 24.6025 105.132 24.3651C104.838 24.1276 104.442 24.0089 103.943 24.0089H102.24V26.7195ZM113.155 34.157C112.564 34.157 112.038 34.0584 111.58 33.8611C111.125 33.6599 110.765 33.3581 110.499 32.9556C110.237 32.5491 110.107 32.04 110.107 31.4283C110.107 30.9131 110.197 30.4785 110.378 30.1243C110.559 29.7701 110.809 29.4824 111.127 29.261C111.445 29.0396 111.811 28.8726 112.225 28.7599C112.64 28.6432 113.083 28.5647 113.554 28.5245C114.081 28.4762 114.505 28.4259 114.827 28.3736C115.149 28.3172 115.383 28.2388 115.528 28.1381C115.677 28.0335 115.751 27.8866 115.751 27.6974V27.6673C115.751 27.3574 115.644 27.1179 115.431 26.9489C115.218 26.7798 114.93 26.6953 114.568 26.6953C114.177 26.6953 113.864 26.7798 113.626 26.9489C113.389 27.1179 113.238 27.3513 113.173 27.6491L110.451 27.5526C110.531 26.9891 110.738 26.486 111.072 26.0433C111.41 25.5966 111.873 25.2464 112.461 24.9929C113.053 24.7353 113.763 24.6065 114.592 24.6065C115.184 24.6065 115.729 24.677 116.228 24.8178C116.727 24.9547 117.162 25.1559 117.532 25.4215C117.902 25.6831 118.188 26.0051 118.389 26.3874C118.594 26.7698 118.697 27.2064 118.697 27.6974V34H115.92V32.7081H115.848C115.683 33.022 115.471 33.2876 115.214 33.505C114.96 33.7223 114.66 33.8853 114.314 33.994C113.972 34.1026 113.586 34.157 113.155 34.157ZM114.067 32.2251C114.385 32.2251 114.67 32.1607 114.924 32.032C115.182 31.9032 115.387 31.7261 115.54 31.5007C115.693 31.2713 115.769 31.0057 115.769 30.7038V29.8224C115.685 29.8667 115.582 29.907 115.461 29.9432C115.345 29.9794 115.216 30.0136 115.075 30.0458C114.934 30.078 114.789 30.1062 114.64 30.1303C114.491 30.1545 114.348 30.1766 114.212 30.1967C113.934 30.241 113.696 30.3094 113.499 30.402C113.306 30.4945 113.157 30.6153 113.053 30.7642C112.952 30.9091 112.902 31.0821 112.902 31.2834C112.902 31.5892 113.01 31.8227 113.228 31.9837C113.449 32.1446 113.729 32.2251 114.067 32.2251ZM125.736 24.7273V26.9006H119.886V24.7273H125.736ZM121.112 22.5057H124.064V31.0842C124.064 31.2653 124.092 31.4122 124.148 31.5249C124.209 31.6335 124.295 31.712 124.408 31.7603C124.521 31.8046 124.656 31.8267 124.812 31.8267C124.925 31.8267 125.044 31.8166 125.169 31.7965C125.297 31.7724 125.394 31.7522 125.458 31.7361L125.905 33.8672C125.764 33.9074 125.565 33.9577 125.308 34.0181C125.054 34.0785 124.75 34.1167 124.396 34.1328C123.704 34.165 123.11 34.0845 122.615 33.8913C122.124 33.6941 121.748 33.3883 121.486 32.9737C121.229 32.5592 121.104 32.038 121.112 31.4102V22.5057ZM132.476 24.7273V26.9006H126.627V24.7273H132.476ZM127.852 22.5057H130.804V31.0842C130.804 31.2653 130.832 31.4122 130.889 31.5249C130.949 31.6335 131.036 31.712 131.148 31.7603C131.261 31.8046 131.396 31.8267 131.553 31.8267C131.665 31.8267 131.784 31.8166 131.909 31.7965C132.038 31.7724 132.134 31.7522 132.199 31.7361L132.645 33.8672C132.505 33.9074 132.305 33.9577 132.048 34.0181C131.794 34.0785 131.49 34.1167 131.136 34.1328C130.444 34.165 129.85 34.0845 129.355 33.8913C128.864 33.6941 128.488 33.3883 128.226 32.9737C127.969 32.5592 127.844 32.038 127.852 31.4102V22.5057ZM138.217 34.1751C137.248 34.1751 136.41 33.9839 135.706 33.6016C135.006 33.2152 134.467 32.6658 134.088 31.9535C133.714 31.2371 133.527 30.3859 133.527 29.3999C133.527 28.442 133.716 27.6049 134.094 26.8885C134.473 26.1681 135.006 25.6087 135.694 25.2102C136.382 24.8078 137.193 24.6065 138.127 24.6065C138.787 24.6065 139.391 24.7092 139.938 24.9144C140.485 25.1197 140.958 25.4235 141.357 25.826C141.755 26.2285 142.065 26.7255 142.286 27.3171C142.508 27.9047 142.618 28.5788 142.618 29.3395V30.076H134.559V28.3615H139.872C139.868 28.0476 139.793 27.7679 139.648 27.5224C139.503 27.2769 139.304 27.0857 139.051 26.9489C138.801 26.808 138.513 26.7376 138.187 26.7376C137.857 26.7376 137.561 26.812 137.3 26.9609C137.038 27.1058 136.831 27.305 136.678 27.5586C136.525 27.8081 136.445 28.0919 136.437 28.4098V30.1545C136.437 30.5328 136.511 30.8648 136.66 31.1506C136.809 31.4323 137.02 31.6516 137.294 31.8086C137.568 31.9655 137.894 32.044 138.272 32.044C138.533 32.044 138.771 32.0078 138.984 31.9354C139.197 31.8629 139.381 31.7563 139.534 31.6154C139.686 31.4745 139.801 31.3015 139.878 31.0962L142.588 31.1747C142.476 31.7824 142.228 32.3117 141.846 32.7624C141.467 33.2092 140.97 33.5573 140.355 33.8068C139.739 34.0523 139.026 34.1751 138.217 34.1751ZM144.126 34V24.7273H146.994V26.4176H147.09C147.259 25.8059 147.535 25.3511 147.917 25.0533C148.3 24.7514 148.744 24.6005 149.251 24.6005C149.388 24.6005 149.529 24.6106 149.674 24.6307C149.819 24.6468 149.954 24.6729 150.079 24.7092V27.2749C149.938 27.2266 149.753 27.1883 149.523 27.1602C149.298 27.132 149.097 27.1179 148.919 27.1179C148.569 27.1179 148.253 27.1964 147.972 27.3533C147.694 27.5063 147.475 27.7216 147.314 27.9993C147.157 28.273 147.078 28.5949 147.078 28.9652V34H144.126ZM153.369 37.4773C153.015 37.4773 152.68 37.4491 152.367 37.3927C152.053 37.3404 151.783 37.27 151.558 37.1815L152.21 35.0383C152.499 35.1349 152.761 35.1913 152.994 35.2074C153.232 35.2235 153.435 35.1852 153.604 35.0927C153.777 35.0041 153.91 34.8452 154.003 34.6158L154.117 34.3381L150.821 24.7273H153.912L155.62 31.3437H155.717L157.45 24.7273H160.559L157.063 34.8874C156.894 35.3945 156.655 35.8413 156.345 36.2276C156.039 36.618 155.643 36.9239 155.156 37.1452C154.673 37.3666 154.077 37.4773 153.369 37.4773ZM172.213 21.6364V34H169.677L164.757 26.8643H164.679V34H161.691V21.6364H164.262L169.128 28.7599H169.231V21.6364H172.213ZM178.42 34.1751C177.446 34.1751 176.609 33.9758 175.909 33.5774C175.213 33.1749 174.676 32.6155 174.297 31.8991C173.923 31.1787 173.736 30.3436 173.736 29.3938C173.736 28.44 173.923 27.6049 174.297 26.8885C174.676 26.1681 175.213 25.6087 175.909 25.2102C176.609 24.8078 177.446 24.6065 178.42 24.6065C179.394 24.6065 180.229 24.8078 180.926 25.2102C181.626 25.6087 182.163 26.1681 182.538 26.8885C182.916 27.6049 183.105 28.44 183.105 29.3938C183.105 30.3436 182.916 31.1787 182.538 31.8991C182.163 32.6155 181.626 33.1749 180.926 33.5774C180.229 33.9758 179.394 34.1751 178.42 34.1751ZM178.439 31.9474C178.793 31.9474 179.093 31.8388 179.338 31.6214C179.584 31.4041 179.771 31.1023 179.899 30.7159C180.032 30.3295 180.099 29.8828 180.099 29.3757C180.099 28.8606 180.032 28.4098 179.899 28.0234C179.771 27.6371 179.584 27.3352 179.338 27.1179C179.093 26.9006 178.793 26.7919 178.439 26.7919C178.072 26.7919 177.762 26.9006 177.509 27.1179C177.259 27.3352 177.068 27.6371 176.935 28.0234C176.807 28.4098 176.742 28.8606 176.742 29.3757C176.742 29.8828 176.807 30.3295 176.935 30.7159C177.068 31.1023 177.259 31.4041 177.509 31.6214C177.762 31.8388 178.072 31.9474 178.439 31.9474ZM189.851 24.7273V26.9006L184.002 26.9006V24.7273H189.851ZM185.227 22.5057H188.179V31.0842C188.179 31.2653 188.207 31.4122 188.264 31.5249C188.324 31.6335 188.411 31.712 188.523 31.7603C188.636 31.8046 188.771 31.8267 188.928 31.8267C189.04 31.8267 189.159 31.8166 189.284 31.7965C189.413 31.7724 189.509 31.7522 189.574 31.7361L190.02 33.8672C189.88 33.9074 189.68 33.9577 189.423 34.0181C189.169 34.0785 188.865 34.1167 188.511 34.1328C187.819 34.165 187.225 34.0845 186.73 33.8913C186.239 33.6941 185.863 33.3883 185.601 32.9737C185.344 32.5592 185.219 32.038 185.227 31.4102V22.5057ZM191.358 34V24.7273H194.31V34H191.358ZM192.837 23.6467C192.422 23.6467 192.066 23.5098 191.768 23.2361C191.47 22.9584 191.321 22.6244 191.321 22.234C191.321 21.8477 191.47 21.5176 191.768 21.244C192.066 20.9663 192.422 20.8274 192.837 20.8274C193.255 20.8274 193.611 20.9663 193.905 21.244C194.203 21.5176 194.352 21.8477 194.352 22.234C194.352 22.6244 194.203 22.9584 193.905 23.2361C193.611 23.5098 193.255 23.6467 192.837 23.6467ZM201.459 24.7273V26.9006H195.494V24.7273H201.459ZM196.738 34V24.2564C196.738 23.54 196.873 22.9464 197.142 22.4755C197.412 22.0006 197.786 21.6464 198.265 21.413C198.744 21.1755 199.298 21.0568 199.925 21.0568C200.336 21.0568 200.722 21.089 201.085 21.1534C201.451 21.2138 201.722 21.2681 201.9 21.3164L201.429 23.4776C201.32 23.4414 201.187 23.4112 201.03 23.3871C200.877 23.3629 200.732 23.3508 200.596 23.3508C200.249 23.3508 200.012 23.4273 199.883 23.5803C199.754 23.7332 199.69 23.9425 199.69 24.2081V34H196.738ZM204.684 37.4773C204.33 37.4773 203.996 37.4491 203.682 37.3927C203.368 37.3404 203.098 37.27 202.873 37.1815L203.525 35.0383C203.815 35.1349 204.076 35.1913 204.31 35.2074C204.547 35.2235 204.75 35.1852 204.92 35.0927C205.093 35.0041 205.225 34.8452 205.318 34.6158L205.433 34.3381L202.136 24.7273H205.227L206.936 31.3437H207.032L208.765 24.7273H211.874L208.379 34.8874C208.21 35.3945 207.97 35.8413 207.66 36.2276C207.354 36.618 206.958 36.9239 206.471 37.1452C205.988 37.3666 205.392 37.4773 204.684 37.4773Z" fill="black"/>
</g>
<defs>
<filter id="filter0_d_1301_14" x="54.4" y="13.4" width="164.2" height="29.6773" filterUnits="userSpaceOnUse" color-interpolation-filters="sRGB">
<feFlood flood-opacity="0" result="BackgroundImageFix"/>
<feColorMatrix in="SourceAlpha" type="matrix" values="0 0 0 0 0 0 0 0 0 0 0 0 0 0 0 0 0 0 127 0" result="hardAlpha"/>
<feOffset/>
<feGaussianBlur stdDeviation="2.8"/>
<feComposite in2="hardAlpha" operator="out"/>
<feColorMatrix type="matrix" values="0 0 0 0 0 0 0 0 0 0 0 0 0 0 0 0 0 0 0.25 0"/>
<feBlend mode="normal" in2="BackgroundImageFix" result="effect1_dropShadow_1301_14"/>
<feBlend mode="normal" in="SourceGraphic" in2="effect1_dropShadow_1301_14" result="shape"/>
</filter>
<linearGradient id="paint0_linear_1301_14" x1="112.5" y1="0" x2="112.5" y2="56" gradientUnits="userSpaceOnUse">
<stop stop-color="#9B4B33"/>
<stop offset="1" stop-color="#5C210F"/>
</linearGradient>
<clipPath id="clip0_1301_14">
<rect width="40" height="40" fill="white" transform="translate(12 8)"/>
</clipPath>
</defs>
</svg>
