<svg width="234" height="56" viewBox="0 0 234 56" fill="none" xmlns="http://www.w3.org/2000/svg">
<rect width="234" height="56" rx="8" fill="url(#paint0_linear_1301_14)"/>
<rect x="1.05" y="1.05" width="231.9" height="53.9" rx="6.95" stroke="white" stroke-opacity="0.15" stroke-width="2.1"/>
<g clip-path="url(#clip0_1301_14)">
<path d="M48.2167 38L34.8833 14.6667C34.5926 14.1537 34.171 13.727 33.6615 13.4301C33.1521 13.1332 32.573 12.9768 31.9833 12.9768C31.3937 12.9768 30.8146 13.1332 30.3051 13.4301C29.7957 13.727 29.3741 14.1537 29.0833 14.6667L15.75 38C15.4561 38.5089 15.3021 39.0865 15.3034 39.6742C15.3047 40.2619 15.4613 40.8388 15.7574 41.3464C16.0535 41.854 16.4786 42.2743 16.9895 42.5647C17.5004 42.8551 18.079 43.0053 18.6667 43H45.3333C45.9182 42.9994 46.4926 42.8449 46.9988 42.5521C47.5051 42.2593 47.9254 41.8385 48.2175 41.3319C48.5097 40.8252 48.6634 40.2506 48.6633 39.6658C48.6631 39.081 48.5091 38.5065 48.2167 38Z" stroke="#A8B9CC" stroke-width="2" stroke-linecap="round" stroke-linejoin="round"/>
<path d="M32 23V29.6667" stroke="#A8B9CC" stroke-width="2" stroke-linecap="round" stroke-linejoin="round"/>
<path d="M32 36.3333H32.016" stroke="#A8B9CC" stroke-width="2" stroke-linecap="round" stroke-linejoin="round"/>
</g>
<g filter="url(#filter0_d_1301_14)">
<path d="M60.9357 34V21.6364H63.924V31.5731H69.0675V34H60.9357ZM74.9429 34.1751C73.969 34.1751 73.1318 33.9758 72.4315 33.5774C71.7353 33.1749 71.198 32.6155 70.8197 31.8991C70.4454 31.1787 70.2583 30.3436 70.2583 29.3938C70.2583 28.44 70.4454 27.6049 70.8197 26.8885C71.198 26.1681 71.7353 25.6087 72.4315 25.2102C73.1318 24.8078 73.969 24.6065 74.9429 24.6065C75.9169 24.6065 76.752 24.8078 77.4482 25.2102C78.1485 25.6087 78.6858 26.1681 79.0601 26.8885C79.4384 27.6049 79.6276 28.44 79.6276 29.3938C79.6276 30.3436 79.4384 31.1787 79.0601 31.8991C78.6858 32.6155 78.1485 33.1749 77.4482 33.5774C76.752 33.9758 75.9169 34.1751 74.9429 34.1751ZM74.961 31.9474C75.3152 31.9474 75.615 31.8388 75.8605 31.6214C76.106 31.4041 76.2932 31.1023 76.422 30.7159C76.5548 30.3295 76.6212 29.8828 76.6212 29.3757C76.6212 28.8606 76.5548 28.4098 76.422 28.0234C76.2932 27.6371 76.106 27.3352 75.8605 27.1179C75.615 26.9006 75.3152 26.7919 74.961 26.7919C74.5948 26.7919 74.2849 26.9006 74.0313 27.1179C73.7818 27.3352 73.5906 27.6371 73.4578 28.0234C73.329 28.4098 73.2646 28.8606 73.2646 29.3757C73.2646 29.8828 73.329 30.3295 73.4578 30.7159C73.5906 31.1023 73.7818 31.4041 74.0313 31.6214C74.2849 31.8388 74.5948 31.9474 74.961 31.9474ZM82.6732 34L80.2584 24.7273H83.2226L84.4722 30.6676H84.5507L85.8909 24.7273H88.7826L90.159 30.6253H90.2375L91.4509 24.7273H94.415L91.9942 34H88.8369L87.388 28.5969H87.2854L85.8366 34H82.6732ZM95.5998 34V21.6364H100.755C101.681 21.6364 102.456 21.7672 103.08 22.0288C103.707 22.2904 104.178 22.6566 104.492 23.1275C104.81 23.5984 104.969 24.1437 104.969 24.7635C104.969 25.2344 104.87 25.6549 104.673 26.0252C104.476 26.3914 104.204 26.6953 103.858 26.9368C103.512 27.1783 103.112 27.3473 102.657 27.4439V27.5646C103.156 27.5888 103.617 27.7236 104.039 27.9691C104.466 28.2146 104.808 28.5567 105.066 28.9954C105.323 29.43 105.452 29.9452 105.452 30.5408C105.452 31.2049 105.283 31.7985 104.945 32.3217C104.607 32.8409 104.118 33.2514 103.478 33.5533C102.838 33.8511 102.061 34 101.148 34H95.5998ZM98.5881 31.5913H100.435C101.083 31.5913 101.56 31.4685 101.866 31.223C102.176 30.9775 102.331 30.6354 102.331 30.1967C102.331 29.8788 102.256 29.6051 102.108 29.3757C101.959 29.1423 101.747 28.9632 101.474 28.8384C101.2 28.7096 100.872 28.6452 100.49 28.6452H98.5881V31.5913ZM98.5881 26.7195H100.242C100.568 26.7195 100.858 26.6651 101.111 26.5565C101.365 26.4478 101.562 26.2908 101.703 26.0856C101.848 25.8803 101.92 25.6328 101.92 25.343C101.92 24.9285 101.774 24.6025 101.48 24.3651C101.186 24.1276 100.79 24.0089 100.29 24.0089H98.5881V26.7195ZM109.503 34.157C108.911 34.157 108.386 34.0584 107.927 33.8611C107.472 33.6599 107.112 33.3581 106.847 32.9556C106.585 32.5491 106.454 32.04 106.454 31.4283C106.454 30.9131 106.545 30.4785 106.726 30.1243C106.907 29.7701 107.156 29.4824 107.474 29.261C107.792 29.0396 108.159 28.8726 108.573 28.7599C108.988 28.6432 109.43 28.5647 109.901 28.5245C110.428 28.4762 110.853 28.4259 111.175 28.3736C111.497 28.3172 111.73 28.2388 111.875 28.1381C112.024 28.0335 112.099 27.8866 112.099 27.6974V27.6673C112.099 27.3574 111.992 27.1179 111.779 26.9489C111.565 26.7798 111.278 26.6953 110.915 26.6953C110.525 26.6953 110.211 26.7798 109.974 26.9489C109.736 27.1179 109.585 27.3513 109.521 27.6491L106.798 27.5526C106.879 26.9891 107.086 26.486 107.42 26.0433C107.758 25.5966 108.221 25.2464 108.809 24.9929C109.4 24.7353 110.111 24.6065 110.94 24.6065C111.531 24.6065 112.077 24.677 112.576 24.8178C113.075 24.9547 113.509 25.1559 113.88 25.4215C114.25 25.6831 114.536 26.0051 114.737 26.3874C114.942 26.7698 115.045 27.2064 115.045 27.6974V34H112.268V32.7081H112.195C112.03 33.022 111.819 33.2876 111.561 33.505C111.308 33.7223 111.008 33.8853 110.662 33.994C110.32 34.1026 109.933 34.157 109.503 34.157ZM110.414 32.2251C110.732 32.2251 111.018 32.1607 111.272 32.032C111.529 31.9032 111.734 31.7261 111.887 31.5007C112.04 31.2713 112.117 31.0057 112.117 30.7038V29.8224C112.032 29.8667 111.93 29.907 111.809 29.9432C111.692 29.9794 111.563 30.0136 111.423 30.0458C111.282 30.078 111.137 30.1062 110.988 30.1303C110.839 30.1545 110.696 30.1766 110.559 30.1967C110.282 30.241 110.044 30.3094 109.847 30.402C109.654 30.4945 109.505 30.6153 109.4 30.7642C109.3 30.9091 109.249 31.0821 109.249 31.2834C109.249 31.5892 109.358 31.8227 109.575 31.9837C109.797 32.1446 110.076 32.2251 110.414 32.2251ZM122.084 24.7273V26.9006H116.234V24.7273H122.084ZM117.459 22.5057H120.412V31.0842C120.412 31.2653 120.44 31.4122 120.496 31.5249C120.556 31.6335 120.643 31.712 120.756 31.7603C120.868 31.8046 121.003 31.8267 121.16 31.8267C121.273 31.8267 121.392 31.8166 121.516 31.7965C121.645 31.7724 121.742 31.7522 121.806 31.7361L122.253 33.8672C122.112 33.9074 121.913 33.9577 121.655 34.0181C121.402 34.0785 121.098 34.1167 120.744 34.1328C120.051 34.165 119.458 34.0845 118.963 33.8913C118.472 33.6941 118.095 33.3883 117.834 32.9737C117.576 32.5592 117.451 32.038 117.459 31.4102V22.5057ZM128.824 24.7273V26.9006H122.974V24.7273H128.824ZM124.2 22.5057H127.152V31.0842C127.152 31.2653 127.18 31.4122 127.236 31.5249C127.297 31.6335 127.383 31.712 127.496 31.7603C127.609 31.8046 127.743 31.8267 127.9 31.8267C128.013 31.8267 128.132 31.8166 128.257 31.7965C128.385 31.7724 128.482 31.7522 128.546 31.7361L128.993 33.8672C128.852 33.9074 128.653 33.9577 128.395 34.0181C128.142 34.0785 127.838 34.1167 127.484 34.1328C126.792 34.165 126.198 34.0845 125.703 33.8913C125.212 33.6941 124.836 33.3883 124.574 32.9737C124.316 32.5592 124.192 32.038 124.2 31.4102V22.5057ZM134.565 34.1751C133.595 34.1751 132.758 33.9839 132.054 33.6016C131.353 33.2152 130.814 32.6658 130.436 31.9535C130.062 31.2371 129.874 30.3859 129.874 29.3999C129.874 28.442 130.064 27.6049 130.442 26.8885C130.82 26.1681 131.353 25.6087 132.042 25.2102C132.73 24.8078 133.541 24.6065 134.475 24.6065C135.135 24.6065 135.738 24.7092 136.286 24.9144C136.833 25.1197 137.306 25.4235 137.704 25.826C138.103 26.2285 138.413 26.7255 138.634 27.3171C138.855 27.9047 138.966 28.5788 138.966 29.3395V30.076H130.907V28.3615H136.219C136.215 28.0476 136.141 27.7679 135.996 27.5224C135.851 27.2769 135.652 27.0857 135.398 26.9489C135.149 26.808 134.861 26.7376 134.535 26.7376C134.205 26.7376 133.909 26.812 133.648 26.9609C133.386 27.1058 133.179 27.305 133.026 27.5586C132.873 27.8081 132.792 28.0919 132.784 28.4098V30.1545C132.784 30.5328 132.859 30.8648 133.008 31.1506C133.157 31.4323 133.368 31.6516 133.641 31.8086C133.915 31.9655 134.241 32.044 134.619 32.044C134.881 32.044 135.119 32.0078 135.332 31.9354C135.545 31.8629 135.728 31.7563 135.881 31.6154C136.034 31.4745 136.149 31.3015 136.225 31.0962L138.936 31.1747C138.823 31.7824 138.576 32.3117 138.193 32.7624C137.815 33.2092 137.318 33.5573 136.702 33.8068C136.086 34.0523 135.374 34.1751 134.565 34.1751ZM140.474 34V24.7273H143.341V26.4176H143.438C143.607 25.8059 143.883 25.3511 144.265 25.0533C144.647 24.7514 145.092 24.6005 145.599 24.6005C145.736 24.6005 145.877 24.6106 146.022 24.6307C146.167 24.6468 146.301 24.6729 146.426 24.7092V27.2749C146.285 27.2266 146.1 27.1883 145.871 27.1602C145.645 27.132 145.444 27.1179 145.267 27.1179C144.917 27.1179 144.601 27.1964 144.319 27.3533C144.042 27.5063 143.822 27.7216 143.661 27.9993C143.504 28.273 143.426 28.5949 143.426 28.9652V34H140.474ZM149.716 37.4773C149.362 37.4773 149.028 37.4491 148.714 37.3927C148.4 37.3404 148.131 37.27 147.905 37.1815L148.557 35.0383C148.847 35.1349 149.109 35.1913 149.342 35.2074C149.579 35.2235 149.783 35.1852 149.952 35.0927C150.125 35.0041 150.258 34.8452 150.35 34.6158L150.465 34.3381L147.169 24.7273H150.26L151.968 31.3437H152.065L153.797 24.7273H156.906L153.411 34.8874C153.242 35.3945 153.002 35.8413 152.693 36.2276C152.387 36.618 151.99 36.9239 151.503 37.1452C151.02 37.3666 150.425 37.4773 149.716 37.4773ZM168.561 21.6364V34H166.025L161.105 26.8643H161.027V34H158.038V21.6364H160.61L165.476 28.7599H165.578V21.6364H168.561ZM174.768 34.1751C173.794 34.1751 172.957 33.9758 172.257 33.5774C171.56 33.1749 171.023 32.6155 170.645 31.8991C170.271 31.1787 170.083 30.3436 170.083 29.3938C170.083 28.44 170.271 27.6049 170.645 26.8885C171.023 26.1681 171.56 25.6087 172.257 25.2102C172.957 24.8078 173.794 24.6065 174.768 24.6065C175.742 24.6065 176.577 24.8078 177.273 25.2102C177.974 25.6087 178.511 26.1681 178.885 26.8885C179.264 27.6049 179.453 28.44 179.453 29.3938C179.453 30.3436 179.264 31.1787 178.885 31.8991C178.511 32.6155 177.974 33.1749 177.273 33.5774C176.577 33.9758 175.742 34.1751 174.768 34.1751ZM174.786 31.9474C175.14 31.9474 175.44 31.8388 175.686 31.6214C175.931 31.4041 176.118 31.1023 176.247 30.7159C176.38 30.3295 176.446 29.8828 176.446 29.3757C176.446 28.8606 176.38 28.4098 176.247 28.0234C176.118 27.6371 175.931 27.3352 175.686 27.1179C175.44 26.9006 175.14 26.7919 174.786 26.7919C174.42 26.7919 174.11 26.9006 173.857 27.1179C173.607 27.3352 173.416 27.6371 173.283 28.0234C173.154 28.4098 173.09 28.8606 173.09 29.3757C173.09 29.8828 173.154 30.3295 173.283 30.7159C173.416 31.1023 173.607 31.4041 173.857 31.6214C174.11 31.8388 174.42 31.9474 174.786 31.9474ZM186.199 24.7273V26.9006H180.349V24.7273H186.199ZM181.575 22.5057H184.527V31.0842C184.527 31.2653 184.555 31.4122 184.611 31.5249C184.672 31.6335 184.758 31.712 184.871 31.7603C184.984 31.8046 185.118 31.8267 185.275 31.8267C185.388 31.8267 185.507 31.8166 185.632 31.7965C185.76 31.7724 185.857 31.7522 185.921 31.7361L186.368 33.8672C186.227 33.9074 186.028 33.9577 185.77 34.0181C185.517 34.0785 185.213 34.1167 184.859 34.1328C184.167 34.165 183.573 34.0845 183.078 33.8913C182.587 33.6941 182.211 33.3883 181.949 32.9737C181.691 32.5592 181.567 32.038 181.575 31.4102V22.5057ZM187.705 34V24.7273H190.657V34H187.705ZM189.184 23.6467C188.77 23.6467 188.414 23.5098 188.116 23.2361C187.818 22.9584 187.669 22.6244 187.669 22.234C187.669 21.8477 187.818 21.5176 188.116 21.244C188.414 20.9663 188.77 20.8274 189.184 20.8274C189.603 20.8274 189.959 20.9663 190.253 21.244C190.551 21.5176 190.7 21.8477 190.7 22.234C190.7 22.6244 190.551 22.9584 190.253 23.2361C189.959 23.5098 189.603 23.6467 189.184 23.6467ZM197.807 24.7273V26.9006H191.842V24.7273H197.807ZM193.086 34V24.2564C193.086 23.54 193.22 22.9464 193.49 22.4755C193.76 22.0006 194.134 21.6464 194.613 21.413C195.092 21.1755 195.645 21.0568 196.273 21.0568C196.684 21.0568 197.07 21.089 197.432 21.1534C197.798 21.2138 198.07 21.2681 198.247 21.3164L197.776 23.4776C197.668 23.4414 197.535 23.4112 197.378 23.3871C197.225 23.3629 197.08 23.3508 196.943 23.3508C196.597 23.3508 196.36 23.4273 196.231 23.5803C196.102 23.7332 196.038 23.9425 196.038 24.2081V34H193.086ZM201.032 37.4773C200.678 37.4773 200.344 37.4491 200.03 37.3927C199.716 37.3404 199.446 37.27 199.221 37.1815L199.873 35.0383C200.162 35.1349 200.424 35.1913 200.657 35.2074C200.895 35.2235 201.098 35.1852 201.267 35.0927C201.44 35.0041 201.573 34.8452 201.666 34.6158L201.78 34.3381L198.484 24.7273H201.575L203.284 31.3437H203.38L205.113 24.7273H208.222L204.726 34.8874C204.557 35.3945 204.318 35.8413 204.008 36.2276C203.702 36.618 203.306 36.9239 202.819 37.1452C202.336 37.3666 201.74 37.4773 201.032 37.4773ZM220.576 26.1158H217.558C217.518 25.8059 217.435 25.5262 217.31 25.2766C217.186 25.0271 217.021 24.8138 216.815 24.6367C216.61 24.4596 216.367 24.3248 216.085 24.2322C215.807 24.1356 215.499 24.0874 215.161 24.0874C214.562 24.0874 214.044 24.2343 213.61 24.5281C213.179 24.8218 212.847 25.2464 212.614 25.8018C212.384 26.3572 212.269 27.0294 212.269 27.8182C212.269 28.6392 212.386 29.3274 212.62 29.8828C212.857 30.4342 213.189 30.8507 213.616 31.1325C214.046 31.4102 214.555 31.549 215.143 31.549C215.473 31.549 215.773 31.5067 216.043 31.4222C216.316 31.3377 216.556 31.215 216.761 31.054C216.97 30.889 217.141 30.6897 217.274 30.4563C217.411 30.2189 217.506 29.9512 217.558 29.6534L220.576 29.6715C220.524 30.2189 220.365 30.7582 220.099 31.2894C219.838 31.8207 219.478 32.3056 219.019 32.7443C218.56 33.179 218.001 33.5251 217.341 33.7827C216.684 34.0402 215.932 34.169 215.083 34.169C213.964 34.169 212.962 33.9235 212.076 33.4325C211.195 32.9375 210.499 32.2171 209.988 31.2713C209.476 30.3255 209.221 29.1745 209.221 27.8182C209.221 26.4579 209.48 25.3048 210 24.359C210.519 23.4132 211.221 22.6948 212.106 22.2038C212.992 21.7128 213.984 21.4673 215.083 21.4673C215.831 21.4673 216.524 21.572 217.159 21.7812C217.795 21.9865 218.355 22.2883 218.838 22.6868C219.321 23.0812 219.713 23.5662 220.015 24.1417C220.317 24.7172 220.504 25.3752 220.576 26.1158Z" fill="#A8B9CC"/>
</g>
<defs>
<filter id="filter0_d_1301_14" x="54.4" y="13.4" width="173.2" height="29.6773" filterUnits="userSpaceOnUse" color-interpolation-filters="sRGB">
<feFlood flood-opacity="0" result="BackgroundImageFix"/>
<feColorMatrix in="SourceAlpha" type="matrix" values="0 0 0 0 0 0 0 0 0 0 0 0 0 0 0 0 0 0 127 0" result="hardAlpha"/>
<feOffset/>
<feGaussianBlur stdDeviation="2.8"/>
<feComposite in2="hardAlpha" operator="out"/>
<feColorMatrix type="matrix" values="0 0 0 0 0 0 0 0 0 0 0 0 0 0 0 0 0 0 0.25 0"/>
<feBlend mode="normal" in2="BackgroundImageFix" result="effect1_dropShadow_1301_14"/>
<feBlend mode="normal" in="SourceGraphic" in2="effect1_dropShadow_1301_14" result="shape"/>
</filter>
<linearGradient id="paint0_linear_1301_14" x1="117" y1="0" x2="117" y2="56" gradientUnits="userSpaceOnUse">
<stop stop-color="#1D638A"/>
<stop offset="1" stop-color="#0C193C"/>
</linearGradient>
<clipPath id="clip0_1301_14">
<rect width="40" height="40" fill="white" transform="translate(12 8)"/>
</clipPath>
</defs>
</svg>
