<svg width="225" height="56" viewBox="0 0 225 56" fill="none" xmlns="http://www.w3.org/2000/svg">
<rect width="225" height="56" rx="8" fill="url(#paint0_linear_1301_14)"/>
<rect x="1.05" y="1.05" width="222.9" height="53.9" rx="6.95" stroke="white" stroke-opacity="0.15" stroke-width="2.1"/>
<g clip-path="url(#clip0_1301_14)">
<path d="M32 24.6667V11.3333" stroke="#A8B9CC" stroke-width="2" stroke-linecap="round" stroke-linejoin="round"/>
<path d="M20.2167 26.2167L22.5667 28.5667" stroke="#A8B9CC" stroke-width="2" stroke-linecap="round" stroke-linejoin="round"/>
<path d="M15.3333 38H18.6667" stroke="#A8B9CC" stroke-width="2" stroke-linecap="round" stroke-linejoin="round"/>
<path d="M45.3333 38H48.6667" stroke="#A8B9CC" stroke-width="2" stroke-linecap="round" stroke-linejoin="round"/>
<path d="M43.7833 26.2167L41.4333 28.5667" stroke="#A8B9CC" stroke-width="2" stroke-linecap="round" stroke-linejoin="round"/>
<path d="M48.6667 44.6667H15.3333" stroke="#A8B9CC" stroke-width="2" stroke-linecap="round" stroke-linejoin="round"/>
<path d="M38.6667 18L32 24.6667L25.3333 18" stroke="#A8B9CC" stroke-width="2" stroke-linecap="round" stroke-linejoin="round"/>
<path d="M38.6667 38C38.6667 36.2319 37.9643 34.5362 36.714 33.286C35.4638 32.0357 33.7681 31.3333 32 31.3333C30.2319 31.3333 28.5362 32.0357 27.2859 33.286C26.0357 34.5362 25.3333 36.2319 25.3333 38" stroke="#A8B9CC" stroke-width="2" stroke-linecap="round" stroke-linejoin="round"/>
</g>
<g filter="url(#filter0_d_1301_14)">
<path d="M60.5312 24.0632V21.6364H70.9812V24.0632H67.2322V34H64.2862V24.0632H60.5312ZM72.4406 34V24.7273H75.3927V34H72.4406ZM73.9197 23.6467C73.5051 23.6467 73.1489 23.5098 72.8511 23.2361C72.5533 22.9584 72.4044 22.6244 72.4044 22.234C72.4044 21.8477 72.5533 21.5176 72.8511 21.244C73.1489 20.9663 73.5051 20.8274 73.9197 20.8274C74.3382 20.8274 74.6944 20.9663 74.9882 21.244C75.286 21.5176 75.4349 21.8477 75.4349 22.234C75.4349 22.6244 75.286 22.9584 74.9882 23.2361C74.6944 23.5098 74.3382 23.6467 73.9197 23.6467ZM77.2717 34V24.7273H80.0788V26.4297H80.1815C80.3746 25.8662 80.7006 25.4215 81.1594 25.0955C81.6182 24.7695 82.1656 24.6065 82.8015 24.6065C83.4454 24.6065 83.9968 24.7715 84.4556 25.1016C84.9144 25.4316 85.2062 25.8743 85.331 26.4297H85.4275C85.6006 25.8783 85.9387 25.4376 86.4418 25.1076C86.9448 24.7736 87.5385 24.6065 88.2226 24.6065C89.1 24.6065 89.8124 24.8883 90.3597 25.4517C90.9071 26.0111 91.1807 26.7798 91.1807 27.7578V34H88.2287V28.4339C88.2287 27.9711 88.11 27.619 87.8725 27.3775C87.6351 27.132 87.3272 27.0092 86.9489 27.0092C86.5424 27.0092 86.2224 27.142 85.989 27.4077C85.7596 27.6693 85.6449 28.0214 85.6449 28.4641V34H82.8075V28.4038C82.8075 27.9731 82.6908 27.633 82.4574 27.3835C82.224 27.134 81.9161 27.0092 81.5337 27.0092C81.2762 27.0092 81.0488 27.0716 80.8516 27.1964C80.6543 27.3171 80.4994 27.4902 80.3867 27.7155C80.278 27.9409 80.2237 28.2066 80.2237 28.5124V34H77.2717ZM97.3444 34.1751C96.3745 34.1751 95.5374 33.9839 94.8331 33.6016C94.1328 33.2152 93.5935 32.6658 93.2152 31.9535C92.8409 31.2371 92.6538 30.3859 92.6538 29.3999C92.6538 28.442 92.8429 27.6049 93.2212 26.8885C93.5995 26.1681 94.1328 25.6087 94.821 25.2102C95.5092 24.8078 96.3202 24.6065 97.2539 24.6065C97.9139 24.6065 98.5176 24.7092 99.065 24.9144C99.6123 25.1197 100.085 25.4235 100.484 25.826C100.882 26.2285 101.192 26.7255 101.413 27.3171C101.635 27.9047 101.745 28.5788 101.745 29.3395V30.076H93.6861V28.3615H98.9986C98.9945 28.0476 98.9201 27.7679 98.7752 27.5224C98.6303 27.2769 98.4311 27.0857 98.1775 26.9489C97.928 26.808 97.6403 26.7376 97.3143 26.7376C96.9842 26.7376 96.6884 26.812 96.4268 26.9609C96.1652 27.1058 95.958 27.305 95.805 27.5586C95.6521 27.8081 95.5716 28.0919 95.5636 28.4098V30.1545C95.5636 30.5328 95.638 30.8648 95.7869 31.1506C95.9358 31.4323 96.1471 31.6516 96.4208 31.8086C96.6945 31.9655 97.0205 32.044 97.3988 32.044C97.6604 32.044 97.8978 32.0078 98.1111 31.9354C98.3244 31.8629 98.5076 31.7563 98.6605 31.6154C98.8134 31.4745 98.9281 31.3015 99.0046 31.0962L101.715 31.1747C101.602 31.7824 101.355 32.3117 100.973 32.7624C100.594 33.2092 100.097 33.5573 99.4815 33.8068C98.8658 34.0523 98.1534 34.1751 97.3444 34.1751ZM106.64 34.1328C105.956 34.1328 105.334 33.9557 104.774 33.6016C104.215 33.2474 103.768 32.7161 103.434 32.0078C103.1 31.2995 102.933 30.4201 102.933 29.3697C102.933 28.279 103.106 27.3815 103.452 26.6772C103.798 25.9729 104.251 25.4517 104.811 25.1136C105.374 24.7756 105.98 24.6065 106.628 24.6065C107.115 24.6065 107.531 24.691 107.877 24.8601C108.224 25.0251 108.509 25.2384 108.735 25.5C108.96 25.7616 109.131 26.0333 109.248 26.315H109.308V21.6364H112.26V34H109.338V32.4968H109.248C109.123 32.7825 108.946 33.0502 108.717 33.2997C108.487 33.5492 108.199 33.7505 107.853 33.9034C107.511 34.0563 107.107 34.1328 106.64 34.1328ZM107.666 31.8327C108.024 31.8327 108.33 31.7321 108.584 31.5309C108.837 31.3256 109.032 31.0379 109.169 30.6676C109.306 30.2973 109.375 29.8627 109.375 29.3636C109.375 28.8565 109.306 28.4199 109.169 28.0536C109.036 27.6874 108.841 27.4057 108.584 27.2084C108.33 27.0112 108.024 26.9126 107.666 26.9126C107.3 26.9126 106.99 27.0133 106.736 27.2145C106.483 27.4157 106.29 27.6995 106.157 28.0657C106.028 28.4319 105.964 28.8646 105.964 29.3636C105.964 29.8627 106.03 30.2973 106.163 30.6676C106.296 31.0379 106.487 31.3256 106.736 31.5309C106.99 31.7321 107.3 31.8327 107.666 31.8327ZM114.127 34V21.6364H117.115V26.5987H121.987V21.6364H124.969V34H121.987V29.0316H117.115V34H114.127ZM128.649 37.4773C128.295 37.4773 127.961 37.4491 127.647 37.3927C127.333 37.3404 127.063 37.27 126.838 37.1815L127.49 35.0383C127.78 35.1349 128.041 35.1913 128.275 35.2074C128.512 35.2235 128.715 35.1852 128.884 35.0927C129.057 35.0041 129.19 34.8452 129.283 34.6158L129.398 34.3381L126.101 24.7273H129.192L130.901 31.3437H130.997L132.73 24.7273H135.839L132.344 34.8874C132.175 35.3945 131.935 35.8413 131.625 36.2276C131.319 36.618 130.923 36.9239 130.436 37.1452C129.953 37.3666 129.357 37.4773 128.649 37.4773ZM136.971 37.4773V24.7273H139.893V26.315H139.983C140.104 26.0333 140.275 25.7616 140.496 25.5C140.722 25.2384 141.008 25.0251 141.354 24.8601C141.704 24.691 142.122 24.6065 142.609 24.6065C143.253 24.6065 143.855 24.7756 144.414 25.1136C144.978 25.4517 145.433 25.9729 145.779 26.6772C146.125 27.3815 146.298 28.279 146.298 29.3697C146.298 30.4201 146.131 31.2995 145.797 32.0078C145.467 32.7161 145.02 33.2474 144.457 33.6016C143.897 33.9557 143.275 34.1328 142.591 34.1328C142.124 34.1328 141.72 34.0563 141.378 33.9034C141.036 33.7505 140.748 33.5492 140.515 33.2997C140.285 33.0502 140.108 32.7825 139.983 32.4968H139.923V37.4773H136.971ZM139.863 29.3636C139.863 29.8627 139.929 30.2973 140.062 30.6676C140.199 31.0379 140.394 31.3256 140.647 31.5309C140.905 31.7321 141.213 31.8327 141.571 31.8327C141.933 31.8327 142.241 31.7321 142.495 31.5309C142.748 31.3256 142.939 31.0379 143.068 30.6676C143.201 30.2973 143.267 29.8627 143.267 29.3636C143.267 28.8646 143.201 28.4319 143.068 28.0657C142.939 27.6995 142.748 27.4157 142.495 27.2145C142.245 27.0133 141.937 26.9126 141.571 26.9126C141.209 26.9126 140.901 27.0112 140.647 27.2084C140.394 27.4057 140.199 27.6874 140.062 28.0536C139.929 28.4199 139.863 28.8565 139.863 29.3636ZM147.845 34V24.7273H150.712V26.4176H150.809C150.978 25.8059 151.254 25.3511 151.636 25.0533C152.018 24.7514 152.463 24.6005 152.97 24.6005C153.107 24.6005 153.248 24.6106 153.393 24.6307C153.538 24.6468 153.673 24.6729 153.797 24.7092V27.2749C153.656 27.2266 153.471 27.1883 153.242 27.1602C153.017 27.132 152.815 27.1179 152.638 27.1179C152.288 27.1179 151.972 27.1964 151.69 27.3533C151.413 27.5063 151.193 27.7216 151.032 27.9993C150.875 28.273 150.797 28.5949 150.797 28.9652V34H147.845ZM163.096 27.5586L160.385 27.631C160.357 27.4379 160.28 27.2668 160.156 27.1179C160.031 26.965 159.868 26.8462 159.667 26.7617C159.469 26.6732 159.24 26.6289 158.978 26.6289C158.636 26.6289 158.345 26.6973 158.103 26.8342C157.866 26.971 157.749 27.1561 157.753 27.3896C157.749 27.5707 157.821 27.7276 157.97 27.8604C158.123 27.9932 158.395 28.0999 158.785 28.1804L160.572 28.5185C161.498 28.6955 162.186 28.9893 162.637 29.3999C163.092 29.8104 163.321 30.3537 163.325 31.0298C163.321 31.6657 163.132 32.2191 162.758 32.69C162.387 33.1609 161.88 33.5271 161.236 33.7887C160.592 34.0463 159.856 34.1751 159.027 34.1751C157.703 34.1751 156.658 33.9034 155.894 33.3601C155.133 32.8127 154.698 32.0802 154.59 31.1626L157.505 31.0902C157.57 31.4283 157.737 31.6858 158.007 31.8629C158.276 32.04 158.62 32.1285 159.039 32.1285C159.417 32.1285 159.725 32.0581 159.963 31.9173C160.2 31.7764 160.321 31.5892 160.325 31.3558C160.321 31.1465 160.228 30.9795 160.047 30.8548C159.866 30.726 159.582 30.6253 159.196 30.5529L157.578 30.245C156.648 30.076 155.956 29.7641 155.501 29.3093C155.046 28.8505 154.821 28.2669 154.825 27.5586C154.821 26.9388 154.986 26.4096 155.32 25.9709C155.654 25.5282 156.129 25.1901 156.745 24.9567C157.361 24.7232 158.087 24.6065 158.924 24.6065C160.18 24.6065 161.17 24.8701 161.894 25.3974C162.619 25.9206 163.019 26.641 163.096 27.5586ZM170.761 29.9975V24.7273H173.707V34H170.894V32.2734H170.797C170.592 32.8409 170.242 33.2917 169.747 33.6257C169.256 33.9557 168.662 34.1207 167.966 34.1207C167.334 34.1207 166.779 33.9758 166.3 33.6861C165.821 33.3963 165.449 32.9918 165.183 32.4727C164.917 31.9494 164.782 31.3377 164.778 30.6374V24.7273H167.731V30.0579C167.735 30.561 167.867 30.9574 168.129 31.2472C168.391 31.5369 168.747 31.6818 169.197 31.6818C169.491 31.6818 169.755 31.6174 169.988 31.4886C170.226 31.3558 170.413 31.1646 170.55 30.9151C170.691 30.6616 170.761 30.3557 170.761 29.9975ZM178.538 28.7116V34H175.586V24.7273H178.393V26.4297H178.496C178.701 25.8622 179.051 25.4175 179.546 25.0955C180.041 24.7695 180.631 24.6065 181.315 24.6065C181.967 24.6065 182.533 24.7534 183.012 25.0472C183.494 25.337 183.869 25.7435 184.134 26.2667C184.404 26.7859 184.537 27.3936 184.533 28.0898V34H181.581V28.6694C181.585 28.1542 181.454 27.7518 181.188 27.462C180.927 27.1722 180.563 27.0273 180.096 27.0273C179.786 27.0273 179.512 27.0958 179.275 27.2326C179.041 27.3654 178.86 27.5566 178.731 27.8061C178.607 28.0556 178.542 28.3575 178.538 28.7116ZM194.456 27.5586L191.745 27.631C191.717 27.4379 191.641 27.2668 191.516 27.1179C191.391 26.965 191.228 26.8462 191.027 26.7617C190.83 26.6732 190.6 26.6289 190.339 26.6289C189.997 26.6289 189.705 26.6973 189.463 26.8342C189.226 26.971 189.109 27.1561 189.113 27.3896C189.109 27.5707 189.182 27.7276 189.331 27.8604C189.484 27.9932 189.755 28.0999 190.146 28.1804L191.933 28.5185C192.858 28.6955 193.546 28.9893 193.997 29.3999C194.452 29.8104 194.681 30.3537 194.685 31.0298C194.681 31.6657 194.492 32.2191 194.118 32.69C193.748 33.1609 193.241 33.5271 192.597 33.7887C191.953 34.0463 191.216 34.1751 190.387 34.1751C189.063 34.1751 188.019 33.9034 187.254 33.3601C186.493 32.8127 186.059 32.0802 185.95 31.1626L188.866 31.0902C188.93 31.4283 189.097 31.6858 189.367 31.8629C189.637 32.04 189.981 32.1285 190.399 32.1285C190.778 32.1285 191.085 32.0581 191.323 31.9173C191.56 31.7764 191.681 31.5892 191.685 31.3558C191.681 31.1465 191.588 30.9795 191.407 30.8548C191.226 30.726 190.943 30.6253 190.556 30.5529L188.938 30.245C188.009 30.076 187.316 29.7641 186.862 29.3093C186.407 28.8505 186.181 28.2669 186.185 27.5586C186.181 26.9388 186.346 26.4096 186.68 25.9709C187.014 25.5282 187.489 25.1901 188.105 24.9567C188.721 24.7232 189.447 24.6065 190.284 24.6065C191.54 24.6065 192.53 24.8701 193.255 25.3974C193.979 25.9206 194.38 26.641 194.456 27.5586ZM200.473 34.1751C199.503 34.1751 198.666 33.9839 197.962 33.6016C197.262 33.2152 196.722 32.6658 196.344 31.9535C195.97 31.2371 195.783 30.3859 195.783 29.3999C195.783 28.442 195.972 27.6049 196.35 26.8885C196.728 26.1681 197.262 25.6087 197.95 25.2102C198.638 24.8078 199.449 24.6065 200.383 24.6065C201.043 24.6065 201.647 24.7092 202.194 24.9144C202.741 25.1197 203.214 25.4235 203.613 25.826C204.011 26.2285 204.321 26.7255 204.542 27.3171C204.764 27.9047 204.874 28.5788 204.874 29.3395V30.076H196.815V28.3615H202.127C202.123 28.0476 202.049 27.7679 201.904 27.5224C201.759 27.2769 201.56 27.0857 201.306 26.9489C201.057 26.808 200.769 26.7376 200.443 26.7376C200.113 26.7376 199.817 26.812 199.556 26.9609C199.294 27.1058 199.087 27.305 198.934 27.5586C198.781 27.8081 198.7 28.0919 198.692 28.4098V30.1545C198.692 30.5328 198.767 30.8648 198.916 31.1506C199.065 31.4323 199.276 31.6516 199.55 31.8086C199.823 31.9655 200.149 32.044 200.528 32.044C200.789 32.044 201.027 32.0078 201.24 31.9354C201.453 31.8629 201.636 31.7563 201.789 31.6154C201.942 31.4745 202.057 31.3015 202.133 31.0962L204.844 31.1747C204.731 31.7824 204.484 32.3117 204.102 32.7624C203.723 33.2092 203.226 33.5573 202.61 33.8068C201.995 34.0523 201.282 34.1751 200.473 34.1751ZM211.616 24.7273V26.9006H205.766V24.7273H211.616ZM206.992 22.5057H209.944V31.0842C209.944 31.2653 209.972 31.4122 210.028 31.5249C210.089 31.6335 210.175 31.712 210.288 31.7603C210.401 31.8046 210.535 31.8267 210.692 31.8267C210.805 31.8267 210.924 31.8166 211.049 31.7965C211.177 31.7724 211.274 31.7522 211.338 31.7361L211.785 33.8672C211.644 33.9074 211.445 33.9577 211.187 34.0181C210.934 34.0785 210.63 34.1167 210.276 34.1328C209.584 34.165 208.99 34.0845 208.495 33.8913C208.004 33.6941 207.628 33.3883 207.366 32.9737C207.108 32.5592 206.984 32.038 206.992 31.4102V22.5057Z" fill="#A8B9CC"/>
</g>
<defs>
<filter id="filter0_d_1301_14" x="54.4" y="13.4" width="164.2" height="29.6773" filterUnits="userSpaceOnUse" color-interpolation-filters="sRGB">
<feFlood flood-opacity="0" result="BackgroundImageFix"/>
<feColorMatrix in="SourceAlpha" type="matrix" values="0 0 0 0 0 0 0 0 0 0 0 0 0 0 0 0 0 0 127 0" result="hardAlpha"/>
<feOffset/>
<feGaussianBlur stdDeviation="2.8"/>
<feComposite in2="hardAlpha" operator="out"/>
<feColorMatrix type="matrix" values="0 0 0 0 0 0 0 0 0 0 0 0 0 0 0 0 0 0 0.25 0"/>
<feBlend mode="normal" in2="BackgroundImageFix" result="effect1_dropShadow_1301_14"/>
<feBlend mode="normal" in="SourceGraphic" in2="effect1_dropShadow_1301_14" result="shape"/>
</filter>
<linearGradient id="paint0_linear_1301_14" x1="112.5" y1="0" x2="112.5" y2="56" gradientUnits="userSpaceOnUse">
<stop stop-color="#1D638A"/>
<stop offset="1" stop-color="#0C193C"/>
</linearGradient>
<clipPath id="clip0_1301_14">
<rect width="40" height="40" fill="white" transform="translate(12 8)"/>
</clipPath>
</defs>
</svg>
