<svg width="150" height="56" viewBox="0 0 150 56" fill="none" xmlns="http://www.w3.org/2000/svg">
<rect width="150" height="56" rx="8" fill="url(#paint0_linear_1_50)"/>
<rect x="1.05" y="1.05" width="147.9" height="53.9" rx="6.95" stroke="white" stroke-opacity="0.15" stroke-width="2.1"/>
<g clip-path="url(#clip0_1_50)">
<g clip-path="url(#clip1_1_50)">
<path d="M25.055 19.11V19.0183C25.055 17.3517 23.9433 16.5183 22.0917 16.5183H19.315V21.61H22.1867C24.0383 21.61 25.055 20.5 25.055 19.11ZM12 8V48H52V8H12ZM15.705 13.2783H22.3717C26.3533 13.2783 28.76 15.5933 28.76 19.02V19.1117C28.76 22.9083 25.7967 24.945 22.0917 24.945H19.315V29.8533H15.705V13.2783ZM30.795 43H15.795V40.5H30.795V43ZM38.76 30.0383C33.8533 30.13 30.2417 26.3333 30.2417 21.61C30.24 16.8883 33.76 13 38.8517 13C42 13 43.8517 14.0183 45.425 15.5933L43.11 18.2767C41.8133 17.0733 40.5167 16.425 38.85 16.425C36.0867 16.425 34.0617 18.7167 34.0383 21.565C34.0617 24.4133 35.995 26.7033 38.85 26.7033C40.7017 26.7033 41.905 25.9617 43.2 24.7583L45.5167 27.0733C43.8517 28.9267 41.9067 30.0383 38.76 30.0383Z" fill="black"/>
</g>
</g>
<g filter="url(#filter0_d_1_50)">
<path d="M60.9357 34V21.6364H66.043C66.9686 21.6364 67.7675 21.8175 68.4396 22.1797C69.1158 22.5379 69.6369 23.0389 70.0032 23.6829C70.3694 24.3228 70.5525 25.0673 70.5525 25.9165C70.5525 26.7698 70.3654 27.5163 69.9911 28.1562C69.6208 28.7921 69.0916 29.2852 68.4034 29.6353C67.7152 29.9854 66.8982 30.1605 65.9524 30.1605H62.8011V27.8061H65.397C65.8478 27.8061 66.2241 27.7276 66.5259 27.5707C66.8318 27.4137 67.0632 27.1944 67.2202 26.9126C67.3771 26.6269 67.4556 26.2949 67.4556 25.9165C67.4556 25.5342 67.3771 25.2042 67.2202 24.9265C67.0632 24.6448 66.8318 24.4274 66.5259 24.2745C66.22 24.1216 65.8437 24.0451 65.397 24.0451H63.924V34H60.9357ZM73.8306 37.4773C73.4764 37.4773 73.1424 37.4491 72.8285 37.3927C72.5145 37.3404 72.2449 37.27 72.0195 37.1815L72.6715 35.0383C72.9613 35.1349 73.2229 35.1913 73.4563 35.2074C73.6938 35.2235 73.897 35.1852 74.066 35.0927C74.2391 35.0041 74.3719 34.8452 74.4645 34.6158L74.5792 34.3381L71.283 24.7273H74.3739L76.0824 31.3437H76.179L77.9116 24.7273H81.0206L77.5252 34.8874C77.3562 35.3945 77.1167 35.8413 76.8068 36.2276C76.5009 36.618 76.1045 36.9239 75.6175 37.1452C75.1346 37.3666 74.5389 37.4773 73.8306 37.4773ZM93.3752 26.1158H90.3567C90.3164 25.8059 90.2339 25.5262 90.1092 25.2766C89.9844 25.0271 89.8194 24.8138 89.6142 24.6367C89.4089 24.4596 89.1654 24.3248 88.8837 24.2322C88.606 24.1356 88.2981 24.0874 87.96 24.0874C87.3604 24.0874 86.8432 24.2343 86.4085 24.5281C85.9779 24.8218 85.6459 25.2464 85.4124 25.8018C85.183 26.3572 85.0683 27.0294 85.0683 27.8182C85.0683 28.6392 85.1851 29.3274 85.4185 29.8828C85.6559 30.4342 85.988 30.8507 86.4146 31.1325C86.8452 31.4102 87.3543 31.549 87.9419 31.549C88.2719 31.549 88.5718 31.5067 88.8414 31.4222C89.1151 31.3377 89.3546 31.215 89.5598 31.054C89.7691 30.889 89.9401 30.6897 90.073 30.4563C90.2098 30.2189 90.3044 29.9512 90.3567 29.6534L93.3752 29.6715C93.3228 30.2189 93.1639 30.7582 92.8982 31.2894C92.6366 31.8207 92.2764 32.3056 91.8176 32.7443C91.3588 33.179 90.7994 33.5251 90.1394 33.7827C89.4834 34.0402 88.7307 34.169 87.8816 34.169C86.7627 34.169 85.7606 33.9235 84.8752 33.4325C83.9938 32.9375 83.2975 32.2171 82.7864 31.2713C82.2753 30.3255 82.0197 29.1745 82.0197 27.8182C82.0197 26.4579 82.2793 25.3048 82.7985 24.359C83.3176 23.4132 84.0199 22.6948 84.9053 22.2038C85.7908 21.7128 86.7828 21.4673 87.8816 21.4673C88.6301 21.4673 89.3224 21.572 89.9583 21.7812C90.5941 21.9865 91.1536 22.2883 91.6365 22.6868C92.1195 23.0812 92.5119 23.5662 92.8137 24.1417C93.1156 24.7172 93.3027 25.3752 93.3752 26.1158ZM98.0372 28.7116V34H95.0851V21.6364H97.9406V26.4297H98.0432C98.2525 25.8582 98.5946 25.4115 99.0695 25.0895C99.5484 24.7675 100.134 24.6065 100.826 24.6065C101.478 24.6065 102.046 24.7514 102.529 25.0412C103.012 25.3269 103.386 25.7314 103.652 26.2546C103.921 26.7778 104.054 27.3896 104.05 28.0898V34H101.098V28.6694C101.102 28.1542 100.973 27.7518 100.712 27.462C100.45 27.1722 100.082 27.0273 99.6068 27.0273C99.2969 27.0273 99.0232 27.0958 98.7858 27.2326C98.5523 27.3654 98.3692 27.5566 98.2364 27.8061C98.1076 28.0556 98.0412 28.3575 98.0372 28.7116ZM108.507 34.157C107.915 34.157 107.39 34.0584 106.931 33.8611C106.476 33.6599 106.116 33.3581 105.85 32.9556C105.589 32.5491 105.458 32.04 105.458 31.4283C105.458 30.9131 105.549 30.4785 105.73 30.1243C105.911 29.7701 106.16 29.4824 106.478 29.261C106.796 29.0396 107.163 28.8726 107.577 28.7599C107.992 28.6432 108.434 28.5647 108.905 28.5245C109.432 28.4762 109.857 28.4259 110.179 28.3736C110.501 28.3172 110.734 28.2388 110.879 28.1381C111.028 28.0335 111.103 27.8866 111.103 27.6974V27.6673C111.103 27.3574 110.996 27.1179 110.783 26.9489C110.569 26.7798 110.282 26.6953 109.919 26.6953C109.529 26.6953 109.215 26.7798 108.978 26.9489C108.74 27.1179 108.589 27.3513 108.525 27.6491L105.802 27.5526C105.883 26.9891 106.09 26.486 106.424 26.0433C106.762 25.5966 107.225 25.2464 107.812 24.9929C108.404 24.7353 109.114 24.6065 109.944 24.6065C110.535 24.6065 111.08 24.677 111.58 24.8178C112.079 24.9547 112.513 25.1559 112.883 25.4215C113.254 25.6831 113.54 26.0051 113.741 26.3874C113.946 26.7698 114.049 27.2064 114.049 27.6974V34H111.272V32.7081H111.199C111.034 33.022 110.823 33.2876 110.565 33.505C110.312 33.7223 110.012 33.8853 109.666 33.994C109.324 34.1026 108.937 34.157 108.507 34.157ZM109.418 32.2251C109.736 32.2251 110.022 32.1607 110.276 32.032C110.533 31.9032 110.738 31.7261 110.891 31.5007C111.044 31.2713 111.121 31.0057 111.121 30.7038V29.8224C111.036 29.8667 110.934 29.907 110.813 29.9432C110.696 29.9794 110.567 30.0136 110.426 30.0458C110.286 30.078 110.141 30.1062 109.992 30.1303C109.843 30.1545 109.7 30.1766 109.563 30.1967C109.285 30.241 109.048 30.3094 108.851 30.402C108.658 30.4945 108.509 30.6153 108.404 30.7642C108.303 30.9091 108.253 31.0821 108.253 31.2834C108.253 31.5892 108.362 31.8227 108.579 31.9837C108.801 32.1446 109.08 32.2251 109.418 32.2251ZM115.854 34V24.7273H118.721V26.4176H118.818C118.987 25.8059 119.263 25.3511 119.645 25.0533C120.027 24.7514 120.472 24.6005 120.979 24.6005C121.116 24.6005 121.257 24.6106 121.402 24.6307C121.546 24.6468 121.681 24.6729 121.806 24.7092V27.2749C121.665 27.2266 121.48 27.1883 121.251 27.1602C121.025 27.132 120.824 27.1179 120.647 27.1179C120.297 27.1179 119.981 27.1964 119.699 27.3533C119.421 27.5063 119.202 27.7216 119.041 27.9993C118.884 28.273 118.806 28.5949 118.806 28.9652V34H115.854ZM123.009 34V24.7273H125.816V26.4297H125.919C126.112 25.8662 126.438 25.4215 126.897 25.0955C127.356 24.7695 127.903 24.6065 128.539 24.6065C129.183 24.6065 129.734 24.7715 130.193 25.1016C130.652 25.4316 130.943 25.8743 131.068 26.4297H131.165C131.338 25.8783 131.676 25.4376 132.179 25.1076C132.682 24.7736 133.276 24.6065 133.96 24.6065C134.837 24.6065 135.55 24.8883 136.097 25.4517C136.644 26.0111 136.918 26.7798 136.918 27.7578V34H133.966V28.4339C133.966 27.9711 133.847 27.619 133.61 27.3775C133.372 27.132 133.064 27.0092 132.686 27.0092C132.28 27.0092 131.96 27.142 131.726 27.4077C131.497 27.6693 131.382 28.0214 131.382 28.4641V34H128.545V28.4038C128.545 27.9731 128.428 27.633 128.195 27.3835C127.961 27.134 127.653 27.0092 127.271 27.0092C127.013 27.0092 126.786 27.0716 126.589 27.1964C126.392 27.3171 126.237 27.4902 126.124 27.7155C126.015 27.9409 125.961 28.2066 125.961 28.5124V34H123.009Z" fill="black"/>
</g>
<defs>
<filter id="filter0_d_1_50" x="54.4" y="13.4" width="89.2" height="29.6773" filterUnits="userSpaceOnUse" color-interpolation-filters="sRGB">
<feFlood flood-opacity="0" result="BackgroundImageFix"/>
<feColorMatrix in="SourceAlpha" type="matrix" values="0 0 0 0 0 0 0 0 0 0 0 0 0 0 0 0 0 0 127 0" result="hardAlpha"/>
<feOffset/>
<feGaussianBlur stdDeviation="2.8"/>
<feComposite in2="hardAlpha" operator="out"/>
<feColorMatrix type="matrix" values="0 0 0 0 0 0 0 0 0 0 0 0 0 0 0 0 0 0 0.25 0"/>
<feBlend mode="normal" in2="BackgroundImageFix" result="effect1_dropShadow_1_50"/>
<feBlend mode="normal" in="SourceGraphic" in2="effect1_dropShadow_1_50" result="shape"/>
</filter>
<linearGradient id="paint0_linear_1_50" x1="75" y1="0" x2="75" y2="56" gradientUnits="userSpaceOnUse">
<stop stop-color="#95FF00"/>
<stop offset="1" stop-color="#4F8800"/>
</linearGradient>
<clipPath id="clip0_1_50">
<rect width="40" height="40" fill="white" transform="translate(12 8)"/>
</clipPath>
<clipPath id="clip1_1_50">
<rect width="40" height="40" fill="white" transform="translate(12 8)"/>
</clipPath>
</defs>
</svg>
