<svg width="56" height="56" viewBox="0 0 56 56" fill="none" xmlns="http://www.w3.org/2000/svg">
<rect width="56" height="56" rx="8" fill="url(#paint0_linear_404_2)"/>
<rect x="1.05" y="1.05" width="53.9" height="53.9" rx="6.95" stroke="white" stroke-opacity="0.15" stroke-width="2.1"/>
<g clip-path="url(#clip0_404_2)">
<g clip-path="url(#clip1_404_2)">
<path d="M21.055 19.11V19.0183C21.055 17.3517 19.9433 16.5183 18.0917 16.5183H15.315V21.61H18.1867C20.0383 21.61 21.055 20.5 21.055 19.11ZM8 8V48H48V8H8ZM11.705 13.2783H18.3717C22.3533 13.2783 24.76 15.5933 24.76 19.02V19.1117C24.76 22.9083 21.7967 24.945 18.0917 24.945H15.315V29.8533H11.705V13.2783ZM26.795 43H11.795V40.5H26.795V43ZM34.76 30.0383C29.8533 30.13 26.2417 26.3333 26.2417 21.61C26.24 16.8883 29.76 13 34.8517 13C38 13 39.8517 14.0183 41.425 15.5933L39.11 18.2767C37.8133 17.0733 36.5167 16.425 34.85 16.425C32.0867 16.425 30.0617 18.7167 30.0383 21.565C30.0617 24.4133 31.995 26.7033 34.85 26.7033C36.7017 26.7033 37.905 25.9617 39.2 24.7583L41.5167 27.0733C39.8517 28.9267 37.9067 30.0383 34.76 30.0383Z" fill="black"/>
</g>
</g>
<defs>
<linearGradient id="paint0_linear_404_2" x1="28" y1="0" x2="28" y2="56" gradientUnits="userSpaceOnUse">
<stop stop-color="#2F9F56"/>
<stop offset="1" stop-color="#595709"/>
</linearGradient>
<clipPath id="clip0_404_2">
<rect width="40" height="40" fill="white" transform="translate(8 8)"/>
</clipPath>
<clipPath id="clip1_404_2">
<rect width="40" height="40" fill="white" transform="translate(8 8)"/>
</clipPath>
</defs>
</svg>
