<svg width="135" height="56" viewBox="0 0 135 56" fill="none" xmlns="http://www.w3.org/2000/svg">
<rect width="135" height="56" rx="8" fill="url(#paint0_linear_1203_25)"/>
<rect x="1.05" y="1.05" width="132.9" height="53.9" rx="6.95" stroke="white" stroke-opacity="0.15" stroke-width="2.1"/>
<g clip-path="url(#clip0_1203_25)">
<g clip-path="url(#clip1_1203_25)">
<g clip-path="url(#clip2_1203_25)">
<g clip-path="url(#clip3_1203_25)">
<g clip-path="url(#clip4_1203_25)">
<g clip-path="url(#clip5_1203_25)">
<g clip-path="url(#clip6_1203_25)">
<path d="M41.35 8.75833C39.8427 8.75833 38.3971 9.35711 37.3313 10.4229C36.2654 11.4888 35.6667 12.9344 35.6667 14.4417C35.6667 15.949 36.2654 17.3946 37.3313 18.4604C38.3971 19.5262 39.8427 20.125 41.35 20.125C42.8573 20.125 44.3029 19.5262 45.3687 18.4604C46.4346 17.3946 47.0333 15.949 47.0333 14.4417C47.0333 12.9344 46.4346 11.4888 45.3687 10.4229C44.3029 9.35711 42.8573 8.75833 41.35 8.75833ZM33.5333 9.33333C26.8717 9.295 20.5617 12.9017 17.2467 18.7517C17.391 18.7436 17.5355 18.7397 17.68 18.74C19.2023 18.7416 20.6941 19.1669 21.9883 19.9683C23.2409 18.1592 24.9063 16.6742 26.8466 15.6364C28.787 14.5986 30.9465 14.0376 33.1467 14C33.2386 12.3235 33.8404 10.715 34.8717 9.39C34.4264 9.35483 33.98 9.33592 33.5333 9.33333ZM48.91 17.6567C48.2534 19.2027 47.1375 20.5095 45.7133 21.4C46.8501 23.5462 47.4062 25.9523 47.3264 28.3797C47.2466 30.8071 46.5337 33.1714 45.2583 35.2383C46.5888 36.3272 47.5409 37.809 47.9783 39.4717C50.4144 36.3983 51.8163 32.6335 51.9836 28.7153C52.151 24.7972 51.0752 20.9265 48.91 17.6567ZM17.6833 21.22C16.176 21.22 14.7304 21.8188 13.6646 22.8846C12.5988 23.9504 12 25.396 12 26.9033C12.0004 28.4104 12.5994 29.8555 13.6652 30.921C14.731 31.9865 16.1763 32.585 17.6833 32.585C19.1906 32.585 20.6362 31.9862 21.7021 30.9204C22.7679 29.8546 23.3667 28.409 23.3667 26.9017C23.3667 25.3944 22.7679 23.9488 21.7021 22.8829C20.6362 21.8171 19.1906 21.22 17.6833 21.22ZM21.0617 34.33C19.5411 35.0201 17.8457 35.2283 16.2033 34.9267C17.3393 37.7358 19.1479 40.223 21.4701 42.1695C23.7924 44.116 26.5572 45.4623 29.5217 46.09C30.8482 46.3742 32.2017 46.5133 33.5583 46.505C32.5149 45.1376 31.932 43.4746 31.8933 41.755C31.4254 41.7027 30.9604 41.627 30.5 41.5283C28.4912 41.1035 26.6021 40.237 24.9697 38.9917C23.3372 37.7463 22.0023 36.1534 21.0617 34.3283V34.33ZM40.07 35.8767C38.5627 35.8767 37.1171 36.4754 36.0513 37.5413C34.9854 38.6071 34.3867 40.0527 34.3867 41.56C34.3867 43.0673 34.9854 44.5129 36.0513 45.5787C37.1171 46.6446 38.5627 47.2433 40.07 47.2433C41.5773 47.2433 43.0229 46.6446 44.0887 45.5787C45.1546 44.5129 45.7533 43.0673 45.7533 41.56C45.7533 40.0527 45.1546 38.6071 44.0887 37.5413C43.0229 36.4754 41.5773 35.8767 40.07 35.8767Z" fill="#FB7344"/>
</g>
</g>
</g>
</g>
</g>
</g>
</g>
<g filter="url(#filter0_d_1203_25)">
<path d="M68.4155 21.6364H71.3977V29.6111C71.3977 30.5328 71.1784 31.3357 70.7397 32.0199C70.301 32.7 69.6893 33.2273 68.9045 33.6016C68.1197 33.9718 67.2081 34.157 66.1697 34.157C65.1193 34.157 64.2017 33.9718 63.4169 33.6016C62.6321 33.2273 62.0224 32.7 61.5877 32.0199C61.1531 31.3357 60.9357 30.5328 60.9357 29.6111V21.6364H63.924V29.3516C63.924 29.7782 64.0166 30.1585 64.2017 30.4925C64.3909 30.8266 64.6545 31.0882 64.9925 31.2773C65.3306 31.4665 65.723 31.5611 66.1697 31.5611C66.6165 31.5611 67.0069 31.4665 67.3409 31.2773C67.679 31.0882 67.9426 30.8266 68.1317 30.4925C68.3209 30.1585 68.4155 29.7782 68.4155 29.3516V21.6364ZM73.2707 34V21.6364H76.2227V26.315H76.2831C76.4038 26.0333 76.5749 25.7616 76.7962 25.5C77.0216 25.2384 77.3074 25.0251 77.6535 24.8601C78.0036 24.691 78.4222 24.6065 78.9092 24.6065C79.5531 24.6065 80.1548 24.7756 80.7142 25.1136C81.2777 25.4517 81.7324 25.9729 82.0786 26.6772C82.4247 27.3815 82.5977 28.279 82.5977 29.3697C82.5977 30.4201 82.4307 31.2995 82.0967 32.0078C81.7667 32.7161 81.3199 33.2474 80.7565 33.6016C80.1971 33.9557 79.5752 34.1328 78.8911 34.1328C78.4242 34.1328 78.0197 34.0563 77.6776 33.9034C77.3355 33.7505 77.0478 33.5492 76.8144 33.2997C76.585 33.0502 76.4079 32.7825 76.2831 32.4968H76.1926V34H73.2707ZM76.1624 29.3636C76.1624 29.8627 76.2288 30.2973 76.3616 30.6676C76.4984 31.0379 76.6936 31.3256 76.9472 31.5309C77.2047 31.7321 77.5126 31.8327 77.8708 31.8327C78.233 31.8327 78.5409 31.7321 78.7945 31.5309C79.048 31.3256 79.2392 31.0379 79.368 30.6676C79.5008 30.2973 79.5672 29.8627 79.5672 29.3636C79.5672 28.8646 79.5008 28.4319 79.368 28.0657C79.2392 27.6995 79.048 27.4157 78.7945 27.2145C78.5449 27.0133 78.2371 26.9126 77.8708 26.9126C77.5086 26.9126 77.2007 27.0112 76.9472 27.2084C76.6936 27.4057 76.4984 27.6874 76.3616 28.0536C76.2288 28.4199 76.1624 28.8565 76.1624 29.3636ZM90.1273 29.9975V24.7273H93.0733V34H90.2601V32.2734H90.1635C89.9583 32.8409 89.6081 33.2917 89.1131 33.6257C88.6221 33.9557 88.0285 34.1207 87.3322 34.1207C86.7003 34.1207 86.1449 33.9758 85.666 33.6861C85.1871 33.3963 84.8148 32.9918 84.5492 32.4727C84.2836 31.9494 84.1487 31.3377 84.1447 30.6374V24.7273H87.0968V30.0579C87.1008 30.561 87.2336 30.9574 87.4952 31.2472C87.7568 31.5369 88.113 31.6818 88.5637 31.6818C88.8575 31.6818 89.1211 31.6174 89.3546 31.4886C89.592 31.3558 89.7792 31.1646 89.916 30.9151C90.0569 30.6616 90.1273 30.3557 90.1273 29.9975ZM97.9044 28.7116V34H94.9523V24.7273H97.7595V26.4297H97.8621C98.0674 25.8622 98.4175 25.4175 98.9125 25.0955C99.4076 24.7695 99.9972 24.6065 100.681 24.6065C101.333 24.6065 101.899 24.7534 102.378 25.0472C102.861 25.337 103.235 25.7435 103.501 26.2667C103.77 26.7859 103.903 27.3936 103.899 28.0898V34H100.947V28.6694C100.951 28.1542 100.82 27.7518 100.555 27.462C100.293 27.1722 99.9288 27.0273 99.4619 27.0273C99.152 27.0273 98.8783 27.0958 98.6409 27.2326C98.4075 27.3654 98.2263 27.5566 98.0976 27.8061C97.9728 28.0556 97.9084 28.3575 97.9044 28.7116ZM110.961 24.7273V26.9006H105.111V24.7273H110.961ZM106.336 22.5057H109.289V31.0842C109.289 31.2653 109.317 31.4122 109.373 31.5249C109.433 31.6335 109.52 31.712 109.633 31.7603C109.745 31.8046 109.88 31.8267 110.037 31.8267C110.15 31.8267 110.269 31.8166 110.393 31.7965C110.522 31.7724 110.619 31.7522 110.683 31.7361L111.13 33.8672C110.989 33.9074 110.79 33.9577 110.532 34.0181C110.279 34.0785 109.975 34.1167 109.621 34.1328C108.928 34.165 108.335 34.0845 107.84 33.8913C107.349 33.6941 106.972 33.3883 106.711 32.9737C106.453 32.5592 106.328 32.038 106.336 31.4102V22.5057ZM118.45 29.9975V24.7273H121.396V34H118.582V32.2734H118.486C118.281 32.8409 117.93 33.2917 117.435 33.6257C116.944 33.9557 116.351 34.1207 115.654 34.1207C115.023 34.1207 114.467 33.9758 113.988 33.6861C113.509 33.3963 113.137 32.9918 112.871 32.4727C112.606 31.9494 112.471 31.3377 112.467 30.6374V24.7273H115.419V30.0579C115.423 30.561 115.556 30.9574 115.817 31.2472C116.079 31.5369 116.435 31.6818 116.886 31.6818C117.18 31.6818 117.443 31.6174 117.677 31.4886C117.914 31.3558 118.101 31.1646 118.238 30.9151C118.379 30.6616 118.45 30.3557 118.45 29.9975Z" fill="#FB7344"/>
</g>
<defs>
<filter id="filter0_d_1203_25" x="54.4" y="13.4" width="74.2" height="29.2" filterUnits="userSpaceOnUse" color-interpolation-filters="sRGB">
<feFlood flood-opacity="0" result="BackgroundImageFix"/>
<feColorMatrix in="SourceAlpha" type="matrix" values="0 0 0 0 0 0 0 0 0 0 0 0 0 0 0 0 0 0 127 0" result="hardAlpha"/>
<feOffset/>
<feGaussianBlur stdDeviation="2.8"/>
<feComposite in2="hardAlpha" operator="out"/>
<feColorMatrix type="matrix" values="0 0 0 0 0 0 0 0 0 0 0 0 0 0 0 0 0 0 0.25 0"/>
<feBlend mode="normal" in2="BackgroundImageFix" result="effect1_dropShadow_1203_25"/>
<feBlend mode="normal" in="SourceGraphic" in2="effect1_dropShadow_1203_25" result="shape"/>
</filter>
<linearGradient id="paint0_linear_1203_25" x1="67.5" y1="0" x2="67.5" y2="56" gradientUnits="userSpaceOnUse">
<stop stop-color="#E95420"/>
<stop offset="1" stop-color="#8C3416"/>
</linearGradient>
<clipPath id="clip0_1203_25">
<rect width="40" height="40" fill="white" transform="translate(12 8)"/>
</clipPath>
<clipPath id="clip1_1203_25">
<rect width="40" height="40" fill="white" transform="translate(12 8)"/>
</clipPath>
<clipPath id="clip2_1203_25">
<rect width="40" height="40" fill="white" transform="translate(12 8)"/>
</clipPath>
<clipPath id="clip3_1203_25">
<rect width="40" height="40" fill="white" transform="translate(12 8)"/>
</clipPath>
<clipPath id="clip4_1203_25">
<rect width="40" height="40" fill="white" transform="translate(12 8)"/>
</clipPath>
<clipPath id="clip5_1203_25">
<rect width="40" height="40" fill="white" transform="translate(12 8)"/>
</clipPath>
<clipPath id="clip6_1203_25">
<rect width="40" height="40" fill="white" transform="translate(12 8)"/>
</clipPath>
</defs>
</svg>
