<svg width="56" height="56" viewBox="0 0 56 56" fill="none" xmlns="http://www.w3.org/2000/svg">
<rect width="56" height="56" rx="8" fill="url(#paint0_linear_1_50)"/>
<rect x="1.05" y="1.05" width="53.9" height="53.9" rx="6.95" stroke="white" stroke-opacity="0.15" stroke-width="2.1"/>
<g clip-path="url(#clip0_1_50)">
<g clip-path="url(#clip1_1_50)">
<g clip-path="url(#clip2_1_50)">
<g clip-path="url(#clip3_1_50)">
<g clip-path="url(#clip4_1_50)">
<g clip-path="url(#clip5_1_50)">
<g clip-path="url(#clip6_1_50)">
<g clip-path="url(#clip7_1_50)">
<g clip-path="url(#clip8_1_50)">
<path d="M28 8C27.8913 8.0044 27.7847 8.03106 27.6867 8.07833L11.6167 15.1233C11.175 15.405 10.9867 15.7283 10.9967 16.2767L12.3833 33.4067C12.3983 33.585 12.4617 33.6817 12.5967 33.8233L18.5367 38.345C18.5367 38.345 18.5617 41.7033 19.295 43.0217C19.8483 44.0167 22.42 48.055 28 48C33.58 47.945 36.3133 44.6167 37.14 42.9533C37.9233 41.3767 37.9067 38.1 37.9067 38.1L43.3317 33.8533C43.4031 33.8065 43.4617 33.7427 43.5025 33.6677C43.5432 33.5927 43.5647 33.5087 43.565 33.4233L44.9983 16.24C45.0417 15.72 44.8267 15.29 44.385 15.0983L28.3017 8.07833C28.208 8.03066 28.105 8.00393 28 8ZM27.915 9.79667C28.005 9.8 28.095 9.83 28.2283 9.89L40.59 15.605L28.22 22.8333C28.0283 22.93 27.9433 22.915 27.78 22.8333L15.53 15.7267C15.3417 15.6033 15.33 15.5183 15.53 15.3983L27.5867 9.875C27.6901 9.82818 27.8016 9.80159 27.915 9.79667ZM27.9317 10.9433L17.8417 15.6517L27.9117 21.4683L38.0233 15.6683L27.9317 10.9433ZM27.9317 11.5683L36.6517 15.6683L31.215 18.7017L29.4817 17.7733L32.4217 14.0933L28.8583 15.49L30.7317 13.1667L25.3117 15.41L27.145 13.4933L25.515 12.7433L27.9317 11.5683ZM24.87 12.9833L26.1767 13.63L22.6517 17.1267L28.6767 14.64L26.6 17.1433L30.3283 15.59L28.435 17.955L30.4883 19.065L27.8883 20.54L19.3083 15.63L24.87 12.9833ZM13.32 19.4867C13.3683 19.4867 13.44 19.52 13.545 19.5767L25.6783 27.205L25.7067 40.235L14.285 31.8067C14.1567 31.685 14.1117 31.6433 14.1133 31.485L13.2467 19.59C13.2467 19.5183 13.2717 19.4867 13.32 19.4867ZM42.64 19.63C42.69 19.63 42.71 19.6633 42.7117 19.7333L41.8867 31.445C41.8867 31.605 41.8433 31.645 41.715 31.7667L30.31 40.235L30.3817 27.2267L42.4133 19.72C42.4817 19.6743 42.5589 19.6436 42.64 19.63ZM41.2983 24.9733L41.0033 25.1833L40.7817 25.92L40.7 25.395L40.3233 25.645L40.565 26.6417L40.1917 28.1667L40.58 27.8417L40.7217 26.9633L40.8283 27.6517L41.2917 27.345L40.9667 26.2083L41.2983 24.9733ZM15.115 25.3883C14.915 25.37 14.7983 25.6 14.8333 26.005C14.88 26.55 15.1833 27.205 15.5133 27.4667L16.2117 28.0167C16.545 28.28 16.775 28.0467 16.7233 27.495C16.6733 26.945 16.3633 26.2883 16.0333 26.03L15.3383 25.4917C15.2752 25.4368 15.1977 25.4009 15.115 25.3883ZM15.24 25.78C15.2938 25.7886 15.3441 25.8123 15.385 25.8483L16.0467 26.365C16.2617 26.5333 16.4633 26.9617 16.4967 27.315C16.53 27.6733 16.38 27.8217 16.165 27.6517L15.4983 27.1267C15.285 26.9583 15.0883 26.5367 15.0583 26.1833C15.035 25.92 15.1083 25.7683 15.24 25.78ZM39.945 25.9517C39.945 25.8933 39.8217 25.9683 39.7533 26.0183C39.4867 26.2233 39.1567 26.95 39.1333 27.7983C39.1083 28.725 39.3167 28.83 39.5717 28.655C39.8417 28.4717 40.2083 27.835 40.2217 26.945C40.2333 26.2633 39.945 26.1267 39.945 25.9517ZM38.7567 26.0633C38.7567 26.0633 38.025 26.38 38.0233 26.555C38.0067 27.6383 37.9067 29.835 37.9067 29.835L38.46 29.4167C38.46 29.4167 39.0083 29.0533 39.0167 28.05C39.0217 27.4067 38.8067 27.5333 38.8067 27.5333C38.8067 27.5333 38.98 27.17 38.9833 26.6767C38.9917 25.935 38.7567 26.0633 38.7567 26.0633ZM39.76 26.42C39.9517 26.42 39.9167 26.8667 39.9133 27.1633C39.91 27.455 39.7667 28.1233 39.6133 28.235C39.4583 28.3483 39.4467 27.83 39.45 27.53C39.455 27.2417 39.5733 26.42 39.76 26.42ZM38.56 26.545C38.56 26.545 38.6933 26.4617 38.6817 26.9017C38.671 27.0921 38.6211 27.2782 38.535 27.4483L38.3117 27.5983L38.3217 26.7017L38.56 26.545ZM37.7067 26.58L37.325 26.8133L37.225 29.885C37.225 29.885 37.2017 30.1917 37.285 30.255C37.405 30.3483 37.73 29.9667 37.73 29.9667L37.7233 29.6167C37.7233 29.6167 37.5983 29.6467 37.6033 29.52L37.7067 26.58ZM16.75 26.6L16.9367 28.5933L17.17 28.7783L17.0183 27.1317L17.7867 27.7367C17.9161 27.8647 17.9968 28.0339 18.015 28.215C18.0317 28.395 17.96 28.4717 17.8517 28.3867L17.1917 27.865L17.9867 29.425L18.3283 29.6967L17.795 28.6683L17.9 28.7517C18.1283 28.93 18.2833 28.7733 18.2467 28.3967C18.21 28.0217 17.9967 27.57 17.7683 27.3933L16.75 26.6ZM38.4983 27.9C38.4983 27.9 38.665 27.86 38.6483 28.365C38.635 28.7933 38.4983 28.9283 38.4983 28.9283L38.245 29.1117L38.2667 28.0783L38.4983 27.9ZM36.915 28.19C36.845 28.17 36.745 28.2 36.6 28.3183C36.4217 28.435 36.0917 28.9517 36.0917 28.9517L36.105 29.2683C36.105 29.2683 36.295 29.0333 36.39 28.9567C36.7583 28.59 36.665 29.1067 36.665 29.1067L36.6567 29.2717L36.3967 29.515C36.3967 29.515 36.0117 29.8933 35.9917 30.6117C35.9817 30.955 36.105 31.195 36.2917 31.0533C36.475 30.9167 36.7033 30.5033 36.7033 30.5033L36.71 30.7433L37.0267 30.46L37.0483 28.76C37.0483 28.76 37.12 28.2483 36.915 28.19ZM19.075 28.4C19.0167 28.3533 18.965 28.355 18.9417 28.4067L18.385 29.74L18.6633 29.9617L19.1183 28.8433L19.5417 29.9933L18.9083 29.4933L19.0833 29.96L19.7267 30.4717L19.8983 30.9383L20.1817 31.1617L19.2283 28.6317C19.1974 28.5429 19.1447 28.4632 19.075 28.4ZM35.8317 28.9833L35.5317 29.2033L35.515 31C35.515 31 35.3517 31.3167 35.2817 31.3617C35.1617 31.44 35.165 31.1833 35.165 31.1833L35.19 29.4833L34.87 29.725L34.845 31.425C34.845 31.425 34.8267 32.1867 35.1483 31.9467C35.3155 31.8017 35.4429 31.6164 35.5183 31.4083L35.5467 31.6217L35.8033 31.4383L35.8317 28.9833ZM34.4883 29.1667L34.215 29.3467L34.105 30.1617L33.9767 30.2433V30.2817L33.7233 30.44C33.6233 30.595 33.56 31.0733 33.56 31.0733L33.5633 30.5933L33.2717 30.8L33.205 33.2717L33.535 33.0333L33.6067 31.5717C33.6067 31.5717 33.66 31.22 33.77 31.0367L33.9483 30.8933L33.9767 30.3783L33.98 30.6367L34.09 30.5433L34.0767 32.1183C34.0767 32.1183 34.0517 32.6417 34.3267 32.4583C34.4217 32.3933 34.6817 32.075 34.6817 32.075L34.6667 31.7533C34.6667 31.7533 34.54 31.8717 34.5 31.8967C34.4383 31.935 34.44 31.8 34.44 31.8L34.475 30.275L34.6583 30.1467L34.6533 29.7467L34.4933 29.8467L34.4883 29.1667ZM20.2367 29.4C20.03 29.38 19.9083 29.6167 19.9517 30.04C20.01 30.605 20.3383 31.2867 20.685 31.5617L21.4333 32.15L21.5367 31.9L20.6633 31.2083C20.44 31.03 20.225 30.5917 20.1867 30.225C20.1483 29.86 20.3033 29.7083 20.525 29.8817L21.23 30.4367L21.3333 30.1867L20.4717 29.5067C20.4049 29.4497 20.3235 29.4128 20.2367 29.4ZM36.6533 29.6867V30.2817C36.6533 30.2817 36.475 30.4917 36.3933 30.54C36.3133 30.5883 36.2933 30.4483 36.2933 30.325C36.2988 30.144 36.3685 29.9709 36.49 29.8367L36.6533 29.6867ZM32.9433 29.9717C32.8317 30.0517 32.7383 30.285 32.7367 30.4933C32.7367 30.7017 32.825 30.805 32.9367 30.7267C33.05 30.6467 33.145 30.4133 33.1467 30.2033C33.1467 29.995 33.0567 29.89 32.9433 29.9717ZM21.465 30.2867L21.665 32.1533C21.6778 32.2659 21.729 32.3707 21.81 32.45L22.9317 33.3367L23.035 33.0833L21.8917 32.1783L21.7083 30.475L21.465 30.2867ZM32.605 30.4683L32.25 30.7283C32.25 30.7283 32.2133 31.3467 31.9467 33.545C31.7267 31.9117 31.7267 31.1283 31.7267 31.1283L31.3167 31.4L31.57 34.405L32.1783 34.0583L32.605 30.4683ZM33.0367 30.965L32.7083 31.2L32.605 33.7083L32.9333 33.4717L33.0367 30.965ZM23.185 31.7083C22.9733 31.6867 22.855 31.93 22.9033 32.3617C22.9683 32.9383 23.31 33.6367 23.665 33.9183L24.4317 34.525L24.5383 34.2683L23.6367 33.5583C23.4467 33.4083 23.2617 33.075 23.1817 32.75L24.2417 33.5833L24.345 33.3283L23.1383 32.3783C23.155 32.135 23.295 32.0517 23.4833 32.2L24.21 32.7717L24.3133 32.5183L23.4233 31.8217C23.3558 31.7627 23.2734 31.7234 23.185 31.7083ZM24.4667 32.6867C24.445 32.7083 24.4333 32.7567 24.4417 32.8217C24.4581 32.955 24.5199 33.0785 24.6167 33.1717C24.6967 33.235 24.75 33.1817 24.7333 33.05C24.7165 32.9159 24.6548 32.7914 24.5583 32.6967C24.5183 32.6667 24.4883 32.6633 24.4667 32.6867ZM24.4917 32.74C24.5083 32.7233 24.535 32.7233 24.5667 32.7467C24.63 32.7967 24.69 32.92 24.7 33.0217C24.7133 33.1267 24.6733 33.1683 24.6083 33.1183C24.5883 33.1017 24.5833 33.06 24.5667 33.0333L24.5767 33.04L24.5667 32.94L24.5917 32.9567L24.6333 33.0867L24.67 33.115L24.62 32.975H24.6267C24.64 32.9717 24.6417 32.9533 24.64 32.9433V32.9217C24.6348 32.8863 24.6205 32.853 24.5983 32.825C24.5861 32.809 24.5715 32.795 24.555 32.7833L24.5167 32.75L24.5417 32.9783C24.5167 32.9283 24.48 32.895 24.475 32.845C24.4667 32.7917 24.475 32.7567 24.4917 32.74ZM24.5517 32.8183L24.5617 32.825C24.5783 32.8383 24.5833 32.8433 24.5917 32.8533C24.6001 32.8665 24.6057 32.8813 24.6083 32.8967C24.6083 32.9067 24.6117 32.9133 24.6083 32.9183C24.605 32.9283 24.5933 32.9217 24.5833 32.915L24.5617 32.8983L24.5517 32.8183Z" fill="#609BF4"/>
</g>
</g>
</g>
</g>
</g>
</g>
</g>
</g>
</g>
<defs>
<linearGradient id="paint0_linear_1_50" x1="28" y1="0" x2="28" y2="56" gradientUnits="userSpaceOnUse">
<stop stop-color="#2F6DCB"/>
<stop offset="1" stop-color="#002865"/>
</linearGradient>
<clipPath id="clip0_1_50">
<rect width="40" height="40" fill="white" transform="translate(8 8)"/>
</clipPath>
<clipPath id="clip1_1_50">
<rect width="40" height="40" fill="white" transform="translate(8 8)"/>
</clipPath>
<clipPath id="clip2_1_50">
<rect width="40" height="40" fill="white" transform="translate(8 8)"/>
</clipPath>
<clipPath id="clip3_1_50">
<rect width="40" height="40" fill="white" transform="translate(8 8)"/>
</clipPath>
<clipPath id="clip4_1_50">
<rect width="40" height="40" fill="white" transform="translate(8 8)"/>
</clipPath>
<clipPath id="clip5_1_50">
<rect width="40" height="40" fill="white" transform="translate(8 8)"/>
</clipPath>
<clipPath id="clip6_1_50">
<rect width="40" height="40" fill="white" transform="translate(8 8)"/>
</clipPath>
<clipPath id="clip7_1_50">
<rect width="40" height="40" fill="white" transform="translate(8 8)"/>
</clipPath>
<clipPath id="clip8_1_50">
<rect width="40" height="40" fill="white" transform="translate(8 8)"/>
</clipPath>
</defs>
</svg>
