<svg width="141" height="56" viewBox="0 0 141 56" fill="none" xmlns="http://www.w3.org/2000/svg">
<rect width="141" height="56" rx="8" fill="#3B2E58"/>
<rect x="1.05" y="1.05" width="138.9" height="53.9" rx="6.95" stroke="white" stroke-opacity="0.15" stroke-width="2.1"/>
<g clip-path="url(#clip0_1_50)">
<g clip-path="url(#clip1_1_50)">
<g clip-path="url(#clip2_1_50)">
<g clip-path="url(#clip3_1_50)">
<path d="M41.305 8.105C40.6695 8.09621 40.0544 8.32983 39.585 8.75833H39.5833C39.5546 8.78226 39.5268 8.80728 39.5 8.83333L26.2133 23.5267L18.4583 17.1667L17.78 16.5833C17.546 16.3889 17.2633 16.2621 16.9625 16.2169C16.6616 16.1716 16.3541 16.2096 16.0733 16.3267C16.0666 16.3294 16.06 16.3322 16.0533 16.335L13.025 17.585C12.9814 17.6032 12.9386 17.6232 12.8967 17.645C12.8701 17.6598 12.844 17.6754 12.8183 17.6917C12.797 17.7034 12.7758 17.7156 12.755 17.7283C12.7278 17.7464 12.7011 17.7653 12.675 17.785C12.6581 17.798 12.6414 17.8113 12.625 17.825C12.6 17.8443 12.5755 17.8643 12.5517 17.885C12.5312 17.9028 12.5112 17.9212 12.4917 17.94C12.4734 17.959 12.4556 17.9785 12.4383 17.9983C12.4195 18.019 12.4011 18.0401 12.3833 18.0617C12.3632 18.0856 12.3438 18.11 12.325 18.135C12.3113 18.1536 12.2979 18.1725 12.285 18.1917C12.2664 18.2189 12.2486 18.2467 12.2317 18.275C12.2202 18.2942 12.2091 18.3137 12.1983 18.3333C12.1842 18.3607 12.1709 18.3885 12.1583 18.4167C12.1466 18.4414 12.1355 18.4664 12.125 18.4917C12.1155 18.5159 12.1066 18.5404 12.0983 18.565C12.0888 18.5909 12.0799 18.617 12.0717 18.6433C12.0625 18.6736 12.0541 18.7042 12.0467 18.735C12.0407 18.7571 12.0351 18.7793 12.03 18.8017C12.0247 18.8315 12.0203 18.8616 12.0167 18.8917C12.0126 18.9194 12.0093 18.9471 12.0067 18.975C12.0025 19.021 12.0003 19.0672 12 19.1133V36.89C12.0019 37.2172 12.1002 37.5367 12.2824 37.8085C12.4647 38.0802 12.723 38.2923 13.025 38.4183L16.0533 39.6917C16.338 39.8101 16.65 39.8473 16.9545 39.799C17.259 39.7508 17.5442 39.619 17.7783 39.4183L18.4583 38.835L26.2133 32.4767L39.5017 47.1683C39.5405 47.2057 39.5805 47.2419 39.6217 47.2767C39.6526 47.3052 39.6843 47.333 39.7167 47.36C39.7483 47.3841 39.7806 47.4074 39.8133 47.43C39.8477 47.4553 39.8827 47.4798 39.9183 47.5033C39.9539 47.5253 39.99 47.5465 40.0267 47.5667C40.0623 47.5876 40.0984 47.6076 40.135 47.6267C40.1723 47.6448 40.2101 47.6621 40.2483 47.6783C40.2868 47.696 40.3257 47.7127 40.365 47.7283C40.4052 47.7433 40.4458 47.7572 40.4867 47.77C40.5231 47.782 40.5598 47.7931 40.5967 47.8033C40.6408 47.8157 40.6853 47.8268 40.73 47.8367C40.7676 47.8453 40.8054 47.8531 40.8433 47.86C40.8849 47.8666 40.9265 47.8722 40.9683 47.8767C41.0099 47.8822 41.0516 47.8866 41.0933 47.89C41.1338 47.8927 41.1744 47.8943 41.215 47.895C41.2578 47.8961 41.3006 47.8961 41.3433 47.895C41.3867 47.8934 41.4301 47.8906 41.4733 47.8867C41.5106 47.8836 41.5479 47.8797 41.585 47.875C41.6336 47.8681 41.6819 47.8598 41.73 47.85C41.7635 47.844 41.7968 47.8373 41.83 47.83C41.8748 47.819 41.9192 47.8068 41.9633 47.7933C42.0014 47.7831 42.0392 47.772 42.0767 47.76C42.1159 47.7454 42.1548 47.7299 42.1933 47.7133C42.244 47.6944 42.294 47.6738 42.3433 47.6517L50.5833 43.69C50.8856 43.5442 51.1554 43.339 51.3767 43.0867C51.4296 43.0269 51.4797 42.9646 51.5267 42.9C51.5289 42.8961 51.5311 42.8922 51.5333 42.8883C51.5812 42.8211 51.6257 42.7516 51.6667 42.68C51.7041 42.6149 51.7386 42.5482 51.77 42.48C51.7751 42.4706 51.7801 42.4611 51.785 42.4517C51.8095 42.3925 51.8318 42.3325 51.8517 42.2717C51.8603 42.2512 51.8686 42.2307 51.8767 42.21C51.8955 42.1512 51.9122 42.0917 51.9267 42.0317C51.9319 42.0112 51.9369 41.9906 51.9417 41.97C51.953 41.9148 51.9624 41.8592 51.97 41.8033C51.9749 41.7756 51.9794 41.7479 51.9833 41.72C51.9882 41.6701 51.9915 41.6201 51.9933 41.57C51.9967 41.5256 51.999 41.4812 52 41.4367V14.57V14.565C52.0002 14.5472 52.0002 14.5294 52 14.5117C51.9986 14.4281 51.9931 14.3447 51.9833 14.2617C51.9323 13.8453 51.7774 13.4484 51.5327 13.1076C51.288 12.7669 50.9616 12.4931 50.5833 12.3117L42.3433 8.35C42.0193 8.19538 41.6657 8.11239 41.3067 8.10667L41.305 8.105ZM42 19.5333V36.4717L31.67 28.005L42 19.5333ZM17 22.29L22.165 28.0017L16.9983 33.7117L17 22.29Z" fill="#D7D2E6"/>
</g>
</g>
</g>
</g>
<g filter="url(#filter0_d_1_50)">
<path d="M63.7429 21.6364L66.5078 30.6918H66.6104L69.3753 21.6364H72.7198L68.5483 34H64.5699L60.3984 21.6364H63.7429ZM80.7338 25.343C80.6936 24.9003 80.5145 24.5562 80.1965 24.3107C79.8826 24.0612 79.4339 23.9364 78.8503 23.9364C78.4639 23.9364 78.142 23.9867 77.8844 24.0874C77.6268 24.188 77.4336 24.3268 77.3049 24.5039C77.1761 24.677 77.1097 24.8762 77.1056 25.1016C77.0976 25.2867 77.1338 25.4497 77.2143 25.5905C77.2988 25.7314 77.4196 25.8562 77.5765 25.9648C77.7375 26.0695 77.9307 26.162 78.1561 26.2425C78.3814 26.323 78.635 26.3935 78.9167 26.4538L79.9792 26.6953C80.591 26.8281 81.1303 27.0052 81.5971 27.2266C82.068 27.4479 82.4624 27.7115 82.7803 28.0174C83.1023 28.3233 83.3458 28.6754 83.5108 29.0739C83.6758 29.4723 83.7603 29.919 83.7644 30.4141C83.7603 31.1948 83.5631 31.8649 83.1727 32.4244C82.7824 32.9838 82.2209 33.4124 81.4884 33.7102C80.76 34.008 79.8806 34.157 78.8503 34.157C77.816 34.157 76.9145 34.002 76.1458 33.6921C75.3771 33.3822 74.7794 32.9113 74.3528 32.2795C73.9262 31.6476 73.7068 30.8487 73.6948 29.8828H76.5563C76.5804 30.2812 76.6871 30.6133 76.8762 30.8789C77.0654 31.1445 77.325 31.3458 77.655 31.4826C77.989 31.6194 78.3754 31.6878 78.8141 31.6878C79.2165 31.6878 79.5586 31.6335 79.8404 31.5249C80.1261 31.4162 80.3455 31.2653 80.4984 31.0721C80.6513 30.8789 80.7298 30.6575 80.7338 30.408C80.7298 30.1746 80.6574 29.9754 80.5165 29.8104C80.3756 29.6413 80.1583 29.4964 79.8645 29.3757C79.5747 29.2509 79.2045 29.1362 78.7537 29.0316L77.4618 28.7298C76.3913 28.4843 75.5481 28.0878 74.9323 27.5405C74.3166 26.9891 74.0107 26.2446 74.0147 25.3068C74.0107 24.5421 74.216 23.872 74.6305 23.2965C75.045 22.721 75.6185 22.2723 76.351 21.9503C77.0835 21.6283 77.9186 21.4673 78.8563 21.4673C79.8142 21.4673 80.6453 21.6303 81.3496 21.9563C82.0579 22.2783 82.6073 22.7311 82.9977 23.3146C83.3881 23.8982 83.5873 24.5743 83.5953 25.343H80.7338ZM96.4963 26.1158H93.4778C93.4375 25.8059 93.355 25.5262 93.2303 25.2766C93.1055 25.0271 92.9405 24.8138 92.7352 24.6367C92.53 24.4596 92.2865 24.3248 92.0048 24.2322C91.7271 24.1356 91.4192 24.0874 91.0811 24.0874C90.4815 24.0874 89.9643 24.2343 89.5296 24.5281C89.099 24.8218 88.767 25.2464 88.5335 25.8018C88.3041 26.3572 88.1894 27.0294 88.1894 27.8182C88.1894 28.6392 88.3062 29.3274 88.5396 29.8828C88.777 30.4342 89.1091 30.8507 89.5357 31.1325C89.9663 31.4102 90.4754 31.549 91.063 31.549C91.393 31.549 91.6929 31.5067 91.9625 31.4222C92.2362 31.3377 92.4757 31.215 92.6809 31.054C92.8902 30.889 93.0612 30.6897 93.1941 30.4563C93.3309 30.2189 93.4255 29.9512 93.4778 29.6534L96.4963 29.6715C96.4439 30.2189 96.285 30.7582 96.0193 31.2894C95.7577 31.8207 95.3975 32.3056 94.9387 32.7443C94.4799 33.179 93.9205 33.5251 93.2605 33.7827C92.6044 34.0402 91.8518 34.169 91.0026 34.169C89.8838 34.169 88.8817 33.9235 87.9963 33.4325C87.1149 32.9375 86.4186 32.2171 85.9075 31.2713C85.3964 30.3255 85.1408 29.1745 85.1408 27.8182C85.1408 26.4579 85.4004 25.3048 85.9196 24.359C86.4387 23.4132 87.141 22.6948 88.0264 22.2038C88.9119 21.7128 89.9039 21.4673 91.0026 21.4673C91.7512 21.4673 92.4435 21.572 93.0794 21.7812C93.7152 21.9865 94.2747 22.2883 94.7576 22.6868C95.2406 23.0812 95.633 23.5662 95.9348 24.1417C96.2367 24.7172 96.4238 25.3752 96.4963 26.1158ZM102.535 34.1751C101.561 34.1751 100.724 33.9758 100.023 33.5774C99.3271 33.1749 98.7898 32.6155 98.4115 31.8991C98.0372 31.1787 97.85 30.3436 97.85 29.3938C97.85 28.44 98.0372 27.6049 98.4115 26.8885C98.7898 26.1681 99.3271 25.6087 100.023 25.2102C100.724 24.8078 101.561 24.6065 102.535 24.6065C103.509 24.6065 104.344 24.8078 105.04 25.2102C105.74 25.6087 106.278 26.1681 106.652 26.8885C107.03 27.6049 107.219 28.44 107.219 29.3938C107.219 30.3436 107.03 31.1787 106.652 31.8991C106.278 32.6155 105.74 33.1749 105.04 33.5774C104.344 33.9758 103.509 34.1751 102.535 34.1751ZM102.553 31.9474C102.907 31.9474 103.207 31.8388 103.452 31.6214C103.698 31.4041 103.885 31.1023 104.014 30.7159C104.147 30.3295 104.213 29.8828 104.213 29.3757C104.213 28.8606 104.147 28.4098 104.014 28.0234C103.885 27.6371 103.698 27.3352 103.452 27.1179C103.207 26.9006 102.907 26.7919 102.553 26.7919C102.187 26.7919 101.877 26.9006 101.623 27.1179C101.374 27.3352 101.182 27.6371 101.05 28.0234C100.921 28.4098 100.856 28.8606 100.856 29.3757C100.856 29.8828 100.921 30.3295 101.05 30.7159C101.182 31.1023 101.374 31.4041 101.623 31.6214C101.877 31.8388 102.187 31.9474 102.553 31.9474ZM112.118 34.1328C111.434 34.1328 110.812 33.9557 110.253 33.6016C109.693 33.2474 109.247 32.7161 108.913 32.0078C108.579 31.2995 108.412 30.4201 108.412 29.3697C108.412 28.279 108.585 27.3815 108.931 26.6772C109.277 25.9729 109.73 25.4517 110.289 25.1136C110.853 24.7756 111.458 24.6065 112.106 24.6065C112.593 24.6065 113.01 24.691 113.356 24.8601C113.702 25.0251 113.988 25.2384 114.213 25.5C114.439 25.7616 114.61 26.0333 114.726 26.315H114.787V21.6364H117.739V34H114.817V32.4968H114.726C114.602 32.7825 114.424 33.0502 114.195 33.2997C113.966 33.5492 113.678 33.7505 113.332 33.9034C112.99 34.0563 112.585 34.1328 112.118 34.1328ZM113.145 31.8327C113.503 31.8327 113.809 31.7321 114.062 31.5309C114.316 31.3256 114.511 31.0379 114.648 30.6676C114.785 30.2973 114.853 29.8627 114.853 29.3636C114.853 28.8565 114.785 28.4199 114.648 28.0536C114.515 27.6874 114.32 27.4057 114.062 27.2084C113.809 27.0112 113.503 26.9126 113.145 26.9126C112.778 26.9126 112.468 27.0133 112.215 27.2145C111.961 27.4157 111.768 27.6995 111.635 28.0657C111.507 28.4319 111.442 28.8646 111.442 29.3636C111.442 29.8627 111.509 30.2973 111.641 30.6676C111.774 31.0379 111.965 31.3256 112.215 31.5309C112.468 31.7321 112.778 31.8327 113.145 31.8327ZM123.94 34.1751C122.97 34.1751 122.133 33.9839 121.429 33.6016C120.728 33.2152 120.189 32.6658 119.811 31.9535C119.437 31.2371 119.249 30.3859 119.249 29.3999C119.249 28.442 119.439 27.6049 119.817 26.8885C120.195 26.1681 120.728 25.6087 121.417 25.2102C122.105 24.8078 122.916 24.6065 123.85 24.6065C124.51 24.6065 125.113 24.7092 125.661 24.9144C126.208 25.1197 126.681 25.4235 127.079 25.826C127.478 26.2285 127.788 26.7255 128.009 27.3171C128.23 27.9047 128.341 28.5788 128.341 29.3395V30.076H120.282V28.3615H125.594C125.59 28.0476 125.516 27.7679 125.371 27.5224C125.226 27.2769 125.027 27.0857 124.773 26.9489C124.524 26.808 124.236 26.7376 123.91 26.7376C123.58 26.7376 123.284 26.812 123.023 26.9609C122.761 27.1058 122.554 27.305 122.401 27.5586C122.248 27.8081 122.167 28.0919 122.159 28.4098V30.1545C122.159 30.5328 122.234 30.8648 122.383 31.1506C122.532 31.4323 122.743 31.6516 123.016 31.8086C123.29 31.9655 123.616 32.044 123.994 32.044C124.256 32.044 124.494 32.0078 124.707 31.9354C124.92 31.8629 125.103 31.7563 125.256 31.6154C125.409 31.4745 125.524 31.3015 125.6 31.0962L128.311 31.1747C128.198 31.7824 127.951 32.3117 127.568 32.7624C127.19 33.2092 126.693 33.5573 126.077 33.8068C125.461 34.0523 124.749 34.1751 123.94 34.1751Z" fill="#D7D2E6"/>
</g>
<defs>
<filter id="filter0_d_1_50" x="54.4" y="13.4" width="80.2" height="29.2" filterUnits="userSpaceOnUse" color-interpolation-filters="sRGB">
<feFlood flood-opacity="0" result="BackgroundImageFix"/>
<feColorMatrix in="SourceAlpha" type="matrix" values="0 0 0 0 0 0 0 0 0 0 0 0 0 0 0 0 0 0 127 0" result="hardAlpha"/>
<feOffset/>
<feGaussianBlur stdDeviation="2.8"/>
<feComposite in2="hardAlpha" operator="out"/>
<feColorMatrix type="matrix" values="0 0 0 0 0 0 0 0 0 0 0 0 0 0 0 0 0 0 0.25 0"/>
<feBlend mode="normal" in2="BackgroundImageFix" result="effect1_dropShadow_1_50"/>
<feBlend mode="normal" in="SourceGraphic" in2="effect1_dropShadow_1_50" result="shape"/>
</filter>
<clipPath id="clip0_1_50">
<rect width="40" height="40" fill="white" transform="translate(12 8)"/>
</clipPath>
<clipPath id="clip1_1_50">
<rect width="40" height="40" fill="white" transform="translate(12 8)"/>
</clipPath>
<clipPath id="clip2_1_50">
<rect width="40" height="40" fill="white" transform="translate(12 8)"/>
</clipPath>
<clipPath id="clip3_1_50">
<rect width="40" height="40" fill="white" transform="translate(12 8)"/>
</clipPath>
</defs>
</svg>
