<svg width="184" height="56" viewBox="0 0 184 56" fill="none" xmlns="http://www.w3.org/2000/svg">
<rect width="184" height="56" rx="8" fill="#3B2E58"/>
<rect x="1.05" y="1.05" width="181.9" height="53.9" rx="6.95" stroke="white" stroke-opacity="0.15" stroke-width="2.1"/>
<g clip-path="url(#clip0_1_50)">
<g clip-path="url(#clip1_1_50)">
<g clip-path="url(#clip2_1_50)">
<g clip-path="url(#clip3_1_50)">
<path d="M41.305 8.105C40.6695 8.09621 40.0544 8.32983 39.585 8.75833H39.5833C39.5546 8.78226 39.5268 8.80728 39.5 8.83333L26.2133 23.5267L18.4583 17.1667L17.78 16.5833C17.546 16.3889 17.2633 16.2621 16.9625 16.2169C16.6616 16.1716 16.3541 16.2096 16.0733 16.3267C16.0666 16.3294 16.06 16.3322 16.0533 16.335L13.025 17.585C12.9814 17.6032 12.9386 17.6232 12.8967 17.645C12.8701 17.6598 12.844 17.6754 12.8183 17.6917C12.797 17.7034 12.7758 17.7156 12.755 17.7283C12.7278 17.7464 12.7011 17.7653 12.675 17.785C12.6581 17.798 12.6414 17.8113 12.625 17.825C12.6 17.8443 12.5755 17.8643 12.5517 17.885C12.5312 17.9028 12.5112 17.9212 12.4917 17.94C12.4734 17.959 12.4556 17.9785 12.4383 17.9983C12.4195 18.019 12.4011 18.0401 12.3833 18.0617C12.3632 18.0856 12.3438 18.11 12.325 18.135C12.3113 18.1536 12.2979 18.1725 12.285 18.1917C12.2664 18.2189 12.2486 18.2467 12.2317 18.275C12.2202 18.2942 12.2091 18.3137 12.1983 18.3333C12.1842 18.3607 12.1709 18.3885 12.1583 18.4167C12.1466 18.4414 12.1355 18.4664 12.125 18.4917C12.1155 18.5159 12.1066 18.5404 12.0983 18.565C12.0888 18.5909 12.0799 18.617 12.0717 18.6433C12.0625 18.6736 12.0541 18.7042 12.0467 18.735C12.0407 18.7571 12.0351 18.7793 12.03 18.8017C12.0247 18.8315 12.0203 18.8616 12.0167 18.8917C12.0126 18.9194 12.0093 18.9471 12.0067 18.975C12.0025 19.021 12.0003 19.0672 12 19.1133V36.89C12.0019 37.2172 12.1002 37.5367 12.2824 37.8085C12.4647 38.0802 12.723 38.2923 13.025 38.4183L16.0533 39.6917C16.338 39.8101 16.65 39.8473 16.9545 39.799C17.259 39.7508 17.5442 39.619 17.7783 39.4183L18.4583 38.835L26.2133 32.4767L39.5017 47.1683C39.5405 47.2057 39.5805 47.2419 39.6217 47.2767C39.6526 47.3052 39.6843 47.333 39.7167 47.36C39.7483 47.3841 39.7806 47.4074 39.8133 47.43C39.8477 47.4553 39.8827 47.4798 39.9183 47.5033C39.9539 47.5254 39.99 47.5465 40.0267 47.5667C40.0623 47.5876 40.0984 47.6076 40.135 47.6267C40.1723 47.6448 40.2101 47.6621 40.2483 47.6783C40.2868 47.696 40.3257 47.7127 40.365 47.7283C40.4052 47.7433 40.4458 47.7572 40.4867 47.77C40.5231 47.782 40.5597 47.7931 40.5967 47.8033C40.6408 47.8157 40.6853 47.8268 40.73 47.8367C40.7676 47.8453 40.8054 47.8531 40.8433 47.86C40.8849 47.8666 40.9265 47.8722 40.9683 47.8767C41.0099 47.8822 41.0516 47.8866 41.0933 47.89C41.1338 47.8927 41.1744 47.8943 41.215 47.895C41.2578 47.8961 41.3006 47.8961 41.3433 47.895C41.3867 47.8934 41.4301 47.8906 41.4733 47.8867C41.5106 47.8836 41.5479 47.8797 41.585 47.875C41.6336 47.8681 41.6819 47.8598 41.73 47.85C41.7635 47.844 41.7968 47.8374 41.83 47.83C41.8748 47.819 41.9192 47.8068 41.9633 47.7933C42.0014 47.7831 42.0392 47.772 42.0767 47.76C42.1159 47.7454 42.1548 47.7299 42.1933 47.7133C42.244 47.6944 42.294 47.6738 42.3433 47.6517L50.5833 43.69C50.8856 43.5442 51.1554 43.339 51.3767 43.0867C51.4296 43.0269 51.4797 42.9646 51.5267 42.9C51.5289 42.8961 51.5311 42.8922 51.5333 42.8883C51.5812 42.8211 51.6257 42.7516 51.6667 42.68C51.7041 42.6149 51.7386 42.5482 51.77 42.48C51.7751 42.4706 51.7801 42.4611 51.785 42.4517C51.8095 42.3925 51.8318 42.3325 51.8517 42.2717C51.8603 42.2512 51.8686 42.2307 51.8767 42.21C51.8955 42.1512 51.9122 42.0917 51.9267 42.0317C51.9319 42.0112 51.9369 41.9906 51.9417 41.97C51.953 41.9148 51.9624 41.8592 51.97 41.8033C51.9749 41.7756 51.9794 41.7479 51.9833 41.72C51.9882 41.6701 51.9915 41.6201 51.9933 41.57C51.9967 41.5256 51.999 41.4812 52 41.4367V14.57V14.565C52.0002 14.5472 52.0002 14.5294 52 14.5117C51.9986 14.4281 51.9931 14.3447 51.9833 14.2617C51.9323 13.8453 51.7774 13.4484 51.5327 13.1076C51.288 12.7669 50.9616 12.4931 50.5833 12.3117L42.3433 8.35C42.0193 8.19538 41.6657 8.11239 41.3067 8.10667L41.305 8.105ZM42 19.5333V36.4717L31.67 28.005L42 19.5333ZM17 22.29L22.165 28.0017L16.9983 33.7117L17 22.29Z" fill="#D7D2E6"/>
</g>
</g>
</g>
</g>
<g filter="url(#filter0_d_1_50)">
<path d="M63.7429 21.6364L66.5078 30.6918H66.6104L69.3753 21.6364H72.7198L68.5483 34H64.5699L60.3984 21.6364H63.7429ZM74.0509 34V24.7273H77.003V34H74.0509ZM75.53 23.6467C75.1155 23.6467 74.7593 23.5098 74.4615 23.2361C74.1636 22.9584 74.0147 22.6244 74.0147 22.234C74.0147 21.8477 74.1636 21.5176 74.4615 21.244C74.7593 20.9663 75.1155 20.8274 75.53 20.8274C75.9486 20.8274 76.3047 20.9663 76.5985 21.244C76.8964 21.5176 77.0453 21.8477 77.0453 22.234C77.0453 22.6244 76.8964 22.9584 76.5985 23.2361C76.3047 23.5098 75.9486 23.6467 75.53 23.6467ZM86.9775 27.5586L84.2669 27.631C84.2388 27.4379 84.1623 27.2668 84.0375 27.1179C83.9128 26.965 83.7498 26.8462 83.5485 26.7617C83.3513 26.6732 83.1219 26.6289 82.8603 26.6289C82.5182 26.6289 82.2265 26.6973 81.985 26.8342C81.7475 26.971 81.6308 27.1561 81.6348 27.3896C81.6308 27.5707 81.7033 27.7276 81.8522 27.8604C82.0051 27.9932 82.2768 28.0999 82.6672 28.1804L84.4541 28.5185C85.3797 28.6955 86.068 28.9893 86.5187 29.3999C86.9735 29.8104 87.2029 30.3537 87.2069 31.0298C87.2029 31.6657 87.0137 32.2191 86.6395 32.69C86.2692 33.1609 85.7621 33.5271 85.1181 33.7887C84.4742 34.0463 83.7377 34.1751 82.9086 34.1751C81.5845 34.1751 80.5401 33.9034 79.7755 33.3601C79.0148 32.8127 78.5802 32.0802 78.4715 31.1626L81.3873 31.0902C81.4517 31.4283 81.6187 31.6858 81.8884 31.8629C82.158 32.04 82.5021 32.1285 82.9207 32.1285C83.299 32.1285 83.6069 32.0581 83.8444 31.9173C84.0818 31.7764 84.2025 31.5892 84.2066 31.3558C84.2025 31.1465 84.11 30.9795 83.9289 30.8548C83.7478 30.726 83.464 30.6253 83.0777 30.5529L81.4598 30.245C80.5301 30.076 79.8378 29.7641 79.3831 29.3093C78.9283 28.8505 78.7029 28.2669 78.7069 27.5586C78.7029 26.9388 78.8679 26.4096 79.202 25.9709C79.536 25.5282 80.0109 25.1901 80.6267 24.9567C81.2424 24.7232 81.9689 24.6065 82.806 24.6065C84.0617 24.6065 85.0517 24.8701 85.7762 25.3974C86.5006 25.9206 86.9011 26.641 86.9775 27.5586ZM94.6429 29.9975V24.7273H97.5889V34H94.7757V32.2734H94.6791C94.4739 32.8409 94.1237 33.2917 93.6287 33.6257C93.1377 33.9557 92.5441 34.1207 91.8478 34.1207C91.216 34.1207 90.6606 33.9758 90.1816 33.6861C89.7027 33.3963 89.3304 32.9918 89.0648 32.4727C88.7992 31.9494 88.6643 31.3377 88.6603 30.6374V24.7273H91.6124V30.0579C91.6164 30.561 91.7492 30.9574 92.0108 31.2472C92.2724 31.5369 92.6286 31.6818 93.0794 31.6818C93.3731 31.6818 93.6368 31.6174 93.8702 31.4886C94.1076 31.3558 94.2948 31.1646 94.4316 30.9151C94.5725 30.6616 94.6429 30.3557 94.6429 29.9975ZM102.082 34.157C101.49 34.157 100.965 34.0584 100.506 33.8611C100.052 33.6599 99.6913 33.3581 99.4257 32.9556C99.1641 32.5491 99.0333 32.04 99.0333 31.4283C99.0333 30.9131 99.1238 30.4785 99.3049 30.1243C99.486 29.7701 99.7356 29.4824 100.054 29.261C100.371 29.0396 100.738 28.8726 101.152 28.7599C101.567 28.6432 102.009 28.5647 102.48 28.5245C103.008 28.4762 103.432 28.4259 103.754 28.3736C104.076 28.3172 104.31 28.2388 104.454 28.1381C104.603 28.0335 104.678 27.8866 104.678 27.6974V27.6673C104.678 27.3574 104.571 27.1179 104.358 26.9489C104.145 26.7798 103.857 26.6953 103.495 26.6953C103.104 26.6953 102.79 26.7798 102.553 26.9489C102.315 27.1179 102.164 27.3513 102.1 27.6491L99.3774 27.5526C99.4579 26.9891 99.6651 26.486 99.9992 26.0433C100.337 25.5966 100.8 25.2464 101.388 24.9929C101.979 24.7353 102.69 24.6065 103.519 24.6065C104.11 24.6065 104.656 24.677 105.155 24.8178C105.654 24.9547 106.088 25.1559 106.459 25.4215C106.829 25.6831 107.115 26.0051 107.316 26.3874C107.521 26.7698 107.624 27.2064 107.624 27.6974V34H104.847V32.7081H104.774C104.609 33.022 104.398 33.2876 104.141 33.505C103.887 33.7223 103.587 33.8853 103.241 33.994C102.899 34.1026 102.513 34.157 102.082 34.157ZM102.993 32.2251C103.311 32.2251 103.597 32.1607 103.851 32.032C104.108 31.9032 104.314 31.7261 104.467 31.5007C104.619 31.2713 104.696 31.0057 104.696 30.7038V29.8224C104.611 29.8667 104.509 29.907 104.388 29.9432C104.271 29.9794 104.143 30.0136 104.002 30.0458C103.861 30.078 103.716 30.1062 103.567 30.1303C103.418 30.1545 103.275 30.1766 103.138 30.1967C102.861 30.241 102.623 30.3094 102.426 30.402C102.233 30.4945 102.084 30.6153 101.979 30.7642C101.879 30.9091 101.828 31.0821 101.828 31.2834C101.828 31.5892 101.937 31.8227 102.154 31.9837C102.376 32.1446 102.655 32.2251 102.993 32.2251ZM112.381 21.6364V34H109.429V21.6364H112.381ZM124.595 25.343C124.555 24.9003 124.376 24.5562 124.058 24.3107C123.744 24.0612 123.295 23.9364 122.712 23.9364C122.325 23.9364 122.003 23.9867 121.746 24.0874C121.488 24.188 121.295 24.3268 121.166 24.5039C121.037 24.677 120.971 24.8762 120.967 25.1016C120.959 25.2867 120.995 25.4497 121.076 25.5905C121.16 25.7314 121.281 25.8562 121.438 25.9648C121.599 26.0695 121.792 26.162 122.017 26.2425C122.243 26.323 122.496 26.3935 122.778 26.4538L123.841 26.6953C124.452 26.8281 124.992 27.0052 125.458 27.2266C125.929 27.4479 126.324 27.7115 126.642 28.0174C126.964 28.3233 127.207 28.6754 127.372 29.0739C127.537 29.4723 127.622 29.919 127.626 30.4141C127.622 31.1948 127.424 31.8649 127.034 32.4244C126.644 32.9838 126.082 33.4124 125.35 33.7102C124.621 34.008 123.742 34.157 122.712 34.157C121.677 34.157 120.776 34.002 120.007 33.6921C119.238 33.3822 118.641 32.9113 118.214 32.2795C117.787 31.6476 117.568 30.8487 117.556 29.8828H120.418C120.442 30.2812 120.548 30.6133 120.738 30.8789C120.927 31.1445 121.186 31.3458 121.516 31.4826C121.85 31.6194 122.237 31.6878 122.675 31.6878C123.078 31.6878 123.42 31.6335 123.702 31.5249C123.987 31.4162 124.207 31.2653 124.36 31.0721C124.513 30.8789 124.591 30.6575 124.595 30.408C124.591 30.1746 124.519 29.9754 124.378 29.8104C124.237 29.6413 124.02 29.4964 123.726 29.3757C123.436 29.2509 123.066 29.1362 122.615 29.0316L121.323 28.7298C120.253 28.4843 119.409 28.0878 118.794 27.5405C118.178 26.9891 117.872 26.2446 117.876 25.3068C117.872 24.5421 118.077 23.872 118.492 23.2965C118.906 22.721 119.48 22.2723 120.212 21.9503C120.945 21.6283 121.78 21.4673 122.718 21.4673C123.676 21.4673 124.507 21.6303 125.211 21.9563C125.919 22.2783 126.469 22.7311 126.859 23.3146C127.249 23.8982 127.449 24.5743 127.457 25.343H124.595ZM134.369 24.7273V26.9006H128.519V24.7273H134.369ZM129.745 22.5057H132.697V31.0842C132.697 31.2653 132.725 31.4122 132.781 31.5249C132.842 31.6335 132.928 31.712 133.041 31.7603C133.153 31.8046 133.288 31.8267 133.445 31.8267C133.558 31.8267 133.677 31.8166 133.801 31.7965C133.93 31.7724 134.027 31.7522 134.091 31.7361L134.538 33.8672C134.397 33.9074 134.198 33.9577 133.94 34.0181C133.687 34.0785 133.383 34.1167 133.029 34.1328C132.337 34.165 131.743 34.0845 131.248 33.8913C130.757 33.6941 130.381 33.3883 130.119 32.9737C129.861 32.5592 129.737 32.038 129.745 31.4102V22.5057ZM141.858 29.9975V24.7273H144.804V34H141.991V32.2734H141.894C141.689 32.8409 141.339 33.2917 140.844 33.6257C140.353 33.9557 139.759 34.1207 139.063 34.1207C138.431 34.1207 137.875 33.9758 137.396 33.6861C136.918 33.3963 136.545 32.9918 136.28 32.4727C136.014 31.9494 135.879 31.3377 135.875 30.6374V24.7273H138.827V30.0579C138.831 30.561 138.964 30.9574 139.226 31.2472C139.487 31.5369 139.843 31.6818 140.294 31.6818C140.588 31.6818 140.852 31.6174 141.085 31.4886C141.322 31.3558 141.51 31.1646 141.646 30.9151C141.787 30.6616 141.858 30.3557 141.858 29.9975ZM150.069 34.1328C149.385 34.1328 148.763 33.9557 148.204 33.6016C147.645 33.2474 147.198 32.7161 146.864 32.0078C146.53 31.2995 146.363 30.4201 146.363 29.3697C146.363 28.279 146.536 27.3815 146.882 26.6772C147.228 25.9729 147.681 25.4517 148.24 25.1136C148.804 24.7756 149.409 24.6065 150.057 24.6065C150.544 24.6065 150.961 24.691 151.307 24.8601C151.653 25.0251 151.939 25.2384 152.164 25.5C152.39 25.7616 152.561 26.0333 152.677 26.315H152.738V21.6364H155.69V34H152.768V32.4968H152.677C152.553 32.7825 152.376 33.0502 152.146 33.2997C151.917 33.5492 151.629 33.7505 151.283 33.9034C150.941 34.0563 150.536 34.1328 150.069 34.1328ZM151.096 31.8327C151.454 31.8327 151.76 31.7321 152.013 31.5309C152.267 31.3256 152.462 31.0379 152.599 30.6676C152.736 30.2973 152.804 29.8627 152.804 29.3636C152.804 28.8565 152.736 28.4199 152.599 28.0536C152.466 27.6874 152.271 27.4057 152.013 27.2084C151.76 27.0112 151.454 26.9126 151.096 26.9126C150.73 26.9126 150.42 27.0133 150.166 27.2145C149.913 27.4157 149.719 27.6995 149.587 28.0657C149.458 28.4319 149.393 28.8646 149.393 29.3636C149.393 29.8627 149.46 30.2973 149.593 30.6676C149.725 31.0379 149.917 31.3256 150.166 31.5309C150.42 31.7321 150.73 31.8327 151.096 31.8327ZM157.557 34V24.7273H160.509V34H157.557ZM159.036 23.6467C158.621 23.6467 158.265 23.5098 157.967 23.2361C157.669 22.9584 157.521 22.6244 157.521 22.234C157.521 21.8477 157.669 21.5176 157.967 21.244C158.265 20.9663 158.621 20.8274 159.036 20.8274C159.454 20.8274 159.811 20.9663 160.104 21.244C160.402 21.5176 160.551 21.8477 160.551 22.234C160.551 22.6244 160.402 22.9584 160.104 23.2361C159.811 23.5098 159.454 23.6467 159.036 23.6467ZM166.716 34.1751C165.742 34.1751 164.905 33.9758 164.205 33.5774C163.509 33.1749 162.971 32.6155 162.593 31.8991C162.219 31.1787 162.032 30.3436 162.032 29.3938C162.032 28.44 162.219 27.6049 162.593 26.8885C162.971 26.1681 163.509 25.6087 164.205 25.2102C164.905 24.8078 165.742 24.6065 166.716 24.6065C167.69 24.6065 168.525 24.8078 169.222 25.2102C169.922 25.6087 170.459 26.1681 170.834 26.8885C171.212 27.6049 171.401 28.44 171.401 29.3938C171.401 30.3436 171.212 31.1787 170.834 31.8991C170.459 32.6155 169.922 33.1749 169.222 33.5774C168.525 33.9758 167.69 34.1751 166.716 34.1751ZM166.734 31.9474C167.089 31.9474 167.388 31.8388 167.634 31.6214C167.879 31.4041 168.067 31.1023 168.195 30.7159C168.328 30.3295 168.395 29.8828 168.395 29.3757C168.395 28.8606 168.328 28.4098 168.195 28.0234C168.067 27.6371 167.879 27.3352 167.634 27.1179C167.388 26.9006 167.089 26.7919 166.734 26.7919C166.368 26.7919 166.058 26.9006 165.805 27.1179C165.555 27.3352 165.364 27.6371 165.231 28.0234C165.102 28.4098 165.038 28.8606 165.038 29.3757C165.038 29.8828 165.102 30.3295 165.231 30.7159C165.364 31.1023 165.555 31.4041 165.805 31.6214C166.058 31.8388 166.368 31.9474 166.734 31.9474Z" fill="#D7D2E6"/>
</g>
<defs>
<filter id="filter0_d_1_50" x="54.4" y="13.4" width="123.2" height="29.2" filterUnits="userSpaceOnUse" color-interpolation-filters="sRGB">
<feFlood flood-opacity="0" result="BackgroundImageFix"/>
<feColorMatrix in="SourceAlpha" type="matrix" values="0 0 0 0 0 0 0 0 0 0 0 0 0 0 0 0 0 0 127 0" result="hardAlpha"/>
<feOffset/>
<feGaussianBlur stdDeviation="2.8"/>
<feComposite in2="hardAlpha" operator="out"/>
<feColorMatrix type="matrix" values="0 0 0 0 0 0 0 0 0 0 0 0 0 0 0 0 0 0 0.25 0"/>
<feBlend mode="normal" in2="BackgroundImageFix" result="effect1_dropShadow_1_50"/>
<feBlend mode="normal" in="SourceGraphic" in2="effect1_dropShadow_1_50" result="shape"/>
</filter>
<clipPath id="clip0_1_50">
<rect width="40" height="40" fill="white" transform="translate(12 8)"/>
</clipPath>
<clipPath id="clip1_1_50">
<rect width="40" height="40" fill="white" transform="translate(12 8)"/>
</clipPath>
<clipPath id="clip2_1_50">
<rect width="40" height="40" fill="white" transform="translate(12 8)"/>
</clipPath>
<clipPath id="clip3_1_50">
<rect width="40" height="40" fill="white" transform="translate(12 8)"/>
</clipPath>
</defs>
</svg>
