<svg width="56" height="56" viewBox="0 0 56 56" fill="none" xmlns="http://www.w3.org/2000/svg">
<rect width="56" height="56" rx="8" fill="#3B2E58"/>
<rect x="1.05" y="1.05" width="53.9" height="53.9" rx="6.95" stroke="white" stroke-opacity="0.15" stroke-width="2.1"/>
<g clip-path="url(#clip0_705_2)">
<g clip-path="url(#clip1_705_2)">
<g clip-path="url(#clip2_705_2)">
<g clip-path="url(#clip3_705_2)">
<path d="M37.305 8.105C36.6695 8.09621 36.0544 8.32983 35.585 8.75833H35.5833C35.5546 8.78226 35.5268 8.80728 35.5 8.83333L22.2133 23.5267L14.4583 17.1667L13.78 16.5833C13.546 16.3889 13.2633 16.2621 12.9625 16.2169C12.6616 16.1716 12.3541 16.2096 12.0733 16.3267C12.0666 16.3294 12.06 16.3322 12.0533 16.335L9.025 17.585C8.98139 17.6032 8.93857 17.6232 8.89667 17.645C8.87013 17.6598 8.84401 17.6754 8.81833 17.6917C8.79696 17.7034 8.77584 17.7156 8.755 17.7283C8.72778 17.7464 8.70111 17.7653 8.675 17.785C8.65808 17.798 8.64141 17.8113 8.625 17.825C8.59999 17.8443 8.57554 17.8643 8.55167 17.885C8.53122 17.9028 8.51122 17.9212 8.49167 17.94C8.47343 17.959 8.45565 17.9785 8.43833 17.9983C8.41947 18.019 8.40113 18.0401 8.38333 18.0617C8.36321 18.0856 8.34375 18.11 8.325 18.135C8.31127 18.1536 8.29794 18.1725 8.285 18.1917C8.2664 18.2189 8.24862 18.2467 8.23167 18.275C8.22016 18.2942 8.20905 18.3137 8.19833 18.3333C8.18423 18.3607 8.17089 18.3885 8.15833 18.4167C8.14661 18.4414 8.13549 18.4664 8.125 18.4917C8.11554 18.5159 8.10665 18.5404 8.09833 18.565C8.0888 18.5909 8.07991 18.617 8.07167 18.6433C8.06246 18.6736 8.05413 18.7042 8.04667 18.735C8.04065 18.7571 8.0351 18.7793 8.03 18.8017C8.02474 18.8315 8.02029 18.8616 8.01667 18.8917C8.01263 18.9194 8.0093 18.9471 8.00667 18.975C8.00253 19.021 8.0003 19.0672 8 19.1133V36.89C8.00194 37.2172 8.10017 37.5367 8.28245 37.8085C8.46472 38.0802 8.72298 38.2923 9.025 38.4183L12.0533 39.6917C12.338 39.8101 12.65 39.8473 12.9545 39.799C13.259 39.7508 13.5442 39.619 13.7783 39.4183L14.4583 38.835L22.2133 32.4767L35.5017 47.1683C35.5405 47.2057 35.5805 47.2419 35.6217 47.2767C35.6526 47.3052 35.6843 47.333 35.7167 47.36C35.7483 47.3841 35.7806 47.4074 35.8133 47.43C35.8477 47.4553 35.8827 47.4798 35.9183 47.5033C35.9539 47.5253 35.99 47.5465 36.0267 47.5667C36.0623 47.5876 36.0984 47.6076 36.135 47.6267C36.1723 47.6448 36.2101 47.6621 36.2483 47.6783C36.2868 47.696 36.3257 47.7127 36.365 47.7283C36.4052 47.7433 36.4458 47.7572 36.4867 47.77C36.5231 47.782 36.5598 47.7931 36.5967 47.8033C36.6408 47.8157 36.6853 47.8268 36.73 47.8367C36.7676 47.8453 36.8054 47.8531 36.8433 47.86C36.8849 47.8666 36.9265 47.8722 36.9683 47.8767C37.0099 47.8822 37.0516 47.8866 37.0933 47.89C37.1338 47.8927 37.1744 47.8943 37.215 47.895C37.2578 47.8961 37.3006 47.8961 37.3433 47.895C37.3867 47.8934 37.4301 47.8906 37.4733 47.8867C37.5106 47.8836 37.5479 47.8797 37.585 47.875C37.6336 47.8681 37.6819 47.8598 37.73 47.85C37.7635 47.844 37.7968 47.8373 37.83 47.83C37.8748 47.819 37.9192 47.8068 37.9633 47.7933C38.0014 47.7831 38.0392 47.772 38.0767 47.76C38.1159 47.7454 38.1548 47.7299 38.1933 47.7133C38.244 47.6944 38.294 47.6738 38.3433 47.6517L46.5833 43.69C46.8856 43.5442 47.1554 43.339 47.3767 43.0867C47.4296 43.0269 47.4797 42.9646 47.5267 42.9C47.5289 42.8961 47.5311 42.8922 47.5333 42.8883C47.5812 42.8211 47.6257 42.7516 47.6667 42.68C47.7041 42.6149 47.7386 42.5482 47.77 42.48C47.7751 42.4706 47.7801 42.4611 47.785 42.4517C47.8095 42.3925 47.8318 42.3325 47.8517 42.2717C47.8603 42.2512 47.8686 42.2307 47.8767 42.21C47.8955 42.1512 47.9122 42.0917 47.9267 42.0317C47.9319 42.0112 47.9369 41.9906 47.9417 41.97C47.953 41.9148 47.9624 41.8592 47.97 41.8033C47.9749 41.7756 47.9794 41.7479 47.9833 41.72C47.9882 41.6701 47.9915 41.6201 47.9933 41.57C47.9967 41.5256 47.999 41.4812 48 41.4367V14.57V14.565C48.0002 14.5472 48.0002 14.5294 48 14.5117C47.9986 14.4281 47.9931 14.3447 47.9833 14.2617C47.9323 13.8453 47.7774 13.4484 47.5327 13.1076C47.288 12.7669 46.9616 12.4931 46.5833 12.3117L38.3433 8.35C38.0193 8.19538 37.6657 8.11239 37.3067 8.10667L37.305 8.105ZM38 19.5333V36.4717L27.67 28.005L38 19.5333ZM13 22.29L18.165 28.0017L12.9983 33.7117L13 22.29Z" fill="#D7D2E6"/>
</g>
</g>
</g>
</g>
<defs>
<clipPath id="clip0_705_2">
<rect width="40" height="40" fill="white" transform="translate(8 8)"/>
</clipPath>
<clipPath id="clip1_705_2">
<rect width="40" height="40" fill="white" transform="translate(8 8)"/>
</clipPath>
<clipPath id="clip2_705_2">
<rect width="40" height="40" fill="white" transform="translate(8 8)"/>
</clipPath>
<clipPath id="clip3_705_2">
<rect width="40" height="40" fill="white" transform="translate(8 8)"/>
</clipPath>
</defs>
</svg>
