<svg width="141" height="56" viewBox="0 0 141 56" fill="none" xmlns="http://www.w3.org/2000/svg">
<rect width="141" height="56" rx="8" fill="#005293"/>
<rect x="1.05" y="1.05" width="138.9" height="53.9" rx="6.95" stroke="white" stroke-opacity="0.15" stroke-width="2.1"/>
<g clip-path="url(#clip0_1_50)">
<g clip-path="url(#clip1_1_50)">
<g clip-path="url(#clip2_1_50)">
<path d="M50.5833 12.3117L42.35 8.35C41.8847 8.12593 41.3613 8.05208 40.8521 8.13867C40.343 8.22527 39.8734 8.46803 39.5083 8.83333L23.7417 23.2167L16.875 18.0033C16.5652 17.7684 16.183 17.6492 15.7945 17.6666C15.4061 17.6839 15.036 17.8367 14.7483 18.0983L12.545 20.1017C12.3733 20.2577 12.2361 20.448 12.1422 20.6601C12.0482 20.8723 11.9996 21.1018 11.9994 21.3338C11.9993 21.5658 12.0476 21.7954 12.1412 22.0077C12.2349 22.22 12.3719 22.4104 12.5433 22.5667L18.4983 28L12.5433 33.4333C12.3719 33.5896 12.2349 33.78 12.1412 33.9923C12.0476 34.2046 11.9993 34.4342 11.9994 34.6662C11.9996 34.8982 12.0482 35.1277 12.1422 35.3399C12.2361 35.552 12.3733 35.7422 12.545 35.8983L14.75 37.9C15.0376 38.1617 15.4077 38.3144 15.7962 38.3318C16.1846 38.3491 16.5669 38.23 16.8767 37.995L23.7433 32.7817L39.51 47.165C39.8747 47.5304 40.344 47.7732 40.8529 47.8598C41.3618 47.9464 41.885 47.8725 42.35 47.6483L50.5867 43.6867C51.0104 43.4821 51.3679 43.1622 51.6179 42.7636C51.8679 42.3649 52.0004 41.9039 52 41.4333V14.565C52.0001 14.0941 51.8671 13.6328 51.6165 13.2341C51.3659 12.8355 51.0077 12.5157 50.5833 12.3117ZM42.0067 37.08L30.0433 28L42.0067 18.92V37.08Z" fill="#D2E6E3"/>
</g>
</g>
</g>
<g filter="url(#filter0_d_1_50)">
<path d="M63.7429 21.6364L66.5078 30.6918H66.6104L69.3753 21.6364H72.7198L68.5483 34H64.5699L60.3984 21.6364H63.7429ZM80.7338 25.343C80.6936 24.9003 80.5145 24.5562 80.1965 24.3107C79.8826 24.0612 79.4339 23.9364 78.8503 23.9364C78.4639 23.9364 78.142 23.9867 77.8844 24.0874C77.6268 24.188 77.4336 24.3268 77.3049 24.5039C77.1761 24.677 77.1097 24.8762 77.1056 25.1016C77.0976 25.2867 77.1338 25.4497 77.2143 25.5905C77.2988 25.7314 77.4196 25.8562 77.5765 25.9648C77.7375 26.0695 77.9307 26.162 78.1561 26.2425C78.3814 26.323 78.635 26.3935 78.9167 26.4538L79.9792 26.6953C80.591 26.8281 81.1303 27.0052 81.5971 27.2266C82.068 27.4479 82.4624 27.7115 82.7803 28.0174C83.1023 28.3233 83.3458 28.6754 83.5108 29.0739C83.6758 29.4723 83.7603 29.919 83.7644 30.4141C83.7603 31.1948 83.5631 31.8649 83.1727 32.4244C82.7824 32.9838 82.2209 33.4124 81.4884 33.7102C80.76 34.008 79.8806 34.157 78.8503 34.157C77.816 34.157 76.9145 34.002 76.1458 33.6921C75.3771 33.3822 74.7794 32.9113 74.3528 32.2795C73.9262 31.6476 73.7068 30.8487 73.6948 29.8828H76.5563C76.5804 30.2812 76.6871 30.6133 76.8762 30.8789C77.0654 31.1445 77.325 31.3458 77.655 31.4826C77.989 31.6194 78.3754 31.6878 78.8141 31.6878C79.2165 31.6878 79.5586 31.6335 79.8404 31.5249C80.1261 31.4162 80.3455 31.2653 80.4984 31.0721C80.6513 30.8789 80.7298 30.6575 80.7338 30.408C80.7298 30.1746 80.6574 29.9754 80.5165 29.8104C80.3756 29.6413 80.1583 29.4964 79.8645 29.3757C79.5747 29.2509 79.2045 29.1362 78.7537 29.0316L77.4618 28.7298C76.3913 28.4843 75.5481 28.0878 74.9323 27.5405C74.3166 26.9891 74.0107 26.2446 74.0147 25.3068C74.0107 24.5421 74.216 23.872 74.6305 23.2965C75.045 22.721 75.6185 22.2723 76.351 21.9503C77.0835 21.6283 77.9186 21.4673 78.8563 21.4673C79.8142 21.4673 80.6453 21.6303 81.3496 21.9563C82.0579 22.2783 82.6073 22.7311 82.9977 23.3146C83.3881 23.8982 83.5873 24.5743 83.5953 25.343H80.7338ZM96.4963 26.1158H93.4778C93.4375 25.8059 93.355 25.5262 93.2303 25.2766C93.1055 25.0271 92.9405 24.8138 92.7352 24.6367C92.53 24.4596 92.2865 24.3248 92.0048 24.2322C91.7271 24.1356 91.4192 24.0874 91.0811 24.0874C90.4815 24.0874 89.9643 24.2343 89.5296 24.5281C89.099 24.8218 88.767 25.2464 88.5335 25.8018C88.3041 26.3572 88.1894 27.0294 88.1894 27.8182C88.1894 28.6392 88.3062 29.3274 88.5396 29.8828C88.777 30.4342 89.1091 30.8507 89.5357 31.1325C89.9663 31.4102 90.4754 31.549 91.063 31.549C91.393 31.549 91.6929 31.5067 91.9625 31.4222C92.2362 31.3377 92.4757 31.215 92.6809 31.054C92.8902 30.889 93.0612 30.6897 93.1941 30.4563C93.3309 30.2189 93.4255 29.9512 93.4778 29.6534L96.4963 29.6715C96.4439 30.2189 96.285 30.7582 96.0193 31.2894C95.7577 31.8207 95.3975 32.3056 94.9387 32.7443C94.4799 33.179 93.9205 33.5251 93.2605 33.7827C92.6044 34.0402 91.8518 34.169 91.0026 34.169C89.8838 34.169 88.8817 33.9235 87.9963 33.4325C87.1149 32.9375 86.4186 32.2171 85.9075 31.2713C85.3964 30.3255 85.1408 29.1745 85.1408 27.8182C85.1408 26.4579 85.4004 25.3048 85.9196 24.359C86.4387 23.4132 87.141 22.6948 88.0264 22.2038C88.9119 21.7128 89.9039 21.4673 91.0026 21.4673C91.7512 21.4673 92.4435 21.572 93.0794 21.7812C93.7152 21.9865 94.2747 22.2883 94.7576 22.6868C95.2406 23.0812 95.633 23.5662 95.9348 24.1417C96.2367 24.7172 96.4238 25.3752 96.4963 26.1158ZM102.535 34.1751C101.561 34.1751 100.724 33.9758 100.023 33.5774C99.3271 33.1749 98.7898 32.6155 98.4115 31.8991C98.0372 31.1787 97.85 30.3436 97.85 29.3938C97.85 28.44 98.0372 27.6049 98.4115 26.8885C98.7898 26.1681 99.3271 25.6087 100.023 25.2102C100.724 24.8078 101.561 24.6065 102.535 24.6065C103.509 24.6065 104.344 24.8078 105.04 25.2102C105.74 25.6087 106.278 26.1681 106.652 26.8885C107.03 27.6049 107.219 28.44 107.219 29.3938C107.219 30.3436 107.03 31.1787 106.652 31.8991C106.278 32.6155 105.74 33.1749 105.04 33.5774C104.344 33.9758 103.509 34.1751 102.535 34.1751ZM102.553 31.9474C102.907 31.9474 103.207 31.8388 103.452 31.6214C103.698 31.4041 103.885 31.1023 104.014 30.7159C104.147 30.3295 104.213 29.8828 104.213 29.3757C104.213 28.8606 104.147 28.4098 104.014 28.0234C103.885 27.6371 103.698 27.3352 103.452 27.1179C103.207 26.9006 102.907 26.7919 102.553 26.7919C102.187 26.7919 101.877 26.9006 101.623 27.1179C101.374 27.3352 101.182 27.6371 101.05 28.0234C100.921 28.4098 100.856 28.8606 100.856 29.3757C100.856 29.8828 100.921 30.3295 101.05 30.7159C101.182 31.1023 101.374 31.4041 101.623 31.6214C101.877 31.8388 102.187 31.9474 102.553 31.9474ZM112.118 34.1328C111.434 34.1328 110.812 33.9557 110.253 33.6016C109.693 33.2474 109.247 32.7161 108.913 32.0078C108.579 31.2995 108.412 30.4201 108.412 29.3697C108.412 28.279 108.585 27.3815 108.931 26.6772C109.277 25.9729 109.73 25.4517 110.289 25.1136C110.853 24.7756 111.458 24.6065 112.106 24.6065C112.593 24.6065 113.01 24.691 113.356 24.8601C113.702 25.0251 113.988 25.2384 114.213 25.5C114.439 25.7616 114.61 26.0333 114.726 26.315H114.787V21.6364H117.739V34H114.817V32.4968H114.726C114.602 32.7825 114.424 33.0502 114.195 33.2997C113.966 33.5492 113.678 33.7505 113.332 33.9034C112.99 34.0563 112.585 34.1328 112.118 34.1328ZM113.145 31.8327C113.503 31.8327 113.809 31.7321 114.062 31.5309C114.316 31.3256 114.511 31.0379 114.648 30.6676C114.785 30.2973 114.853 29.8627 114.853 29.3636C114.853 28.8565 114.785 28.4199 114.648 28.0536C114.515 27.6874 114.32 27.4057 114.062 27.2084C113.809 27.0112 113.503 26.9126 113.145 26.9126C112.778 26.9126 112.468 27.0133 112.215 27.2145C111.961 27.4157 111.768 27.6995 111.635 28.0657C111.507 28.4319 111.442 28.8646 111.442 29.3636C111.442 29.8627 111.509 30.2973 111.641 30.6676C111.774 31.0379 111.965 31.3256 112.215 31.5309C112.468 31.7321 112.778 31.8327 113.145 31.8327ZM123.94 34.1751C122.97 34.1751 122.133 33.9839 121.429 33.6016C120.728 33.2152 120.189 32.6658 119.811 31.9535C119.437 31.2371 119.249 30.3859 119.249 29.3999C119.249 28.442 119.439 27.6049 119.817 26.8885C120.195 26.1681 120.728 25.6087 121.417 25.2102C122.105 24.8078 122.916 24.6065 123.85 24.6065C124.51 24.6065 125.113 24.7092 125.661 24.9144C126.208 25.1197 126.681 25.4235 127.079 25.826C127.478 26.2285 127.788 26.7255 128.009 27.3171C128.23 27.9047 128.341 28.5788 128.341 29.3395V30.076H120.282V28.3615H125.594C125.59 28.0476 125.516 27.7679 125.371 27.5224C125.226 27.2769 125.027 27.0857 124.773 26.9489C124.524 26.808 124.236 26.7376 123.91 26.7376C123.58 26.7376 123.284 26.812 123.023 26.9609C122.761 27.1058 122.554 27.305 122.401 27.5586C122.248 27.8081 122.167 28.0919 122.159 28.4098V30.1545C122.159 30.5328 122.234 30.8648 122.383 31.1506C122.532 31.4323 122.743 31.6516 123.016 31.8086C123.29 31.9655 123.616 32.044 123.994 32.044C124.256 32.044 124.494 32.0078 124.707 31.9354C124.92 31.8629 125.103 31.7563 125.256 31.6154C125.409 31.4745 125.524 31.3015 125.6 31.0962L128.311 31.1747C128.198 31.7824 127.951 32.3117 127.568 32.7624C127.19 33.2092 126.693 33.5573 126.077 33.8068C125.461 34.0523 124.749 34.1751 123.94 34.1751Z" fill="#D2E6E3"/>
</g>
<defs>
<filter id="filter0_d_1_50" x="54.4" y="13.4" width="80.2" height="29.2" filterUnits="userSpaceOnUse" color-interpolation-filters="sRGB">
<feFlood flood-opacity="0" result="BackgroundImageFix"/>
<feColorMatrix in="SourceAlpha" type="matrix" values="0 0 0 0 0 0 0 0 0 0 0 0 0 0 0 0 0 0 127 0" result="hardAlpha"/>
<feOffset/>
<feGaussianBlur stdDeviation="2.8"/>
<feComposite in2="hardAlpha" operator="out"/>
<feColorMatrix type="matrix" values="0 0 0 0 0 0 0 0 0 0 0 0 0 0 0 0 0 0 0.25 0"/>
<feBlend mode="normal" in2="BackgroundImageFix" result="effect1_dropShadow_1_50"/>
<feBlend mode="normal" in="SourceGraphic" in2="effect1_dropShadow_1_50" result="shape"/>
</filter>
<clipPath id="clip0_1_50">
<rect width="40" height="40" fill="white" transform="translate(12 8)"/>
</clipPath>
<clipPath id="clip1_1_50">
<rect width="40" height="40" fill="white" transform="translate(12 8)"/>
</clipPath>
<clipPath id="clip2_1_50">
<rect width="40" height="40" fill="white" transform="translate(12 8)"/>
</clipPath>
</defs>
</svg>
