<svg width="56" height="56" viewBox="0 0 56 56" fill="none" xmlns="http://www.w3.org/2000/svg">
<rect width="56" height="56" rx="8" fill="#005293"/>
<rect x="1.05" y="1.05" width="53.9" height="53.9" rx="6.95" stroke="white" stroke-opacity="0.15" stroke-width="2.1"/>
<g clip-path="url(#clip0_603_2)">
<g clip-path="url(#clip1_603_2)">
<g clip-path="url(#clip2_603_2)">
<path d="M46.5833 12.3117L38.35 8.35C37.8847 8.12593 37.3613 8.05208 36.8521 8.13867C36.343 8.22527 35.8734 8.46803 35.5083 8.83333L19.7417 23.2167L12.875 18.0033C12.5652 17.7684 12.1829 17.6492 11.7945 17.6666C11.4061 17.6839 11.036 17.8367 10.7483 18.0983L8.54501 20.1017C8.37331 20.2577 8.23609 20.448 8.14215 20.6601C8.0482 20.8723 7.99959 21.1018 7.99944 21.3338C7.99928 21.5658 8.04758 21.7954 8.14124 22.0077C8.2349 22.22 8.37185 22.4104 8.54334 22.5667L14.4983 28L8.54334 33.4333C8.37185 33.5896 8.2349 33.78 8.14124 33.9923C8.04758 34.2046 7.99928 34.4342 7.99944 34.6662C7.99959 34.8982 8.0482 35.1277 8.14215 35.3399C8.23609 35.552 8.37331 35.7422 8.54501 35.8983L10.75 37.9C11.0376 38.1617 11.4077 38.3144 11.7962 38.3318C12.1846 38.3491 12.5669 38.23 12.8767 37.995L19.7433 32.7817L35.51 47.165C35.8747 47.5304 36.344 47.7732 36.8529 47.8598C37.3618 47.9464 37.885 47.8725 38.35 47.6483L46.5867 43.6867C47.0104 43.4821 47.3679 43.1622 47.6179 42.7636C47.8679 42.3649 48.0004 41.9039 48 41.4333V14.565C48.0001 14.0941 47.8671 13.6328 47.6165 13.2341C47.3658 12.8355 47.0077 12.5157 46.5833 12.3117ZM38.0067 37.08L26.0433 28L38.0067 18.92V37.08Z" fill="#D2E6E3"/>
</g>
</g>
</g>
<defs>
<clipPath id="clip0_603_2">
<rect width="40" height="40" fill="white" transform="translate(8 8)"/>
</clipPath>
<clipPath id="clip1_603_2">
<rect width="40" height="40" fill="white" transform="translate(8 8)"/>
</clipPath>
<clipPath id="clip2_603_2">
<rect width="40" height="40" fill="white" transform="translate(8 8)"/>
</clipPath>
</defs>
</svg>
