<svg width="152" height="56" viewBox="0 0 152 56" fill="none" xmlns="http://www.w3.org/2000/svg">
<rect width="152" height="56" rx="8" fill="#0078D4"/>
<rect x="1.05" y="1.05" width="149.9" height="53.9" rx="6.95" stroke="white" stroke-opacity="0.15" stroke-width="2.1"/>
<g clip-path="url(#clip0_1_50)">
<g clip-path="url(#clip1_1_50)">
<g clip-path="url(#clip2_1_50)">
<g clip-path="url(#clip3_1_50)">
<g clip-path="url(#clip4_1_50)">
<path d="M12 8H30.9617V26.9533H12V8ZM33.0383 8H52V26.9533H33.0383V8ZM12 29.0383H30.9617V48H12V29.0383ZM33.0383 29.0383H52V48H33.0383" fill="#AFDCFF"/>
</g>
</g>
</g>
</g>
</g>
<g filter="url(#filter0_d_1_50)">
<path d="M63.8998 34L60.3018 21.6364H63.604L65.4695 29.7379H65.5721L67.7031 21.6364H70.3956L72.5266 29.756H72.6293L74.5007 21.6364H77.7969L74.2049 34H71.3253L69.0976 26.5021H69.0011L66.7734 34H63.8998ZM79.0314 34V24.7273H81.9835V34H79.0314ZM80.5105 23.6467C80.0959 23.6467 79.7397 23.5098 79.4419 23.2361C79.1441 22.9584 78.9952 22.6244 78.9952 22.234C78.9952 21.8477 79.1441 21.5176 79.4419 21.244C79.7397 20.9663 80.0959 20.8274 80.5105 20.8274C80.929 20.8274 81.2852 20.9663 81.579 21.244C81.8768 21.5176 82.0257 21.8477 82.0257 22.234C82.0257 22.6244 81.8768 22.9584 81.579 23.2361C81.2852 23.5098 80.929 23.6467 80.5105 23.6467ZM86.8145 28.7116V34H83.8625V24.7273H86.6696V26.4297H86.7723C86.9775 25.8622 87.3277 25.4175 87.8227 25.0955C88.3177 24.7695 88.9073 24.6065 89.5915 24.6065C90.2435 24.6065 90.809 24.7534 91.2879 25.0472C91.7708 25.337 92.1451 25.7435 92.4108 26.2667C92.6804 26.7859 92.8132 27.3936 92.8092 28.0898V34H89.8571V28.6694C89.8612 28.1542 89.7304 27.7518 89.4647 27.462C89.2031 27.1722 88.8389 27.0273 88.3721 27.0273C88.0622 27.0273 87.7885 27.0958 87.551 27.2326C87.3176 27.3654 87.1365 27.5566 87.0077 27.8061C86.8829 28.0556 86.8186 28.3575 86.8145 28.7116ZM98.0236 34.1328C97.3394 34.1328 96.7176 33.9557 96.1582 33.6016C95.5988 33.2474 95.152 32.7161 94.818 32.0078C94.4839 31.2995 94.3169 30.4201 94.3169 29.3697C94.3169 28.279 94.49 27.3815 94.8361 26.6772C95.1822 25.9729 95.635 25.4517 96.1944 25.1136C96.7579 24.7756 97.3636 24.6065 98.0115 24.6065C98.4985 24.6065 98.915 24.691 99.2612 24.8601C99.6073 25.0251 99.893 25.2384 100.118 25.5C100.344 25.7616 100.515 26.0333 100.632 26.315H100.692V21.6364H103.644V34H100.722V32.4968H100.632C100.507 32.7825 100.33 33.0502 100.1 33.2997C99.8709 33.5492 99.5831 33.7505 99.237 33.9034C98.8949 34.0563 98.4905 34.1328 98.0236 34.1328ZM99.0499 31.8327C99.4081 31.8327 99.7139 31.7321 99.9675 31.5309C100.221 31.3256 100.416 31.0379 100.553 30.6676C100.69 30.2973 100.758 29.8627 100.758 29.3636C100.758 28.8565 100.69 28.4199 100.553 28.0536C100.42 27.6874 100.225 27.4057 99.9675 27.2084C99.7139 27.0112 99.4081 26.9126 99.0499 26.9126C98.6836 26.9126 98.3737 27.0133 98.1202 27.2145C97.8666 27.4157 97.6735 27.6995 97.5406 28.0657C97.4119 28.4319 97.3475 28.8646 97.3475 29.3636C97.3475 29.8627 97.4139 30.2973 97.5467 30.6676C97.6795 31.0379 97.8707 31.3256 98.1202 31.5309C98.3737 31.7321 98.6836 31.8327 99.0499 31.8327ZM109.839 34.1751C108.865 34.1751 108.028 33.9758 107.328 33.5774C106.632 33.1749 106.094 32.6155 105.716 31.8991C105.342 31.1787 105.155 30.3436 105.155 29.3938C105.155 28.44 105.342 27.6049 105.716 26.8885C106.094 26.1681 106.632 25.6087 107.328 25.2102C108.028 24.8078 108.865 24.6065 109.839 24.6065C110.813 24.6065 111.648 24.8078 112.345 25.2102C113.045 25.6087 113.582 26.1681 113.957 26.8885C114.335 27.6049 114.524 28.44 114.524 29.3938C114.524 30.3436 114.335 31.1787 113.957 31.8991C113.582 32.6155 113.045 33.1749 112.345 33.5774C111.648 33.9758 110.813 34.1751 109.839 34.1751ZM109.857 31.9474C110.212 31.9474 110.511 31.8388 110.757 31.6214C111.002 31.4041 111.19 31.1023 111.318 30.7159C111.451 30.3295 111.518 29.8828 111.518 29.3757C111.518 28.8606 111.451 28.4098 111.318 28.0234C111.19 27.6371 111.002 27.3352 110.757 27.1179C110.511 26.9006 110.212 26.7919 109.857 26.7919C109.491 26.7919 109.181 26.9006 108.928 27.1179C108.678 27.3352 108.487 27.6371 108.354 28.0234C108.226 28.4098 108.161 28.8606 108.161 29.3757C108.161 29.8828 108.226 30.3295 108.354 30.7159C108.487 31.1023 108.678 31.4041 108.928 31.6214C109.181 31.8388 109.491 31.9474 109.857 31.9474ZM117.57 34L115.155 24.7273H118.119L119.369 30.6676H119.447L120.787 24.7273H123.679L125.055 30.6253H125.134L126.347 24.7273H129.311L126.891 34H123.733L122.285 28.5969H122.182L120.733 34H117.57ZM138.592 27.5586L135.881 27.631C135.853 27.4379 135.777 27.2668 135.652 27.1179C135.527 26.965 135.364 26.8462 135.163 26.7617C134.966 26.6732 134.736 26.6289 134.475 26.6289C134.132 26.6289 133.841 26.6973 133.599 26.8342C133.362 26.971 133.245 27.1561 133.249 27.3896C133.245 27.5707 133.318 27.7276 133.466 27.8604C133.619 27.9932 133.891 28.0999 134.281 28.1804L136.068 28.5185C136.994 28.6955 137.682 28.9893 138.133 29.3999C138.588 29.8104 138.817 30.3537 138.821 31.0298C138.817 31.6657 138.628 32.2191 138.254 32.69C137.883 33.1609 137.376 33.5271 136.732 33.7887C136.088 34.0463 135.352 34.1751 134.523 34.1751C133.199 34.1751 132.154 33.9034 131.39 33.3601C130.629 32.8127 130.194 32.0802 130.086 31.1626L133.002 31.0902C133.066 31.4283 133.233 31.6858 133.503 31.8629C133.772 32.04 134.116 32.1285 134.535 32.1285C134.913 32.1285 135.221 32.0581 135.459 31.9173C135.696 31.7764 135.817 31.5892 135.821 31.3558C135.817 31.1465 135.724 30.9795 135.543 30.8548C135.362 30.726 135.078 30.6253 134.692 30.5529L133.074 30.245C132.144 30.076 131.452 29.7641 130.997 29.3093C130.543 28.8505 130.317 28.2669 130.321 27.5586C130.317 26.9388 130.482 26.4096 130.816 25.9709C131.15 25.5282 131.625 25.1901 132.241 24.9567C132.857 24.7232 133.583 24.6065 134.42 24.6065C135.676 24.6065 136.666 24.8701 137.39 25.3974C138.115 25.9206 138.515 26.641 138.592 27.5586Z" fill="#AFDCFF"/>
</g>
<defs>
<filter id="filter0_d_1_50" x="54.4" y="13.4" width="91.2" height="29.2" filterUnits="userSpaceOnUse" color-interpolation-filters="sRGB">
<feFlood flood-opacity="0" result="BackgroundImageFix"/>
<feColorMatrix in="SourceAlpha" type="matrix" values="0 0 0 0 0 0 0 0 0 0 0 0 0 0 0 0 0 0 127 0" result="hardAlpha"/>
<feOffset/>
<feGaussianBlur stdDeviation="2.8"/>
<feComposite in2="hardAlpha" operator="out"/>
<feColorMatrix type="matrix" values="0 0 0 0 0 0 0 0 0 0 0 0 0 0 0 0 0 0 0.25 0"/>
<feBlend mode="normal" in2="BackgroundImageFix" result="effect1_dropShadow_1_50"/>
<feBlend mode="normal" in="SourceGraphic" in2="effect1_dropShadow_1_50" result="shape"/>
</filter>
<clipPath id="clip0_1_50">
<rect width="40" height="40" fill="white" transform="translate(12 8)"/>
</clipPath>
<clipPath id="clip1_1_50">
<rect width="40" height="40" fill="white" transform="translate(12 8)"/>
</clipPath>
<clipPath id="clip2_1_50">
<rect width="40" height="40" fill="white" transform="translate(12 8)"/>
</clipPath>
<clipPath id="clip3_1_50">
<rect width="40" height="40" fill="white" transform="translate(12 8)"/>
</clipPath>
<clipPath id="clip4_1_50">
<rect width="40" height="40" fill="white" transform="translate(12 8)"/>
</clipPath>
</defs>
</svg>
