<svg width="142" height="56" viewBox="0 0 142 56" fill="none" xmlns="http://www.w3.org/2000/svg" xmlns:xlink="http://www.w3.org/1999/xlink">
<rect width="142" height="56" rx="8" fill="url(#paint0_linear_1_50)"/>
<rect x="12" y="8" width="40" height="40" fill="url(#pattern0)"/>
<g filter="url(#filter0_d_1_50)">
<path id="Imported Path"
        fill="none" stroke="black" stroke-width="1"
        d="M 134.00,1.05
           C 137.84,1.05 140.95,4.16 140.95,8.00
             140.95,8.00 140.95,48.00 140.95,48.00
             140.95,51.84 137.84,54.95 134.00,54.95
             134.00,54.95 8.00,54.95 8.00,54.95
             4.16,54.95 1.05,51.84 1.05,48.00
             1.05,48.00 1.05,48.00 1.05,48.00
             1.05,48.00 1.05,8.00 1.05,8.00
             1.05,4.16 4.16,1.05 8.00,1.05
             8.00,1.05 134.00,1.05 134.00,1.05 Z
           M 72.16,35.62
           C 72.16,35.62 69.14,35.62 69.14,35.62
             69.10,35.31 69.02,35.03 68.89,34.78
             68.77,34.53 68.60,34.31 68.40,34.14
             68.19,33.96 67.95,33.82 67.67,33.73
             67.39,33.64 67.08,33.59 66.74,33.59
             66.14,33.59 65.63,33.73 65.19,34.03
             64.76,34.32 64.43,34.75 64.20,35.30
             63.97,35.86 63.85,36.53 63.85,37.32
             63.85,38.14 63.97,38.83 64.20,39.38
             64.44,39.93 64.77,40.35 65.20,40.63
             65.63,40.91 66.14,41.05 66.73,41.05
             67.06,41.05 67.35,41.01 67.62,40.92
             67.90,40.84 68.14,40.72 68.34,40.55
             68.55,40.39 68.72,40.19 68.86,39.96
             68.99,39.72 69.09,39.45 69.14,39.15
             69.14,39.15 72.16,39.17 72.16,39.17
             72.11,39.72 71.95,40.26 71.68,40.79
             71.42,41.32 71.06,41.81 70.60,42.24
             70.14,42.68 69.58,43.03 68.92,43.28
             68.27,43.54 67.51,43.67 66.66,43.67
             65.55,43.67 64.54,43.42 63.66,42.93
             62.78,42.44 62.08,41.72 61.57,40.77
             61.06,39.83 60.80,38.67 60.80,37.32
             60.80,35.96 61.06,34.80 61.58,33.86
             62.10,32.91 62.80,32.19 63.69,31.70
             64.57,31.21 65.57,30.97 66.66,30.97
             67.41,30.97 68.11,31.07 68.74,31.28
             69.38,31.49 69.94,31.79 70.42,32.19
             70.90,32.58 71.30,33.07 71.60,33.64
             71.90,34.22 72.09,34.88 72.16,35.62 Z
           M 75.82,46.98
           C 75.47,46.98 75.13,46.95 74.82,46.89
             74.51,46.84 74.24,46.77 74.01,46.68
             74.01,46.68 74.66,44.54 74.66,44.54
             74.95,44.63 75.22,44.69 75.45,44.71
             75.69,44.72 75.89,44.69 76.06,44.59
             76.23,44.50 76.36,44.35 76.46,44.12
             76.46,44.12 76.57,43.84 76.57,43.84
             76.57,43.84 73.28,34.23 73.28,34.23
             73.28,34.23 76.37,34.23 76.37,34.23
             76.37,34.23 78.07,40.84 78.07,40.84
             78.07,40.84 78.17,40.84 78.17,40.84
             78.17,40.84 79.90,34.23 79.90,34.23
             79.90,34.23 83.01,34.23 83.01,34.23
             83.01,34.23 79.52,44.39 79.52,44.39
             79.35,44.89 79.11,45.34 78.80,45.73
             78.49,46.12 78.10,46.42 77.61,46.65
             77.13,46.87 76.53,46.98 75.82,46.98 Z
           M 86.51,43.66
           C 85.92,43.66 85.39,43.56 84.93,43.36
             84.48,43.16 84.12,42.86 83.85,42.46
             83.59,42.05 83.46,41.54 83.46,40.93
             83.46,40.41 83.55,39.98 83.73,39.62
             83.91,39.27 84.16,38.98 84.48,38.76
             84.80,38.54 85.17,38.37 85.58,38.26
             85.99,38.14 86.44,38.06 86.91,38.02
             87.44,37.98 87.86,37.93 88.18,37.87
             88.50,37.82 88.74,37.74 88.88,37.64
             89.03,37.53 89.11,37.39 89.11,37.20
             89.11,37.20 89.11,37.17 89.11,37.17
             89.11,36.86 89.00,36.62 88.79,36.45
             88.57,36.28 88.28,36.20 87.92,36.20
             87.53,36.20 87.22,36.28 86.98,36.45
             86.74,36.62 86.59,36.85 86.53,37.15
             86.53,37.15 83.81,37.05 83.81,37.05
             83.89,36.49 84.09,35.99 84.43,35.54
             84.77,35.10 85.23,34.75 85.82,34.49
             86.41,34.24 87.12,34.11 87.95,34.11
             88.54,34.11 89.08,34.18 89.58,34.32
             90.08,34.45 90.52,34.66 90.89,34.92
             91.26,35.18 91.54,35.51 91.74,35.89
             91.95,36.27 92.05,36.71 92.05,37.20
             92.05,37.20 92.05,43.50 92.05,43.50
             92.05,43.50 89.27,43.50 89.27,43.50
             89.27,43.50 89.27,42.21 89.27,42.21
             89.27,42.21 89.20,42.21 89.20,42.21
             89.04,42.52 88.83,42.79 88.57,43.01
             88.31,43.22 88.01,43.39 87.67,43.49
             87.33,43.60 86.94,43.66 86.51,43.66 Z
           M 87.42,41.73
           C 87.74,41.73 88.02,41.66 88.28,41.53
             88.54,41.40 88.74,41.23 88.89,41.00
             89.05,40.77 89.12,40.51 89.12,40.20
             89.12,40.20 89.12,39.32 89.12,39.32
             89.04,39.37 88.94,39.41 88.82,39.44
             88.70,39.48 88.57,39.51 88.43,39.55
             88.29,39.58 88.14,39.61 87.99,39.63
             87.85,39.65 87.70,39.68 87.57,39.70
             87.29,39.74 87.05,39.81 86.85,39.90
             86.66,39.99 86.51,40.12 86.41,40.26
             86.31,40.41 86.26,40.58 86.26,40.78
             86.26,41.09 86.36,41.32 86.58,41.48
             86.80,41.64 87.08,41.73 87.42,41.73 Z
           M 96.81,38.21
           C 96.81,38.21 96.81,43.50 96.81,43.50
             96.81,43.50 93.86,43.50 93.86,43.50
             93.86,43.50 93.86,34.23 93.86,34.23
             93.86,34.23 96.66,34.23 96.66,34.23
             96.66,34.23 96.66,35.93 96.66,35.93
             96.66,35.93 96.77,35.93 96.77,35.93
             96.97,35.36 97.32,34.92 97.82,34.60
             98.31,34.27 98.90,34.11 99.59,34.11
             100.24,34.11 100.80,34.25 101.28,34.55
             101.77,34.84 102.14,35.24 102.41,35.77
             102.67,36.29 102.81,36.89 102.80,37.59
             102.80,37.59 102.80,43.50 102.80,43.50
             102.80,43.50 99.85,43.50 99.85,43.50
             99.85,43.50 99.85,38.17 99.85,38.17
             99.86,37.65 99.72,37.25 99.46,36.96
             99.20,36.67 98.83,36.53 98.37,36.53
             98.06,36.53 97.78,36.60 97.55,36.73
             97.31,36.87 97.13,37.06 97.00,37.31
             96.88,37.56 96.81,37.86 96.81,38.21 Z
           M 104.63,43.50
           C 104.63,43.50 104.63,31.14 104.63,31.14
             104.63,31.14 107.62,31.14 107.62,31.14
             107.62,31.14 107.62,41.07 107.62,41.07
             107.62,41.07 112.76,41.07 112.76,41.07
             112.76,41.07 112.76,43.50 112.76,43.50
             112.76,43.50 104.63,43.50 104.63,43.50 Z
           M 114.31,43.50
           C 114.31,43.50 114.31,34.23 114.31,34.23
             114.31,34.23 117.26,34.23 117.26,34.23
             117.26,34.23 117.26,43.50 117.26,43.50
             117.26,43.50 114.31,43.50 114.31,43.50 Z
           M 115.79,33.15
           C 115.37,33.15 115.02,33.01 114.72,32.74
             114.42,32.46 114.27,32.12 114.27,31.73
             114.27,31.35 114.42,31.02 114.72,30.74
             115.02,30.47 115.37,30.33 115.79,30.33
             116.21,30.33 116.56,30.47 116.86,30.74
             117.15,31.02 117.30,31.35 117.30,31.73
             117.30,32.12 117.15,32.46 116.86,32.74
             116.56,33.01 116.21,33.15 115.79,33.15 Z
           M 119.14,43.50
           C 119.14,43.50 119.14,31.14 119.14,31.14
             119.14,31.14 122.09,31.14 122.09,31.14
             122.09,31.14 122.09,35.81 122.09,35.81
             122.09,35.81 122.15,35.81 122.15,35.81
             122.27,35.53 122.45,35.26 122.67,35.00
             122.89,34.74 123.18,34.53 123.52,34.36
             123.87,34.19 124.29,34.11 124.78,34.11
             125.42,34.11 126.02,34.28 126.58,34.61
             127.15,34.95 127.60,35.47 127.95,36.18
             128.29,36.88 128.47,37.78 128.47,38.87
             128.47,39.92 128.30,40.80 127.97,41.51
             127.64,42.22 127.19,42.75 126.63,43.10
             126.07,43.46 125.45,43.63 124.76,43.63
             124.29,43.63 123.89,43.56 123.55,43.40
             123.21,43.25 122.92,43.05 122.68,42.80
             122.45,42.55 122.28,42.28 122.15,42.00
             122.15,42.00 122.06,42.00 122.06,42.00
             122.06,42.00 122.06,43.50 122.06,43.50
             122.06,43.50 119.14,43.50 119.14,43.50 Z
           M 122.03,38.86
           C 122.03,39.36 122.10,39.80 122.23,40.17
             122.37,40.54 122.56,40.83 122.82,41.03
             123.07,41.23 123.38,41.33 123.74,41.33
             124.10,41.33 124.41,41.23 124.66,41.03
             124.92,40.83 125.11,40.54 125.24,40.17
             125.37,39.80 125.44,39.36 125.44,38.86
             125.44,38.36 125.37,37.93 125.24,37.57
             125.11,37.20 124.92,36.92 124.66,36.71
             124.42,36.51 124.11,36.41 123.74,36.41
             123.38,36.41 123.07,36.51 122.82,36.71
             122.56,36.91 122.37,37.19 122.23,37.55
             122.10,37.92 122.03,38.36 122.03,38.86 Z
           M 68.76,12.86
           C 68.76,12.86 70.52,12.86 70.52,12.86
             70.52,12.86 70.52,20.52 70.52,20.52
             70.52,21.33 70.33,22.05 69.95,22.68
             69.57,23.31 69.03,23.80 68.34,24.16
             67.64,24.52 66.83,24.69 65.90,24.69
             64.97,24.69 64.16,24.52 63.47,24.16
             62.77,23.80 62.23,23.31 61.85,22.68
             61.47,22.05 61.28,21.33 61.28,20.52
             61.28,20.52 61.28,12.86 61.28,12.86
             61.28,12.86 63.03,12.86 63.03,12.86
             63.03,12.86 63.03,20.38 63.03,20.38
             63.03,20.90 63.15,21.37 63.38,21.78
             63.62,22.19 63.95,22.51 64.37,22.74
             64.80,22.98 65.31,23.09 65.90,23.09
             66.49,23.09 67.00,22.98 67.43,22.74
             67.86,22.51 68.19,22.19 68.41,21.78
             68.65,21.37 68.76,20.90 68.76,20.38
             68.76,20.38 68.76,12.86 68.76,12.86 Z
           M 79.48,17.90
           C 79.48,17.90 77.94,18.18 77.94,18.18
             77.87,17.98 77.77,17.79 77.63,17.61
             77.50,17.44 77.31,17.29 77.08,17.18
             76.84,17.06 76.55,17.01 76.19,17.01
             75.71,17.01 75.31,17.11 74.99,17.33
             74.67,17.54 74.51,17.82 74.51,18.15
             74.51,18.45 74.61,18.68 74.83,18.86
             75.05,19.04 75.40,19.18 75.88,19.30
             75.88,19.30 77.26,19.61 77.26,19.61
             78.07,19.80 78.66,20.09 79.06,20.47
             79.45,20.86 79.65,21.36 79.65,21.98
             79.65,22.50 79.50,22.97 79.19,23.38
             78.90,23.78 78.48,24.10 77.94,24.33
             77.40,24.56 76.79,24.68 76.08,24.68
             75.10,24.68 74.31,24.47 73.69,24.05
             73.07,23.63 72.69,23.03 72.55,22.26
             72.55,22.26 74.19,22.01 74.19,22.01
             74.30,22.44 74.51,22.76 74.83,22.98
             75.14,23.20 75.56,23.31 76.07,23.31
             76.63,23.31 77.07,23.19 77.40,22.96
             77.74,22.73 77.90,22.44 77.90,22.10
             77.90,21.83 77.80,21.60 77.60,21.41
             77.40,21.23 77.09,21.09 76.67,20.99
             76.67,20.99 75.19,20.67 75.19,20.67
             74.38,20.48 73.78,20.19 73.39,19.78
             73.00,19.38 72.81,18.87 72.81,18.24
             72.81,17.73 72.95,17.28 73.24,16.89
             73.53,16.51 73.93,16.20 74.43,15.99
             74.94,15.77 75.52,15.66 76.18,15.66
             77.12,15.66 77.86,15.86 78.40,16.27
             78.95,16.68 79.30,17.22 79.48,17.90 Z
           M 85.28,24.68
           C 84.42,24.68 83.68,24.49 83.06,24.12
             82.44,23.75 81.96,23.23 81.62,22.56
             81.29,21.89 81.12,21.10 81.12,20.19
             81.12,19.30 81.29,18.51 81.62,17.83
             81.96,17.15 82.43,16.62 83.03,16.23
             83.64,15.85 84.35,15.66 85.16,15.66
             85.65,15.66 86.13,15.74 86.59,15.90
             87.05,16.07 87.47,16.32 87.84,16.67
             88.20,17.02 88.49,17.47 88.70,18.03
             88.92,18.58 89.02,19.25 89.02,20.05
             89.02,20.05 89.02,20.65 89.02,20.65
             89.02,20.65 82.09,20.65 82.09,20.65
             82.09,20.65 82.09,19.38 82.09,19.38
             82.09,19.38 87.36,19.38 87.36,19.38
             87.36,18.93 87.27,18.53 87.09,18.19
             86.90,17.84 86.65,17.56 86.32,17.36
             85.99,17.16 85.61,17.06 85.17,17.06
             84.69,17.06 84.28,17.18 83.92,17.41
             83.57,17.65 83.30,17.95 83.10,18.32
             82.91,18.70 82.82,19.10 82.82,19.53
             82.82,19.53 82.82,20.53 82.82,20.53
             82.82,21.11 82.92,21.61 83.12,22.02
             83.33,22.43 83.62,22.74 83.99,22.95
             84.37,23.17 84.80,23.27 85.30,23.27
             85.62,23.27 85.91,23.23 86.18,23.14
             86.44,23.04 86.67,22.90 86.86,22.72
             87.06,22.53 87.20,22.30 87.31,22.03
             87.31,22.03 88.91,22.32 88.91,22.32
             88.79,22.79 88.55,23.21 88.22,23.56
             87.89,23.91 87.48,24.19 86.98,24.39
             86.48,24.58 85.91,24.68 85.28,24.68 Z
           M 97.45,17.90
           C 97.45,17.90 95.91,18.18 95.91,18.18
             95.84,17.98 95.74,17.79 95.60,17.61
             95.46,17.44 95.28,17.29 95.04,17.18
             94.81,17.06 94.52,17.01 94.16,17.01
             93.68,17.01 93.28,17.11 92.96,17.33
             92.64,17.54 92.48,17.82 92.48,18.15
             92.48,18.45 92.58,18.68 92.80,18.86
             93.02,19.04 93.36,19.18 93.85,19.30
             93.85,19.30 95.23,19.61 95.23,19.61
             96.03,19.80 96.63,20.09 97.03,20.47
             97.42,20.86 97.62,21.36 97.62,21.98
             97.62,22.50 97.47,22.97 97.16,23.38
             96.86,23.78 96.45,24.10 95.91,24.33
             95.37,24.56 94.75,24.68 94.05,24.68
             93.07,24.68 92.28,24.47 91.66,24.05
             91.04,23.63 90.66,23.03 90.52,22.26
             90.52,22.26 92.16,22.01 92.16,22.01
             92.27,22.44 92.48,22.76 92.79,22.98
             93.11,23.20 93.53,23.31 94.04,23.31
             94.60,23.31 95.04,23.19 95.37,22.96
             95.71,22.73 95.87,22.44 95.87,22.10
             95.87,21.83 95.77,21.60 95.57,21.41
             95.37,21.23 95.06,21.09 94.64,20.99
             94.64,20.99 93.16,20.67 93.16,20.67
             92.35,20.48 91.75,20.19 91.36,19.78
             90.97,19.38 90.78,18.87 90.78,18.24
             90.78,17.73 90.92,17.28 91.21,16.89
             91.50,16.51 91.89,16.20 92.40,15.99
             92.91,15.77 93.49,15.66 94.15,15.66
             95.09,15.66 95.83,15.86 96.37,16.27
             96.92,16.68 97.27,17.22 97.45,17.90 Z
           M 107.79,15.77
           C 107.79,15.77 107.79,17.14 107.79,17.14
             107.79,17.14 103.03,17.14 103.03,17.14
             103.03,17.14 103.03,15.77 103.03,15.77
             103.03,15.77 107.79,15.77 107.79,15.77 Z
           M 104.30,13.68
           C 104.30,13.68 106.00,13.68 106.00,13.68
             106.00,13.68 106.00,21.94 106.00,21.94
             106.00,22.27 106.05,22.52 106.15,22.68
             106.25,22.84 106.38,22.96 106.53,23.02
             106.69,23.07 106.86,23.10 107.05,23.10
             107.19,23.10 107.30,23.09 107.41,23.07
             107.51,23.05 107.59,23.04 107.65,23.03
             107.65,23.03 107.95,24.43 107.95,24.43
             107.85,24.47 107.71,24.51 107.53,24.55
             107.35,24.59 107.12,24.61 106.85,24.61
             106.40,24.62 105.99,24.54 105.60,24.38
             105.21,24.21 104.90,23.95 104.66,23.60
             104.42,23.25 104.30,22.82 104.30,22.29
             104.30,22.29 104.30,13.68 104.30,13.68 Z
           M 111.56,19.32
           C 111.56,19.32 111.56,24.50 111.56,24.50
             111.56,24.50 109.86,24.50 109.86,24.50
             109.86,24.50 109.86,12.86 109.86,12.86
             109.86,12.86 111.54,12.86 111.54,12.86
             111.54,12.86 111.54,17.19 111.54,17.19
             111.54,17.19 111.64,17.19 111.64,17.19
             111.85,16.72 112.16,16.35 112.58,16.07
             113.00,15.80 113.55,15.66 114.23,15.66
             114.83,15.66 115.35,15.78 115.80,16.03
             116.25,16.27 116.60,16.64 116.84,17.13
             117.09,17.62 117.22,18.22 117.22,18.95
             117.22,18.95 117.22,24.50 117.22,24.50
             117.22,24.50 115.52,24.50 115.52,24.50
             115.52,24.50 115.52,19.15 115.52,19.15
             115.52,18.51 115.35,18.02 115.03,17.66
             114.70,17.31 114.24,17.13 113.65,17.13
             113.25,17.13 112.89,17.22 112.57,17.39
             112.26,17.56 112.01,17.81 111.83,18.14
             111.65,18.46 111.56,18.86 111.56,19.32 Z
           M 123.25,24.68
           C 122.39,24.68 121.65,24.49 121.03,24.12
             120.41,23.75 119.93,23.23 119.59,22.56
             119.26,21.89 119.09,21.10 119.09,20.19
             119.09,19.30 119.26,18.51 119.59,17.83
             119.93,17.15 120.40,16.62 121.00,16.23
             121.61,15.85 122.32,15.66 123.13,15.66
             123.62,15.66 124.10,15.74 124.56,15.90
             125.02,16.07 125.44,16.32 125.80,16.67
             126.17,17.02 126.46,17.47 126.67,18.03
             126.88,18.58 126.99,19.25 126.99,20.05
             126.99,20.05 126.99,20.65 126.99,20.65
             126.99,20.65 120.05,20.65 120.05,20.65
             120.05,20.65 120.05,19.38 120.05,19.38
             120.05,19.38 125.33,19.38 125.33,19.38
             125.33,18.93 125.24,18.53 125.05,18.19
             124.87,17.84 124.62,17.56 124.29,17.36
             123.96,17.16 123.58,17.06 123.14,17.06
             122.66,17.06 122.25,17.18 121.89,17.41
             121.54,17.65 121.26,17.95 121.07,18.32
             120.88,18.70 120.79,19.10 120.79,19.53
             120.79,19.53 120.79,20.53 120.79,20.53
             120.79,21.11 120.89,21.61 121.09,22.02
             121.30,22.43 121.59,22.74 121.96,22.95
             122.33,23.17 122.77,23.27 123.26,23.27
             123.59,23.27 123.88,23.23 124.14,23.14
             124.41,23.04 124.64,22.90 124.83,22.72
             125.03,22.53 125.17,22.30 125.28,22.03
             125.28,22.03 126.88,22.32 126.88,22.32
             126.75,22.79 126.52,23.21 126.19,23.56
             125.86,23.91 125.45,24.19 124.95,24.39
             124.45,24.58 123.88,24.68 123.25,24.68 Z
           M 52.00,8.00
           C 52.00,8.00 52.00,48.00 52.00,48.00
             52.00,48.00 12.00,48.00 12.00,48.00
             12.00,48.00 12.00,8.00 12.00,8.00
             12.00,8.00 52.00,8.00 52.00,8.00 Z
           M 134.00,0.00
           C 138.42,-0.00 142.00,3.58 142.00,8.00
             142.00,8.00 142.00,48.00 142.00,48.00
             142.00,52.42 138.42,56.00 134.00,56.00
             134.00,56.00 8.00,56.00 8.00,56.00
             3.58,56.00 0.00,52.42 0.00,48.00
             0.00,48.00 0.00,8.00 0.00,8.00
             0.00,3.58 3.58,0.00 8.00,0.00
             8.00,0.00 134.00,0.00 134.00,0.00 Z" />
</g>
<rect x="1.05" y="1.05" width="139.9" height="53.9" rx="6.95" stroke="white" stroke-opacity="0.15" stroke-width="2.1"/>
<defs>
<pattern id="pattern0" patternContentUnits="objectBoundingBox" width="1" height="1">
<use xlink:href="#image0_1_50" transform="scale(0.00222222)"/>
</pattern>
<filter id="filter0_d_1_50" x="54.4" y="3.9" width="81.2" height="48.6773" filterUnits="userSpaceOnUse" color-interpolation-filters="sRGB">
<feFlood flood-opacity="0" result="BackgroundImageFix"/>
<feColorMatrix in="SourceAlpha" type="matrix" values="0 0 0 0 0 0 0 0 0 0 0 0 0 0 0 0 0 0 127 0" result="hardAlpha"/>
<feOffset/>
<feGaussianBlur stdDeviation="2.8"/>
<feComposite in2="hardAlpha" operator="out"/>
<feColorMatrix type="matrix" values="0 0 0 0 0 0 0 0 0 0 0 0 0 0 0 0 0 0 0.25 0"/>
<feBlend mode="normal" in2="BackgroundImageFix" result="effect1_dropShadow_1_50"/>
<feBlend mode="normal" in="SourceGraphic" in2="effect1_dropShadow_1_50" result="shape"/>
</filter>
<linearGradient id="paint0_linear_1_50" x1="71" y1="56" x2="71" y2="8.5" gradientUnits="userSpaceOnUse">
<stop stop-color="#001010"/>
<stop offset="1" stop-color="#008A8A"/>
</linearGradient>
<linearGradient id="paint1_linear_1_50" x1="60" y1="28" x2="130" y2="46" gradientUnits="userSpaceOnUse">
<stop stop-color="#28D194"/>
<stop offset="1" stop-color="#289C9C"/>
</linearGradient>
</defs>
</svg>
