<svg width="153" height="56" viewBox="0 0 153 56" fill="none" xmlns="http://www.w3.org/2000/svg">
<rect width="153" height="56" rx="8" fill="url(#paint0_linear_1_50)"/>
<g clip-path="url(#clip0_1_50)">
<path d="M45.08 10.7267C44.9033 10.7 44.7 10.905 44.54 11.3883C44.2783 12.1717 42.7517 16.7267 35.3667 18.5983C36.36 19.4517 36.9933 20.6683 36.9933 22.03C36.9933 24.6083 34.7533 26.6967 31.9933 26.6967C29.235 26.6967 26.9983 24.6067 26.9967 22.03C26.9967 21.025 27.3433 20.1 27.9217 19.3367C22.6967 18.8 20.4383 14.1317 20.4383 14.1317L20.2783 21.07C20.2367 22.01 20.2633 22.9217 19.8283 23.7967C19.8009 23.7564 19.7731 23.7164 19.745 23.6767C19.132 22.8236 18.3606 22.1119 17.5202 21.624C16.6798 21.1361 15.8048 20.892 14.9967 20.92C14.3601 20.942 13.7833 21.1322 13.3083 21.4767C12.4615 22.0895 11.9908 23.1527 11.9998 24.4327C12.0089 25.7126 12.497 27.1043 13.3567 28.3017C14.0687 29.2926 14.9915 30.089 15.9828 30.5679C16.9741 31.0469 17.9787 31.1817 18.8417 30.9517C23.8367 34.6517 32.9783 37.865 39.2267 34.0933L35.8517 31.3783C34.0783 31.9533 31.5117 31.945 28.5233 30.8867C33.3567 31.8567 35.9733 30.7983 37.4133 29.6833C37.0333 29.19 36.23 28.8067 36.23 28.8067C36.23 28.8067 37.1683 28.985 37.78 29.6333C38.025 29.8917 38.11 30.2783 38.1433 30.7217C39.065 31.2183 40.115 31.815 41.2683 32.4917C44.7017 29.0583 46.69 22.6033 45.4683 11.4633C45.41 11.015 45.2567 10.755 45.08 10.7267ZM23.425 19.8267C25.1767 19.825 26.5967 21.1517 26.5967 22.7883C26.5967 24.4217 25.175 25.7483 23.425 25.7467C21.675 25.7467 20.2583 24.4217 20.2583 22.7883C20.2583 21.1533 21.675 19.8267 23.425 19.825V19.8267ZM33.0517 20.63C32.7617 20.6298 32.4745 20.6867 32.2064 20.7975C31.9384 20.9082 31.6949 21.0707 31.4896 21.2756C31.2844 21.4805 31.1216 21.7239 31.0104 21.9917C30.8992 22.2595 30.8419 22.5467 30.8417 22.8367C30.8414 23.1267 30.8983 23.4139 31.0091 23.6819C31.1199 23.9499 31.2824 24.1935 31.4873 24.3987C31.6922 24.6039 31.9355 24.7667 32.2034 24.8779C32.4712 24.9891 32.7583 25.0464 33.0483 25.0467C33.634 25.0471 34.1959 24.8149 34.6103 24.401C35.0248 23.9872 35.2579 23.4257 35.2583 22.84C35.2588 22.2543 35.0265 21.6924 34.6127 21.278C34.1989 20.8635 33.6373 20.6304 33.0517 20.63ZM14.815 21.695C14.8161 21.695 14.8172 21.695 14.8183 21.695C14.83 21.6949 14.8417 21.6949 14.8533 21.695C15.0647 21.6948 15.2741 21.7356 15.4695 21.815C15.6648 21.8944 15.8423 22.0109 15.9917 22.1579C16.1411 22.3048 16.2595 22.4793 16.3402 22.6713C16.4208 22.8632 16.4621 23.069 16.4617 23.2767C16.4617 23.4841 16.4201 23.6894 16.3392 23.881C16.2584 24.0726 16.1399 24.2467 15.9905 24.3933C15.8411 24.5399 15.6638 24.6561 15.4687 24.7353C15.2736 24.8145 15.0645 24.8552 14.8533 24.855C14.4278 24.8541 14.02 24.6875 13.7194 24.3916C13.4188 24.0957 13.25 23.6947 13.25 23.2767C13.2485 22.8639 13.4117 22.467 13.7046 22.1711C13.9974 21.8751 14.3966 21.7036 14.8167 21.6933L14.815 21.695ZM24.08 21.9C23.8961 21.9022 23.7145 21.9406 23.5455 22.0129C23.3765 22.0853 23.2234 22.1903 23.0949 22.3218C22.9665 22.4534 22.8652 22.6089 22.7969 22.7796C22.7285 22.9503 22.6945 23.1328 22.6967 23.3167C22.6989 23.5005 22.7372 23.6821 22.8096 23.8512C22.882 24.0202 22.987 24.1733 23.1185 24.3017C23.25 24.4302 23.4056 24.5315 23.5763 24.5998C23.747 24.6681 23.9295 24.7022 24.1133 24.7C24.4846 24.6956 24.839 24.5438 25.0984 24.2782C25.3578 24.0125 25.5011 23.6546 25.4967 23.2833C25.4922 22.912 25.3405 22.5577 25.0748 22.2983C24.8092 22.0388 24.4513 21.8956 24.08 21.9ZM37.8467 30.1733C37.775 30.2617 37.675 30.3383 37.5867 30.4183L37.9367 30.61C37.9083 30.4433 37.8817 30.26 37.8467 30.1733ZM36.93 30.34L35.7083 30.9417L35.8083 31.025L36.1383 31.2867L39.4617 33.9633L39.4867 33.9833C40.5583 34.8402 41.6429 35.6809 42.74 36.505C42.7273 36.5748 42.7228 36.6458 42.7267 36.7167L43.16 36.65L43.3317 36.9033L47.1933 39.3567C46.9933 40.04 47.085 40.945 47.5383 41.785C48.855 44.2267 52 45.275 52 45.275C50.715 41.995 51.6517 39.3267 49.1167 38.3867C48.7133 38.2367 48.3617 38.2317 48.0683 38.3317L44.6567 35.1733L44.3667 35.0867L44.325 34.65C44.2558 34.6774 44.1889 34.7103 44.125 34.7483C43.615 34.315 42.98 33.8533 42.3083 33.39C40.035 31.9983 38.5467 31.2233 36.9283 30.34H36.93Z" fill="#968D77"/>
</g>
<g filter="url(#filter0_d_1_50)">
<path d="M61.2784 12.8636H63.4091L67.1136 21.9091H67.25L70.9545 12.8636H73.0852V24.5H71.4148V16.0795H71.3068L67.875 24.483H66.4886L63.0568 16.0739H62.9489V24.5H61.2784V12.8636ZM78.0412 24.6932C77.4882 24.6932 76.9882 24.5909 76.5412 24.3864C76.0942 24.178 75.74 23.8769 75.4787 23.483C75.2211 23.089 75.0923 22.6061 75.0923 22.0341C75.0923 21.5417 75.187 21.1364 75.3764 20.8182C75.5658 20.5 75.8215 20.2481 76.1435 20.0625C76.4654 19.8769 76.8253 19.7367 77.223 19.642C77.6207 19.5473 78.026 19.4754 78.4389 19.4261C78.9616 19.3655 79.3859 19.3163 79.7116 19.2784C80.0374 19.2367 80.2741 19.1705 80.4219 19.0795C80.5696 18.9886 80.6435 18.8409 80.6435 18.6364V18.5966C80.6435 18.1004 80.5033 17.7159 80.223 17.4432C79.9465 17.1705 79.5336 17.0341 78.9844 17.0341C78.4124 17.0341 77.9616 17.161 77.6321 17.4148C77.3063 17.6648 77.081 17.9432 76.956 18.25L75.3594 17.8864C75.5488 17.3561 75.8253 16.928 76.1889 16.6023C76.5563 16.2727 76.9787 16.0341 77.456 15.8864C77.9332 15.7348 78.4351 15.6591 78.9616 15.6591C79.3101 15.6591 79.6794 15.7008 80.0696 15.7841C80.4635 15.8636 80.831 16.0114 81.1719 16.2273C81.5166 16.4432 81.7988 16.7519 82.0185 17.1534C82.2381 17.5511 82.348 18.0682 82.348 18.7045V24.5H80.6889V23.3068H80.6207C80.5109 23.5265 80.3461 23.7424 80.1264 23.9545C79.9067 24.1667 79.6245 24.3428 79.2798 24.483C78.9351 24.6231 78.5222 24.6932 78.0412 24.6932ZM78.4105 23.3295C78.8802 23.3295 79.2817 23.2367 79.615 23.0511C79.9522 22.8655 80.2078 22.6231 80.3821 22.3239C80.5601 22.0208 80.6491 21.697 80.6491 21.3523V20.2273C80.5885 20.2879 80.4711 20.3447 80.2969 20.3977C80.1264 20.447 79.9313 20.4905 79.7116 20.5284C79.4919 20.5625 79.2779 20.5947 79.0696 20.625C78.8613 20.6515 78.687 20.6742 78.5469 20.6932C78.2173 20.7348 77.9162 20.8049 77.6435 20.9034C77.3745 21.0019 77.1586 21.1439 76.9957 21.3295C76.8366 21.5114 76.7571 21.7538 76.7571 22.0568C76.7571 22.4773 76.9124 22.7955 77.223 23.0114C77.5336 23.2235 77.9294 23.3295 78.4105 23.3295ZM87.8778 24.6705C87.1733 24.6705 86.5445 24.4905 85.9915 24.1307C85.4422 23.767 85.0104 23.25 84.696 22.5795C84.3854 21.9053 84.2301 21.0966 84.2301 20.1534C84.2301 19.2102 84.3873 18.4034 84.7017 17.733C85.0199 17.0625 85.4555 16.5492 86.0085 16.1932C86.5615 15.8371 87.1884 15.6591 87.8892 15.6591C88.4309 15.6591 88.8665 15.75 89.196 15.9318C89.5293 16.1098 89.7869 16.3182 89.9687 16.5568C90.1543 16.7955 90.2983 17.0057 90.4006 17.1875H90.5028V12.8636H92.2017V24.5H90.5426V23.142H90.4006C90.2983 23.3277 90.1506 23.5398 89.9574 23.7784C89.768 24.017 89.5066 24.2254 89.1733 24.4034C88.8399 24.5814 88.4081 24.6705 87.8778 24.6705ZM88.2528 23.2216C88.7415 23.2216 89.1543 23.0928 89.4915 22.8352C89.8324 22.5739 90.0899 22.2121 90.2642 21.75C90.4422 21.2879 90.5312 20.75 90.5312 20.1364C90.5312 19.5303 90.4441 19 90.2699 18.5455C90.0956 18.0909 89.8399 17.7367 89.5028 17.483C89.1657 17.2292 88.749 17.1023 88.2528 17.1023C87.7415 17.1023 87.3153 17.2348 86.9744 17.5C86.6335 17.7652 86.3759 18.1269 86.2017 18.5852C86.0312 19.0436 85.946 19.5606 85.946 20.1364C85.946 20.7197 86.0331 21.2443 86.2074 21.7102C86.3816 22.1761 86.6392 22.5455 86.9801 22.8182C87.3248 23.0871 87.749 23.2216 88.2528 23.2216ZM98.3878 24.6761C97.5279 24.6761 96.7874 24.4924 96.1662 24.125C95.5488 23.7538 95.0715 23.233 94.7344 22.5625C94.401 21.8883 94.2344 21.0985 94.2344 20.1932C94.2344 19.2992 94.401 18.5114 94.7344 17.8295C95.0715 17.1477 95.5412 16.6155 96.1434 16.233C96.7495 15.8504 97.4578 15.6591 98.2684 15.6591C98.7609 15.6591 99.2381 15.7405 99.7003 15.9034C100.162 16.0663 100.577 16.322 100.945 16.6705C101.312 17.0189 101.602 17.4716 101.814 18.0284C102.026 18.5814 102.132 19.2538 102.132 20.0455V20.6477H95.1946V19.375H100.467C100.467 18.928 100.376 18.5322 100.195 18.1875C100.013 17.839 99.7571 17.5644 99.4275 17.3636C99.1018 17.1629 98.7192 17.0625 98.2798 17.0625C97.8025 17.0625 97.3859 17.1799 97.0298 17.4148C96.6775 17.6458 96.4048 17.9489 96.2116 18.3239C96.0222 18.6951 95.9275 19.0985 95.9275 19.5341V20.5284C95.9275 21.1117 96.0298 21.608 96.2344 22.017C96.4427 22.4261 96.7325 22.7386 97.1037 22.9545C97.4749 23.1667 97.9086 23.2727 98.4048 23.2727C98.7268 23.2727 99.0203 23.2273 99.2855 23.1364C99.5506 23.0417 99.7798 22.9015 99.973 22.7159C100.166 22.5303 100.314 22.3011 100.416 22.0284L102.024 22.3182C101.895 22.7917 101.664 23.2064 101.331 23.5625C101.001 23.9148 100.587 24.1894 100.087 24.3864C99.5904 24.5795 99.0241 24.6761 98.3878 24.6761ZM110.143 24.5L107.575 15.7727H109.331L111.041 22.1818H111.126L112.842 15.7727H114.598L116.303 22.1534H116.388L118.087 15.7727H119.842L117.28 24.5H115.547L113.774 18.1989H113.643L111.871 24.5H110.143ZM121.455 24.5V15.7727H123.153V24.5H121.455ZM122.312 14.4261C122.017 14.4261 121.763 14.3277 121.551 14.1307C121.343 13.9299 121.239 13.6913 121.239 13.4148C121.239 13.1345 121.343 12.8958 121.551 12.6989C121.763 12.4981 122.017 12.3977 122.312 12.3977C122.608 12.3977 122.86 12.4981 123.068 12.6989C123.28 12.8958 123.386 13.1345 123.386 13.4148C123.386 13.6913 123.28 13.9299 123.068 14.1307C122.86 14.3277 122.608 14.4261 122.312 14.4261ZM129.513 15.7727V17.1364H124.746V15.7727H129.513ZM126.024 13.6818H127.723V21.9375C127.723 22.267 127.772 22.5152 127.871 22.6818C127.969 22.8447 128.096 22.9564 128.251 23.017C128.41 23.0739 128.583 23.1023 128.768 23.1023C128.905 23.1023 129.024 23.0928 129.126 23.0739C129.229 23.0549 129.308 23.0398 129.365 23.0284L129.672 24.4318C129.573 24.4697 129.433 24.5076 129.251 24.5455C129.07 24.5871 128.842 24.6098 128.57 24.6136C128.123 24.6212 127.706 24.5417 127.32 24.375C126.933 24.2083 126.621 23.9508 126.382 23.6023C126.143 23.2538 126.024 22.8163 126.024 22.2898V13.6818ZM133.278 19.3182V24.5H131.58V12.8636H133.256V17.1932H133.364C133.568 16.7235 133.881 16.3504 134.301 16.0739C134.722 15.7973 135.271 15.6591 135.949 15.6591C136.547 15.6591 137.07 15.7822 137.517 16.0284C137.968 16.2746 138.316 16.642 138.562 17.1307C138.812 17.6155 138.937 18.2216 138.937 18.9489V24.5H137.239V19.1534C137.239 18.5133 137.074 18.017 136.744 17.6648C136.415 17.3087 135.956 17.1307 135.369 17.1307C134.968 17.1307 134.608 17.2159 134.29 17.3864C133.975 17.5568 133.727 17.8068 133.545 18.1364C133.367 18.4621 133.278 18.8561 133.278 19.3182Z" fill="#E8E8E8"/>
<path d="M69.0494 35.1751C68.9809 34.9215 68.8803 34.6981 68.7475 34.505C68.6147 34.3078 68.4517 34.1407 68.2585 34.0039C68.0653 33.8671 67.844 33.7644 67.5945 33.696C67.3449 33.6236 67.0713 33.5874 66.7734 33.5874C66.1738 33.5874 65.6546 33.7322 65.2159 34.022C64.7812 34.3118 64.4452 34.7344 64.2077 35.2898C63.9703 35.8411 63.8516 36.5112 63.8516 37.3001C63.8516 38.0929 63.9663 38.7691 64.1957 39.3285C64.4251 39.8879 64.7571 40.3145 65.1918 40.6083C65.6264 40.9021 66.1536 41.049 66.7734 41.049C67.3208 41.049 67.7836 40.9605 68.1619 40.7834C68.5443 40.6023 68.834 40.3467 69.0312 40.0167C69.2284 39.6867 69.327 39.2983 69.327 38.8516L69.8824 38.918H66.8761V36.7386H72.2067V38.3746C72.2067 39.4814 71.9712 40.4292 71.5003 41.218C71.0335 42.0069 70.3895 42.6126 69.5685 43.0352C68.7515 43.4577 67.8118 43.669 66.7493 43.669C65.5701 43.669 64.5337 43.4135 63.6403 42.9023C62.7468 42.3912 62.0505 41.6628 61.5515 40.717C61.0524 39.7672 60.8029 38.6403 60.8029 37.3363C60.8029 36.3221 60.9538 35.4226 61.2557 34.6378C61.5575 33.849 61.9781 33.1809 62.5174 32.6335C63.0607 32.0862 63.6886 31.6716 64.4009 31.3899C65.1173 31.1082 65.888 30.9673 66.7131 30.9673C67.4294 30.9673 68.0955 31.07 68.7113 31.2752C69.3311 31.4805 69.8784 31.7702 70.3533 32.1445C70.8323 32.5188 71.2206 32.9635 71.5185 33.4787C71.8163 33.9938 72.0014 34.5593 72.0739 35.1751H69.0494ZM76.9562 31.1364V43.5H73.9679V31.1364H76.9562ZM78.8322 31.1364H82.5328L85.672 38.7912H85.8169L88.9561 31.1364H92.6568V43.5H89.747V35.9055H89.6443L86.6742 43.4215H84.8148L81.8446 35.8633H81.742V43.5H78.8322V31.1364ZM94.5207 43.5V31.1364H99.6279C100.554 31.1364 101.352 31.3175 102.025 31.6797C102.701 32.0379 103.222 32.5389 103.588 33.1829C103.954 33.8228 104.137 34.5673 104.137 35.4165C104.137 36.2698 103.95 37.0163 103.576 37.6562C103.206 38.2921 102.677 38.7852 101.988 39.1353C101.3 39.4854 100.483 39.6605 99.5374 39.6605H96.3861V37.3061H98.982C99.4327 37.3061 99.809 37.2276 100.111 37.0707C100.417 36.9137 100.648 36.6944 100.805 36.4126C100.962 36.1269 101.041 35.7949 101.041 35.4165C101.041 35.0342 100.962 34.7042 100.805 34.4265C100.648 34.1448 100.417 33.9274 100.111 33.7745C99.805 33.6216 99.4287 33.5451 98.982 33.5451H97.5089V43.5H94.5207Z" fill="#9D9682"/>
</g>
<rect x="1.05" y="1.05" width="150.9" height="53.9" rx="6.95" stroke="white" stroke-opacity="0.15" stroke-width="2.1"/>
<defs>
<filter id="filter0_d_1_50" x="54.4" y="3.9" width="92.2" height="48.2" filterUnits="userSpaceOnUse" color-interpolation-filters="sRGB">
<feFlood flood-opacity="0" result="BackgroundImageFix"/>
<feColorMatrix in="SourceAlpha" type="matrix" values="0 0 0 0 0 0 0 0 0 0 0 0 0 0 0 0 0 0 127 0" result="hardAlpha"/>
<feOffset/>
<feGaussianBlur stdDeviation="2.8"/>
<feComposite in2="hardAlpha" operator="out"/>
<feColorMatrix type="matrix" values="0 0 0 0 0 0 0 0 0 0 0 0 0 0 0 0 0 0 0.25 0"/>
<feBlend mode="normal" in2="BackgroundImageFix" result="effect1_dropShadow_1_50"/>
<feBlend mode="normal" in="SourceGraphic" in2="effect1_dropShadow_1_50" result="shape"/>
</filter>
<linearGradient id="paint0_linear_1_50" x1="76.5" y1="0" x2="76.5" y2="56" gradientUnits="userSpaceOnUse">
<stop stop-color="#5C5543"/>
<stop offset="1" stop-color="#2E2A1F"/>
</linearGradient>
<clipPath id="clip0_1_50">
<rect width="40" height="40" fill="white" transform="translate(12 8)"/>
</clipPath>
</defs>
</svg>
