<svg width="56" height="56" viewBox="0 0 56 56" fill="none" xmlns="http://www.w3.org/2000/svg">
<rect width="56" height="56" fill="#1E1E1E"/>
<rect width="56" height="56" rx="8" fill="url(#paint0_linear_0_1)"/>
<rect x="1.05" y="1.05" width="53.9" height="53.9" rx="6.95" stroke="white" stroke-opacity="0.15" stroke-width="2.1"/>
<g clip-path="url(#clip0_0_1)">
<path d="M45.3233 18C45.045 17.5166 44.66 17.095 44.2367 16.85L29.5433 8.36665C28.695 7.87665 27.31 7.87665 26.4633 8.36665L11.7667 16.85C10.92 17.3383 10.2283 18.5383 10.2283 19.5166V36.4833C10.2283 36.9733 10.4017 37.5166 10.68 38C10.9583 38.4833 11.3433 38.905 11.7667 39.15L26.46 47.6333C27.3067 48.1216 28.6933 48.1216 29.54 47.6333L44.2333 39.15C44.6567 38.905 45.0417 38.4833 45.32 38C45.5983 37.5166 45.77 36.9733 45.77 36.4833V19.5166C45.775 19.0266 45.6033 18.4833 45.3233 18ZM28 39.85C21.4667 39.85 16.1517 34.5333 16.1517 28C16.1517 21.4666 21.4683 16.15 28.0017 16.15C30.0803 16.1539 32.1215 16.7028 33.9218 17.7418C35.7221 18.7809 37.2184 20.2738 38.2617 22.0716L33.135 25.0383C32.6138 24.1379 31.8654 23.39 30.9646 22.8694C30.0637 22.3488 29.0421 22.0737 28.0017 22.0716C26.4298 22.073 24.9227 22.698 23.8112 23.8095C22.6997 24.921 22.0747 26.4281 22.0733 28C22.0755 29.571 22.7007 31.077 23.8117 32.1877C24.9228 33.2985 26.429 33.9232 28 33.925C29.04 33.9227 30.0612 33.648 30.9619 33.128C31.8626 32.6081 32.6113 31.8611 33.1333 30.9616L38.2633 33.9283C37.2196 35.7264 35.7226 37.2195 33.9217 38.2585C32.1209 39.2975 30.0791 39.8463 28 39.85ZM39.85 28.6583H38.5333V29.975H37.2167V28.6583H35.9V27.3416H37.2167V26.025H38.5333V27.3416H39.85V28.6583ZM44.7867 28.6583H43.47V29.975H42.1533V28.6583H40.8367V27.3416H42.1533V26.025H43.47V27.3416H44.7867V28.6583Z" fill="#00599C"/>
</g>
<defs>
<linearGradient id="paint0_linear_0_1" x1="28" y1="0" x2="28" y2="56" gradientUnits="userSpaceOnUse">
<stop stop-color="#113C5C"/>
<stop offset="1" stop-color="#020D15"/>
</linearGradient>
<clipPath id="clip0_0_1">
<rect width="40" height="40" fill="white" transform="translate(8 8)"/>
</clipPath>
</defs>
</svg>
