<svg width="56" height="56" viewBox="0 0 56 56" fill="none" xmlns="http://www.w3.org/2000/svg">
<rect width="56" height="56" rx="8" fill="url(#paint0_linear_1301_13)"/>
<rect x="1.05" y="1.05" width="53.9" height="53.9" rx="6.95" stroke="white" stroke-opacity="0.15" stroke-width="2.1"/>
<g clip-path="url(#clip0_1301_13)">
<g clip-path="url(#clip1_1301_13)">
<g clip-path="url(#clip2_1301_13)">
<g clip-path="url(#clip3_1301_13)">
<g clip-path="url(#clip4_1301_13)">
<g clip-path="url(#clip5_1301_13)">
<g clip-path="url(#clip6_1301_13)">
<g clip-path="url(#clip7_1301_13)">
<g clip-path="url(#clip8_1301_13)">
<path d="M35.6535 23.327C35.6535 23.327 35.0635 17.8303 29.6085 17.677C24.1517 17.527 21.3498 21.8003 21.3498 27.9103C21.3498 34.0188 24.4465 38.9057 29.7583 38.9057C35.065 38.9057 35.6552 32.7973 35.6552 32.7973L45.8287 33.4057C45.8287 33.4057 46.4287 38.9223 42.1687 43.1323C37.9153 47.3392 32.6852 48.0275 29.0417 47.9992C25.3917 47.9708 20.3315 48.0558 15.4413 43.0492C10.5447 38.0323 9.71467 33.1655 9.71467 28.3822C9.71467 23.5987 10.6413 17.2652 16.4597 12.4652C20.4067 9.2 24.415 8 28.4233 8C45.1603 8 46.2853 23.4337 46.2853 23.4337L35.6535 23.327Z" fill="#A8B9CC"/>
</g>
</g>
</g>
</g>
</g>
</g>
</g>
</g>
</g>
<defs>
<linearGradient id="paint0_linear_1301_13" x1="28" y1="0" x2="28" y2="56" gradientUnits="userSpaceOnUse">
<stop stop-color="#558AC5"/>
<stop offset="1" stop-color="#031D39"/>
</linearGradient>
<clipPath id="clip0_1301_13">
<rect width="40" height="40" fill="white" transform="translate(8 8)"/>
</clipPath>
<clipPath id="clip1_1301_13">
<rect width="40" height="40" fill="white" transform="translate(8 8)"/>
</clipPath>
<clipPath id="clip2_1301_13">
<rect width="40" height="40" fill="white" transform="translate(8 8)"/>
</clipPath>
<clipPath id="clip3_1301_13">
<rect width="40" height="40" fill="white" transform="translate(8 8)"/>
</clipPath>
<clipPath id="clip4_1301_13">
<rect width="40" height="40" fill="white" transform="translate(8 8)"/>
</clipPath>
<clipPath id="clip5_1301_13">
<rect width="40" height="40" fill="white" transform="translate(8 8)"/>
</clipPath>
<clipPath id="clip6_1301_13">
<rect width="40" height="40" fill="white" transform="translate(8 8)"/>
</clipPath>
<clipPath id="clip7_1301_13">
<rect width="40" height="40" fill="white" transform="translate(8 8)"/>
</clipPath>
<clipPath id="clip8_1301_13">
<rect width="40" height="40" fill="white" transform="translate(8 8)"/>
</clipPath>
</defs>
</svg>
