<svg width="56" height="56" viewBox="0 0 56 56" fill="none" xmlns="http://www.w3.org/2000/svg">
<rect width="56" height="56" rx="8" fill="url(#paint0_linear_1301_13)"/>
<rect x="1.05" y="1.05" width="53.9" height="53.9" rx="6.95" stroke="white" stroke-opacity="0.15" stroke-width="2.1"/>
<g clip-path="url(#clip0_1301_13)">
<g clip-path="url(#clip1_1301_13)">
<g clip-path="url(#clip2_1301_13)">
<g clip-path="url(#clip3_1301_13)">
<g clip-path="url(#clip4_1301_13)">
<g clip-path="url(#clip5_1301_13)">
<g clip-path="url(#clip6_1301_13)">
<g clip-path="url(#clip7_1301_13)">
<g clip-path="url(#clip8_1301_13)">
<path d="M24.2256 29.2656C24.2256 29.2656 23.1392 29.8928 24.9984 30.1056C27.2496 30.3632 28.4032 30.3296 30.8784 29.8592C30.8784 29.8592 31.528 30.2736 32.4464 30.6208C26.88 33.0064 19.8576 30.4864 24.2256 29.2656Z" fill="#0074BD"/>
<path d="M23.5424 26.152C23.5424 26.152 22.3216 27.0592 24.1808 27.2496C26.5888 27.496 28.4816 27.5184 31.7744 26.88C31.7744 26.88 32.2336 27.3392 32.9392 27.5968C26.2304 29.5568 18.7376 27.7424 23.5424 26.152Z" fill="#0074BD"/>
<path d="M29.2768 20.8656C30.6432 22.4448 28.9184 23.8672 28.9184 23.8672C28.9184 23.8672 32.4016 22.0752 30.8 19.824C29.3104 17.7296 28.1568 16.688 34.3616 13.0928C34.3616 13.0816 24.6288 15.512 29.2768 20.8656Z" fill="#EA2D2E"/>
<path d="M36.6352 31.5616C36.6352 31.5616 37.4416 32.2224 35.7504 32.7376C32.536 33.712 22.3776 34.0032 19.5664 32.7712C18.5584 32.3344 20.4512 31.7184 21.056 31.584C21.6832 31.4496 22.0304 31.472 22.0304 31.472C20.8992 30.6768 14.7392 33.0288 18.9056 33.712C30.24 35.56 39.5808 32.8944 36.6352 31.5616Z" fill="#0074BD"/>
<path d="M24.752 22.9264C24.752 22.9264 19.5888 24.1584 22.9264 24.5952C24.3376 24.7856 27.1376 24.7408 29.7584 24.5168C31.8976 24.3376 34.048 23.9568 34.048 23.9568C34.048 23.9568 33.2976 24.2816 32.7488 24.6512C27.5072 26.0288 17.3712 25.3904 20.2832 23.9792C22.7472 22.792 24.752 22.9264 24.752 22.9264Z" fill="#0074BD"/>
<path d="M34.0144 28.1008C39.3456 25.3344 36.8816 22.6688 35.1568 23.0272C34.7312 23.1168 34.552 23.1952 34.552 23.1952C34.552 23.1952 34.7088 22.9488 35.0112 22.848C38.416 21.6496 41.0368 26.376 33.9136 28.2464C33.9136 28.2464 33.992 28.168 34.0144 28.1008Z" fill="#0074BD"/>
<path d="M30.8 7.28C30.8 7.28 33.7568 10.2368 28 14.7728C23.3856 18.4128 26.9472 20.496 28 22.8704C25.3008 20.44 23.3296 18.3008 24.6512 16.3072C26.6 13.3952 31.9872 11.9728 30.8 7.28Z" fill="#EA2D2E"/>
<path d="M25.2672 35.616C30.3856 35.9408 38.248 35.4368 38.4384 33.0064C38.4384 33.0064 38.08 33.9248 34.2048 34.6528C29.8368 35.4704 24.4496 35.3808 21.2464 34.8544C21.2576 34.8544 21.9072 35.4032 25.2672 35.616Z" fill="#0074BD"/>
<path d="M38.2032 39.9616H38.0464V39.872H38.4608V39.9616H38.304V40.3984H38.192L38.2032 39.9616ZM39.0432 39.984L38.8864 40.3984H38.8192L38.6624 39.984V40.3984H38.5616V39.872H38.7072L38.8528 40.2416L38.9984 39.872H39.144V40.3984H39.0432V39.984Z" fill="#EA2D2E"/>
<path d="M24.4384 44.8672C23.9568 45.2816 23.4416 45.5168 22.9824 45.5168C22.3328 45.5168 21.9744 45.1248 21.9744 44.4976C21.9744 43.8144 22.3552 43.3216 23.8672 43.3216H24.4272V44.8672H24.4384ZM25.7712 46.368V41.72C25.7712 40.5328 25.088 39.7488 23.464 39.7488C22.512 39.7488 21.672 39.984 20.9888 40.2864L21.1792 41.1152C21.7168 40.9136 22.4112 40.7344 23.0832 40.7344C24.024 40.7344 24.4272 41.1152 24.4272 41.8992V42.4928H23.968C21.6832 42.4928 20.6528 43.3776 20.6528 44.7104C20.6528 45.864 21.336 46.5136 22.6128 46.5136C23.4304 46.5136 24.0464 46.1776 24.6288 45.6736L24.7296 46.3792H25.7712V46.368Z" fill="#EA2D2E"/>
<path d="M30.2176 46.368H28.56L26.5552 39.8608H28.0112L29.2544 43.8592L29.5344 45.0576C30.1616 43.3216 30.6096 41.552 30.8224 39.8608H32.2336C31.8416 42.0112 31.1696 44.3632 30.2176 46.368Z" fill="#EA2D2E"/>
<path d="M36.5904 44.8672C36.1088 45.2816 35.5936 45.5168 35.1344 45.5168C34.4848 45.5168 34.1264 45.1248 34.1264 44.4976C34.1264 43.8144 34.5072 43.3216 36.0192 43.3216H36.5792L36.5904 44.8672ZM37.9232 46.368V41.72C37.9232 40.5328 37.24 39.7488 35.6048 39.7488C34.6528 39.7488 33.8128 39.984 33.1296 40.2864L33.32 41.1152C33.8576 40.9136 34.552 40.7344 35.224 40.7344C36.1648 40.7344 36.568 41.1152 36.568 41.8992V42.4928H36.0976C33.8128 42.4928 32.7824 43.3776 32.7824 44.7104C32.7824 45.864 33.4656 46.5136 34.7424 46.5136C35.5712 46.5136 36.176 46.1776 36.7584 45.6736L36.8592 46.3792H37.9232V46.368Z" fill="#EA2D2E"/>
<path d="M19.1856 47.4768C18.8048 48.0368 18.1888 48.4736 17.5168 48.72L16.856 47.9472C17.3712 47.6896 17.808 47.264 18.0096 46.872C18.1888 46.5248 18.256 46.0656 18.256 44.9904V37.5648H19.6672V44.8896C19.6784 46.3232 19.5664 46.9056 19.1856 47.4768Z" fill="#EA2D2E"/>
</g>
</g>
</g>
</g>
</g>
</g>
</g>
</g>
</g>
<defs>
<linearGradient id="paint0_linear_1301_13" x1="28" y1="0" x2="28" y2="56" gradientUnits="userSpaceOnUse">
<stop stop-color="#34669D"/>
<stop offset="1" stop-color="#021122"/>
</linearGradient>
<clipPath id="clip0_1301_13">
<rect width="56" height="56" fill="white"/>
</clipPath>
<clipPath id="clip1_1301_13">
<rect width="56" height="56" fill="white"/>
</clipPath>
<clipPath id="clip2_1301_13">
<rect width="56" height="56" fill="white"/>
</clipPath>
<clipPath id="clip3_1301_13">
<rect width="56" height="56" fill="white"/>
</clipPath>
<clipPath id="clip4_1301_13">
<rect width="56" height="56" fill="white"/>
</clipPath>
<clipPath id="clip5_1301_13">
<rect width="56" height="56" fill="white"/>
</clipPath>
<clipPath id="clip6_1301_13">
<rect width="56" height="56" fill="white"/>
</clipPath>
<clipPath id="clip7_1301_13">
<rect width="56" height="56" fill="white"/>
</clipPath>
<clipPath id="clip8_1301_13">
<rect width="56" height="56" fill="white"/>
</clipPath>
</defs>
</svg>
