<svg width="56" height="56" viewBox="0 0 56 56" fill="none" xmlns="http://www.w3.org/2000/svg">
<rect width="56" height="56" fill="#1E1E1E"/>
<rect width="56" height="56" rx="8" fill="url(#paint0_linear_0_1)"/>
<rect x="1.05" y="1.05" width="53.9" height="53.9" rx="6.95" stroke="white" stroke-opacity="0.15" stroke-width="2.1"/>
<g clip-path="url(#clip0_0_1)">
<path d="M8 8H48V48H8V8ZM44.7233 38.46C44.4317 36.635 43.2433 35.1017 39.7183 33.6717C38.4917 33.0967 37.1283 32.6967 36.7233 31.7717C36.5717 31.2217 36.5483 30.9217 36.6467 30.5967C36.8967 29.52 38.1717 29.1967 39.1717 29.4967C39.8217 29.6967 40.4217 30.1967 40.7983 30.9967C42.5217 29.87 42.5217 29.87 43.7233 29.1217C43.2733 28.4217 43.05 28.12 42.7467 27.8217C41.6967 26.6467 40.2983 26.0467 38.0233 26.0983L36.8483 26.2467C35.7217 26.5217 34.6483 27.1217 33.9983 27.9217C32.0983 30.0733 32.6467 33.8233 34.9467 35.3733C37.2217 37.0733 40.5483 37.4467 40.9733 39.0483C41.3733 40.9983 39.5233 41.6233 37.6967 41.3983C36.345 41.0983 35.5967 40.4217 34.7717 39.1717L31.7217 40.9233C32.0717 41.7233 32.4717 42.0717 33.0717 42.7717C35.9717 45.6983 43.2217 45.5483 44.5233 41.0983C44.5717 40.9483 44.9233 39.9233 44.6467 38.3483L44.7233 38.46ZM29.7517 26.385H26.005C26.005 29.615 25.99 32.825 25.99 36.06C25.99 38.1133 26.095 39.9983 25.76 40.5783C25.21 41.7267 23.7933 41.58 23.15 41.3783C22.49 41.0517 22.155 40.6017 21.7667 39.9533C21.6617 39.7783 21.5833 39.6267 21.555 39.6267L18.5133 41.5017C19.0217 42.5517 19.7633 43.455 20.72 44.03C22.145 44.88 24.06 45.155 26.065 44.705C27.37 44.3283 28.495 43.5533 29.0833 42.3533C29.9333 40.8033 29.7533 38.9033 29.745 36.7767C29.765 33.3533 29.745 29.9283 29.745 26.4783L29.7517 26.385Z" fill="black"/>
</g>
<defs>
<linearGradient id="paint0_linear_0_1" x1="28" y1="0" x2="28" y2="56" gradientUnits="userSpaceOnUse">
<stop stop-color="#FCE211"/>
<stop offset="1" stop-color="#807206"/>
</linearGradient>
<clipPath id="clip0_0_1">
<rect width="40" height="40" fill="white" transform="translate(8 8)"/>
</clipPath>
</defs>
</svg>
