<svg width="56" height="56" viewBox="0 0 56 56" fill="none" xmlns="http://www.w3.org/2000/svg">
<rect width="56" height="56" rx="8" fill="url(#paint0_linear_1301_13)"/>
<rect x="1.05" y="1.05" width="53.9" height="53.9" rx="6.95" stroke="white" stroke-opacity="0.15" stroke-width="2.1"/>
<path d="M7 7H49V49H7V7ZM45.5595 38.983C45.2533 37.0667 44.0055 35.4567 40.3043 33.9552C39.0163 33.3515 37.5847 32.9315 37.1595 31.9602C37.0002 31.3827 36.9757 31.0677 37.079 30.7265C37.3415 29.596 38.6802 29.2565 39.7302 29.5715C40.4127 29.7815 41.0428 30.3065 41.4383 31.1465C43.2478 29.9635 43.2477 29.9635 44.5095 29.1778C44.037 28.4428 43.8025 28.126 43.484 27.8127C42.3815 26.579 40.9132 25.949 38.5245 26.0033L37.2908 26.159C36.1078 26.4477 34.9807 27.0778 34.2982 27.9178C32.3032 30.177 32.879 34.1145 35.294 35.742C37.6827 37.527 41.1758 37.919 41.622 39.6007C42.042 41.6482 40.0995 42.3045 38.1815 42.0682C36.7623 41.7532 35.9765 41.0427 35.1102 39.7302L31.9077 41.5695C32.2752 42.4095 32.6953 42.7753 33.3253 43.5103C36.3703 46.5833 43.9827 46.4257 45.3495 41.7532C45.4002 41.5957 45.7695 40.5195 45.479 38.8657L45.5595 38.983ZM29.8392 26.3043H25.9053C25.9053 29.6958 25.8895 33.0663 25.8895 36.463C25.8895 38.619 25.9998 40.5983 25.648 41.2073C25.0705 42.413 23.583 42.259 22.9075 42.0473C22.2145 41.7043 21.8628 41.2318 21.455 40.551C21.3448 40.3673 21.2625 40.208 21.2328 40.208L18.039 42.1767C18.5728 43.2792 19.3515 44.2278 20.356 44.8315C21.8522 45.724 23.863 46.0128 25.9682 45.5403C27.3385 45.1448 28.5197 44.331 29.1375 43.071C30.03 41.4435 29.841 39.4485 29.8322 37.2155C29.8532 33.621 29.8322 30.0247 29.8322 26.4022L29.8392 26.3043Z" fill="black"/>
<defs>
<linearGradient id="paint0_linear_1301_13" x1="28" y1="0" x2="28" y2="56" gradientUnits="userSpaceOnUse">
<stop stop-color="#FCE211"/>
<stop offset="1" stop-color="#807206"/>
</linearGradient>
</defs>
</svg>
