<svg width="114" height="56" viewBox="0 0 114 56" fill="none" xmlns="http://www.w3.org/2000/svg">
<rect width="114" height="56" rx="8" fill="url(#paint0_linear_1402_2)"/>
<rect x="1.05" y="1.05" width="111.9" height="53.9" rx="6.95" stroke="white" stroke-opacity="0.15" stroke-width="2.1"/>
<g clip-path="url(#clip0_1402_2)">
<g clip-path="url(#clip1_1402_2)">
<g clip-path="url(#clip2_1402_2)">
<g clip-path="url(#clip3_1402_2)">
<g clip-path="url(#clip4_1402_2)">
<path d="M32 9.43833C20.9 9.43833 12 18.4183 12 29.6333C12 31.2933 12.0633 31.9233 12.41 33.5167L18.5133 38.0333L19.4633 45.5583H29.6333L30.1767 45.9367C30.805 46.3733 31.3517 46.5617 31.98 46.5617C32.5667 46.5617 33.2 46.3933 33.6867 46.04L34.3367 45.5583H44.4933L45.4317 38.0333L51.59 33.5167C51.9367 31.9233 52 31.2933 52 29.6333C52 18.42 43.1017 9.43833 32 9.43833ZM33.66 13.2017C35.16 13.2017 36.6233 13.575 37.8467 14.2833L33.7383 35.1967L39.4383 15.0933C41.2033 15.6933 42.5433 16.6617 43.6183 18.1167L43.66 18.1733L35.49 35.865L44.7767 19.6767L44.8317 19.7267C46.095 20.9067 46.91 22.3383 47.3183 24.14L36.9933 36.9167L47.72 26.0833L47.7367 26.1183C48.1583 27.0567 48.4317 28.385 48.4317 29.445C48.4317 30.2933 48.3917 30.6317 48.1583 31.5283L42.235 35.865L41.4567 42.0483H33.9983L33.1367 42.7067C32.805 42.97 32.3333 43.15 32 43.15C31.6683 43.15 31.195 42.97 30.8633 42.7067L30.0017 42.05H22.5367L21.795 36.0333L15.75 31.59C15.5667 30.8633 15.4833 30.2067 15.4833 29.4883C15.4833 28.2883 15.7483 27.005 16.1933 26.0667L16.215 26.0267L26.965 36.945L16.5833 24.035C17 22.2633 18.04 20.5517 19.3167 19.5133L28.5533 35.8067L20.2983 18.1667C21.2233 16.81 22.715 15.7417 24.5417 15.1217L30.2483 35.2367L25.925 14.36L26.0167 14.31C27.3733 13.56 28.68 13.215 30.1117 13.215C30.4367 13.215 30.5883 13.2217 30.9917 13.265L31.97 35.015L32.7367 13.25C33.11 13.2083 33.2517 13.2017 33.66 13.2017Z" fill="#FFD500"/>
</g>
</g>
</g>
</g>
</g>
<g filter="url(#filter0_d_1402_2)">
<path d="M67.6186 25.343C67.5784 24.9003 67.3993 24.5562 67.0813 24.3107C66.7674 24.0612 66.3187 23.9364 65.7351 23.9364C65.3487 23.9364 65.0268 23.9867 64.7692 24.0874C64.5116 24.188 64.3184 24.3268 64.1896 24.5039C64.0608 24.677 63.9944 24.8762 63.9904 25.1016C63.9824 25.2867 64.0186 25.4497 64.0991 25.5905C64.1836 25.7314 64.3043 25.8562 64.4613 25.9648C64.6223 26.0695 64.8155 26.162 65.0408 26.2425C65.2662 26.323 65.5198 26.3935 65.8015 26.4538L66.864 26.6953C67.4757 26.8281 68.015 27.0052 68.4819 27.2266C68.9528 27.4479 69.3472 27.7115 69.6651 28.0174C69.9871 28.3233 70.2306 28.6754 70.3956 29.0739C70.5606 29.4723 70.6451 29.919 70.6491 30.4141C70.6451 31.1948 70.4479 31.8649 70.0575 32.4244C69.6671 32.9838 69.1057 33.4124 68.3732 33.7102C67.6448 34.008 66.7654 34.157 65.7351 34.157C64.7008 34.157 63.7992 34.002 63.0305 33.6921C62.2618 33.3822 61.6642 32.9113 61.2376 32.2795C60.811 31.6476 60.5916 30.8487 60.5795 29.8828H63.4411C63.4652 30.2812 63.5719 30.6133 63.761 30.8789C63.9502 31.1445 64.2098 31.3458 64.5398 31.4826C64.8738 31.6194 65.2602 31.6878 65.6989 31.6878C66.1013 31.6878 66.4434 31.6335 66.7251 31.5249C67.0109 31.4162 67.2302 31.2653 67.3832 31.0721C67.5361 30.8789 67.6146 30.6575 67.6186 30.408C67.6146 30.1746 67.5421 29.9754 67.4013 29.8104C67.2604 29.6413 67.0431 29.4964 66.7493 29.3757C66.4595 29.2509 66.0893 29.1362 65.6385 29.0316L64.3466 28.7298C63.276 28.4843 62.4329 28.0878 61.8171 27.5405C61.2013 26.9891 60.8955 26.2446 60.8995 25.3068C60.8955 24.5421 61.1007 23.872 61.5153 23.2965C61.9298 22.721 62.5033 22.2723 63.2358 21.9503C63.9683 21.6283 64.8034 21.4673 65.7411 21.4673C66.699 21.4673 67.5301 21.6303 68.2344 21.9563C68.9427 22.2783 69.4921 22.7311 69.8825 23.3146C70.2728 23.8982 70.4721 24.5743 70.4801 25.343H67.6186ZM75.1104 28.7116V34H72.1584V21.6364H75.0138V26.4297H75.1165C75.3258 25.8582 75.6678 25.4115 76.1428 25.0895C76.6217 24.7675 77.2073 24.6065 77.8995 24.6065C78.5515 24.6065 79.119 24.7514 79.6019 25.0412C80.0849 25.3269 80.4592 25.7314 80.7248 26.2546C80.9944 26.7778 81.1272 27.3896 81.1232 28.0898V34H78.1712V28.6694C78.1752 28.1542 78.0464 27.7518 77.7848 27.462C77.5232 27.1722 77.1549 27.0273 76.68 27.0273C76.3701 27.0273 76.0965 27.0958 75.859 27.2326C75.6256 27.3654 75.4425 27.5566 75.3097 27.8061C75.1809 28.0556 75.1145 28.3575 75.1104 28.7116ZM87.3005 34.1751C86.3306 34.1751 85.4935 33.9839 84.7891 33.6016C84.0889 33.2152 83.5496 32.6658 83.1712 31.9535C82.797 31.2371 82.6098 30.3859 82.6098 29.3999C82.6098 28.442 82.799 27.6049 83.1773 26.8885C83.5556 26.1681 84.0889 25.6087 84.7771 25.2102C85.4653 24.8078 86.2762 24.6065 87.21 24.6065C87.87 24.6065 88.4737 24.7092 89.021 24.9144C89.5684 25.1197 90.0413 25.4235 90.4397 25.826C90.8381 26.2285 91.148 26.7255 91.3694 27.3171C91.5908 27.9047 91.7014 28.5788 91.7014 29.3395V30.076H83.6421V28.3615H88.9546C88.9506 28.0476 88.8761 27.7679 88.7313 27.5224C88.5864 27.2769 88.3872 27.0857 88.1336 26.9489C87.8841 26.808 87.5963 26.7376 87.2703 26.7376C86.9403 26.7376 86.6445 26.812 86.3829 26.9609C86.1213 27.1058 85.914 27.305 85.7611 27.5586C85.6082 27.8081 85.5277 28.0919 85.5196 28.4098V30.1545C85.5196 30.5328 85.5941 30.8648 85.743 31.1506C85.8919 31.4323 86.1032 31.6516 86.3769 31.8086C86.6505 31.9655 86.9765 32.044 87.3548 32.044C87.6164 32.044 87.8539 32.0078 88.0672 31.9354C88.2805 31.8629 88.4636 31.7563 88.6166 31.6154C88.7695 31.4745 88.8842 31.3015 88.9607 31.0962L91.6712 31.1747C91.5586 31.7824 91.311 32.3117 90.9287 32.7624C90.5504 33.2092 90.0533 33.5573 89.4376 33.8068C88.8218 34.0523 88.1095 34.1751 87.3005 34.1751ZM96.1612 21.6364V34H93.2092V21.6364H96.1612ZM100.992 21.6364V34H98.0402V21.6364H100.992Z" fill="#FFD500"/>
</g>
<defs>
<filter id="filter0_d_1402_2" x="54.4" y="13.4" width="53.2" height="29.2" filterUnits="userSpaceOnUse" color-interpolation-filters="sRGB">
<feFlood flood-opacity="0" result="BackgroundImageFix"/>
<feColorMatrix in="SourceAlpha" type="matrix" values="0 0 0 0 0 0 0 0 0 0 0 0 0 0 0 0 0 0 127 0" result="hardAlpha"/>
<feOffset/>
<feGaussianBlur stdDeviation="2.8"/>
<feComposite in2="hardAlpha" operator="out"/>
<feColorMatrix type="matrix" values="0 0 0 0 0 0 0 0 0 0 0 0 0 0 0 0 0 0 0.25 0"/>
<feBlend mode="normal" in2="BackgroundImageFix" result="effect1_dropShadow_1402_2"/>
<feBlend mode="normal" in="SourceGraphic" in2="effect1_dropShadow_1402_2" result="shape"/>
</filter>
<linearGradient id="paint0_linear_1402_2" x1="57" y1="0" x2="57" y2="56" gradientUnits="userSpaceOnUse">
<stop stop-color="#B79900"/>
<stop offset="1" stop-color="#413600"/>
</linearGradient>
<clipPath id="clip0_1402_2">
<rect width="40" height="40" fill="white" transform="translate(12 8)"/>
</clipPath>
<clipPath id="clip1_1402_2">
<rect width="40" height="40" fill="white" transform="translate(12 8)"/>
</clipPath>
<clipPath id="clip2_1402_2">
<rect width="40" height="40" fill="white" transform="translate(12 8)"/>
</clipPath>
<clipPath id="clip3_1402_2">
<rect width="40" height="40" fill="white" transform="translate(12 8)"/>
</clipPath>
<clipPath id="clip4_1402_2">
<rect width="40" height="40" fill="white" transform="translate(12 8)"/>
</clipPath>
</defs>
</svg>
