<svg width="270" height="56" viewBox="0 0 270 56" fill="none" xmlns="http://www.w3.org/2000/svg">
<rect width="270" height="56" rx="8" fill="url(#paint0_linear_1_50)"/>
<rect x="1.05" y="1.05" width="267.9" height="53.9" rx="6.95" stroke="white" stroke-opacity="0.15" stroke-width="2.1"/>
<g clip-path="url(#clip0_1_50)">
<g clip-path="url(#clip1_1_50)">
<g clip-path="url(#clip2_1_50)">
<g clip-path="url(#clip3_1_50)">
<path d="M15.69 16.2567V38.9483L24.7583 48V25.19L17.52 14.4083L15.69 16.2567ZM24.0217 46.2233L16.4267 38.6433V16.56L17.41 15.5667L24.0217 25.4133V46.2233ZM48.31 38.795L46.8733 40.3567L39.8067 29.73V8L48.2533 16.4867L48.31 38.795ZM24.385 8.00167L46.0483 41.06L39.9867 47.1217L18.3117 14.1383L24.3833 8L24.385 8.00167Z" fill="#B2FFDA"/>
</g>
</g>
</g>
</g>
<g filter="url(#filter0_d_1_50)">
<path d="M65.5057 34H60.9357V21.6364H65.4996C66.7593 21.6364 67.844 21.8839 68.7535 22.3789C69.6671 22.8699 70.3714 23.5782 70.8665 24.5039C71.3615 25.4255 71.609 26.5283 71.609 27.8121C71.609 29.1 71.3615 30.2068 70.8665 31.1325C70.3755 32.0581 69.6732 32.7685 68.7596 33.2635C67.846 33.7545 66.7614 34 65.5057 34ZM63.924 31.4524H65.391C66.0832 31.4524 66.6688 31.3357 67.1477 31.1023C67.6307 30.8648 67.9949 30.4805 68.2404 29.9492C68.4899 29.4139 68.6147 28.7016 68.6147 27.8121C68.6147 26.9227 68.4899 26.2144 68.2404 25.6871C67.9909 25.1559 67.6226 24.7736 67.1356 24.5401C66.6527 24.3027 66.057 24.1839 65.3487 24.1839H63.924V31.4524ZM77.6882 34.1751C76.7183 34.1751 75.8811 33.9839 75.1768 33.6016C74.4766 33.2152 73.9373 32.6658 73.5589 31.9535C73.1846 31.2371 72.9975 30.3859 72.9975 29.3999C72.9975 28.442 73.1867 27.6049 73.565 26.8885C73.9433 26.1681 74.4766 25.6087 75.1648 25.2102C75.853 24.8078 76.6639 24.6065 77.5976 24.6065C78.2577 24.6065 78.8614 24.7092 79.4087 24.9144C79.9561 25.1197 80.429 25.4235 80.8274 25.826C81.2258 26.2285 81.5357 26.7255 81.7571 27.3171C81.9784 27.9047 82.0891 28.5788 82.0891 29.3395V30.076H74.0298V28.3615H79.3423C79.3383 28.0476 79.2638 27.7679 79.119 27.5224C78.9741 27.2769 78.7748 27.0857 78.5213 26.9489C78.2718 26.808 77.984 26.7376 77.658 26.7376C77.328 26.7376 77.0322 26.812 76.7706 26.9609C76.509 27.1058 76.3017 27.305 76.1488 27.5586C75.9958 27.8081 75.9154 28.0919 75.9073 28.4098V30.1545C75.9073 30.5328 75.9818 30.8648 76.1307 31.1506C76.2796 31.4323 76.4909 31.6516 76.7645 31.8086C77.0382 31.9655 77.3642 32.044 77.7425 32.044C78.0041 32.044 78.2416 32.0078 78.4549 31.9354C78.6682 31.8629 78.8513 31.7563 79.0042 31.6154C79.1572 31.4745 79.2719 31.3015 79.3484 31.0962L82.0589 31.1747C81.9462 31.7824 81.6987 32.3117 81.3164 32.7624C80.9381 33.2092 80.441 33.5573 79.8253 33.8068C79.2095 34.0523 78.4971 34.1751 77.6882 34.1751ZM92.3428 24.7273L89.1614 34H85.7807L82.6053 24.7273H85.7143L87.4227 31.1143H87.5193L89.2338 24.7273H92.3428ZM97.5105 34.1751C96.5405 34.1751 95.7034 33.9839 94.9991 33.6016C94.2988 33.2152 93.7595 32.6658 93.3812 31.9535C93.0069 31.2371 92.8198 30.3859 92.8198 29.3999C92.8198 28.442 93.0089 27.6049 93.3872 26.8885C93.7655 26.1681 94.2988 25.6087 94.987 25.2102C95.6752 24.8078 96.4862 24.6065 97.4199 24.6065C98.0799 24.6065 98.6836 24.7092 99.231 24.9144C99.7783 25.1197 100.251 25.4235 100.65 25.826C101.048 26.2285 101.358 26.7255 101.579 27.3171C101.801 27.9047 101.911 28.5788 101.911 29.3395V30.076H93.8521V28.3615H99.1646C99.1606 28.0476 99.0861 27.7679 98.9412 27.5224C98.7963 27.2769 98.5971 27.0857 98.3436 26.9489C98.094 26.808 97.8063 26.7376 97.4803 26.7376C97.1503 26.7376 96.8544 26.812 96.5928 26.9609C96.3312 27.1058 96.124 27.305 95.971 27.5586C95.8181 27.8081 95.7376 28.0919 95.7296 28.4098V30.1545C95.7296 30.5328 95.804 30.8648 95.9529 31.1506C96.1018 31.4323 96.3131 31.6516 96.5868 31.8086C96.8605 31.9655 97.1865 32.044 97.5648 32.044C97.8264 32.044 98.0638 32.0078 98.2771 31.9354C98.4905 31.8629 98.6736 31.7563 98.8265 31.6154C98.9794 31.4745 99.0941 31.3015 99.1706 31.0962L101.881 31.1747C101.769 31.7824 101.521 32.3117 101.139 32.7624C100.76 33.2092 100.263 33.5573 99.6475 33.8068C99.0318 34.0523 98.3194 34.1751 97.5105 34.1751ZM106.371 21.6364V34H103.419V21.6364H106.371ZM112.579 34.1751C111.605 34.1751 110.768 33.9758 110.067 33.5774C109.371 33.1749 108.834 32.6155 108.455 31.8991C108.081 31.1787 107.894 30.3436 107.894 29.3938C107.894 28.44 108.081 27.6049 108.455 26.8885C108.834 26.1681 109.371 25.6087 110.067 25.2102C110.768 24.8078 111.605 24.6065 112.579 24.6065C113.553 24.6065 114.388 24.8078 115.084 25.2102C115.784 25.6087 116.322 26.1681 116.696 26.8885C117.074 27.6049 117.263 28.44 117.263 29.3938C117.263 30.3436 117.074 31.1787 116.696 31.8991C116.322 32.6155 115.784 33.1749 115.084 33.5774C114.388 33.9758 113.553 34.1751 112.579 34.1751ZM112.597 31.9474C112.951 31.9474 113.251 31.8388 113.496 31.6214C113.742 31.4041 113.929 31.1023 114.058 30.7159C114.19 30.3295 114.257 29.8828 114.257 29.3757C114.257 28.8606 114.19 28.4098 114.058 28.0234C113.929 27.6371 113.742 27.3352 113.496 27.1179C113.251 26.9006 112.951 26.7919 112.597 26.7919C112.231 26.7919 111.921 26.9006 111.667 27.1179C111.418 27.3352 111.226 27.6371 111.094 28.0234C110.965 28.4098 110.9 28.8606 110.9 29.3757C110.9 29.8828 110.965 30.3295 111.094 30.7159C111.226 31.1023 111.418 31.4041 111.667 31.6214C111.921 31.8388 112.231 31.9474 112.597 31.9474ZM118.776 37.4773V24.7273H121.697V26.315H121.788C121.909 26.0333 122.08 25.7616 122.301 25.5C122.526 25.2384 122.812 25.0251 123.158 24.8601C123.508 24.691 123.927 24.6065 124.414 24.6065C125.058 24.6065 125.66 24.7756 126.219 25.1136C126.783 25.4517 127.237 25.9729 127.583 26.6772C127.93 27.3815 128.103 28.279 128.103 29.3697C128.103 30.4201 127.936 31.2995 127.602 32.0078C127.272 32.7161 126.825 33.2474 126.261 33.6016C125.702 33.9557 125.08 34.1328 124.396 34.1328C123.929 34.1328 123.525 34.0563 123.183 33.9034C122.84 33.7505 122.553 33.5492 122.319 33.2997C122.09 33.0502 121.913 32.7825 121.788 32.4968H121.728V37.4773H118.776ZM121.667 29.3636C121.667 29.8627 121.734 30.2973 121.866 30.6676C122.003 31.0379 122.198 31.3256 122.452 31.5309C122.71 31.7321 123.017 31.8327 123.376 31.8327C123.738 31.8327 124.046 31.7321 124.299 31.5309C124.553 31.3256 124.744 31.0379 124.873 30.6676C125.006 30.2973 125.072 29.8627 125.072 29.3636C125.072 28.8646 125.006 28.4319 124.873 28.0657C124.744 27.6995 124.553 27.4157 124.299 27.2145C124.05 27.0133 123.742 26.9126 123.376 26.9126C123.013 26.9126 122.706 27.0112 122.452 27.2084C122.198 27.4057 122.003 27.6874 121.866 28.0536C121.734 28.4199 121.667 28.8565 121.667 29.3636ZM133.984 34.1751C133.014 34.1751 132.177 33.9839 131.473 33.6016C130.772 33.2152 130.233 32.6658 129.855 31.9535C129.481 31.2371 129.293 30.3859 129.293 29.3999C129.293 28.442 129.483 27.6049 129.861 26.8885C130.239 26.1681 130.772 25.6087 131.461 25.2102C132.149 24.8078 132.96 24.6065 133.894 24.6065C134.554 24.6065 135.157 24.7092 135.705 24.9144C136.252 25.1197 136.725 25.4235 137.123 25.826C137.522 26.2285 137.832 26.7255 138.053 27.3171C138.274 27.9047 138.385 28.5788 138.385 29.3395V30.076H130.326V28.3615H135.638C135.634 28.0476 135.56 27.7679 135.415 27.5224C135.27 27.2769 135.071 27.0857 134.817 26.9489C134.568 26.808 134.28 26.7376 133.954 26.7376C133.624 26.7376 133.328 26.812 133.066 26.9609C132.805 27.1058 132.598 27.305 132.445 27.5586C132.292 27.8081 132.211 28.0919 132.203 28.4098V30.1545C132.203 30.5328 132.278 30.8648 132.427 31.1506C132.575 31.4323 132.787 31.6516 133.06 31.8086C133.334 31.9655 133.66 32.044 134.038 32.044C134.3 32.044 134.537 32.0078 134.751 31.9354C134.964 31.8629 135.147 31.7563 135.3 31.6154C135.453 31.4745 135.568 31.3015 135.644 31.0962L138.355 31.1747C138.242 31.7824 137.995 32.3117 137.612 32.7624C137.234 33.2092 136.737 33.5573 136.121 33.8068C135.505 34.0523 134.793 34.1751 133.984 34.1751ZM143.279 34.1328C142.595 34.1328 141.973 33.9557 141.414 33.6016C140.855 33.2474 140.408 32.7161 140.074 32.0078C139.74 31.2995 139.573 30.4201 139.573 29.3697C139.573 28.279 139.746 27.3815 140.092 26.6772C140.438 25.9729 140.891 25.4517 141.45 25.1136C142.014 24.7756 142.619 24.6065 143.267 24.6065C143.754 24.6065 144.171 24.691 144.517 24.8601C144.863 25.0251 145.149 25.2384 145.374 25.5C145.6 25.7616 145.771 26.0333 145.887 26.315H145.948V21.6364H148.9V34H145.978V32.4968H145.887C145.763 32.7825 145.586 33.0502 145.356 33.2997C145.127 33.5492 144.839 33.7505 144.493 33.9034C144.151 34.0563 143.746 34.1328 143.279 34.1328ZM144.306 31.8327C144.664 31.8327 144.97 31.7321 145.223 31.5309C145.477 31.3256 145.672 31.0379 145.809 30.6676C145.946 30.2973 146.014 29.8627 146.014 29.3636C146.014 28.8565 145.946 28.4199 145.809 28.0536C145.676 27.6874 145.481 27.4057 145.223 27.2084C144.97 27.0112 144.664 26.9126 144.306 26.9126C143.939 26.9126 143.63 27.0133 143.376 27.2145C143.122 27.4157 142.929 27.6995 142.796 28.0657C142.668 28.4319 142.603 28.8646 142.603 29.3636C142.603 29.8627 142.67 30.2973 142.803 30.6676C142.935 31.0379 143.127 31.3256 143.376 31.5309C143.63 31.7321 143.939 31.8327 144.306 31.8327ZM156.152 34L153.737 24.7273H156.701L157.951 30.6676H158.029L159.369 24.7273H162.261L163.637 30.6253H163.716L164.929 24.7273H167.894L165.473 34H162.315L160.867 28.5969H160.764L159.315 34H156.152ZM169.078 34V24.7273H172.03V34H169.078ZM170.557 23.6467C170.143 23.6467 169.787 23.5098 169.489 23.2361C169.191 22.9584 169.042 22.6244 169.042 22.234C169.042 21.8477 169.191 21.5176 169.489 21.244C169.787 20.9663 170.143 20.8274 170.557 20.8274C170.976 20.8274 171.332 20.9663 171.626 21.244C171.924 21.5176 172.073 21.8477 172.073 22.234C172.073 22.6244 171.924 22.9584 171.626 23.2361C171.332 23.5098 170.976 23.6467 170.557 23.6467ZM179.143 24.7273V26.9006H173.294V24.7273H179.143ZM174.519 22.5057H177.471V31.0842C177.471 31.2653 177.499 31.4122 177.556 31.5249C177.616 31.6335 177.703 31.712 177.815 31.7603C177.928 31.8046 178.063 31.8267 178.22 31.8267C178.332 31.8267 178.451 31.8166 178.576 31.7965C178.705 31.7724 178.801 31.7522 178.866 31.7361L179.312 33.8672C179.172 33.9074 178.972 33.9577 178.715 34.0181C178.461 34.0785 178.157 34.1167 177.803 34.1328C177.111 34.165 176.517 34.0845 176.022 33.8913C175.531 33.6941 175.155 33.3883 174.893 32.9737C174.636 32.5592 174.511 32.038 174.519 31.4102V22.5057ZM183.801 28.7116V34H180.849V21.6364H183.704V26.4297H183.807C184.016 25.8582 184.358 25.4115 184.833 25.0895C185.312 24.7675 185.898 24.6065 186.59 24.6065C187.242 24.6065 187.809 24.7514 188.292 25.0412C188.775 25.3269 189.15 25.7314 189.415 26.2546C189.685 26.7778 189.818 27.3896 189.814 28.0898V34H186.862V28.6694C186.866 28.1542 186.737 27.7518 186.475 27.462C186.214 27.1722 185.845 27.0273 185.37 27.0273C185.061 27.0273 184.787 27.0958 184.549 27.2326C184.316 27.3654 184.133 27.5566 184 27.8061C183.871 28.0556 183.805 28.3575 183.801 28.7116ZM205.831 21.6364V34H203.296L198.375 26.8643H198.297V34H195.309V21.6364H197.88L202.746 28.7599H202.849V21.6364H205.831ZM212.045 34.1751C211.075 34.1751 210.238 33.9839 209.533 33.6016C208.833 33.2152 208.294 32.6658 207.915 31.9535C207.541 31.2371 207.354 30.3859 207.354 29.3999C207.354 28.442 207.543 27.6049 207.921 26.8885C208.3 26.1681 208.833 25.6087 209.521 25.2102C210.209 24.8078 211.02 24.6065 211.954 24.6065C212.614 24.6065 213.218 24.7092 213.765 24.9144C214.312 25.1197 214.785 25.4235 215.184 25.826C215.582 26.2285 215.892 26.7255 216.113 27.3171C216.335 27.9047 216.446 28.5788 216.446 29.3395V30.076H208.386V28.3615H213.699C213.695 28.0476 213.62 27.7679 213.475 27.5224C213.33 27.2769 213.131 27.0857 212.878 26.9489C212.628 26.808 212.34 26.7376 212.014 26.7376C211.684 26.7376 211.389 26.812 211.127 26.9609C210.865 27.1058 210.658 27.305 210.505 27.5586C210.352 27.8081 210.272 28.0919 210.264 28.4098V30.1545C210.264 30.5328 210.338 30.8648 210.487 31.1506C210.636 31.4323 210.847 31.6516 211.121 31.8086C211.395 31.9655 211.721 32.044 212.099 32.044C212.361 32.044 212.598 32.0078 212.811 31.9354C213.025 31.8629 213.208 31.7563 213.361 31.6154C213.514 31.4745 213.628 31.3015 213.705 31.0962L216.415 31.1747C216.303 31.7824 216.055 32.3117 215.673 32.7624C215.294 33.2092 214.797 33.5573 214.182 33.8068C213.566 34.0523 212.854 34.1751 212.045 34.1751ZM222.282 34.1751C221.308 34.1751 220.471 33.9758 219.77 33.5774C219.074 33.1749 218.537 32.6155 218.159 31.8991C217.784 31.1787 217.597 30.3436 217.597 29.3938C217.597 28.44 217.784 27.6049 218.159 26.8885C218.537 26.1681 219.074 25.6087 219.77 25.2102C220.471 24.8078 221.308 24.6065 222.282 24.6065C223.256 24.6065 224.091 24.8078 224.787 25.2102C225.487 25.6087 226.025 26.1681 226.399 26.8885C226.777 27.6049 226.966 28.44 226.966 29.3938C226.966 30.3436 226.777 31.1787 226.399 31.8991C226.025 32.6155 225.487 33.1749 224.787 33.5774C224.091 33.9758 223.256 34.1751 222.282 34.1751ZM222.3 31.9474C222.654 31.9474 222.954 31.8388 223.199 31.6214C223.445 31.4041 223.632 31.1023 223.761 30.7159C223.894 30.3295 223.96 29.8828 223.96 29.3757C223.96 28.8606 223.894 28.4098 223.761 28.0234C223.632 27.6371 223.445 27.3352 223.199 27.1179C222.954 26.9006 222.654 26.7919 222.3 26.7919C221.934 26.7919 221.624 26.9006 221.37 27.1179C221.121 27.3352 220.929 27.6371 220.797 28.0234C220.668 28.4098 220.603 28.8606 220.603 29.3757C220.603 29.8828 220.668 30.3295 220.797 30.7159C220.929 31.1023 221.121 31.4041 221.37 31.6214C221.624 31.8388 221.934 31.9474 222.3 31.9474ZM237.175 24.7273L233.993 34H230.613L227.437 24.7273H230.546L232.255 31.1143H232.351L234.066 24.7273H237.175ZM238.307 34V24.7273H241.259V34H238.307ZM239.786 23.6467C239.371 23.6467 239.015 23.5098 238.717 23.2361C238.419 22.9584 238.271 22.6244 238.271 22.234C238.271 21.8477 238.419 21.5176 238.717 21.244C239.015 20.9663 239.371 20.8274 239.786 20.8274C240.204 20.8274 240.561 20.9663 240.854 21.244C241.152 21.5176 241.301 21.8477 241.301 22.234C241.301 22.6244 241.152 22.9584 240.854 23.2361C240.561 23.5098 240.204 23.6467 239.786 23.6467ZM243.138 34V24.7273H245.945V26.4297H246.048C246.241 25.8662 246.567 25.4215 247.026 25.0955C247.484 24.7695 248.032 24.6065 248.668 24.6065C249.312 24.6065 249.863 24.7715 250.322 25.1016C250.781 25.4316 251.072 25.8743 251.197 26.4297H251.294C251.467 25.8783 251.805 25.4376 252.308 25.1076C252.811 24.7736 253.405 24.6065 254.089 24.6065C254.966 24.6065 255.679 24.8883 256.226 25.4517C256.773 26.0111 257.047 26.7798 257.047 27.7578V34H254.095V28.4339C254.095 27.9711 253.976 27.619 253.739 27.3775C253.501 27.132 253.193 27.0092 252.815 27.0092C252.409 27.0092 252.089 27.142 251.855 27.4077C251.626 27.6693 251.511 28.0214 251.511 28.4641V34H248.674V28.4038C248.674 27.9731 248.557 27.633 248.324 27.3835C248.09 27.134 247.782 27.0092 247.4 27.0092C247.142 27.0092 246.915 27.0716 246.718 27.1964C246.521 27.3171 246.366 27.4902 246.253 27.7155C246.144 27.9409 246.09 28.2066 246.09 28.5124V34H243.138Z" fill="#B3FFDA"/>
</g>
<defs>
<filter id="filter0_d_1_50" x="54.4" y="13.4" width="209.2" height="29.6773" filterUnits="userSpaceOnUse" color-interpolation-filters="sRGB">
<feFlood flood-opacity="0" result="BackgroundImageFix"/>
<feColorMatrix in="SourceAlpha" type="matrix" values="0 0 0 0 0 0 0 0 0 0 0 0 0 0 0 0 0 0 127 0" result="hardAlpha"/>
<feOffset/>
<feGaussianBlur stdDeviation="2.8"/>
<feComposite in2="hardAlpha" operator="out"/>
<feColorMatrix type="matrix" values="0 0 0 0 0 0 0 0 0 0 0 0 0 0 0 0 0 0 0.25 0"/>
<feBlend mode="normal" in2="BackgroundImageFix" result="effect1_dropShadow_1_50"/>
<feBlend mode="normal" in="SourceGraphic" in2="effect1_dropShadow_1_50" result="shape"/>
</filter>
<linearGradient id="paint0_linear_1_50" x1="135" y1="0" x2="135" y2="56" gradientUnits="userSpaceOnUse">
<stop stop-color="#009442"/>
<stop offset="1" stop-color="#16476D"/>
</linearGradient>
<clipPath id="clip0_1_50">
<rect width="40" height="40" fill="white" transform="translate(12 8)"/>
</clipPath>
<clipPath id="clip1_1_50">
<rect width="40" height="40" fill="white" transform="translate(12 8)"/>
</clipPath>
<clipPath id="clip2_1_50">
<rect width="40" height="40" fill="white" transform="translate(12 8)"/>
</clipPath>
<clipPath id="clip3_1_50">
<rect width="40" height="40" fill="white" transform="translate(12 8)"/>
</clipPath>
</defs>
</svg>
